M48
;DRILL file {KiCad 4.0.4-stable} date 01/17/18 19:17:26
;FORMAT={3:3/ absolute / metric / suppress trailing zeros}
FMAT,2
METRIC,LZ
T1C0.400
T2C0.762
T3C0.800
T4C0.813
T5C1.000
T6C1.100
T7C1.200
T8C2.000
T9C2.500
T10C3.200
%
G90
G05
M71
T1
X072Y-0875
X07275Y-08825
X07325Y-078
X0754Y-0852
X0754Y-0886
X07575Y-10425
X07625Y-08025
X07725Y-10425
X07825Y-10825
X0788Y-0852
X0852Y-1086
X086Y-0965
X086Y-0995
X0904Y-0938
X0924Y-0722
X09425Y-07825
X095Y-0726
X095Y-0736
X09525Y-07875
X0957Y-10675
X096Y-0726
X096Y-0736
X0966Y-1068
X1008Y-1072
X1012Y-1104
X1018Y-0954
X10225Y-0795
X10375Y-0726
X104Y-08125
X107Y-108
X11175Y-0945
X117Y-089
T2
X0725Y-10419
X0725Y-10673
X0725Y-10927
X0725Y-11181
T3
X081Y-098
X081Y-10054
X081Y-10308
X081Y-10562
X08862Y-098
X08862Y-10054
X08862Y-10308
X08862Y-10562
T4
X07649Y-07638
X07649Y-09162
X07903Y-07638
X07903Y-09162
X08157Y-07638
X08157Y-09162
X08411Y-07638
X08411Y-09162
X08665Y-07638
X08665Y-09162
X08919Y-07638
X08919Y-09162
X09173Y-07638
X09173Y-09162
X09427Y-07638
X09427Y-09162
X09681Y-07638
X09681Y-09162
X09935Y-07638
X09935Y-09162
X10189Y-07638
X10189Y-09162
X10443Y-07638
X10443Y-09162
X10697Y-07638
X10697Y-09162
X10951Y-07638
X10951Y-09162
X11205Y-07638
X11205Y-09162
T5
X08Y-072
X08254Y-072
X0861Y-128
X08864Y-128
X09118Y-128
X09245Y-102
X09372Y-128
X09626Y-128
X09745Y-102
X0988Y-128
X10134Y-128
X10388Y-128
X10746Y-072
X1081Y-127
X11Y-072
X1111Y-127
T6
X10825Y-0965
X10825Y-111
X11075Y-0965
X11325Y-0965
X11325Y-111
T7
X0786Y-1265
X08114Y-1265
T8
X073Y-09635
X073Y-11965
X0968Y-09635
X0968Y-11965
T9
X10455Y-104
X11695Y-104
T10
X073Y-073
X073Y-127
X117Y-073
X117Y-127
T0
M30
