G04 #@! TF.FileFunction,Legend,Bot*
%FSLAX46Y46*%
G04 Gerber Fmt 4.6, Leading zero omitted, Abs format (unit mm)*
G04 Created by KiCad (PCBNEW 4.0.4-stable) date 03/07/19 13:46:32*
%MOMM*%
%LPD*%
G01*
G04 APERTURE LIST*
%ADD10C,0.100000*%
%ADD11C,0.200000*%
%ADD12C,0.120000*%
%ADD13C,0.150000*%
G04 APERTURE END LIST*
D10*
X22250000Y56000000D02*
X22250000Y56750000D01*
X22000000Y17500000D02*
X22750000Y17500000D01*
X22500000Y43500000D02*
X22750000Y43500000D01*
X22000000Y30500000D02*
X22750000Y30500000D01*
X22000000Y43500000D02*
X22500000Y43500000D01*
X22000000Y16750000D02*
X21750000Y16750000D01*
X22000000Y17500000D02*
X22000000Y16750000D01*
X22000000Y18250000D02*
X22250000Y18250000D01*
X22000000Y17500000D02*
X22000000Y18250000D01*
X21250000Y16750000D02*
X21250000Y17500000D01*
X22000000Y17500000D02*
X21250000Y16750000D01*
X21250000Y18250000D02*
X22000000Y17500000D01*
X21250000Y17500000D02*
X21250000Y18250000D01*
X20250000Y17500000D02*
X21250000Y17500000D01*
X22000000Y29750000D02*
X21750000Y29750000D01*
X22000000Y30500000D02*
X22000000Y29750000D01*
X22000000Y31250000D02*
X22250000Y31250000D01*
X22000000Y30500000D02*
X22000000Y31250000D01*
X21250000Y29750000D02*
X21250000Y30500000D01*
X22000000Y30500000D02*
X21250000Y29750000D01*
X21250000Y31250000D02*
X22000000Y30500000D01*
X21250000Y30500000D02*
X21250000Y31250000D01*
X20250000Y30500000D02*
X21250000Y30500000D01*
X22000000Y42750000D02*
X21750000Y42750000D01*
X22000000Y43500000D02*
X22000000Y42750000D01*
X22000000Y44250000D02*
X22250000Y44250000D01*
X22000000Y43500000D02*
X22000000Y44250000D01*
X21250000Y42750000D02*
X21250000Y43500000D01*
X22000000Y43500000D02*
X21250000Y42750000D01*
X21250000Y44250000D02*
X22000000Y43500000D01*
X21250000Y43500000D02*
X21250000Y44250000D01*
X20250000Y43500000D02*
X21250000Y43500000D01*
D11*
X31738096Y6047619D02*
X31738096Y7047619D01*
X31404762Y6333333D01*
X31071429Y7047619D01*
X31071429Y6047619D01*
X30452382Y6047619D02*
X30547620Y6095238D01*
X30595239Y6142857D01*
X30642858Y6238095D01*
X30642858Y6523810D01*
X30595239Y6619048D01*
X30547620Y6666667D01*
X30452382Y6714286D01*
X30309524Y6714286D01*
X30214286Y6666667D01*
X30166667Y6619048D01*
X30119048Y6523810D01*
X30119048Y6238095D01*
X30166667Y6142857D01*
X30214286Y6095238D01*
X30309524Y6047619D01*
X30452382Y6047619D01*
X29738096Y6095238D02*
X29642858Y6047619D01*
X29452382Y6047619D01*
X29357143Y6095238D01*
X29309524Y6190476D01*
X29309524Y6238095D01*
X29357143Y6333333D01*
X29452382Y6380952D01*
X29595239Y6380952D01*
X29690477Y6428571D01*
X29738096Y6523810D01*
X29738096Y6571429D01*
X29690477Y6666667D01*
X29595239Y6714286D01*
X29452382Y6714286D01*
X29357143Y6666667D01*
X29023810Y6714286D02*
X28642858Y6714286D01*
X28880953Y6047619D02*
X28880953Y6904762D01*
X28833334Y7000000D01*
X28738096Y7047619D01*
X28642858Y7047619D01*
X27928571Y6095238D02*
X28023809Y6047619D01*
X28214286Y6047619D01*
X28309524Y6095238D01*
X28357143Y6190476D01*
X28357143Y6571429D01*
X28309524Y6666667D01*
X28214286Y6714286D01*
X28023809Y6714286D01*
X27928571Y6666667D01*
X27880952Y6571429D01*
X27880952Y6476190D01*
X28357143Y6380952D01*
X27595238Y6714286D02*
X27214286Y6714286D01*
X27452381Y7047619D02*
X27452381Y6190476D01*
X27404762Y6095238D01*
X27309524Y6047619D01*
X27214286Y6047619D01*
X25785713Y6571429D02*
X25642856Y6523810D01*
X25595237Y6476190D01*
X25547618Y6380952D01*
X25547618Y6238095D01*
X25595237Y6142857D01*
X25642856Y6095238D01*
X25738094Y6047619D01*
X26119047Y6047619D01*
X26119047Y7047619D01*
X25785713Y7047619D01*
X25690475Y7000000D01*
X25642856Y6952381D01*
X25595237Y6857143D01*
X25595237Y6761905D01*
X25642856Y6666667D01*
X25690475Y6619048D01*
X25785713Y6571429D01*
X26119047Y6571429D01*
X24976190Y6047619D02*
X25071428Y6095238D01*
X25119047Y6142857D01*
X25166666Y6238095D01*
X25166666Y6523810D01*
X25119047Y6619048D01*
X25071428Y6666667D01*
X24976190Y6714286D01*
X24833332Y6714286D01*
X24738094Y6666667D01*
X24690475Y6619048D01*
X24642856Y6523810D01*
X24642856Y6238095D01*
X24690475Y6142857D01*
X24738094Y6095238D01*
X24833332Y6047619D01*
X24976190Y6047619D01*
X23785713Y6047619D02*
X23785713Y6571429D01*
X23833332Y6666667D01*
X23928570Y6714286D01*
X24119047Y6714286D01*
X24214285Y6666667D01*
X23785713Y6095238D02*
X23880951Y6047619D01*
X24119047Y6047619D01*
X24214285Y6095238D01*
X24261904Y6190476D01*
X24261904Y6285714D01*
X24214285Y6380952D01*
X24119047Y6428571D01*
X23880951Y6428571D01*
X23785713Y6476190D01*
X23309523Y6047619D02*
X23309523Y6714286D01*
X23309523Y6523810D02*
X23261904Y6619048D01*
X23214285Y6666667D01*
X23119047Y6714286D01*
X23023808Y6714286D01*
X22261903Y6047619D02*
X22261903Y7047619D01*
X22261903Y6095238D02*
X22357141Y6047619D01*
X22547618Y6047619D01*
X22642856Y6095238D01*
X22690475Y6142857D01*
X22738094Y6238095D01*
X22738094Y6523810D01*
X22690475Y6619048D01*
X22642856Y6666667D01*
X22547618Y6714286D01*
X22357141Y6714286D01*
X22261903Y6666667D01*
X21166665Y7047619D02*
X20833332Y6047619D01*
X20499998Y7047619D01*
X20261903Y7047619D02*
X19642855Y7047619D01*
X19976189Y6666667D01*
X19833331Y6666667D01*
X19738093Y6619048D01*
X19690474Y6571429D01*
X19642855Y6476190D01*
X19642855Y6238095D01*
X19690474Y6142857D01*
X19738093Y6095238D01*
X19833331Y6047619D01*
X20119046Y6047619D01*
X20214284Y6095238D01*
X20261903Y6142857D01*
X19214284Y6142857D02*
X19166665Y6095238D01*
X19214284Y6047619D01*
X19261903Y6095238D01*
X19214284Y6142857D01*
X19214284Y6047619D01*
X18833332Y7047619D02*
X18214284Y7047619D01*
X18547618Y6666667D01*
X18404760Y6666667D01*
X18309522Y6619048D01*
X18261903Y6571429D01*
X18214284Y6476190D01*
X18214284Y6238095D01*
X18261903Y6142857D01*
X18309522Y6095238D01*
X18404760Y6047619D01*
X18690475Y6047619D01*
X18785713Y6095238D01*
X18833332Y6142857D01*
D10*
X23000000Y56000000D02*
X22750000Y56000000D01*
X23000000Y57500000D02*
X23250000Y57500000D01*
X23000000Y56750000D02*
X23750000Y56750000D01*
X23000000Y56750000D02*
X23000000Y56000000D01*
X23000000Y56750000D02*
X23000000Y57500000D01*
X23000000Y56750000D02*
X22250000Y56000000D01*
X22250000Y57500000D02*
X23000000Y56750000D01*
X22250000Y56750000D02*
X22250000Y57500000D01*
X21250000Y56750000D02*
X22250000Y56750000D01*
D11*
X34547619Y8964283D02*
X35547619Y8964283D01*
X34547619Y9392855D02*
X35071429Y9392855D01*
X35166667Y9345236D01*
X35214286Y9249998D01*
X35214286Y9107140D01*
X35166667Y9011902D01*
X35119048Y8964283D01*
X35214286Y9726188D02*
X35214286Y10107140D01*
X35547619Y9869045D02*
X34690476Y9869045D01*
X34595238Y9916664D01*
X34547619Y10011902D01*
X34547619Y10107140D01*
X35214286Y10297617D02*
X35214286Y10678569D01*
X35547619Y10440474D02*
X34690476Y10440474D01*
X34595238Y10488093D01*
X34547619Y10583331D01*
X34547619Y10678569D01*
X35214286Y11011903D02*
X34214286Y11011903D01*
X35166667Y11011903D02*
X35214286Y11107141D01*
X35214286Y11297618D01*
X35166667Y11392856D01*
X35119048Y11440475D01*
X35023810Y11488094D01*
X34738095Y11488094D01*
X34642857Y11440475D01*
X34595238Y11392856D01*
X34547619Y11297618D01*
X34547619Y11107141D01*
X34595238Y11011903D01*
X34595238Y11869046D02*
X34547619Y11964284D01*
X34547619Y12154760D01*
X34595238Y12249999D01*
X34690476Y12297618D01*
X34738095Y12297618D01*
X34833333Y12249999D01*
X34880952Y12154760D01*
X34880952Y12011903D01*
X34928571Y11916665D01*
X35023810Y11869046D01*
X35071429Y11869046D01*
X35166667Y11916665D01*
X35214286Y12011903D01*
X35214286Y12154760D01*
X35166667Y12249999D01*
X34642857Y12726189D02*
X34595238Y12773808D01*
X34547619Y12726189D01*
X34595238Y12678570D01*
X34642857Y12726189D01*
X34547619Y12726189D01*
X35166667Y12726189D02*
X35119048Y12773808D01*
X35071429Y12726189D01*
X35119048Y12678570D01*
X35166667Y12726189D01*
X35071429Y12726189D01*
X35595238Y13916665D02*
X34309524Y13059522D01*
X35595238Y14964284D02*
X34309524Y14107141D01*
X35214286Y15726189D02*
X34404762Y15726189D01*
X34309524Y15678570D01*
X34261905Y15630951D01*
X34214286Y15535712D01*
X34214286Y15392855D01*
X34261905Y15297617D01*
X34595238Y15726189D02*
X34547619Y15630951D01*
X34547619Y15440474D01*
X34595238Y15345236D01*
X34642857Y15297617D01*
X34738095Y15249998D01*
X35023810Y15249998D01*
X35119048Y15297617D01*
X35166667Y15345236D01*
X35214286Y15440474D01*
X35214286Y15630951D01*
X35166667Y15726189D01*
X34547619Y16202379D02*
X35214286Y16202379D01*
X35547619Y16202379D02*
X35500000Y16154760D01*
X35452381Y16202379D01*
X35500000Y16249998D01*
X35547619Y16202379D01*
X35452381Y16202379D01*
X35214286Y16535712D02*
X35214286Y16916664D01*
X35547619Y16678569D02*
X34690476Y16678569D01*
X34595238Y16726188D01*
X34547619Y16821426D01*
X34547619Y16916664D01*
X34547619Y17249998D02*
X35547619Y17249998D01*
X34547619Y17678570D02*
X35071429Y17678570D01*
X35166667Y17630951D01*
X35214286Y17535713D01*
X35214286Y17392855D01*
X35166667Y17297617D01*
X35119048Y17249998D01*
X35214286Y18583332D02*
X34547619Y18583332D01*
X35214286Y18154760D02*
X34690476Y18154760D01*
X34595238Y18202379D01*
X34547619Y18297617D01*
X34547619Y18440475D01*
X34595238Y18535713D01*
X34642857Y18583332D01*
X34547619Y19059522D02*
X35547619Y19059522D01*
X35166667Y19059522D02*
X35214286Y19154760D01*
X35214286Y19345237D01*
X35166667Y19440475D01*
X35119048Y19488094D01*
X35023810Y19535713D01*
X34738095Y19535713D01*
X34642857Y19488094D01*
X34595238Y19440475D01*
X34547619Y19345237D01*
X34547619Y19154760D01*
X34595238Y19059522D01*
X34642857Y19964284D02*
X34595238Y20011903D01*
X34547619Y19964284D01*
X34595238Y19916665D01*
X34642857Y19964284D01*
X34547619Y19964284D01*
X34595238Y20869046D02*
X34547619Y20773808D01*
X34547619Y20583331D01*
X34595238Y20488093D01*
X34642857Y20440474D01*
X34738095Y20392855D01*
X35023810Y20392855D01*
X35119048Y20440474D01*
X35166667Y20488093D01*
X35214286Y20583331D01*
X35214286Y20773808D01*
X35166667Y20869046D01*
X34547619Y21440474D02*
X34595238Y21345236D01*
X34642857Y21297617D01*
X34738095Y21249998D01*
X35023810Y21249998D01*
X35119048Y21297617D01*
X35166667Y21345236D01*
X35214286Y21440474D01*
X35214286Y21583332D01*
X35166667Y21678570D01*
X35119048Y21726189D01*
X35023810Y21773808D01*
X34738095Y21773808D01*
X34642857Y21726189D01*
X34595238Y21678570D01*
X34547619Y21583332D01*
X34547619Y21440474D01*
X34547619Y22202379D02*
X35214286Y22202379D01*
X35119048Y22202379D02*
X35166667Y22249998D01*
X35214286Y22345236D01*
X35214286Y22488094D01*
X35166667Y22583332D01*
X35071429Y22630951D01*
X34547619Y22630951D01*
X35071429Y22630951D02*
X35166667Y22678570D01*
X35214286Y22773808D01*
X35214286Y22916665D01*
X35166667Y23011903D01*
X35071429Y23059522D01*
X34547619Y23059522D01*
X35595238Y24249998D02*
X34309524Y23392855D01*
X34547619Y24583331D02*
X35547619Y24583331D01*
X34547619Y25154760D02*
X35119048Y24726188D01*
X35547619Y25154760D02*
X34976190Y24583331D01*
X34547619Y26011903D02*
X35071429Y26011903D01*
X35166667Y25964284D01*
X35214286Y25869046D01*
X35214286Y25678569D01*
X35166667Y25583331D01*
X34595238Y26011903D02*
X34547619Y25916665D01*
X34547619Y25678569D01*
X34595238Y25583331D01*
X34690476Y25535712D01*
X34785714Y25535712D01*
X34880952Y25583331D01*
X34928571Y25678569D01*
X34928571Y25916665D01*
X34976190Y26011903D01*
X34595238Y26869046D02*
X34547619Y26773808D01*
X34547619Y26583331D01*
X34595238Y26488093D01*
X34690476Y26440474D01*
X35071429Y26440474D01*
X35166667Y26488093D01*
X35214286Y26583331D01*
X35214286Y26773808D01*
X35166667Y26869046D01*
X35071429Y26916665D01*
X34976190Y26916665D01*
X34880952Y26440474D01*
X35214286Y27345236D02*
X34214286Y27345236D01*
X35166667Y27345236D02*
X35214286Y27440474D01*
X35214286Y27630951D01*
X35166667Y27726189D01*
X35119048Y27773808D01*
X35023810Y27821427D01*
X34738095Y27821427D01*
X34642857Y27773808D01*
X34595238Y27726189D01*
X34547619Y27630951D01*
X34547619Y27440474D01*
X34595238Y27345236D01*
X35214286Y28107141D02*
X35214286Y28488093D01*
X35547619Y28249998D02*
X34690476Y28249998D01*
X34595238Y28297617D01*
X34547619Y28392855D01*
X34547619Y28488093D01*
X35214286Y28821427D02*
X34547619Y28821427D01*
X35119048Y28821427D02*
X35166667Y28869046D01*
X35214286Y28964284D01*
X35214286Y29107142D01*
X35166667Y29202380D01*
X35071429Y29249999D01*
X34547619Y29249999D01*
X35071429Y30059523D02*
X35023810Y30202380D01*
X34976190Y30249999D01*
X34880952Y30297618D01*
X34738095Y30297618D01*
X34642857Y30249999D01*
X34595238Y30202380D01*
X34547619Y30107142D01*
X34547619Y29726189D01*
X35547619Y29726189D01*
X35547619Y30059523D01*
X35500000Y30154761D01*
X35452381Y30202380D01*
X35357143Y30249999D01*
X35261905Y30249999D01*
X35166667Y30202380D01*
X35119048Y30154761D01*
X35071429Y30059523D01*
X35071429Y29726189D01*
X34547619Y31154761D02*
X35071429Y31154761D01*
X35166667Y31107142D01*
X35214286Y31011904D01*
X35214286Y30821427D01*
X35166667Y30726189D01*
X34595238Y31154761D02*
X34547619Y31059523D01*
X34547619Y30821427D01*
X34595238Y30726189D01*
X34690476Y30678570D01*
X34785714Y30678570D01*
X34880952Y30726189D01*
X34928571Y30821427D01*
X34928571Y31059523D01*
X34976190Y31154761D01*
X34547619Y31773808D02*
X34595238Y31678570D01*
X34690476Y31630951D01*
X35547619Y31630951D01*
X35214286Y32583333D02*
X34547619Y32583333D01*
X35214286Y32154761D02*
X34690476Y32154761D01*
X34595238Y32202380D01*
X34547619Y32297618D01*
X34547619Y32440476D01*
X34595238Y32535714D01*
X34642857Y32583333D01*
X35595238Y33773809D02*
X34309524Y32916666D01*
X34833333Y34059523D02*
X34833333Y34535714D01*
X34547619Y33964285D02*
X35547619Y34297618D01*
X34547619Y34630952D01*
X34547619Y34964285D02*
X35214286Y34964285D01*
X35023810Y34964285D02*
X35119048Y35011904D01*
X35166667Y35059523D01*
X35214286Y35154761D01*
X35214286Y35250000D01*
X34547619Y36011905D02*
X35547619Y36011905D01*
X34595238Y36011905D02*
X34547619Y35916667D01*
X34547619Y35726190D01*
X34595238Y35630952D01*
X34642857Y35583333D01*
X34738095Y35535714D01*
X35023810Y35535714D01*
X35119048Y35583333D01*
X35166667Y35630952D01*
X35214286Y35726190D01*
X35214286Y35916667D01*
X35166667Y36011905D01*
X35214286Y36916667D02*
X34547619Y36916667D01*
X35214286Y36488095D02*
X34690476Y36488095D01*
X34595238Y36535714D01*
X34547619Y36630952D01*
X34547619Y36773810D01*
X34595238Y36869048D01*
X34642857Y36916667D01*
X34547619Y37392857D02*
X35214286Y37392857D01*
X35547619Y37392857D02*
X35500000Y37345238D01*
X35452381Y37392857D01*
X35500000Y37440476D01*
X35547619Y37392857D01*
X35452381Y37392857D01*
X35214286Y37869047D02*
X34547619Y37869047D01*
X35119048Y37869047D02*
X35166667Y37916666D01*
X35214286Y38011904D01*
X35214286Y38154762D01*
X35166667Y38250000D01*
X35071429Y38297619D01*
X34547619Y38297619D01*
X34547619Y38916666D02*
X34595238Y38821428D01*
X34642857Y38773809D01*
X34738095Y38726190D01*
X35023810Y38726190D01*
X35119048Y38773809D01*
X35166667Y38821428D01*
X35214286Y38916666D01*
X35214286Y39059524D01*
X35166667Y39154762D01*
X35119048Y39202381D01*
X35023810Y39250000D01*
X34738095Y39250000D01*
X34642857Y39202381D01*
X34595238Y39154762D01*
X34547619Y39059524D01*
X34547619Y38916666D01*
X34452381Y39440476D02*
X34452381Y40202381D01*
X34595238Y40392857D02*
X34547619Y40535714D01*
X34547619Y40773810D01*
X34595238Y40869048D01*
X34642857Y40916667D01*
X34738095Y40964286D01*
X34833333Y40964286D01*
X34928571Y40916667D01*
X34976190Y40869048D01*
X35023810Y40773810D01*
X35071429Y40583333D01*
X35119048Y40488095D01*
X35166667Y40440476D01*
X35261905Y40392857D01*
X35357143Y40392857D01*
X35452381Y40440476D01*
X35500000Y40488095D01*
X35547619Y40583333D01*
X35547619Y40821429D01*
X35500000Y40964286D01*
X35214286Y41392857D02*
X34214286Y41392857D01*
X35166667Y41392857D02*
X35214286Y41488095D01*
X35214286Y41678572D01*
X35166667Y41773810D01*
X35119048Y41821429D01*
X35023810Y41869048D01*
X34738095Y41869048D01*
X34642857Y41821429D01*
X34595238Y41773810D01*
X34547619Y41678572D01*
X34547619Y41488095D01*
X34595238Y41392857D01*
X34547619Y42440476D02*
X34595238Y42345238D01*
X34642857Y42297619D01*
X34738095Y42250000D01*
X35023810Y42250000D01*
X35119048Y42297619D01*
X35166667Y42345238D01*
X35214286Y42440476D01*
X35214286Y42583334D01*
X35166667Y42678572D01*
X35119048Y42726191D01*
X35023810Y42773810D01*
X34738095Y42773810D01*
X34642857Y42726191D01*
X34595238Y42678572D01*
X34547619Y42583334D01*
X34547619Y42440476D01*
X35214286Y43059524D02*
X35214286Y43440476D01*
X35547619Y43202381D02*
X34690476Y43202381D01*
X34595238Y43250000D01*
X34547619Y43345238D01*
X34547619Y43440476D01*
X34452381Y43535715D02*
X34452381Y44297620D01*
X35547619Y44440477D02*
X34547619Y44678572D01*
X35261905Y44869049D01*
X34547619Y45059525D01*
X35547619Y45297620D01*
X34595238Y46059525D02*
X34547619Y45964287D01*
X34547619Y45773810D01*
X34595238Y45678572D01*
X34690476Y45630953D01*
X35071429Y45630953D01*
X35166667Y45678572D01*
X35214286Y45773810D01*
X35214286Y45964287D01*
X35166667Y46059525D01*
X35071429Y46107144D01*
X34976190Y46107144D01*
X34880952Y45630953D01*
X34547619Y46678572D02*
X34595238Y46583334D01*
X34690476Y46535715D01*
X35547619Y46535715D01*
X34547619Y47488097D02*
X35547619Y47488097D01*
X34595238Y47488097D02*
X34547619Y47392859D01*
X34547619Y47202382D01*
X34595238Y47107144D01*
X34642857Y47059525D01*
X34738095Y47011906D01*
X35023810Y47011906D01*
X35119048Y47059525D01*
X35166667Y47107144D01*
X35214286Y47202382D01*
X35214286Y47392859D01*
X35166667Y47488097D01*
X34595238Y48345240D02*
X34547619Y48250002D01*
X34547619Y48059525D01*
X34595238Y47964287D01*
X34690476Y47916668D01*
X35071429Y47916668D01*
X35166667Y47964287D01*
X35214286Y48059525D01*
X35214286Y48250002D01*
X35166667Y48345240D01*
X35071429Y48392859D01*
X34976190Y48392859D01*
X34880952Y47916668D01*
X34547619Y48821430D02*
X35214286Y48821430D01*
X35023810Y48821430D02*
X35119048Y48869049D01*
X35166667Y48916668D01*
X35214286Y49011906D01*
X35214286Y49107145D01*
X34452381Y49202383D02*
X34452381Y49964288D01*
X35547619Y50059526D02*
X34547619Y50392859D01*
X35547619Y50726193D01*
X35547619Y50964288D02*
X35547619Y51583336D01*
X35166667Y51250002D01*
X35166667Y51392860D01*
X35119048Y51488098D01*
X35071429Y51535717D01*
X34976190Y51583336D01*
X34738095Y51583336D01*
X34642857Y51535717D01*
X34595238Y51488098D01*
X34547619Y51392860D01*
X34547619Y51107145D01*
X34595238Y51011907D01*
X34642857Y50964288D01*
D12*
X29550000Y53500000D02*
X29550000Y60000000D01*
X29550000Y53500000D02*
X18350000Y53500000D01*
X29550000Y60000000D02*
X18350000Y60000000D01*
X28550000Y40250000D02*
X28550000Y46750000D01*
X28550000Y40250000D02*
X17350000Y40250000D01*
X28550000Y46750000D02*
X17350000Y46750000D01*
X28550000Y27250000D02*
X28550000Y33750000D01*
X28550000Y27250000D02*
X17350000Y27250000D01*
X28550000Y33750000D02*
X17350000Y33750000D01*
X28550000Y14250000D02*
X28550000Y20750000D01*
X28550000Y14250000D02*
X17350000Y14250000D01*
X28550000Y20750000D02*
X17350000Y20750000D01*
D13*
X24416667Y58797619D02*
X23845238Y58797619D01*
X24130953Y57797619D02*
X24130953Y58797619D01*
X23654762Y58797619D02*
X23321429Y57797619D01*
X22988095Y58797619D01*
X22702381Y57845238D02*
X22559524Y57797619D01*
X22321428Y57797619D01*
X22226190Y57845238D01*
X22178571Y57892857D01*
X22130952Y57988095D01*
X22130952Y58083333D01*
X22178571Y58178571D01*
X22226190Y58226190D01*
X22321428Y58273810D01*
X22511905Y58321429D01*
X22607143Y58369048D01*
X22654762Y58416667D01*
X22702381Y58511905D01*
X22702381Y58607143D01*
X22654762Y58702381D01*
X22607143Y58750000D01*
X22511905Y58797619D01*
X22273809Y58797619D01*
X22130952Y58750000D01*
X21178571Y57797619D02*
X21750000Y57797619D01*
X21464286Y57797619D02*
X21464286Y58797619D01*
X21559524Y58654762D01*
X21654762Y58559524D01*
X21750000Y58511905D01*
X23416667Y45547619D02*
X22845238Y45547619D01*
X23130953Y44547619D02*
X23130953Y45547619D01*
X22654762Y45547619D02*
X22321429Y44547619D01*
X21988095Y45547619D01*
X21702381Y44595238D02*
X21559524Y44547619D01*
X21321428Y44547619D01*
X21226190Y44595238D01*
X21178571Y44642857D01*
X21130952Y44738095D01*
X21130952Y44833333D01*
X21178571Y44928571D01*
X21226190Y44976190D01*
X21321428Y45023810D01*
X21511905Y45071429D01*
X21607143Y45119048D01*
X21654762Y45166667D01*
X21702381Y45261905D01*
X21702381Y45357143D01*
X21654762Y45452381D01*
X21607143Y45500000D01*
X21511905Y45547619D01*
X21273809Y45547619D01*
X21130952Y45500000D01*
X20750000Y45452381D02*
X20702381Y45500000D01*
X20607143Y45547619D01*
X20369047Y45547619D01*
X20273809Y45500000D01*
X20226190Y45452381D01*
X20178571Y45357143D01*
X20178571Y45261905D01*
X20226190Y45119048D01*
X20797619Y44547619D01*
X20178571Y44547619D01*
X23416667Y32547619D02*
X22845238Y32547619D01*
X23130953Y31547619D02*
X23130953Y32547619D01*
X22654762Y32547619D02*
X22321429Y31547619D01*
X21988095Y32547619D01*
X21702381Y31595238D02*
X21559524Y31547619D01*
X21321428Y31547619D01*
X21226190Y31595238D01*
X21178571Y31642857D01*
X21130952Y31738095D01*
X21130952Y31833333D01*
X21178571Y31928571D01*
X21226190Y31976190D01*
X21321428Y32023810D01*
X21511905Y32071429D01*
X21607143Y32119048D01*
X21654762Y32166667D01*
X21702381Y32261905D01*
X21702381Y32357143D01*
X21654762Y32452381D01*
X21607143Y32500000D01*
X21511905Y32547619D01*
X21273809Y32547619D01*
X21130952Y32500000D01*
X20797619Y32547619D02*
X20178571Y32547619D01*
X20511905Y32166667D01*
X20369047Y32166667D01*
X20273809Y32119048D01*
X20226190Y32071429D01*
X20178571Y31976190D01*
X20178571Y31738095D01*
X20226190Y31642857D01*
X20273809Y31595238D01*
X20369047Y31547619D01*
X20654762Y31547619D01*
X20750000Y31595238D01*
X20797619Y31642857D01*
X23416667Y19547619D02*
X22845238Y19547619D01*
X23130953Y18547619D02*
X23130953Y19547619D01*
X22654762Y19547619D02*
X22321429Y18547619D01*
X21988095Y19547619D01*
X21702381Y18595238D02*
X21559524Y18547619D01*
X21321428Y18547619D01*
X21226190Y18595238D01*
X21178571Y18642857D01*
X21130952Y18738095D01*
X21130952Y18833333D01*
X21178571Y18928571D01*
X21226190Y18976190D01*
X21321428Y19023810D01*
X21511905Y19071429D01*
X21607143Y19119048D01*
X21654762Y19166667D01*
X21702381Y19261905D01*
X21702381Y19357143D01*
X21654762Y19452381D01*
X21607143Y19500000D01*
X21511905Y19547619D01*
X21273809Y19547619D01*
X21130952Y19500000D01*
X20273809Y19214286D02*
X20273809Y18547619D01*
X20511905Y19595238D02*
X20750000Y18880952D01*
X20130952Y18880952D01*
M02*
