G04 #@! TF.FileFunction,Soldermask,Top*
%FSLAX46Y46*%
G04 Gerber Fmt 4.6, Leading zero omitted, Abs format (unit mm)*
G04 Created by KiCad (PCBNEW 4.0.4-stable) date 03/07/19 13:46:32*
%MOMM*%
%LPD*%
G01*
G04 APERTURE LIST*
%ADD10C,0.100000*%
%ADD11C,3.600000*%
%ADD12O,3.900120X2.099260*%
%ADD13C,4.199840*%
%ADD14C,3.000000*%
%ADD15O,1.920000X2.920000*%
%ADD16R,2.400000X2.100000*%
%ADD17C,0.254000*%
G04 APERTURE END LIST*
D10*
D11*
X3000000Y57000000D03*
X3000000Y3000000D03*
D12*
X47000000Y50000000D03*
X47000000Y47460000D03*
X47000000Y52540000D03*
D13*
X29236000Y50000000D03*
D12*
X3000000Y37000000D03*
X3000000Y39540000D03*
X3000000Y34460000D03*
D13*
X20764000Y37000000D03*
D12*
X47000000Y37000000D03*
X47000000Y34460000D03*
X47000000Y39540000D03*
D13*
X29236000Y37000000D03*
D12*
X3000000Y50000000D03*
X3000000Y52540000D03*
X3000000Y47460000D03*
D13*
X20764000Y50000000D03*
D14*
X39750000Y43500000D03*
X39750000Y30500000D03*
X39750000Y17500000D03*
X39750000Y3500000D03*
X10250000Y3500000D03*
X10250000Y17500000D03*
X10250000Y30500000D03*
D11*
X47000000Y3000000D03*
X47000000Y57000000D03*
D15*
X10000000Y58000000D03*
X12540000Y58000000D03*
X40000000Y58000000D03*
X37460000Y58000000D03*
D14*
X10250000Y43500000D03*
D12*
X47000000Y11000000D03*
X47000000Y8460000D03*
X47000000Y13540000D03*
D13*
X29236000Y11000000D03*
D12*
X47000000Y24000000D03*
X47000000Y21460000D03*
X47000000Y26540000D03*
D13*
X29236000Y24000000D03*
D12*
X3000000Y24000000D03*
X3000000Y26540000D03*
X3000000Y21460000D03*
D13*
X20764000Y24000000D03*
D12*
X3000000Y11000000D03*
X3000000Y13540000D03*
X3000000Y8460000D03*
D13*
X20764000Y11000000D03*
D15*
X16100000Y2000000D03*
X18640000Y2000000D03*
X21180000Y2000000D03*
X23720000Y2000000D03*
X26260000Y2000000D03*
X28800000Y2000000D03*
X31340000Y2000000D03*
X33880000Y2000000D03*
D16*
X43000000Y8500000D03*
X39000000Y8500000D03*
X43000000Y22000000D03*
X39000000Y22000000D03*
X43000000Y35000000D03*
X39000000Y35000000D03*
X43000000Y48000000D03*
X39000000Y48000000D03*
X7000000Y52500000D03*
X11000000Y52500000D03*
X7000000Y39000000D03*
X11000000Y39000000D03*
X7000000Y26000000D03*
X11000000Y26000000D03*
X7000000Y13000000D03*
X11000000Y13000000D03*
D17*
G36*
X33373000Y5627000D02*
X16627000Y5627000D01*
X16627000Y58873000D01*
X33373000Y58873000D01*
X33373000Y5627000D01*
X33373000Y5627000D01*
G37*
X33373000Y5627000D02*
X16627000Y5627000D01*
X16627000Y58873000D01*
X33373000Y58873000D01*
X33373000Y5627000D01*
M02*
