M48
;DRILL file {KiCad 4.0.4-stable} date 03/07/19 13:47:19
;FORMAT={3:3/ absolute / metric / suppress trailing zeros}
FMAT,2
METRIC,LZ
T1C0.400
T2C1.000
T3C1.001
T4C2.600
T5C3.200
T6C3.800
%
G90
G05
M71
T1
X029Y0455
X029Y0445
X029Y0435
X029Y0425
X029Y0415
X029Y0325
X029Y0315
X029Y0305
X029Y0295
X029Y0285
X029Y0195
X029Y0185
X029Y0175
X029Y0165
X029Y0155
X02975Y059
X02975Y058
X02975Y057
X02975Y056
X02975Y055
X03Y0455
X03Y0445
X03Y0435
X03Y0425
X03Y0415
X03Y0325
X03Y0315
X03Y0305
X03Y0295
X03Y0285
X03Y0195
X03Y0185
X03Y0175
X03Y0165
X03Y0155
X03075Y059
X03075Y058
X03075Y057
X03075Y056
X03075Y055
X031Y0455
X031Y0445
X031Y0435
X031Y0425
X031Y0415
X031Y0325
X031Y0315
X031Y0305
X031Y0295
X031Y0285
X031Y0195
X031Y0185
X031Y0175
X031Y0165
X031Y0155
X03175Y059
X03175Y058
X03175Y057
X03175Y056
X03175Y055
X032Y0455
X032Y0445
X032Y0435
X032Y0425
X032Y0415
X032Y0325
X032Y0315
X032Y0305
X032Y0295
X032Y0285
X032Y0195
X032Y0185
X032Y0175
X032Y0165
X032Y0155
X03275Y059
X03275Y058
X03275Y057
X03275Y056
X03275Y055
X033Y0455
X033Y0445
X033Y0435
X033Y0425
X033Y0415
X033Y0325
X033Y0315
X033Y0305
X033Y0295
X033Y0285
X033Y0195
X033Y0185
X033Y0175
X033Y0165
X033Y0155
X03375Y059
X03375Y058
X03375Y057
X03375Y056
X03375Y055
T2
X01Y058
X01254Y058
X0161Y002
X01864Y002
X02118Y002
X02372Y002
X02626Y002
X0288Y002
X03134Y002
X03388Y002
X03746Y058
X04Y058
T3
X003Y05254
X003Y04746
X003Y03954
X003Y03446
X003Y02654
X003Y02146
X003Y01354
X003Y00846
X047Y05254
X047Y04746
X047Y03954
X047Y03446
X047Y02654
X047Y02146
X047Y01354
X047Y00846
T4
X01025Y0435
X01025Y0305
X01025Y0175
X01025Y0035
X03975Y0435
X03975Y0305
X03975Y0175
X03975Y0035
T5
X003Y057
X003Y003
X047Y057
X047Y003
T6
X020764Y05
X020764Y037
X020764Y024
X020764Y011
X029236Y05
X029236Y037
X029236Y024
X029236Y011
T0
M30
