G04 #@! TF.FileFunction,Copper,L2,Bot,Signal*
%FSLAX46Y46*%
G04 Gerber Fmt 4.6, Leading zero omitted, Abs format (unit mm)*
G04 Created by KiCad (PCBNEW 4.0.4-stable) date 03/07/19 13:46:32*
%MOMM*%
%LPD*%
G01*
G04 APERTURE LIST*
%ADD10C,0.100000*%
%ADD11O,3.500120X1.699260*%
%ADD12O,1.520000X2.520000*%
%ADD13R,4.500000X3.300000*%
%ADD14C,0.600000*%
%ADD15C,2.000000*%
%ADD16C,0.250000*%
%ADD17C,0.350000*%
%ADD18C,0.500000*%
%ADD19C,0.254000*%
G04 APERTURE END LIST*
D10*
D11*
X47000000Y47460000D03*
X47000000Y52540000D03*
X3000000Y39540000D03*
X3000000Y34460000D03*
X47000000Y34460000D03*
X47000000Y39540000D03*
X3000000Y52540000D03*
X3000000Y47460000D03*
D12*
X10000000Y58000000D03*
X12540000Y58000000D03*
X40000000Y58000000D03*
X37460000Y58000000D03*
D11*
X47000000Y8460000D03*
X47000000Y13540000D03*
X47000000Y21460000D03*
X47000000Y26540000D03*
X3000000Y26540000D03*
X3000000Y21460000D03*
X3000000Y13540000D03*
X3000000Y8460000D03*
D12*
X16100000Y2000000D03*
X18640000Y2000000D03*
X21180000Y2000000D03*
X23720000Y2000000D03*
X26260000Y2000000D03*
X28800000Y2000000D03*
X31340000Y2000000D03*
X33880000Y2000000D03*
D13*
X27150000Y56750000D03*
X18350000Y56750000D03*
X26150000Y43500000D03*
X17350000Y43500000D03*
X26150000Y30500000D03*
X17350000Y30500000D03*
X26150000Y17500000D03*
X17350000Y17500000D03*
D14*
X29000000Y15500000D03*
X30000000Y15500000D03*
X31000000Y15500000D03*
X32000000Y15500000D03*
X33000000Y15500000D03*
X33000000Y16500000D03*
X33000000Y17500000D03*
X33000000Y18500000D03*
X33000000Y19500000D03*
X32000000Y19500000D03*
X31000000Y19500000D03*
X30000000Y19500000D03*
X29000000Y19500000D03*
X29000000Y18500000D03*
X30000000Y18500000D03*
X31000000Y18500000D03*
X32000000Y18500000D03*
X32000000Y17500000D03*
X31000000Y17500000D03*
X30000000Y17500000D03*
X29000000Y17500000D03*
X29000000Y16500000D03*
X30000000Y16500000D03*
X31000000Y16500000D03*
X32000000Y16500000D03*
X29000000Y28500000D03*
X30000000Y28500000D03*
X31000000Y28500000D03*
X32000000Y28500000D03*
X33000000Y28500000D03*
X33000000Y29500000D03*
X33000000Y30500000D03*
X33000000Y31500000D03*
X33000000Y32500000D03*
X32000000Y32500000D03*
X31000000Y32500000D03*
X30000000Y32500000D03*
X29000000Y32500000D03*
X29000000Y31500000D03*
X30000000Y31500000D03*
X31000000Y31500000D03*
X32000000Y31500000D03*
X32000000Y30500000D03*
X31000000Y30500000D03*
X30000000Y30500000D03*
X29000000Y30500000D03*
X29000000Y29500000D03*
X30000000Y29500000D03*
X31000000Y29500000D03*
X32000000Y29500000D03*
X33000000Y41500000D03*
X33000000Y42500000D03*
X33000000Y43500000D03*
X33000000Y44500000D03*
X33000000Y45500000D03*
X32000000Y45500000D03*
X31000000Y45500000D03*
X30000000Y45500000D03*
X29000000Y45500000D03*
X32000000Y41500000D03*
X29000000Y41500000D03*
X30000000Y41500000D03*
X31000000Y41500000D03*
X29000000Y44500000D03*
X30000000Y44500000D03*
X31000000Y44500000D03*
X32000000Y44500000D03*
X32000000Y43500000D03*
X31000000Y43500000D03*
X30000000Y43500000D03*
X29000000Y43500000D03*
X29000000Y42500000D03*
X30000000Y42500000D03*
X31000000Y42500000D03*
X32000000Y42500000D03*
X33750000Y55000000D03*
X33750000Y56000000D03*
X33750000Y57000000D03*
X33750000Y58000000D03*
X33750000Y59000000D03*
X29750000Y59000000D03*
X30750000Y59000000D03*
X31750000Y59000000D03*
X32750000Y59000000D03*
X29750000Y55000000D03*
X31750000Y55000000D03*
X30750000Y55000000D03*
X32750000Y55000000D03*
X32750000Y57000000D03*
X31750000Y57000000D03*
X30750000Y57000000D03*
X29750000Y57000000D03*
X29750000Y56000000D03*
X30750000Y56000000D03*
X31750000Y56000000D03*
X32750000Y56000000D03*
X29750000Y58000000D03*
X30750000Y58000000D03*
X31750000Y58000000D03*
X32750000Y58000000D03*
D15*
X47000000Y52540000D02*
X42290000Y52540000D01*
X42290000Y52540000D02*
X42250000Y52500000D01*
X3000000Y34460000D02*
X7460000Y34460000D01*
X7460000Y34460000D02*
X7500000Y34500000D01*
X47000000Y39540000D02*
X42540000Y39540000D01*
X42540000Y39540000D02*
X42500000Y39500000D01*
X3000000Y47460000D02*
X7710000Y47460000D01*
X7710000Y47460000D02*
X7750000Y47500000D01*
D16*
X18350000Y56750000D02*
X16000000Y56750000D01*
X14750000Y58000000D02*
X12540000Y58000000D01*
X16000000Y56750000D02*
X14750000Y58000000D01*
D15*
X3000000Y21460000D02*
X7210000Y21460000D01*
X7210000Y21460000D02*
X7250000Y21500000D01*
X3000000Y8460000D02*
X7960000Y8460000D01*
X7960000Y8460000D02*
X8000000Y8500000D01*
X47000000Y13540000D02*
X42290000Y13540000D01*
X42290000Y13540000D02*
X42250000Y13500000D01*
X47000000Y26540000D02*
X42460000Y26540000D01*
X42460000Y26540000D02*
X42250000Y26750000D01*
D16*
X28500000Y15500000D02*
X29000000Y15500000D01*
X31000000Y15500000D02*
X30000000Y15500000D01*
X28500000Y19500000D02*
X29000000Y19500000D01*
X33000000Y16500000D02*
X33000000Y17500000D01*
X33000000Y18500000D02*
X33000000Y19500000D01*
X32000000Y19500000D02*
X31000000Y19500000D01*
X30000000Y19500000D02*
X29000000Y19500000D01*
X33000000Y15500000D02*
X32000000Y15500000D01*
X26150000Y17500000D02*
X28000000Y17500000D01*
X28000000Y17500000D02*
X29000000Y18500000D01*
X30000000Y18500000D02*
X31000000Y18500000D01*
X32000000Y18500000D02*
X32000000Y17500000D01*
X31000000Y17500000D02*
X30000000Y17500000D01*
X29000000Y17500000D02*
X29000000Y16500000D01*
X30000000Y16500000D02*
X31000000Y16500000D01*
X32000000Y16500000D02*
X32000000Y15500000D01*
X28500000Y28500000D02*
X29000000Y28500000D01*
X31000000Y28500000D02*
X30000000Y28500000D01*
X28500000Y32500000D02*
X29000000Y32500000D01*
X33000000Y29500000D02*
X33000000Y30500000D01*
X33000000Y31500000D02*
X33000000Y32500000D01*
X32000000Y32500000D02*
X31000000Y32500000D01*
X30000000Y32500000D02*
X29000000Y32500000D01*
X33000000Y28500000D02*
X32000000Y28500000D01*
X26150000Y30500000D02*
X28000000Y30500000D01*
X28000000Y30500000D02*
X29000000Y31500000D01*
X30000000Y31500000D02*
X31000000Y31500000D01*
X32000000Y31500000D02*
X32000000Y30500000D01*
X31000000Y30500000D02*
X30000000Y30500000D01*
X29000000Y30500000D02*
X29000000Y29500000D01*
X30000000Y29500000D02*
X31000000Y29500000D01*
X32000000Y29500000D02*
X32000000Y28500000D01*
X28500000Y45500000D02*
X29000000Y45500000D01*
X33000000Y41500000D02*
X33000000Y42500000D01*
X33000000Y43500000D02*
X33000000Y44500000D01*
X33000000Y45500000D02*
X32000000Y45500000D01*
X31000000Y45500000D02*
X30000000Y45500000D01*
X28500000Y41500000D02*
X29000000Y41500000D01*
X31000000Y41500000D02*
X30000000Y41500000D01*
X26150000Y43750000D02*
X28250000Y43750000D01*
X28250000Y43750000D02*
X29000000Y44500000D01*
X30000000Y44500000D02*
X31000000Y44500000D01*
X32000000Y44500000D02*
X32000000Y43500000D01*
X31000000Y43500000D02*
X30000000Y43500000D01*
X29000000Y43500000D02*
X29000000Y42500000D01*
X30000000Y42500000D02*
X31000000Y42500000D01*
X32000000Y42500000D02*
X32000000Y41500000D01*
D17*
X32750000Y59000000D02*
X33750000Y59000000D01*
X33750000Y56000000D02*
X33750000Y55000000D01*
X33750000Y58000000D02*
X33750000Y57000000D01*
X32750000Y58000000D02*
X32750000Y59000000D01*
X31750000Y59000000D02*
X30750000Y59000000D01*
D16*
X31750000Y55000000D02*
X30750000Y55000000D01*
X32750000Y58000000D02*
X32750000Y57000000D01*
X31750000Y57000000D02*
X30750000Y57000000D01*
X29750000Y57000000D02*
X29750000Y56000000D01*
X30750000Y56000000D02*
X31750000Y56000000D01*
X32750000Y56000000D02*
X32750000Y55000000D01*
X27150000Y56500000D02*
X28250000Y56500000D01*
X28250000Y56500000D02*
X29750000Y58000000D01*
X30750000Y58000000D02*
X31750000Y58000000D01*
D18*
X21180000Y2000000D02*
X21180000Y2570000D01*
X23720000Y2000000D02*
X23720000Y2880000D01*
X23720000Y2000000D02*
X23720000Y2780000D01*
X23720000Y3030000D02*
X23720000Y2000000D01*
X26260000Y2000000D02*
X26260000Y2510000D01*
X28800000Y2000000D02*
X28800000Y2800000D01*
X28800000Y2000000D02*
X28800000Y3050000D01*
D19*
G36*
X34123000Y54627000D02*
X29377000Y54627000D01*
X29377000Y59290000D01*
X34123000Y59290000D01*
X34123000Y54627000D01*
X34123000Y54627000D01*
G37*
X34123000Y54627000D02*
X29377000Y54627000D01*
X29377000Y59290000D01*
X34123000Y59290000D01*
X34123000Y54627000D01*
G36*
X9002507Y58940668D02*
X8909800Y58525400D01*
X8909800Y58025400D01*
X9974600Y58025400D01*
X9974600Y58045400D01*
X10025400Y58045400D01*
X10025400Y58025400D01*
X11090200Y58025400D01*
X11090200Y58525400D01*
X10997493Y58940668D01*
X10869421Y59123000D01*
X11670579Y59123000D01*
X11542507Y58940668D01*
X11449800Y58525400D01*
X11449800Y58025400D01*
X12514600Y58025400D01*
X12514600Y58045400D01*
X12565400Y58045400D01*
X12565400Y58025400D01*
X13630200Y58025400D01*
X13630200Y58525400D01*
X13537493Y58940668D01*
X13409421Y59123000D01*
X13873000Y59123000D01*
X13873000Y58500000D01*
X13883006Y58450590D01*
X13911447Y58408965D01*
X13953841Y58381685D01*
X14000000Y58373000D01*
X16123000Y58373000D01*
X16123000Y55250000D01*
X16133006Y55200590D01*
X16161447Y55158965D01*
X16203841Y55131685D01*
X16250000Y55123000D01*
X20623000Y55123000D01*
X20623000Y53750000D01*
X20633006Y53700590D01*
X20661447Y53658965D01*
X20703841Y53631685D01*
X20750000Y53623000D01*
X36000000Y53623000D01*
X36049410Y53633006D01*
X36091035Y53661447D01*
X36118315Y53703841D01*
X36127000Y53750000D01*
X36127000Y57151180D01*
X36171188Y56929032D01*
X36473586Y56476461D01*
X36926157Y56174063D01*
X37460000Y56067875D01*
X37993843Y56174063D01*
X38446414Y56476461D01*
X38748812Y56929032D01*
X38855000Y57462875D01*
X38855000Y58537125D01*
X38748812Y59070968D01*
X38714045Y59123000D01*
X43373000Y59123000D01*
X43373000Y56500000D01*
X43383006Y56450590D01*
X43410197Y56410197D01*
X45910197Y53910197D01*
X45952211Y53882334D01*
X46000000Y53873000D01*
X48373000Y53873000D01*
X48373000Y49127000D01*
X45500000Y49127000D01*
X45450590Y49116994D01*
X45410197Y49089803D01*
X44910197Y48589803D01*
X44882334Y48547789D01*
X44873000Y48500000D01*
X44873000Y48315155D01*
X44681225Y48028143D01*
X44568214Y47460000D01*
X44681225Y46891857D01*
X44873000Y46604845D01*
X44873000Y46500000D01*
X44883006Y46450590D01*
X44910197Y46410197D01*
X45410197Y45910197D01*
X45452211Y45882334D01*
X45500000Y45873000D01*
X48373000Y45873000D01*
X48373000Y36127000D01*
X45500000Y36127000D01*
X45450590Y36116994D01*
X45410197Y36089803D01*
X44910197Y35589803D01*
X44882334Y35547789D01*
X44873000Y35500000D01*
X44873000Y35315155D01*
X44681225Y35028143D01*
X44568214Y34460000D01*
X44681225Y33891857D01*
X44873000Y33604845D01*
X44873000Y33500000D01*
X44883006Y33450590D01*
X44910197Y33410197D01*
X45410197Y32910197D01*
X45452211Y32882334D01*
X45500000Y32873000D01*
X48373000Y32873000D01*
X48373000Y23127000D01*
X45500000Y23127000D01*
X45450590Y23116994D01*
X45410197Y23089803D01*
X44910197Y22589803D01*
X44882334Y22547789D01*
X44873000Y22500000D01*
X44873000Y22315155D01*
X44681225Y22028143D01*
X44568214Y21460000D01*
X44681225Y20891857D01*
X44873000Y20604845D01*
X44873000Y20500000D01*
X44883006Y20450590D01*
X44910197Y20410197D01*
X45410197Y19910197D01*
X45452211Y19882334D01*
X45500000Y19873000D01*
X48373000Y19873000D01*
X48373000Y10127000D01*
X45500000Y10127000D01*
X45450590Y10116994D01*
X45410197Y10089803D01*
X44910197Y9589803D01*
X44882334Y9547789D01*
X44873000Y9500000D01*
X44873000Y9315155D01*
X44681225Y9028143D01*
X44568214Y8460000D01*
X44681225Y7891857D01*
X44873000Y7604845D01*
X44873000Y5552606D01*
X43410197Y4089803D01*
X43382334Y4047789D01*
X43373000Y4000000D01*
X43373000Y710000D01*
X36127000Y710000D01*
X36127000Y3116793D01*
X37814665Y3116793D01*
X38108630Y2405342D01*
X38652479Y1860543D01*
X39363416Y1565337D01*
X40133207Y1564665D01*
X40844658Y1858630D01*
X41389457Y2402479D01*
X41684663Y3113416D01*
X41685335Y3883207D01*
X41391370Y4594658D01*
X40847521Y5139457D01*
X40136584Y5434663D01*
X39366793Y5435335D01*
X38655342Y5141370D01*
X38110543Y4597521D01*
X37815337Y3886584D01*
X37814665Y3116793D01*
X36127000Y3116793D01*
X36127000Y6894325D01*
X36134838Y6913201D01*
X36135162Y7285167D01*
X36127000Y7304921D01*
X36127000Y7750000D01*
X36116994Y7799410D01*
X36088553Y7841035D01*
X36046159Y7868315D01*
X36000000Y7877000D01*
X35745493Y7877000D01*
X35730327Y7892192D01*
X35386799Y8034838D01*
X35014833Y8035162D01*
X34671057Y7893117D01*
X34654912Y7877000D01*
X16014579Y7877000D01*
X15993117Y7928943D01*
X15730327Y8192192D01*
X15386799Y8334838D01*
X15014833Y8335162D01*
X14671057Y8193117D01*
X14407808Y7930327D01*
X14385665Y7877000D01*
X14000000Y7877000D01*
X13950590Y7866994D01*
X13908965Y7838553D01*
X13881685Y7796159D01*
X13873000Y7750000D01*
X13873000Y710000D01*
X6627000Y710000D01*
X6627000Y3116793D01*
X8314665Y3116793D01*
X8608630Y2405342D01*
X9152479Y1860543D01*
X9863416Y1565337D01*
X10633207Y1564665D01*
X11344658Y1858630D01*
X11889457Y2402479D01*
X12184663Y3113416D01*
X12185335Y3883207D01*
X11891370Y4594658D01*
X11347521Y5139457D01*
X10636584Y5434663D01*
X9866793Y5435335D01*
X9155342Y5141370D01*
X8610543Y4597521D01*
X8315337Y3886584D01*
X8314665Y3116793D01*
X6627000Y3116793D01*
X6627000Y4000000D01*
X6616994Y4049410D01*
X6589803Y4089803D01*
X4589803Y6089803D01*
X4547789Y6117666D01*
X4500000Y6127000D01*
X1627000Y6127000D01*
X1627000Y10497985D01*
X18228641Y10497985D01*
X18613746Y9565959D01*
X19326208Y8852252D01*
X20257561Y8465521D01*
X21266015Y8464641D01*
X22198041Y8849746D01*
X22911748Y9562208D01*
X23298479Y10493561D01*
X23298482Y10497985D01*
X26700641Y10497985D01*
X27085746Y9565959D01*
X27798208Y8852252D01*
X28729561Y8465521D01*
X29738015Y8464641D01*
X30670041Y8849746D01*
X31383748Y9562208D01*
X31770479Y10493561D01*
X31771359Y11502015D01*
X31386254Y12434041D01*
X30673792Y13147748D01*
X29742439Y13534479D01*
X28733985Y13535359D01*
X27801959Y13150254D01*
X27088252Y12437792D01*
X26701521Y11506439D01*
X26700641Y10497985D01*
X23298482Y10497985D01*
X23299359Y11502015D01*
X22914254Y12434041D01*
X22201792Y13147748D01*
X21270439Y13534479D01*
X20261985Y13535359D01*
X19329959Y13150254D01*
X18616252Y12437792D01*
X18229521Y11506439D01*
X18228641Y10497985D01*
X1627000Y10497985D01*
X1627000Y11873000D01*
X4500000Y11873000D01*
X4549410Y11883006D01*
X4589803Y11910197D01*
X5089803Y12410197D01*
X5117666Y12452211D01*
X5127000Y12500000D01*
X5127000Y12684845D01*
X5318775Y12971857D01*
X5431786Y13540000D01*
X5318775Y14108143D01*
X5127000Y14395155D01*
X5127000Y14500000D01*
X5116994Y14549410D01*
X5089803Y14589803D01*
X4589803Y15089803D01*
X4547789Y15117666D01*
X4500000Y15127000D01*
X1627000Y15127000D01*
X1627000Y17116793D01*
X8314665Y17116793D01*
X8608630Y16405342D01*
X9152479Y15860543D01*
X9863416Y15565337D01*
X10633207Y15564665D01*
X11344658Y15858630D01*
X11889457Y16402479D01*
X12184663Y17113416D01*
X12185335Y17883207D01*
X11891370Y18594658D01*
X11347521Y19139457D01*
X11322131Y19150000D01*
X23252560Y19150000D01*
X23252560Y15850000D01*
X23296838Y15614683D01*
X23435910Y15398559D01*
X23648110Y15253569D01*
X23900000Y15202560D01*
X27802263Y15202560D01*
X27962599Y14962599D01*
X28209161Y14797852D01*
X28422061Y14755503D01*
X28469673Y14707808D01*
X28813201Y14565162D01*
X29185167Y14564838D01*
X29500351Y14695069D01*
X29813201Y14565162D01*
X30185167Y14564838D01*
X30500351Y14695069D01*
X30813201Y14565162D01*
X31185167Y14564838D01*
X31500351Y14695069D01*
X31813201Y14565162D01*
X32185167Y14564838D01*
X32500351Y14695069D01*
X32813201Y14565162D01*
X33185167Y14564838D01*
X33528943Y14706883D01*
X33792192Y14969673D01*
X33934838Y15313201D01*
X33935162Y15685167D01*
X33804931Y16000351D01*
X33934838Y16313201D01*
X33935162Y16685167D01*
X33804931Y17000351D01*
X33853282Y17116793D01*
X37814665Y17116793D01*
X38108630Y16405342D01*
X38652479Y15860543D01*
X39363416Y15565337D01*
X40133207Y15564665D01*
X40844658Y15858630D01*
X41389457Y16402479D01*
X41684663Y17113416D01*
X41685335Y17883207D01*
X41391370Y18594658D01*
X40847521Y19139457D01*
X40136584Y19434663D01*
X39366793Y19435335D01*
X38655342Y19141370D01*
X38110543Y18597521D01*
X37815337Y17886584D01*
X37814665Y17116793D01*
X33853282Y17116793D01*
X33934838Y17313201D01*
X33935162Y17685167D01*
X33804931Y18000351D01*
X33934838Y18313201D01*
X33935162Y18685167D01*
X33804931Y19000351D01*
X33934838Y19313201D01*
X33935162Y19685167D01*
X33793117Y20028943D01*
X33530327Y20292192D01*
X33186799Y20434838D01*
X32814833Y20435162D01*
X32499649Y20304931D01*
X32186799Y20434838D01*
X31814833Y20435162D01*
X31499649Y20304931D01*
X31186799Y20434838D01*
X30814833Y20435162D01*
X30499649Y20304931D01*
X30186799Y20434838D01*
X29814833Y20435162D01*
X29499649Y20304931D01*
X29186799Y20434838D01*
X28814833Y20435162D01*
X28471057Y20293117D01*
X28422424Y20244569D01*
X28209161Y20202148D01*
X27962599Y20037401D01*
X27802263Y19797440D01*
X23900000Y19797440D01*
X23664683Y19753162D01*
X23448559Y19614090D01*
X23303569Y19401890D01*
X23252560Y19150000D01*
X11322131Y19150000D01*
X10636584Y19434663D01*
X9866793Y19435335D01*
X9155342Y19141370D01*
X8610543Y18597521D01*
X8315337Y17886584D01*
X8314665Y17116793D01*
X1627000Y17116793D01*
X1627000Y23497985D01*
X18228641Y23497985D01*
X18613746Y22565959D01*
X19326208Y21852252D01*
X20257561Y21465521D01*
X21266015Y21464641D01*
X22198041Y21849746D01*
X22911748Y22562208D01*
X23298479Y23493561D01*
X23298482Y23497985D01*
X26700641Y23497985D01*
X27085746Y22565959D01*
X27798208Y21852252D01*
X28729561Y21465521D01*
X29738015Y21464641D01*
X30670041Y21849746D01*
X31383748Y22562208D01*
X31770479Y23493561D01*
X31771359Y24502015D01*
X31386254Y25434041D01*
X30673792Y26147748D01*
X29742439Y26534479D01*
X28733985Y26535359D01*
X27801959Y26150254D01*
X27088252Y25437792D01*
X26701521Y24506439D01*
X26700641Y23497985D01*
X23298482Y23497985D01*
X23299359Y24502015D01*
X22914254Y25434041D01*
X22201792Y26147748D01*
X21270439Y26534479D01*
X20261985Y26535359D01*
X19329959Y26150254D01*
X18616252Y25437792D01*
X18229521Y24506439D01*
X18228641Y23497985D01*
X1627000Y23497985D01*
X1627000Y24873000D01*
X4500000Y24873000D01*
X4549410Y24883006D01*
X4589803Y24910197D01*
X5089803Y25410197D01*
X5117666Y25452211D01*
X5127000Y25500000D01*
X5127000Y25684845D01*
X5318775Y25971857D01*
X5431786Y26540000D01*
X5318775Y27108143D01*
X5127000Y27395155D01*
X5127000Y27500000D01*
X5116994Y27549410D01*
X5089803Y27589803D01*
X4589803Y28089803D01*
X4547789Y28117666D01*
X4500000Y28127000D01*
X1627000Y28127000D01*
X1627000Y30116793D01*
X8314665Y30116793D01*
X8608630Y29405342D01*
X9152479Y28860543D01*
X9863416Y28565337D01*
X10633207Y28564665D01*
X11344658Y28858630D01*
X11889457Y29402479D01*
X12184663Y30113416D01*
X12185335Y30883207D01*
X11891370Y31594658D01*
X11347521Y32139457D01*
X11322131Y32150000D01*
X23252560Y32150000D01*
X23252560Y28850000D01*
X23296838Y28614683D01*
X23435910Y28398559D01*
X23648110Y28253569D01*
X23900000Y28202560D01*
X27802263Y28202560D01*
X27962599Y27962599D01*
X28209161Y27797852D01*
X28422061Y27755503D01*
X28469673Y27707808D01*
X28813201Y27565162D01*
X29185167Y27564838D01*
X29500351Y27695069D01*
X29813201Y27565162D01*
X30185167Y27564838D01*
X30500351Y27695069D01*
X30813201Y27565162D01*
X31185167Y27564838D01*
X31500351Y27695069D01*
X31813201Y27565162D01*
X32185167Y27564838D01*
X32500351Y27695069D01*
X32813201Y27565162D01*
X33185167Y27564838D01*
X33528943Y27706883D01*
X33792192Y27969673D01*
X33934838Y28313201D01*
X33935162Y28685167D01*
X33804931Y29000351D01*
X33934838Y29313201D01*
X33935162Y29685167D01*
X33804931Y30000351D01*
X33853282Y30116793D01*
X37814665Y30116793D01*
X38108630Y29405342D01*
X38652479Y28860543D01*
X39363416Y28565337D01*
X40133207Y28564665D01*
X40844658Y28858630D01*
X41389457Y29402479D01*
X41684663Y30113416D01*
X41685335Y30883207D01*
X41391370Y31594658D01*
X40847521Y32139457D01*
X40136584Y32434663D01*
X39366793Y32435335D01*
X38655342Y32141370D01*
X38110543Y31597521D01*
X37815337Y30886584D01*
X37814665Y30116793D01*
X33853282Y30116793D01*
X33934838Y30313201D01*
X33935162Y30685167D01*
X33804931Y31000351D01*
X33934838Y31313201D01*
X33935162Y31685167D01*
X33804931Y32000351D01*
X33934838Y32313201D01*
X33935162Y32685167D01*
X33793117Y33028943D01*
X33530327Y33292192D01*
X33186799Y33434838D01*
X32814833Y33435162D01*
X32499649Y33304931D01*
X32186799Y33434838D01*
X31814833Y33435162D01*
X31499649Y33304931D01*
X31186799Y33434838D01*
X30814833Y33435162D01*
X30499649Y33304931D01*
X30186799Y33434838D01*
X29814833Y33435162D01*
X29499649Y33304931D01*
X29186799Y33434838D01*
X28814833Y33435162D01*
X28471057Y33293117D01*
X28422424Y33244569D01*
X28209161Y33202148D01*
X27962599Y33037401D01*
X27802263Y32797440D01*
X23900000Y32797440D01*
X23664683Y32753162D01*
X23448559Y32614090D01*
X23303569Y32401890D01*
X23252560Y32150000D01*
X11322131Y32150000D01*
X10636584Y32434663D01*
X9866793Y32435335D01*
X9155342Y32141370D01*
X8610543Y31597521D01*
X8315337Y30886584D01*
X8314665Y30116793D01*
X1627000Y30116793D01*
X1627000Y36497985D01*
X18228641Y36497985D01*
X18613746Y35565959D01*
X19326208Y34852252D01*
X20257561Y34465521D01*
X21266015Y34464641D01*
X22198041Y34849746D01*
X22911748Y35562208D01*
X23298479Y36493561D01*
X23298482Y36497985D01*
X26700641Y36497985D01*
X27085746Y35565959D01*
X27798208Y34852252D01*
X28729561Y34465521D01*
X29738015Y34464641D01*
X30670041Y34849746D01*
X31383748Y35562208D01*
X31770479Y36493561D01*
X31771359Y37502015D01*
X31386254Y38434041D01*
X30673792Y39147748D01*
X29742439Y39534479D01*
X28733985Y39535359D01*
X27801959Y39150254D01*
X27088252Y38437792D01*
X26701521Y37506439D01*
X26700641Y36497985D01*
X23298482Y36497985D01*
X23299359Y37502015D01*
X22914254Y38434041D01*
X22201792Y39147748D01*
X21270439Y39534479D01*
X20261985Y39535359D01*
X19329959Y39150254D01*
X18616252Y38437792D01*
X18229521Y37506439D01*
X18228641Y36497985D01*
X1627000Y36497985D01*
X1627000Y37873000D01*
X4500000Y37873000D01*
X4549410Y37883006D01*
X4589803Y37910197D01*
X5089803Y38410197D01*
X5117666Y38452211D01*
X5127000Y38500000D01*
X5127000Y38684845D01*
X5318775Y38971857D01*
X5431786Y39540000D01*
X5318775Y40108143D01*
X5127000Y40395155D01*
X5127000Y40500000D01*
X5116994Y40549410D01*
X5089803Y40589803D01*
X4589803Y41089803D01*
X4547789Y41117666D01*
X4500000Y41127000D01*
X1627000Y41127000D01*
X1627000Y43116793D01*
X8314665Y43116793D01*
X8608630Y42405342D01*
X9152479Y41860543D01*
X9863416Y41565337D01*
X10633207Y41564665D01*
X11344658Y41858630D01*
X11889457Y42402479D01*
X12184663Y43113416D01*
X12185335Y43883207D01*
X11891370Y44594658D01*
X11347521Y45139457D01*
X11322131Y45150000D01*
X23252560Y45150000D01*
X23252560Y41850000D01*
X23296838Y41614683D01*
X23435910Y41398559D01*
X23648110Y41253569D01*
X23900000Y41202560D01*
X27802263Y41202560D01*
X27962599Y40962599D01*
X28209161Y40797852D01*
X28422061Y40755503D01*
X28469673Y40707808D01*
X28813201Y40565162D01*
X29185167Y40564838D01*
X29500351Y40695069D01*
X29813201Y40565162D01*
X30185167Y40564838D01*
X30500351Y40695069D01*
X30813201Y40565162D01*
X31185167Y40564838D01*
X31500351Y40695069D01*
X31813201Y40565162D01*
X32185167Y40564838D01*
X32500351Y40695069D01*
X32813201Y40565162D01*
X33185167Y40564838D01*
X33528943Y40706883D01*
X33792192Y40969673D01*
X33934838Y41313201D01*
X33935162Y41685167D01*
X33804931Y42000351D01*
X33934838Y42313201D01*
X33935162Y42685167D01*
X33804931Y43000351D01*
X33853282Y43116793D01*
X37814665Y43116793D01*
X38108630Y42405342D01*
X38652479Y41860543D01*
X39363416Y41565337D01*
X40133207Y41564665D01*
X40844658Y41858630D01*
X41389457Y42402479D01*
X41684663Y43113416D01*
X41685335Y43883207D01*
X41391370Y44594658D01*
X40847521Y45139457D01*
X40136584Y45434663D01*
X39366793Y45435335D01*
X38655342Y45141370D01*
X38110543Y44597521D01*
X37815337Y43886584D01*
X37814665Y43116793D01*
X33853282Y43116793D01*
X33934838Y43313201D01*
X33935162Y43685167D01*
X33804931Y44000351D01*
X33934838Y44313201D01*
X33935162Y44685167D01*
X33804931Y45000351D01*
X33934838Y45313201D01*
X33935162Y45685167D01*
X33793117Y46028943D01*
X33530327Y46292192D01*
X33186799Y46434838D01*
X32814833Y46435162D01*
X32499649Y46304931D01*
X32186799Y46434838D01*
X31814833Y46435162D01*
X31499649Y46304931D01*
X31186799Y46434838D01*
X30814833Y46435162D01*
X30499649Y46304931D01*
X30186799Y46434838D01*
X29814833Y46435162D01*
X29499649Y46304931D01*
X29186799Y46434838D01*
X28814833Y46435162D01*
X28471057Y46293117D01*
X28422424Y46244569D01*
X28209161Y46202148D01*
X27962599Y46037401D01*
X27802263Y45797440D01*
X23900000Y45797440D01*
X23664683Y45753162D01*
X23448559Y45614090D01*
X23303569Y45401890D01*
X23252560Y45150000D01*
X11322131Y45150000D01*
X10636584Y45434663D01*
X9866793Y45435335D01*
X9155342Y45141370D01*
X8610543Y44597521D01*
X8315337Y43886584D01*
X8314665Y43116793D01*
X1627000Y43116793D01*
X1627000Y49497985D01*
X18228641Y49497985D01*
X18613746Y48565959D01*
X19326208Y47852252D01*
X20257561Y47465521D01*
X21266015Y47464641D01*
X22198041Y47849746D01*
X22911748Y48562208D01*
X23298479Y49493561D01*
X23298482Y49497985D01*
X26700641Y49497985D01*
X27085746Y48565959D01*
X27798208Y47852252D01*
X28729561Y47465521D01*
X29738015Y47464641D01*
X30670041Y47849746D01*
X31383748Y48562208D01*
X31770479Y49493561D01*
X31771359Y50502015D01*
X31386254Y51434041D01*
X30673792Y52147748D01*
X29742439Y52534479D01*
X28733985Y52535359D01*
X27801959Y52150254D01*
X27088252Y51437792D01*
X26701521Y50506439D01*
X26700641Y49497985D01*
X23298482Y49497985D01*
X23299359Y50502015D01*
X22914254Y51434041D01*
X22201792Y52147748D01*
X21270439Y52534479D01*
X20261985Y52535359D01*
X19329959Y52150254D01*
X18616252Y51437792D01*
X18229521Y50506439D01*
X18228641Y49497985D01*
X1627000Y49497985D01*
X1627000Y50873000D01*
X4000000Y50873000D01*
X4049410Y50883006D01*
X4089803Y50910197D01*
X4306443Y51126837D01*
X4515299Y51168381D01*
X4996948Y51490208D01*
X5318775Y51971857D01*
X5431786Y52540000D01*
X5318775Y53108143D01*
X5127000Y53395155D01*
X5127000Y54447394D01*
X6589803Y55910197D01*
X6617666Y55952211D01*
X6627000Y56000000D01*
X6627000Y57974600D01*
X8909800Y57974600D01*
X8909800Y57474600D01*
X9002507Y57059332D01*
X9247073Y56711152D01*
X9606265Y56483067D01*
X9804414Y56427488D01*
X9974600Y56492670D01*
X9974600Y57974600D01*
X10025400Y57974600D01*
X10025400Y56492670D01*
X10195586Y56427488D01*
X10393735Y56483067D01*
X10752927Y56711152D01*
X10997493Y57059332D01*
X11090200Y57474600D01*
X11090200Y57974600D01*
X11449800Y57974600D01*
X11449800Y57474600D01*
X11542507Y57059332D01*
X11787073Y56711152D01*
X12146265Y56483067D01*
X12344414Y56427488D01*
X12514600Y56492670D01*
X12514600Y57974600D01*
X12565400Y57974600D01*
X12565400Y56492670D01*
X12735586Y56427488D01*
X12933735Y56483067D01*
X13292927Y56711152D01*
X13537493Y57059332D01*
X13630200Y57474600D01*
X13630200Y57974600D01*
X12565400Y57974600D01*
X12514600Y57974600D01*
X11449800Y57974600D01*
X11090200Y57974600D01*
X10025400Y57974600D01*
X9974600Y57974600D01*
X8909800Y57974600D01*
X6627000Y57974600D01*
X6627000Y59123000D01*
X9130579Y59123000D01*
X9002507Y58940668D01*
X9002507Y58940668D01*
G37*
X9002507Y58940668D02*
X8909800Y58525400D01*
X8909800Y58025400D01*
X9974600Y58025400D01*
X9974600Y58045400D01*
X10025400Y58045400D01*
X10025400Y58025400D01*
X11090200Y58025400D01*
X11090200Y58525400D01*
X10997493Y58940668D01*
X10869421Y59123000D01*
X11670579Y59123000D01*
X11542507Y58940668D01*
X11449800Y58525400D01*
X11449800Y58025400D01*
X12514600Y58025400D01*
X12514600Y58045400D01*
X12565400Y58045400D01*
X12565400Y58025400D01*
X13630200Y58025400D01*
X13630200Y58525400D01*
X13537493Y58940668D01*
X13409421Y59123000D01*
X13873000Y59123000D01*
X13873000Y58500000D01*
X13883006Y58450590D01*
X13911447Y58408965D01*
X13953841Y58381685D01*
X14000000Y58373000D01*
X16123000Y58373000D01*
X16123000Y55250000D01*
X16133006Y55200590D01*
X16161447Y55158965D01*
X16203841Y55131685D01*
X16250000Y55123000D01*
X20623000Y55123000D01*
X20623000Y53750000D01*
X20633006Y53700590D01*
X20661447Y53658965D01*
X20703841Y53631685D01*
X20750000Y53623000D01*
X36000000Y53623000D01*
X36049410Y53633006D01*
X36091035Y53661447D01*
X36118315Y53703841D01*
X36127000Y53750000D01*
X36127000Y57151180D01*
X36171188Y56929032D01*
X36473586Y56476461D01*
X36926157Y56174063D01*
X37460000Y56067875D01*
X37993843Y56174063D01*
X38446414Y56476461D01*
X38748812Y56929032D01*
X38855000Y57462875D01*
X38855000Y58537125D01*
X38748812Y59070968D01*
X38714045Y59123000D01*
X43373000Y59123000D01*
X43373000Y56500000D01*
X43383006Y56450590D01*
X43410197Y56410197D01*
X45910197Y53910197D01*
X45952211Y53882334D01*
X46000000Y53873000D01*
X48373000Y53873000D01*
X48373000Y49127000D01*
X45500000Y49127000D01*
X45450590Y49116994D01*
X45410197Y49089803D01*
X44910197Y48589803D01*
X44882334Y48547789D01*
X44873000Y48500000D01*
X44873000Y48315155D01*
X44681225Y48028143D01*
X44568214Y47460000D01*
X44681225Y46891857D01*
X44873000Y46604845D01*
X44873000Y46500000D01*
X44883006Y46450590D01*
X44910197Y46410197D01*
X45410197Y45910197D01*
X45452211Y45882334D01*
X45500000Y45873000D01*
X48373000Y45873000D01*
X48373000Y36127000D01*
X45500000Y36127000D01*
X45450590Y36116994D01*
X45410197Y36089803D01*
X44910197Y35589803D01*
X44882334Y35547789D01*
X44873000Y35500000D01*
X44873000Y35315155D01*
X44681225Y35028143D01*
X44568214Y34460000D01*
X44681225Y33891857D01*
X44873000Y33604845D01*
X44873000Y33500000D01*
X44883006Y33450590D01*
X44910197Y33410197D01*
X45410197Y32910197D01*
X45452211Y32882334D01*
X45500000Y32873000D01*
X48373000Y32873000D01*
X48373000Y23127000D01*
X45500000Y23127000D01*
X45450590Y23116994D01*
X45410197Y23089803D01*
X44910197Y22589803D01*
X44882334Y22547789D01*
X44873000Y22500000D01*
X44873000Y22315155D01*
X44681225Y22028143D01*
X44568214Y21460000D01*
X44681225Y20891857D01*
X44873000Y20604845D01*
X44873000Y20500000D01*
X44883006Y20450590D01*
X44910197Y20410197D01*
X45410197Y19910197D01*
X45452211Y19882334D01*
X45500000Y19873000D01*
X48373000Y19873000D01*
X48373000Y10127000D01*
X45500000Y10127000D01*
X45450590Y10116994D01*
X45410197Y10089803D01*
X44910197Y9589803D01*
X44882334Y9547789D01*
X44873000Y9500000D01*
X44873000Y9315155D01*
X44681225Y9028143D01*
X44568214Y8460000D01*
X44681225Y7891857D01*
X44873000Y7604845D01*
X44873000Y5552606D01*
X43410197Y4089803D01*
X43382334Y4047789D01*
X43373000Y4000000D01*
X43373000Y710000D01*
X36127000Y710000D01*
X36127000Y3116793D01*
X37814665Y3116793D01*
X38108630Y2405342D01*
X38652479Y1860543D01*
X39363416Y1565337D01*
X40133207Y1564665D01*
X40844658Y1858630D01*
X41389457Y2402479D01*
X41684663Y3113416D01*
X41685335Y3883207D01*
X41391370Y4594658D01*
X40847521Y5139457D01*
X40136584Y5434663D01*
X39366793Y5435335D01*
X38655342Y5141370D01*
X38110543Y4597521D01*
X37815337Y3886584D01*
X37814665Y3116793D01*
X36127000Y3116793D01*
X36127000Y6894325D01*
X36134838Y6913201D01*
X36135162Y7285167D01*
X36127000Y7304921D01*
X36127000Y7750000D01*
X36116994Y7799410D01*
X36088553Y7841035D01*
X36046159Y7868315D01*
X36000000Y7877000D01*
X35745493Y7877000D01*
X35730327Y7892192D01*
X35386799Y8034838D01*
X35014833Y8035162D01*
X34671057Y7893117D01*
X34654912Y7877000D01*
X16014579Y7877000D01*
X15993117Y7928943D01*
X15730327Y8192192D01*
X15386799Y8334838D01*
X15014833Y8335162D01*
X14671057Y8193117D01*
X14407808Y7930327D01*
X14385665Y7877000D01*
X14000000Y7877000D01*
X13950590Y7866994D01*
X13908965Y7838553D01*
X13881685Y7796159D01*
X13873000Y7750000D01*
X13873000Y710000D01*
X6627000Y710000D01*
X6627000Y3116793D01*
X8314665Y3116793D01*
X8608630Y2405342D01*
X9152479Y1860543D01*
X9863416Y1565337D01*
X10633207Y1564665D01*
X11344658Y1858630D01*
X11889457Y2402479D01*
X12184663Y3113416D01*
X12185335Y3883207D01*
X11891370Y4594658D01*
X11347521Y5139457D01*
X10636584Y5434663D01*
X9866793Y5435335D01*
X9155342Y5141370D01*
X8610543Y4597521D01*
X8315337Y3886584D01*
X8314665Y3116793D01*
X6627000Y3116793D01*
X6627000Y4000000D01*
X6616994Y4049410D01*
X6589803Y4089803D01*
X4589803Y6089803D01*
X4547789Y6117666D01*
X4500000Y6127000D01*
X1627000Y6127000D01*
X1627000Y10497985D01*
X18228641Y10497985D01*
X18613746Y9565959D01*
X19326208Y8852252D01*
X20257561Y8465521D01*
X21266015Y8464641D01*
X22198041Y8849746D01*
X22911748Y9562208D01*
X23298479Y10493561D01*
X23298482Y10497985D01*
X26700641Y10497985D01*
X27085746Y9565959D01*
X27798208Y8852252D01*
X28729561Y8465521D01*
X29738015Y8464641D01*
X30670041Y8849746D01*
X31383748Y9562208D01*
X31770479Y10493561D01*
X31771359Y11502015D01*
X31386254Y12434041D01*
X30673792Y13147748D01*
X29742439Y13534479D01*
X28733985Y13535359D01*
X27801959Y13150254D01*
X27088252Y12437792D01*
X26701521Y11506439D01*
X26700641Y10497985D01*
X23298482Y10497985D01*
X23299359Y11502015D01*
X22914254Y12434041D01*
X22201792Y13147748D01*
X21270439Y13534479D01*
X20261985Y13535359D01*
X19329959Y13150254D01*
X18616252Y12437792D01*
X18229521Y11506439D01*
X18228641Y10497985D01*
X1627000Y10497985D01*
X1627000Y11873000D01*
X4500000Y11873000D01*
X4549410Y11883006D01*
X4589803Y11910197D01*
X5089803Y12410197D01*
X5117666Y12452211D01*
X5127000Y12500000D01*
X5127000Y12684845D01*
X5318775Y12971857D01*
X5431786Y13540000D01*
X5318775Y14108143D01*
X5127000Y14395155D01*
X5127000Y14500000D01*
X5116994Y14549410D01*
X5089803Y14589803D01*
X4589803Y15089803D01*
X4547789Y15117666D01*
X4500000Y15127000D01*
X1627000Y15127000D01*
X1627000Y17116793D01*
X8314665Y17116793D01*
X8608630Y16405342D01*
X9152479Y15860543D01*
X9863416Y15565337D01*
X10633207Y15564665D01*
X11344658Y15858630D01*
X11889457Y16402479D01*
X12184663Y17113416D01*
X12185335Y17883207D01*
X11891370Y18594658D01*
X11347521Y19139457D01*
X11322131Y19150000D01*
X23252560Y19150000D01*
X23252560Y15850000D01*
X23296838Y15614683D01*
X23435910Y15398559D01*
X23648110Y15253569D01*
X23900000Y15202560D01*
X27802263Y15202560D01*
X27962599Y14962599D01*
X28209161Y14797852D01*
X28422061Y14755503D01*
X28469673Y14707808D01*
X28813201Y14565162D01*
X29185167Y14564838D01*
X29500351Y14695069D01*
X29813201Y14565162D01*
X30185167Y14564838D01*
X30500351Y14695069D01*
X30813201Y14565162D01*
X31185167Y14564838D01*
X31500351Y14695069D01*
X31813201Y14565162D01*
X32185167Y14564838D01*
X32500351Y14695069D01*
X32813201Y14565162D01*
X33185167Y14564838D01*
X33528943Y14706883D01*
X33792192Y14969673D01*
X33934838Y15313201D01*
X33935162Y15685167D01*
X33804931Y16000351D01*
X33934838Y16313201D01*
X33935162Y16685167D01*
X33804931Y17000351D01*
X33853282Y17116793D01*
X37814665Y17116793D01*
X38108630Y16405342D01*
X38652479Y15860543D01*
X39363416Y15565337D01*
X40133207Y15564665D01*
X40844658Y15858630D01*
X41389457Y16402479D01*
X41684663Y17113416D01*
X41685335Y17883207D01*
X41391370Y18594658D01*
X40847521Y19139457D01*
X40136584Y19434663D01*
X39366793Y19435335D01*
X38655342Y19141370D01*
X38110543Y18597521D01*
X37815337Y17886584D01*
X37814665Y17116793D01*
X33853282Y17116793D01*
X33934838Y17313201D01*
X33935162Y17685167D01*
X33804931Y18000351D01*
X33934838Y18313201D01*
X33935162Y18685167D01*
X33804931Y19000351D01*
X33934838Y19313201D01*
X33935162Y19685167D01*
X33793117Y20028943D01*
X33530327Y20292192D01*
X33186799Y20434838D01*
X32814833Y20435162D01*
X32499649Y20304931D01*
X32186799Y20434838D01*
X31814833Y20435162D01*
X31499649Y20304931D01*
X31186799Y20434838D01*
X30814833Y20435162D01*
X30499649Y20304931D01*
X30186799Y20434838D01*
X29814833Y20435162D01*
X29499649Y20304931D01*
X29186799Y20434838D01*
X28814833Y20435162D01*
X28471057Y20293117D01*
X28422424Y20244569D01*
X28209161Y20202148D01*
X27962599Y20037401D01*
X27802263Y19797440D01*
X23900000Y19797440D01*
X23664683Y19753162D01*
X23448559Y19614090D01*
X23303569Y19401890D01*
X23252560Y19150000D01*
X11322131Y19150000D01*
X10636584Y19434663D01*
X9866793Y19435335D01*
X9155342Y19141370D01*
X8610543Y18597521D01*
X8315337Y17886584D01*
X8314665Y17116793D01*
X1627000Y17116793D01*
X1627000Y23497985D01*
X18228641Y23497985D01*
X18613746Y22565959D01*
X19326208Y21852252D01*
X20257561Y21465521D01*
X21266015Y21464641D01*
X22198041Y21849746D01*
X22911748Y22562208D01*
X23298479Y23493561D01*
X23298482Y23497985D01*
X26700641Y23497985D01*
X27085746Y22565959D01*
X27798208Y21852252D01*
X28729561Y21465521D01*
X29738015Y21464641D01*
X30670041Y21849746D01*
X31383748Y22562208D01*
X31770479Y23493561D01*
X31771359Y24502015D01*
X31386254Y25434041D01*
X30673792Y26147748D01*
X29742439Y26534479D01*
X28733985Y26535359D01*
X27801959Y26150254D01*
X27088252Y25437792D01*
X26701521Y24506439D01*
X26700641Y23497985D01*
X23298482Y23497985D01*
X23299359Y24502015D01*
X22914254Y25434041D01*
X22201792Y26147748D01*
X21270439Y26534479D01*
X20261985Y26535359D01*
X19329959Y26150254D01*
X18616252Y25437792D01*
X18229521Y24506439D01*
X18228641Y23497985D01*
X1627000Y23497985D01*
X1627000Y24873000D01*
X4500000Y24873000D01*
X4549410Y24883006D01*
X4589803Y24910197D01*
X5089803Y25410197D01*
X5117666Y25452211D01*
X5127000Y25500000D01*
X5127000Y25684845D01*
X5318775Y25971857D01*
X5431786Y26540000D01*
X5318775Y27108143D01*
X5127000Y27395155D01*
X5127000Y27500000D01*
X5116994Y27549410D01*
X5089803Y27589803D01*
X4589803Y28089803D01*
X4547789Y28117666D01*
X4500000Y28127000D01*
X1627000Y28127000D01*
X1627000Y30116793D01*
X8314665Y30116793D01*
X8608630Y29405342D01*
X9152479Y28860543D01*
X9863416Y28565337D01*
X10633207Y28564665D01*
X11344658Y28858630D01*
X11889457Y29402479D01*
X12184663Y30113416D01*
X12185335Y30883207D01*
X11891370Y31594658D01*
X11347521Y32139457D01*
X11322131Y32150000D01*
X23252560Y32150000D01*
X23252560Y28850000D01*
X23296838Y28614683D01*
X23435910Y28398559D01*
X23648110Y28253569D01*
X23900000Y28202560D01*
X27802263Y28202560D01*
X27962599Y27962599D01*
X28209161Y27797852D01*
X28422061Y27755503D01*
X28469673Y27707808D01*
X28813201Y27565162D01*
X29185167Y27564838D01*
X29500351Y27695069D01*
X29813201Y27565162D01*
X30185167Y27564838D01*
X30500351Y27695069D01*
X30813201Y27565162D01*
X31185167Y27564838D01*
X31500351Y27695069D01*
X31813201Y27565162D01*
X32185167Y27564838D01*
X32500351Y27695069D01*
X32813201Y27565162D01*
X33185167Y27564838D01*
X33528943Y27706883D01*
X33792192Y27969673D01*
X33934838Y28313201D01*
X33935162Y28685167D01*
X33804931Y29000351D01*
X33934838Y29313201D01*
X33935162Y29685167D01*
X33804931Y30000351D01*
X33853282Y30116793D01*
X37814665Y30116793D01*
X38108630Y29405342D01*
X38652479Y28860543D01*
X39363416Y28565337D01*
X40133207Y28564665D01*
X40844658Y28858630D01*
X41389457Y29402479D01*
X41684663Y30113416D01*
X41685335Y30883207D01*
X41391370Y31594658D01*
X40847521Y32139457D01*
X40136584Y32434663D01*
X39366793Y32435335D01*
X38655342Y32141370D01*
X38110543Y31597521D01*
X37815337Y30886584D01*
X37814665Y30116793D01*
X33853282Y30116793D01*
X33934838Y30313201D01*
X33935162Y30685167D01*
X33804931Y31000351D01*
X33934838Y31313201D01*
X33935162Y31685167D01*
X33804931Y32000351D01*
X33934838Y32313201D01*
X33935162Y32685167D01*
X33793117Y33028943D01*
X33530327Y33292192D01*
X33186799Y33434838D01*
X32814833Y33435162D01*
X32499649Y33304931D01*
X32186799Y33434838D01*
X31814833Y33435162D01*
X31499649Y33304931D01*
X31186799Y33434838D01*
X30814833Y33435162D01*
X30499649Y33304931D01*
X30186799Y33434838D01*
X29814833Y33435162D01*
X29499649Y33304931D01*
X29186799Y33434838D01*
X28814833Y33435162D01*
X28471057Y33293117D01*
X28422424Y33244569D01*
X28209161Y33202148D01*
X27962599Y33037401D01*
X27802263Y32797440D01*
X23900000Y32797440D01*
X23664683Y32753162D01*
X23448559Y32614090D01*
X23303569Y32401890D01*
X23252560Y32150000D01*
X11322131Y32150000D01*
X10636584Y32434663D01*
X9866793Y32435335D01*
X9155342Y32141370D01*
X8610543Y31597521D01*
X8315337Y30886584D01*
X8314665Y30116793D01*
X1627000Y30116793D01*
X1627000Y36497985D01*
X18228641Y36497985D01*
X18613746Y35565959D01*
X19326208Y34852252D01*
X20257561Y34465521D01*
X21266015Y34464641D01*
X22198041Y34849746D01*
X22911748Y35562208D01*
X23298479Y36493561D01*
X23298482Y36497985D01*
X26700641Y36497985D01*
X27085746Y35565959D01*
X27798208Y34852252D01*
X28729561Y34465521D01*
X29738015Y34464641D01*
X30670041Y34849746D01*
X31383748Y35562208D01*
X31770479Y36493561D01*
X31771359Y37502015D01*
X31386254Y38434041D01*
X30673792Y39147748D01*
X29742439Y39534479D01*
X28733985Y39535359D01*
X27801959Y39150254D01*
X27088252Y38437792D01*
X26701521Y37506439D01*
X26700641Y36497985D01*
X23298482Y36497985D01*
X23299359Y37502015D01*
X22914254Y38434041D01*
X22201792Y39147748D01*
X21270439Y39534479D01*
X20261985Y39535359D01*
X19329959Y39150254D01*
X18616252Y38437792D01*
X18229521Y37506439D01*
X18228641Y36497985D01*
X1627000Y36497985D01*
X1627000Y37873000D01*
X4500000Y37873000D01*
X4549410Y37883006D01*
X4589803Y37910197D01*
X5089803Y38410197D01*
X5117666Y38452211D01*
X5127000Y38500000D01*
X5127000Y38684845D01*
X5318775Y38971857D01*
X5431786Y39540000D01*
X5318775Y40108143D01*
X5127000Y40395155D01*
X5127000Y40500000D01*
X5116994Y40549410D01*
X5089803Y40589803D01*
X4589803Y41089803D01*
X4547789Y41117666D01*
X4500000Y41127000D01*
X1627000Y41127000D01*
X1627000Y43116793D01*
X8314665Y43116793D01*
X8608630Y42405342D01*
X9152479Y41860543D01*
X9863416Y41565337D01*
X10633207Y41564665D01*
X11344658Y41858630D01*
X11889457Y42402479D01*
X12184663Y43113416D01*
X12185335Y43883207D01*
X11891370Y44594658D01*
X11347521Y45139457D01*
X11322131Y45150000D01*
X23252560Y45150000D01*
X23252560Y41850000D01*
X23296838Y41614683D01*
X23435910Y41398559D01*
X23648110Y41253569D01*
X23900000Y41202560D01*
X27802263Y41202560D01*
X27962599Y40962599D01*
X28209161Y40797852D01*
X28422061Y40755503D01*
X28469673Y40707808D01*
X28813201Y40565162D01*
X29185167Y40564838D01*
X29500351Y40695069D01*
X29813201Y40565162D01*
X30185167Y40564838D01*
X30500351Y40695069D01*
X30813201Y40565162D01*
X31185167Y40564838D01*
X31500351Y40695069D01*
X31813201Y40565162D01*
X32185167Y40564838D01*
X32500351Y40695069D01*
X32813201Y40565162D01*
X33185167Y40564838D01*
X33528943Y40706883D01*
X33792192Y40969673D01*
X33934838Y41313201D01*
X33935162Y41685167D01*
X33804931Y42000351D01*
X33934838Y42313201D01*
X33935162Y42685167D01*
X33804931Y43000351D01*
X33853282Y43116793D01*
X37814665Y43116793D01*
X38108630Y42405342D01*
X38652479Y41860543D01*
X39363416Y41565337D01*
X40133207Y41564665D01*
X40844658Y41858630D01*
X41389457Y42402479D01*
X41684663Y43113416D01*
X41685335Y43883207D01*
X41391370Y44594658D01*
X40847521Y45139457D01*
X40136584Y45434663D01*
X39366793Y45435335D01*
X38655342Y45141370D01*
X38110543Y44597521D01*
X37815337Y43886584D01*
X37814665Y43116793D01*
X33853282Y43116793D01*
X33934838Y43313201D01*
X33935162Y43685167D01*
X33804931Y44000351D01*
X33934838Y44313201D01*
X33935162Y44685167D01*
X33804931Y45000351D01*
X33934838Y45313201D01*
X33935162Y45685167D01*
X33793117Y46028943D01*
X33530327Y46292192D01*
X33186799Y46434838D01*
X32814833Y46435162D01*
X32499649Y46304931D01*
X32186799Y46434838D01*
X31814833Y46435162D01*
X31499649Y46304931D01*
X31186799Y46434838D01*
X30814833Y46435162D01*
X30499649Y46304931D01*
X30186799Y46434838D01*
X29814833Y46435162D01*
X29499649Y46304931D01*
X29186799Y46434838D01*
X28814833Y46435162D01*
X28471057Y46293117D01*
X28422424Y46244569D01*
X28209161Y46202148D01*
X27962599Y46037401D01*
X27802263Y45797440D01*
X23900000Y45797440D01*
X23664683Y45753162D01*
X23448559Y45614090D01*
X23303569Y45401890D01*
X23252560Y45150000D01*
X11322131Y45150000D01*
X10636584Y45434663D01*
X9866793Y45435335D01*
X9155342Y45141370D01*
X8610543Y44597521D01*
X8315337Y43886584D01*
X8314665Y43116793D01*
X1627000Y43116793D01*
X1627000Y49497985D01*
X18228641Y49497985D01*
X18613746Y48565959D01*
X19326208Y47852252D01*
X20257561Y47465521D01*
X21266015Y47464641D01*
X22198041Y47849746D01*
X22911748Y48562208D01*
X23298479Y49493561D01*
X23298482Y49497985D01*
X26700641Y49497985D01*
X27085746Y48565959D01*
X27798208Y47852252D01*
X28729561Y47465521D01*
X29738015Y47464641D01*
X30670041Y47849746D01*
X31383748Y48562208D01*
X31770479Y49493561D01*
X31771359Y50502015D01*
X31386254Y51434041D01*
X30673792Y52147748D01*
X29742439Y52534479D01*
X28733985Y52535359D01*
X27801959Y52150254D01*
X27088252Y51437792D01*
X26701521Y50506439D01*
X26700641Y49497985D01*
X23298482Y49497985D01*
X23299359Y50502015D01*
X22914254Y51434041D01*
X22201792Y52147748D01*
X21270439Y52534479D01*
X20261985Y52535359D01*
X19329959Y52150254D01*
X18616252Y51437792D01*
X18229521Y50506439D01*
X18228641Y49497985D01*
X1627000Y49497985D01*
X1627000Y50873000D01*
X4000000Y50873000D01*
X4049410Y50883006D01*
X4089803Y50910197D01*
X4306443Y51126837D01*
X4515299Y51168381D01*
X4996948Y51490208D01*
X5318775Y51971857D01*
X5431786Y52540000D01*
X5318775Y53108143D01*
X5127000Y53395155D01*
X5127000Y54447394D01*
X6589803Y55910197D01*
X6617666Y55952211D01*
X6627000Y56000000D01*
X6627000Y57974600D01*
X8909800Y57974600D01*
X8909800Y57474600D01*
X9002507Y57059332D01*
X9247073Y56711152D01*
X9606265Y56483067D01*
X9804414Y56427488D01*
X9974600Y56492670D01*
X9974600Y57974600D01*
X10025400Y57974600D01*
X10025400Y56492670D01*
X10195586Y56427488D01*
X10393735Y56483067D01*
X10752927Y56711152D01*
X10997493Y57059332D01*
X11090200Y57474600D01*
X11090200Y57974600D01*
X11449800Y57974600D01*
X11449800Y57474600D01*
X11542507Y57059332D01*
X11787073Y56711152D01*
X12146265Y56483067D01*
X12344414Y56427488D01*
X12514600Y56492670D01*
X12514600Y57974600D01*
X12565400Y57974600D01*
X12565400Y56492670D01*
X12735586Y56427488D01*
X12933735Y56483067D01*
X13292927Y56711152D01*
X13537493Y57059332D01*
X13630200Y57474600D01*
X13630200Y57974600D01*
X12565400Y57974600D01*
X12514600Y57974600D01*
X11449800Y57974600D01*
X11090200Y57974600D01*
X10025400Y57974600D01*
X9974600Y57974600D01*
X8909800Y57974600D01*
X6627000Y57974600D01*
X6627000Y59123000D01*
X9130579Y59123000D01*
X9002507Y58940668D01*
G36*
X33123000Y28377000D02*
X28802606Y28377000D01*
X28377000Y28802606D01*
X28377000Y32197394D01*
X28802606Y32623000D01*
X33123000Y32623000D01*
X33123000Y28377000D01*
X33123000Y28377000D01*
G37*
X33123000Y28377000D02*
X28802606Y28377000D01*
X28377000Y28802606D01*
X28377000Y32197394D01*
X28802606Y32623000D01*
X33123000Y32623000D01*
X33123000Y28377000D01*
G36*
X33123000Y15377000D02*
X28802606Y15377000D01*
X28377000Y15802606D01*
X28377000Y19197394D01*
X28802606Y19623000D01*
X33123000Y19623000D01*
X33123000Y15377000D01*
X33123000Y15377000D01*
G37*
X33123000Y15377000D02*
X28802606Y15377000D01*
X28377000Y15802606D01*
X28377000Y19197394D01*
X28802606Y19623000D01*
X33123000Y19623000D01*
X33123000Y15377000D01*
G36*
X33123000Y41377000D02*
X28802606Y41377000D01*
X28377000Y41802606D01*
X28377000Y45197394D01*
X28802606Y45623000D01*
X33123000Y45623000D01*
X33123000Y41377000D01*
X33123000Y41377000D01*
G37*
X33123000Y41377000D02*
X28802606Y41377000D01*
X28377000Y41802606D01*
X28377000Y45197394D01*
X28802606Y45623000D01*
X33123000Y45623000D01*
X33123000Y41377000D01*
M02*
