G04 #@! TF.FileFunction,Soldermask,Bot*
%FSLAX46Y46*%
G04 Gerber Fmt 4.6, Leading zero omitted, Abs format (unit mm)*
G04 Created by KiCad (PCBNEW 4.0.4-stable) date 03/07/19 13:46:32*
%MOMM*%
%LPD*%
G01*
G04 APERTURE LIST*
%ADD10C,0.100000*%
%ADD11C,3.600000*%
%ADD12O,3.900120X2.099260*%
%ADD13C,4.199840*%
%ADD14C,3.000000*%
%ADD15O,1.920000X2.920000*%
%ADD16R,4.900000X3.700000*%
%ADD17C,0.254000*%
G04 APERTURE END LIST*
D10*
D11*
X3000000Y57000000D03*
X3000000Y3000000D03*
D12*
X47000000Y47460000D03*
X47000000Y52540000D03*
D13*
X29236000Y50000000D03*
D12*
X3000000Y39540000D03*
X3000000Y34460000D03*
D13*
X20764000Y37000000D03*
D12*
X47000000Y34460000D03*
X47000000Y39540000D03*
D13*
X29236000Y37000000D03*
D12*
X3000000Y52540000D03*
X3000000Y47460000D03*
D13*
X20764000Y50000000D03*
D14*
X39750000Y43500000D03*
X39750000Y30500000D03*
X39750000Y17500000D03*
X39750000Y3500000D03*
X10250000Y3500000D03*
X10250000Y17500000D03*
X10250000Y30500000D03*
D11*
X47000000Y3000000D03*
X47000000Y57000000D03*
D15*
X10000000Y58000000D03*
X12540000Y58000000D03*
X40000000Y58000000D03*
X37460000Y58000000D03*
D14*
X10250000Y43500000D03*
D12*
X47000000Y8460000D03*
X47000000Y13540000D03*
D13*
X29236000Y11000000D03*
D12*
X47000000Y21460000D03*
X47000000Y26540000D03*
D13*
X29236000Y24000000D03*
D12*
X3000000Y26540000D03*
X3000000Y21460000D03*
D13*
X20764000Y24000000D03*
D12*
X3000000Y13540000D03*
X3000000Y8460000D03*
D13*
X20764000Y11000000D03*
D15*
X16100000Y2000000D03*
X18640000Y2000000D03*
X21180000Y2000000D03*
X23720000Y2000000D03*
X26260000Y2000000D03*
X28800000Y2000000D03*
X31340000Y2000000D03*
X33880000Y2000000D03*
D16*
X27150000Y56750000D03*
X18350000Y56750000D03*
X26150000Y43500000D03*
X17350000Y43500000D03*
X26150000Y30500000D03*
X17350000Y30500000D03*
X26150000Y17500000D03*
X17350000Y17500000D03*
D17*
G36*
X13873000Y627000D02*
X6627000Y627000D01*
X6627000Y5750000D01*
X6616994Y5799410D01*
X6583630Y5845577D01*
X6297916Y6095577D01*
X6254142Y6120584D01*
X6214286Y6127000D01*
X2552606Y6127000D01*
X1627000Y7052606D01*
X1627000Y9947394D01*
X2552606Y10873000D01*
X6214286Y10873000D01*
X6263696Y10883006D01*
X6297916Y10904423D01*
X6583630Y11154423D01*
X6614226Y11194490D01*
X6627000Y11250000D01*
X6627000Y18750000D01*
X6616994Y18799410D01*
X6583630Y18845577D01*
X6297916Y19095577D01*
X6254142Y19120584D01*
X6214286Y19127000D01*
X2552606Y19127000D01*
X1627000Y20052606D01*
X1627000Y22947394D01*
X2552606Y23873000D01*
X6214286Y23873000D01*
X6263696Y23883006D01*
X6297916Y23904423D01*
X6583630Y24154423D01*
X6614226Y24194490D01*
X6627000Y24250000D01*
X6627000Y31750000D01*
X6616994Y31799410D01*
X6589803Y31839803D01*
X6339803Y32089803D01*
X6297789Y32117666D01*
X6250000Y32127000D01*
X2552606Y32127000D01*
X1627000Y33052606D01*
X1627000Y35947394D01*
X2552606Y36873000D01*
X6250000Y36873000D01*
X6299410Y36883006D01*
X6339803Y36910197D01*
X6589803Y37160197D01*
X6617666Y37202211D01*
X6627000Y37250000D01*
X6627000Y44750000D01*
X6616994Y44799410D01*
X6589803Y44839803D01*
X6339803Y45089803D01*
X6297789Y45117666D01*
X6250000Y45127000D01*
X2552606Y45127000D01*
X1627000Y46052606D01*
X1627000Y48947394D01*
X2552606Y49873000D01*
X6250000Y49873000D01*
X6299410Y49883006D01*
X6339803Y49910197D01*
X6589803Y50160197D01*
X6617666Y50202211D01*
X6627000Y50250000D01*
X6627000Y56373000D01*
X13873000Y56373000D01*
X13873000Y627000D01*
X13873000Y627000D01*
G37*
X13873000Y627000D02*
X6627000Y627000D01*
X6627000Y5750000D01*
X6616994Y5799410D01*
X6583630Y5845577D01*
X6297916Y6095577D01*
X6254142Y6120584D01*
X6214286Y6127000D01*
X2552606Y6127000D01*
X1627000Y7052606D01*
X1627000Y9947394D01*
X2552606Y10873000D01*
X6214286Y10873000D01*
X6263696Y10883006D01*
X6297916Y10904423D01*
X6583630Y11154423D01*
X6614226Y11194490D01*
X6627000Y11250000D01*
X6627000Y18750000D01*
X6616994Y18799410D01*
X6583630Y18845577D01*
X6297916Y19095577D01*
X6254142Y19120584D01*
X6214286Y19127000D01*
X2552606Y19127000D01*
X1627000Y20052606D01*
X1627000Y22947394D01*
X2552606Y23873000D01*
X6214286Y23873000D01*
X6263696Y23883006D01*
X6297916Y23904423D01*
X6583630Y24154423D01*
X6614226Y24194490D01*
X6627000Y24250000D01*
X6627000Y31750000D01*
X6616994Y31799410D01*
X6589803Y31839803D01*
X6339803Y32089803D01*
X6297789Y32117666D01*
X6250000Y32127000D01*
X2552606Y32127000D01*
X1627000Y33052606D01*
X1627000Y35947394D01*
X2552606Y36873000D01*
X6250000Y36873000D01*
X6299410Y36883006D01*
X6339803Y36910197D01*
X6589803Y37160197D01*
X6617666Y37202211D01*
X6627000Y37250000D01*
X6627000Y44750000D01*
X6616994Y44799410D01*
X6589803Y44839803D01*
X6339803Y45089803D01*
X6297789Y45117666D01*
X6250000Y45127000D01*
X2552606Y45127000D01*
X1627000Y46052606D01*
X1627000Y48947394D01*
X2552606Y49873000D01*
X6250000Y49873000D01*
X6299410Y49883006D01*
X6339803Y49910197D01*
X6589803Y50160197D01*
X6617666Y50202211D01*
X6627000Y50250000D01*
X6627000Y56373000D01*
X13873000Y56373000D01*
X13873000Y627000D01*
G36*
X43660197Y54910197D02*
X43702211Y54882334D01*
X43750000Y54873000D01*
X44947394Y54873000D01*
X45910197Y53910197D01*
X45952211Y53882334D01*
X46000000Y53873000D01*
X48373000Y53873000D01*
X48373000Y51052606D01*
X47447394Y50127000D01*
X43750000Y50127000D01*
X43700590Y50116994D01*
X43660197Y50089803D01*
X43410197Y49839803D01*
X43382334Y49797789D01*
X43373000Y49750000D01*
X43373000Y42250000D01*
X43383006Y42200590D01*
X43410197Y42160197D01*
X43660197Y41910197D01*
X43702211Y41882334D01*
X43750000Y41873000D01*
X47447394Y41873000D01*
X48373000Y40947394D01*
X48373000Y38052606D01*
X47447394Y37127000D01*
X43750000Y37127000D01*
X43700590Y37116994D01*
X43660197Y37089803D01*
X43410197Y36839803D01*
X43382334Y36797789D01*
X43373000Y36750000D01*
X43373000Y29250000D01*
X43383006Y29200590D01*
X43410197Y29160197D01*
X43660197Y28910197D01*
X43702211Y28882334D01*
X43750000Y28873000D01*
X47447394Y28873000D01*
X48373000Y27947394D01*
X48373000Y25052606D01*
X47447394Y24127000D01*
X43750000Y24127000D01*
X43700590Y24116994D01*
X43660197Y24089803D01*
X43410197Y23839803D01*
X43382334Y23797789D01*
X43373000Y23750000D01*
X43373000Y16250000D01*
X43383006Y16200590D01*
X43410197Y16160197D01*
X43660197Y15910197D01*
X43702211Y15882334D01*
X43750000Y15873000D01*
X47447394Y15873000D01*
X48373000Y14947394D01*
X48373000Y12052606D01*
X47447394Y11127000D01*
X43750000Y11127000D01*
X43700590Y11116994D01*
X43660197Y11089803D01*
X43410197Y10839803D01*
X43382334Y10797789D01*
X43373000Y10750000D01*
X43373000Y627000D01*
X36127000Y627000D01*
X36127000Y55123000D01*
X43447394Y55123000D01*
X43660197Y54910197D01*
X43660197Y54910197D01*
G37*
X43660197Y54910197D02*
X43702211Y54882334D01*
X43750000Y54873000D01*
X44947394Y54873000D01*
X45910197Y53910197D01*
X45952211Y53882334D01*
X46000000Y53873000D01*
X48373000Y53873000D01*
X48373000Y51052606D01*
X47447394Y50127000D01*
X43750000Y50127000D01*
X43700590Y50116994D01*
X43660197Y50089803D01*
X43410197Y49839803D01*
X43382334Y49797789D01*
X43373000Y49750000D01*
X43373000Y42250000D01*
X43383006Y42200590D01*
X43410197Y42160197D01*
X43660197Y41910197D01*
X43702211Y41882334D01*
X43750000Y41873000D01*
X47447394Y41873000D01*
X48373000Y40947394D01*
X48373000Y38052606D01*
X47447394Y37127000D01*
X43750000Y37127000D01*
X43700590Y37116994D01*
X43660197Y37089803D01*
X43410197Y36839803D01*
X43382334Y36797789D01*
X43373000Y36750000D01*
X43373000Y29250000D01*
X43383006Y29200590D01*
X43410197Y29160197D01*
X43660197Y28910197D01*
X43702211Y28882334D01*
X43750000Y28873000D01*
X47447394Y28873000D01*
X48373000Y27947394D01*
X48373000Y25052606D01*
X47447394Y24127000D01*
X43750000Y24127000D01*
X43700590Y24116994D01*
X43660197Y24089803D01*
X43410197Y23839803D01*
X43382334Y23797789D01*
X43373000Y23750000D01*
X43373000Y16250000D01*
X43383006Y16200590D01*
X43410197Y16160197D01*
X43660197Y15910197D01*
X43702211Y15882334D01*
X43750000Y15873000D01*
X47447394Y15873000D01*
X48373000Y14947394D01*
X48373000Y12052606D01*
X47447394Y11127000D01*
X43750000Y11127000D01*
X43700590Y11116994D01*
X43660197Y11089803D01*
X43410197Y10839803D01*
X43382334Y10797789D01*
X43373000Y10750000D01*
X43373000Y627000D01*
X36127000Y627000D01*
X36127000Y55123000D01*
X43447394Y55123000D01*
X43660197Y54910197D01*
G36*
X34123000Y54627000D02*
X29377000Y54627000D01*
X29377000Y59373000D01*
X34123000Y59373000D01*
X34123000Y54627000D01*
X34123000Y54627000D01*
G37*
X34123000Y54627000D02*
X29377000Y54627000D01*
X29377000Y59373000D01*
X34123000Y59373000D01*
X34123000Y54627000D01*
G36*
X33123000Y41377000D02*
X28377000Y41377000D01*
X28377000Y45623000D01*
X33123000Y45623000D01*
X33123000Y41377000D01*
X33123000Y41377000D01*
G37*
X33123000Y41377000D02*
X28377000Y41377000D01*
X28377000Y45623000D01*
X33123000Y45623000D01*
X33123000Y41377000D01*
G36*
X33123000Y28377000D02*
X28377000Y28377000D01*
X28377000Y32623000D01*
X33123000Y32623000D01*
X33123000Y28377000D01*
X33123000Y28377000D01*
G37*
X33123000Y28377000D02*
X28377000Y28377000D01*
X28377000Y32623000D01*
X33123000Y32623000D01*
X33123000Y28377000D01*
G36*
X33123000Y15377000D02*
X28377000Y15377000D01*
X28377000Y19623000D01*
X33123000Y19623000D01*
X33123000Y15377000D01*
X33123000Y15377000D01*
G37*
X33123000Y15377000D02*
X28377000Y15377000D01*
X28377000Y19623000D01*
X33123000Y19623000D01*
X33123000Y15377000D01*
M02*
