G04 #@! TF.FileFunction,Copper,L1,Top,Signal*
%FSLAX46Y46*%
G04 Gerber Fmt 4.6, Leading zero omitted, Abs format (unit mm)*
G04 Created by KiCad (PCBNEW 4.0.4-stable) date 03/07/19 13:46:32*
%MOMM*%
%LPD*%
G01*
G04 APERTURE LIST*
%ADD10C,0.100000*%
%ADD11O,3.500120X1.699260*%
%ADD12O,1.520000X2.520000*%
%ADD13R,2.000000X1.700000*%
%ADD14C,0.600000*%
%ADD15C,0.250000*%
%ADD16C,0.500000*%
%ADD17C,0.350000*%
%ADD18C,1.000000*%
%ADD19C,0.254000*%
G04 APERTURE END LIST*
D10*
D11*
X47000000Y50000000D03*
X47000000Y47460000D03*
X47000000Y52540000D03*
X3000000Y37000000D03*
X3000000Y39540000D03*
X3000000Y34460000D03*
X47000000Y37000000D03*
X47000000Y34460000D03*
X47000000Y39540000D03*
X3000000Y50000000D03*
X3000000Y52540000D03*
X3000000Y47460000D03*
D12*
X10000000Y58000000D03*
X12540000Y58000000D03*
X40000000Y58000000D03*
X37460000Y58000000D03*
D11*
X47000000Y11000000D03*
X47000000Y8460000D03*
X47000000Y13540000D03*
X47000000Y24000000D03*
X47000000Y21460000D03*
X47000000Y26540000D03*
X3000000Y24000000D03*
X3000000Y26540000D03*
X3000000Y21460000D03*
X3000000Y11000000D03*
X3000000Y13540000D03*
X3000000Y8460000D03*
D12*
X16100000Y2000000D03*
X18640000Y2000000D03*
X21180000Y2000000D03*
X23720000Y2000000D03*
X26260000Y2000000D03*
X28800000Y2000000D03*
X31340000Y2000000D03*
X33880000Y2000000D03*
D13*
X43000000Y8500000D03*
X39000000Y8500000D03*
X43000000Y22000000D03*
X39000000Y22000000D03*
X43000000Y35000000D03*
X39000000Y35000000D03*
X43000000Y48000000D03*
X39000000Y48000000D03*
X7000000Y52500000D03*
X11000000Y52500000D03*
X7000000Y39000000D03*
X11000000Y39000000D03*
X7000000Y26000000D03*
X11000000Y26000000D03*
X7000000Y13000000D03*
X11000000Y13000000D03*
D14*
X29000000Y15500000D03*
X30000000Y15500000D03*
X31000000Y15500000D03*
X32000000Y15500000D03*
X33000000Y15500000D03*
X33000000Y16500000D03*
X33000000Y17500000D03*
X33000000Y18500000D03*
X33000000Y19500000D03*
X32000000Y19500000D03*
X31000000Y19500000D03*
X30000000Y19500000D03*
X29000000Y19500000D03*
X29000000Y18500000D03*
X30000000Y18500000D03*
X31000000Y18500000D03*
X32000000Y18500000D03*
X32000000Y17500000D03*
X31000000Y17500000D03*
X30000000Y17500000D03*
X29000000Y17500000D03*
X29000000Y16500000D03*
X30000000Y16500000D03*
X31000000Y16500000D03*
X32000000Y16500000D03*
X29000000Y28500000D03*
X30000000Y28500000D03*
X31000000Y28500000D03*
X32000000Y28500000D03*
X33000000Y28500000D03*
X33000000Y29500000D03*
X33000000Y30500000D03*
X33000000Y31500000D03*
X33000000Y32500000D03*
X32000000Y32500000D03*
X31000000Y32500000D03*
X30000000Y32500000D03*
X29000000Y32500000D03*
X29000000Y31500000D03*
X30000000Y31500000D03*
X31000000Y31500000D03*
X32000000Y31500000D03*
X32000000Y30500000D03*
X31000000Y30500000D03*
X30000000Y30500000D03*
X29000000Y30500000D03*
X29000000Y29500000D03*
X30000000Y29500000D03*
X31000000Y29500000D03*
X32000000Y29500000D03*
X33000000Y41500000D03*
X33000000Y42500000D03*
X33000000Y43500000D03*
X33000000Y44500000D03*
X33000000Y45500000D03*
X32000000Y45500000D03*
X31000000Y45500000D03*
X30000000Y45500000D03*
X29000000Y45500000D03*
X32000000Y41500000D03*
X29000000Y41500000D03*
X30000000Y41500000D03*
X31000000Y41500000D03*
X29000000Y44500000D03*
X30000000Y44500000D03*
X31000000Y44500000D03*
X32000000Y44500000D03*
X32000000Y43500000D03*
X31000000Y43500000D03*
X30000000Y43500000D03*
X29000000Y43500000D03*
X29000000Y42500000D03*
X30000000Y42500000D03*
X31000000Y42500000D03*
X32000000Y42500000D03*
X33750000Y55000000D03*
X33750000Y56000000D03*
X33750000Y57000000D03*
X33750000Y58000000D03*
X33750000Y59000000D03*
X29750000Y59000000D03*
X30750000Y59000000D03*
X31750000Y59000000D03*
X32750000Y59000000D03*
X29750000Y55000000D03*
X31750000Y55000000D03*
X30750000Y55000000D03*
X32750000Y55000000D03*
X32750000Y57000000D03*
X31750000Y57000000D03*
X30750000Y57000000D03*
X29750000Y57000000D03*
X29750000Y56000000D03*
X30750000Y56000000D03*
X31750000Y56000000D03*
X32750000Y56000000D03*
X29750000Y58000000D03*
X30750000Y58000000D03*
X31750000Y58000000D03*
X32750000Y58000000D03*
D15*
X30000000Y15500000D02*
X29000000Y15500000D01*
X31000000Y15500000D02*
X32000000Y15500000D01*
X33000000Y15500000D02*
X33000000Y16500000D01*
X33000000Y17500000D02*
X33000000Y18500000D01*
X33000000Y19500000D02*
X32000000Y19500000D01*
X31000000Y19500000D02*
X30000000Y19500000D01*
X29000000Y18500000D02*
X30000000Y18500000D01*
X31000000Y18500000D02*
X32000000Y18500000D01*
X32000000Y17500000D02*
X31000000Y17500000D01*
X30000000Y17500000D02*
X29000000Y17500000D01*
X29000000Y16500000D02*
X30000000Y16500000D01*
X31000000Y16500000D02*
X32000000Y16500000D01*
X30000000Y28500000D02*
X29000000Y28500000D01*
X31000000Y28500000D02*
X32000000Y28500000D01*
X33000000Y28500000D02*
X33000000Y29500000D01*
X33000000Y30500000D02*
X33000000Y31500000D01*
X33000000Y32500000D02*
X32000000Y32500000D01*
X31000000Y32500000D02*
X30000000Y32500000D01*
X29000000Y31500000D02*
X30000000Y31500000D01*
X31000000Y31500000D02*
X32000000Y31500000D01*
X32000000Y30500000D02*
X31000000Y30500000D01*
X30000000Y30500000D02*
X29000000Y30500000D01*
X29000000Y29500000D02*
X30000000Y29500000D01*
X31000000Y29500000D02*
X32000000Y29500000D01*
X33000000Y42500000D02*
X33000000Y43500000D01*
X33000000Y44500000D02*
X33000000Y45500000D01*
X32000000Y45500000D02*
X31000000Y45500000D01*
X30000000Y45500000D02*
X29000000Y45500000D01*
X33000000Y41500000D02*
X32000000Y41500000D01*
X30000000Y41500000D02*
X29000000Y41500000D01*
X31000000Y41500000D02*
X32000000Y41500000D01*
X29000000Y44500000D02*
X30000000Y44500000D01*
X31000000Y44500000D02*
X32000000Y44500000D01*
X32000000Y43500000D02*
X31000000Y43500000D01*
X30000000Y43500000D02*
X29000000Y43500000D01*
X29000000Y42500000D02*
X30000000Y42500000D01*
X31000000Y42500000D02*
X32000000Y42500000D01*
D16*
X37460000Y58000000D02*
X33750000Y58000000D01*
D17*
X33750000Y55000000D02*
X32750000Y55000000D01*
X33750000Y57000000D02*
X33750000Y56000000D01*
X33750000Y59000000D02*
X33750000Y58000000D01*
X30750000Y59000000D02*
X29750000Y59000000D01*
X32750000Y59000000D02*
X31750000Y59000000D01*
D15*
X32750000Y55000000D02*
X31750000Y55000000D01*
X30750000Y55000000D02*
X29750000Y55000000D01*
X32750000Y57000000D02*
X31750000Y57000000D01*
X30750000Y57000000D02*
X29750000Y57000000D01*
X29750000Y56000000D02*
X30750000Y56000000D01*
X31750000Y56000000D02*
X32750000Y56000000D01*
X29750000Y58000000D02*
X30750000Y58000000D01*
X31750000Y58000000D02*
X32750000Y58000000D01*
D18*
X14500000Y13000000D02*
X11000000Y13000000D01*
X14500000Y26000000D02*
X11000000Y26000000D01*
X14500000Y39000000D02*
X11000000Y39000000D01*
X16100000Y2000000D02*
X15500000Y2000000D01*
X15500000Y2000000D02*
X14500000Y3000000D01*
X14000000Y52500000D02*
X11000000Y52500000D01*
X14500000Y52000000D02*
X14000000Y52500000D01*
X14500000Y3000000D02*
X14500000Y13000000D01*
X14500000Y13000000D02*
X14500000Y26000000D01*
X14500000Y26000000D02*
X14500000Y39000000D01*
X14500000Y39000000D02*
X14500000Y52000000D01*
X35500000Y8500000D02*
X39000000Y8500000D01*
X35500000Y22000000D02*
X39000000Y22000000D01*
X35500000Y35000000D02*
X39000000Y35000000D01*
X16100000Y2000000D02*
X33880000Y2000000D01*
X33880000Y2000000D02*
X35500000Y3620000D01*
X35500000Y3620000D02*
X35500000Y8500000D01*
X35500000Y8500000D02*
X35500000Y22000000D01*
X35500000Y22000000D02*
X35500000Y35000000D01*
X35500000Y35000000D02*
X35500000Y47500000D01*
X35500000Y47500000D02*
X36000000Y48000000D01*
X36000000Y48000000D02*
X39000000Y48000000D01*
D16*
X18640000Y2760000D02*
X18640000Y2000000D01*
X18640000Y2000000D02*
X18640000Y2460000D01*
X18640000Y2000000D02*
X18640000Y2360000D01*
X18640000Y2000000D02*
X18640000Y2860000D01*
X21180000Y2000000D02*
X21180000Y2820000D01*
X28800000Y2000000D02*
X28800000Y2500000D01*
X31340000Y2000000D02*
X31340000Y2540000D01*
X31340000Y2000000D02*
X31340000Y2240000D01*
X31340000Y2000000D02*
X31340000Y2840000D01*
X31340000Y2000000D02*
X31340000Y2340000D01*
X31340000Y3000000D02*
X31340000Y2000000D01*
X33880000Y2000000D02*
X34400000Y2000000D01*
X33880000Y2000000D02*
X34000000Y2000000D01*
X47000000Y8460000D02*
X43040000Y8460000D01*
X43040000Y8460000D02*
X43000000Y8500000D01*
X47000000Y21460000D02*
X43540000Y21460000D01*
X43540000Y21460000D02*
X43000000Y22000000D01*
X45710000Y21460000D02*
X47000000Y21460000D01*
X47000000Y34460000D02*
X43540000Y34460000D01*
X43540000Y34460000D02*
X43000000Y35000000D01*
X43000000Y48000000D02*
X43500000Y48000000D01*
X43500000Y48000000D02*
X44040000Y47460000D01*
X44040000Y47460000D02*
X47000000Y47460000D01*
X7000000Y52500000D02*
X3040000Y52500000D01*
X3040000Y52500000D02*
X3000000Y52540000D01*
X3040000Y52500000D02*
X3000000Y52540000D01*
X3000000Y39540000D02*
X6460000Y39540000D01*
X6460000Y39540000D02*
X7000000Y39000000D01*
X3540000Y39000000D02*
X3000000Y39540000D01*
X3000000Y26540000D02*
X6460000Y26540000D01*
X6460000Y26540000D02*
X7000000Y26000000D01*
X3540000Y26000000D02*
X3000000Y26540000D01*
X3000000Y13540000D02*
X6460000Y13540000D01*
X6460000Y13540000D02*
X7000000Y13000000D01*
X3540000Y13000000D02*
X3000000Y13540000D01*
D19*
G36*
X34123000Y54627000D02*
X33500000Y54627000D01*
X33450590Y54616994D01*
X33408965Y54588553D01*
X33381685Y54546159D01*
X33373000Y54500000D01*
X33373000Y5627000D01*
X16627000Y5627000D01*
X16627000Y10497985D01*
X18228641Y10497985D01*
X18613746Y9565959D01*
X19326208Y8852252D01*
X20257561Y8465521D01*
X21266015Y8464641D01*
X22198041Y8849746D01*
X22911748Y9562208D01*
X23298479Y10493561D01*
X23298482Y10497985D01*
X26700641Y10497985D01*
X27085746Y9565959D01*
X27798208Y8852252D01*
X28729561Y8465521D01*
X29738015Y8464641D01*
X30670041Y8849746D01*
X31383748Y9562208D01*
X31770479Y10493561D01*
X31771359Y11502015D01*
X31386254Y12434041D01*
X30673792Y13147748D01*
X29742439Y13534479D01*
X28733985Y13535359D01*
X27801959Y13150254D01*
X27088252Y12437792D01*
X26701521Y11506439D01*
X26700641Y10497985D01*
X23298482Y10497985D01*
X23299359Y11502015D01*
X22914254Y12434041D01*
X22201792Y13147748D01*
X21270439Y13534479D01*
X20261985Y13535359D01*
X19329959Y13150254D01*
X18616252Y12437792D01*
X18229521Y11506439D01*
X18228641Y10497985D01*
X16627000Y10497985D01*
X16627000Y23497985D01*
X18228641Y23497985D01*
X18613746Y22565959D01*
X19326208Y21852252D01*
X20257561Y21465521D01*
X21266015Y21464641D01*
X22198041Y21849746D01*
X22911748Y22562208D01*
X23298479Y23493561D01*
X23298482Y23497985D01*
X26700641Y23497985D01*
X27085746Y22565959D01*
X27798208Y21852252D01*
X28729561Y21465521D01*
X29738015Y21464641D01*
X30670041Y21849746D01*
X31383748Y22562208D01*
X31770479Y23493561D01*
X31771359Y24502015D01*
X31386254Y25434041D01*
X30673792Y26147748D01*
X29742439Y26534479D01*
X28733985Y26535359D01*
X27801959Y26150254D01*
X27088252Y25437792D01*
X26701521Y24506439D01*
X26700641Y23497985D01*
X23298482Y23497985D01*
X23299359Y24502015D01*
X22914254Y25434041D01*
X22201792Y26147748D01*
X21270439Y26534479D01*
X20261985Y26535359D01*
X19329959Y26150254D01*
X18616252Y25437792D01*
X18229521Y24506439D01*
X18228641Y23497985D01*
X16627000Y23497985D01*
X16627000Y36497985D01*
X18228641Y36497985D01*
X18613746Y35565959D01*
X19326208Y34852252D01*
X20257561Y34465521D01*
X21266015Y34464641D01*
X22198041Y34849746D01*
X22911748Y35562208D01*
X23298479Y36493561D01*
X23298482Y36497985D01*
X26700641Y36497985D01*
X27085746Y35565959D01*
X27798208Y34852252D01*
X28729561Y34465521D01*
X29738015Y34464641D01*
X30670041Y34849746D01*
X31383748Y35562208D01*
X31770479Y36493561D01*
X31771359Y37502015D01*
X31386254Y38434041D01*
X30673792Y39147748D01*
X29742439Y39534479D01*
X28733985Y39535359D01*
X27801959Y39150254D01*
X27088252Y38437792D01*
X26701521Y37506439D01*
X26700641Y36497985D01*
X23298482Y36497985D01*
X23299359Y37502015D01*
X22914254Y38434041D01*
X22201792Y39147748D01*
X21270439Y39534479D01*
X20261985Y39535359D01*
X19329959Y39150254D01*
X18616252Y38437792D01*
X18229521Y37506439D01*
X18228641Y36497985D01*
X16627000Y36497985D01*
X16627000Y49497985D01*
X18228641Y49497985D01*
X18613746Y48565959D01*
X19326208Y47852252D01*
X20257561Y47465521D01*
X21266015Y47464641D01*
X22198041Y47849746D01*
X22911748Y48562208D01*
X23298479Y49493561D01*
X23298482Y49497985D01*
X26700641Y49497985D01*
X27085746Y48565959D01*
X27798208Y47852252D01*
X28729561Y47465521D01*
X29738015Y47464641D01*
X30670041Y47849746D01*
X31383748Y48562208D01*
X31770479Y49493561D01*
X31771359Y50502015D01*
X31386254Y51434041D01*
X30673792Y52147748D01*
X29742439Y52534479D01*
X28733985Y52535359D01*
X27801959Y52150254D01*
X27088252Y51437792D01*
X26701521Y50506439D01*
X26700641Y49497985D01*
X23298482Y49497985D01*
X23299359Y50502015D01*
X22914254Y51434041D01*
X22201792Y52147748D01*
X21270439Y52534479D01*
X20261985Y52535359D01*
X19329959Y52150254D01*
X18616252Y51437792D01*
X18229521Y50506439D01*
X18228641Y49497985D01*
X16627000Y49497985D01*
X16627000Y58873000D01*
X29250000Y58873000D01*
X29299410Y58883006D01*
X29341035Y58911447D01*
X29368315Y58953841D01*
X29377000Y59000000D01*
X29377000Y59290000D01*
X34123000Y59290000D01*
X34123000Y54627000D01*
X34123000Y54627000D01*
G37*
X34123000Y54627000D02*
X33500000Y54627000D01*
X33450590Y54616994D01*
X33408965Y54588553D01*
X33381685Y54546159D01*
X33373000Y54500000D01*
X33373000Y5627000D01*
X16627000Y5627000D01*
X16627000Y10497985D01*
X18228641Y10497985D01*
X18613746Y9565959D01*
X19326208Y8852252D01*
X20257561Y8465521D01*
X21266015Y8464641D01*
X22198041Y8849746D01*
X22911748Y9562208D01*
X23298479Y10493561D01*
X23298482Y10497985D01*
X26700641Y10497985D01*
X27085746Y9565959D01*
X27798208Y8852252D01*
X28729561Y8465521D01*
X29738015Y8464641D01*
X30670041Y8849746D01*
X31383748Y9562208D01*
X31770479Y10493561D01*
X31771359Y11502015D01*
X31386254Y12434041D01*
X30673792Y13147748D01*
X29742439Y13534479D01*
X28733985Y13535359D01*
X27801959Y13150254D01*
X27088252Y12437792D01*
X26701521Y11506439D01*
X26700641Y10497985D01*
X23298482Y10497985D01*
X23299359Y11502015D01*
X22914254Y12434041D01*
X22201792Y13147748D01*
X21270439Y13534479D01*
X20261985Y13535359D01*
X19329959Y13150254D01*
X18616252Y12437792D01*
X18229521Y11506439D01*
X18228641Y10497985D01*
X16627000Y10497985D01*
X16627000Y23497985D01*
X18228641Y23497985D01*
X18613746Y22565959D01*
X19326208Y21852252D01*
X20257561Y21465521D01*
X21266015Y21464641D01*
X22198041Y21849746D01*
X22911748Y22562208D01*
X23298479Y23493561D01*
X23298482Y23497985D01*
X26700641Y23497985D01*
X27085746Y22565959D01*
X27798208Y21852252D01*
X28729561Y21465521D01*
X29738015Y21464641D01*
X30670041Y21849746D01*
X31383748Y22562208D01*
X31770479Y23493561D01*
X31771359Y24502015D01*
X31386254Y25434041D01*
X30673792Y26147748D01*
X29742439Y26534479D01*
X28733985Y26535359D01*
X27801959Y26150254D01*
X27088252Y25437792D01*
X26701521Y24506439D01*
X26700641Y23497985D01*
X23298482Y23497985D01*
X23299359Y24502015D01*
X22914254Y25434041D01*
X22201792Y26147748D01*
X21270439Y26534479D01*
X20261985Y26535359D01*
X19329959Y26150254D01*
X18616252Y25437792D01*
X18229521Y24506439D01*
X18228641Y23497985D01*
X16627000Y23497985D01*
X16627000Y36497985D01*
X18228641Y36497985D01*
X18613746Y35565959D01*
X19326208Y34852252D01*
X20257561Y34465521D01*
X21266015Y34464641D01*
X22198041Y34849746D01*
X22911748Y35562208D01*
X23298479Y36493561D01*
X23298482Y36497985D01*
X26700641Y36497985D01*
X27085746Y35565959D01*
X27798208Y34852252D01*
X28729561Y34465521D01*
X29738015Y34464641D01*
X30670041Y34849746D01*
X31383748Y35562208D01*
X31770479Y36493561D01*
X31771359Y37502015D01*
X31386254Y38434041D01*
X30673792Y39147748D01*
X29742439Y39534479D01*
X28733985Y39535359D01*
X27801959Y39150254D01*
X27088252Y38437792D01*
X26701521Y37506439D01*
X26700641Y36497985D01*
X23298482Y36497985D01*
X23299359Y37502015D01*
X22914254Y38434041D01*
X22201792Y39147748D01*
X21270439Y39534479D01*
X20261985Y39535359D01*
X19329959Y39150254D01*
X18616252Y38437792D01*
X18229521Y37506439D01*
X18228641Y36497985D01*
X16627000Y36497985D01*
X16627000Y49497985D01*
X18228641Y49497985D01*
X18613746Y48565959D01*
X19326208Y47852252D01*
X20257561Y47465521D01*
X21266015Y47464641D01*
X22198041Y47849746D01*
X22911748Y48562208D01*
X23298479Y49493561D01*
X23298482Y49497985D01*
X26700641Y49497985D01*
X27085746Y48565959D01*
X27798208Y47852252D01*
X28729561Y47465521D01*
X29738015Y47464641D01*
X30670041Y47849746D01*
X31383748Y48562208D01*
X31770479Y49493561D01*
X31771359Y50502015D01*
X31386254Y51434041D01*
X30673792Y52147748D01*
X29742439Y52534479D01*
X28733985Y52535359D01*
X27801959Y52150254D01*
X27088252Y51437792D01*
X26701521Y50506439D01*
X26700641Y49497985D01*
X23298482Y49497985D01*
X23299359Y50502015D01*
X22914254Y51434041D01*
X22201792Y52147748D01*
X21270439Y52534479D01*
X20261985Y52535359D01*
X19329959Y52150254D01*
X18616252Y51437792D01*
X18229521Y50506439D01*
X18228641Y49497985D01*
X16627000Y49497985D01*
X16627000Y58873000D01*
X29250000Y58873000D01*
X29299410Y58883006D01*
X29341035Y58911447D01*
X29368315Y58953841D01*
X29377000Y59000000D01*
X29377000Y59290000D01*
X34123000Y59290000D01*
X34123000Y54627000D01*
M02*
