G04 #@! TF.FileFunction,Soldermask,Top*
%FSLAX46Y46*%
G04 Gerber Fmt 4.6, Leading zero omitted, Abs format (unit mm)*
G04 Created by KiCad (PCBNEW 4.0.4-stable) date 11/29/17 11:53:15*
%MOMM*%
%LPD*%
G01*
G04 APERTURE LIST*
%ADD10C,0.100000*%
%ADD11O,3.900120X2.099260*%
%ADD12C,4.199840*%
%ADD13C,3.000000*%
%ADD14C,3.600000*%
%ADD15O,1.920000X2.920000*%
%ADD16R,2.900000X2.200000*%
%ADD17C,0.254000*%
G04 APERTURE END LIST*
D10*
D11*
X177000000Y-93000000D03*
X177000000Y-95540000D03*
X177000000Y-90460000D03*
D12*
X159236000Y-93000000D03*
D11*
X177000000Y-80000000D03*
X177000000Y-82540000D03*
X177000000Y-77460000D03*
D12*
X159236000Y-80000000D03*
D11*
X133000000Y-80000000D03*
X133000000Y-77460000D03*
X133000000Y-82540000D03*
D12*
X150764000Y-80000000D03*
D13*
X169750000Y-86500000D03*
X169750000Y-99500000D03*
X169750000Y-112500000D03*
X169750000Y-126500000D03*
X140250000Y-126500000D03*
X140250000Y-112500000D03*
X140250000Y-99500000D03*
D14*
X133000000Y-127000000D03*
X177000000Y-127000000D03*
X177000000Y-73000000D03*
D15*
X140000000Y-72000000D03*
X142540000Y-72000000D03*
X170000000Y-72000000D03*
X167460000Y-72000000D03*
D14*
X133000000Y-73000000D03*
D13*
X140250000Y-86500000D03*
D11*
X177000000Y-119000000D03*
X177000000Y-121540000D03*
X177000000Y-116460000D03*
D12*
X159236000Y-119000000D03*
D11*
X177000000Y-106000000D03*
X177000000Y-108540000D03*
X177000000Y-103460000D03*
D12*
X159236000Y-106000000D03*
D11*
X133000000Y-93000000D03*
X133000000Y-90460000D03*
X133000000Y-95540000D03*
D12*
X150764000Y-93000000D03*
D11*
X133000000Y-106000000D03*
X133000000Y-103460000D03*
X133000000Y-108540000D03*
D12*
X150764000Y-106000000D03*
D11*
X133000000Y-119000000D03*
X133000000Y-116460000D03*
X133000000Y-121540000D03*
D12*
X150764000Y-119000000D03*
D15*
X146100000Y-128000000D03*
X148640000Y-128000000D03*
X151180000Y-128000000D03*
X153720000Y-128000000D03*
X156260000Y-128000000D03*
X158800000Y-128000000D03*
X161340000Y-128000000D03*
X163880000Y-128000000D03*
D16*
X173000000Y-119100000D03*
X169000000Y-119100000D03*
X173000000Y-106100000D03*
X169000000Y-106100000D03*
X173000000Y-93100000D03*
X169000000Y-93100000D03*
X173000000Y-80000000D03*
X169000000Y-80000000D03*
X138000000Y-77500000D03*
X142000000Y-77500000D03*
X137000000Y-93000000D03*
X141000000Y-93000000D03*
X137000000Y-106100000D03*
X141000000Y-106100000D03*
X137000000Y-119100000D03*
X141000000Y-119100000D03*
D17*
G36*
X163373000Y-124373000D02*
X146627000Y-124373000D01*
X146627000Y-71127000D01*
X163373000Y-71127000D01*
X163373000Y-124373000D01*
X163373000Y-124373000D01*
G37*
X163373000Y-124373000D02*
X146627000Y-124373000D01*
X146627000Y-71127000D01*
X163373000Y-71127000D01*
X163373000Y-124373000D01*
M02*
