G04 #@! TF.FileFunction,Legend,Bot*
%FSLAX46Y46*%
G04 Gerber Fmt 4.6, Leading zero omitted, Abs format (unit mm)*
G04 Created by KiCad (PCBNEW 4.0.4-stable) date 11/29/17 11:53:15*
%MOMM*%
%LPD*%
G01*
G04 APERTURE LIST*
%ADD10C,0.100000*%
%ADD11C,0.200000*%
%ADD12C,0.120000*%
%ADD13C,0.150000*%
G04 APERTURE END LIST*
D10*
X152250000Y-74000000D02*
X152250000Y-73250000D01*
X152000000Y-112500000D02*
X152750000Y-112500000D01*
X152500000Y-86500000D02*
X152750000Y-86500000D01*
X152000000Y-99500000D02*
X152750000Y-99500000D01*
X152000000Y-86500000D02*
X152500000Y-86500000D01*
X152000000Y-113250000D02*
X151750000Y-113250000D01*
X152000000Y-112500000D02*
X152000000Y-113250000D01*
X152000000Y-111750000D02*
X152250000Y-111750000D01*
X152000000Y-112500000D02*
X152000000Y-111750000D01*
X151250000Y-113250000D02*
X151250000Y-112500000D01*
X152000000Y-112500000D02*
X151250000Y-113250000D01*
X151250000Y-111750000D02*
X152000000Y-112500000D01*
X151250000Y-112500000D02*
X151250000Y-111750000D01*
X150250000Y-112500000D02*
X151250000Y-112500000D01*
X152000000Y-100250000D02*
X151750000Y-100250000D01*
X152000000Y-99500000D02*
X152000000Y-100250000D01*
X152000000Y-98750000D02*
X152250000Y-98750000D01*
X152000000Y-99500000D02*
X152000000Y-98750000D01*
X151250000Y-100250000D02*
X151250000Y-99500000D01*
X152000000Y-99500000D02*
X151250000Y-100250000D01*
X151250000Y-98750000D02*
X152000000Y-99500000D01*
X151250000Y-99500000D02*
X151250000Y-98750000D01*
X150250000Y-99500000D02*
X151250000Y-99500000D01*
X152000000Y-87250000D02*
X151750000Y-87250000D01*
X152000000Y-86500000D02*
X152000000Y-87250000D01*
X152000000Y-85750000D02*
X152250000Y-85750000D01*
X152000000Y-86500000D02*
X152000000Y-85750000D01*
X151250000Y-87250000D02*
X151250000Y-86500000D01*
X152000000Y-86500000D02*
X151250000Y-87250000D01*
X151250000Y-85750000D02*
X152000000Y-86500000D01*
X151250000Y-86500000D02*
X151250000Y-85750000D01*
X150250000Y-86500000D02*
X151250000Y-86500000D01*
D11*
X161738096Y-123952381D02*
X161738096Y-122952381D01*
X161404762Y-123666667D01*
X161071429Y-122952381D01*
X161071429Y-123952381D01*
X160452382Y-123952381D02*
X160547620Y-123904762D01*
X160595239Y-123857143D01*
X160642858Y-123761905D01*
X160642858Y-123476190D01*
X160595239Y-123380952D01*
X160547620Y-123333333D01*
X160452382Y-123285714D01*
X160309524Y-123285714D01*
X160214286Y-123333333D01*
X160166667Y-123380952D01*
X160119048Y-123476190D01*
X160119048Y-123761905D01*
X160166667Y-123857143D01*
X160214286Y-123904762D01*
X160309524Y-123952381D01*
X160452382Y-123952381D01*
X159738096Y-123904762D02*
X159642858Y-123952381D01*
X159452382Y-123952381D01*
X159357143Y-123904762D01*
X159309524Y-123809524D01*
X159309524Y-123761905D01*
X159357143Y-123666667D01*
X159452382Y-123619048D01*
X159595239Y-123619048D01*
X159690477Y-123571429D01*
X159738096Y-123476190D01*
X159738096Y-123428571D01*
X159690477Y-123333333D01*
X159595239Y-123285714D01*
X159452382Y-123285714D01*
X159357143Y-123333333D01*
X159023810Y-123285714D02*
X158642858Y-123285714D01*
X158880953Y-123952381D02*
X158880953Y-123095238D01*
X158833334Y-123000000D01*
X158738096Y-122952381D01*
X158642858Y-122952381D01*
X157928571Y-123904762D02*
X158023809Y-123952381D01*
X158214286Y-123952381D01*
X158309524Y-123904762D01*
X158357143Y-123809524D01*
X158357143Y-123428571D01*
X158309524Y-123333333D01*
X158214286Y-123285714D01*
X158023809Y-123285714D01*
X157928571Y-123333333D01*
X157880952Y-123428571D01*
X157880952Y-123523810D01*
X158357143Y-123619048D01*
X157595238Y-123285714D02*
X157214286Y-123285714D01*
X157452381Y-122952381D02*
X157452381Y-123809524D01*
X157404762Y-123904762D01*
X157309524Y-123952381D01*
X157214286Y-123952381D01*
X155785713Y-123428571D02*
X155642856Y-123476190D01*
X155595237Y-123523810D01*
X155547618Y-123619048D01*
X155547618Y-123761905D01*
X155595237Y-123857143D01*
X155642856Y-123904762D01*
X155738094Y-123952381D01*
X156119047Y-123952381D01*
X156119047Y-122952381D01*
X155785713Y-122952381D01*
X155690475Y-123000000D01*
X155642856Y-123047619D01*
X155595237Y-123142857D01*
X155595237Y-123238095D01*
X155642856Y-123333333D01*
X155690475Y-123380952D01*
X155785713Y-123428571D01*
X156119047Y-123428571D01*
X154976190Y-123952381D02*
X155071428Y-123904762D01*
X155119047Y-123857143D01*
X155166666Y-123761905D01*
X155166666Y-123476190D01*
X155119047Y-123380952D01*
X155071428Y-123333333D01*
X154976190Y-123285714D01*
X154833332Y-123285714D01*
X154738094Y-123333333D01*
X154690475Y-123380952D01*
X154642856Y-123476190D01*
X154642856Y-123761905D01*
X154690475Y-123857143D01*
X154738094Y-123904762D01*
X154833332Y-123952381D01*
X154976190Y-123952381D01*
X153785713Y-123952381D02*
X153785713Y-123428571D01*
X153833332Y-123333333D01*
X153928570Y-123285714D01*
X154119047Y-123285714D01*
X154214285Y-123333333D01*
X153785713Y-123904762D02*
X153880951Y-123952381D01*
X154119047Y-123952381D01*
X154214285Y-123904762D01*
X154261904Y-123809524D01*
X154261904Y-123714286D01*
X154214285Y-123619048D01*
X154119047Y-123571429D01*
X153880951Y-123571429D01*
X153785713Y-123523810D01*
X153309523Y-123952381D02*
X153309523Y-123285714D01*
X153309523Y-123476190D02*
X153261904Y-123380952D01*
X153214285Y-123333333D01*
X153119047Y-123285714D01*
X153023808Y-123285714D01*
X152261903Y-123952381D02*
X152261903Y-122952381D01*
X152261903Y-123904762D02*
X152357141Y-123952381D01*
X152547618Y-123952381D01*
X152642856Y-123904762D01*
X152690475Y-123857143D01*
X152738094Y-123761905D01*
X152738094Y-123476190D01*
X152690475Y-123380952D01*
X152642856Y-123333333D01*
X152547618Y-123285714D01*
X152357141Y-123285714D01*
X152261903Y-123333333D01*
X151166665Y-122952381D02*
X150833332Y-123952381D01*
X150499998Y-122952381D01*
X150261903Y-122952381D02*
X149642855Y-122952381D01*
X149976189Y-123333333D01*
X149833331Y-123333333D01*
X149738093Y-123380952D01*
X149690474Y-123428571D01*
X149642855Y-123523810D01*
X149642855Y-123761905D01*
X149690474Y-123857143D01*
X149738093Y-123904762D01*
X149833331Y-123952381D01*
X150119046Y-123952381D01*
X150214284Y-123904762D01*
X150261903Y-123857143D01*
X149214284Y-123857143D02*
X149166665Y-123904762D01*
X149214284Y-123952381D01*
X149261903Y-123904762D01*
X149214284Y-123857143D01*
X149214284Y-123952381D01*
X148214284Y-123952381D02*
X148785713Y-123952381D01*
X148499999Y-123952381D02*
X148499999Y-122952381D01*
X148595237Y-123095238D01*
X148690475Y-123190476D01*
X148785713Y-123238095D01*
D10*
X153000000Y-74000000D02*
X152750000Y-74000000D01*
X153000000Y-72500000D02*
X153250000Y-72500000D01*
X153000000Y-73250000D02*
X153750000Y-73250000D01*
X153000000Y-73250000D02*
X153000000Y-74000000D01*
X153000000Y-73250000D02*
X153000000Y-72500000D01*
X153000000Y-73250000D02*
X152250000Y-74000000D01*
X152250000Y-72500000D02*
X153000000Y-73250000D01*
X152250000Y-73250000D02*
X152250000Y-72500000D01*
X151250000Y-73250000D02*
X152250000Y-73250000D01*
D11*
X164547619Y-121285717D02*
X165547619Y-121285717D01*
X164547619Y-120857145D02*
X165071429Y-120857145D01*
X165166667Y-120904764D01*
X165214286Y-121000002D01*
X165214286Y-121142860D01*
X165166667Y-121238098D01*
X165119048Y-121285717D01*
X165214286Y-120523812D02*
X165214286Y-120142860D01*
X165547619Y-120380955D02*
X164690476Y-120380955D01*
X164595238Y-120333336D01*
X164547619Y-120238098D01*
X164547619Y-120142860D01*
X165214286Y-119952383D02*
X165214286Y-119571431D01*
X165547619Y-119809526D02*
X164690476Y-119809526D01*
X164595238Y-119761907D01*
X164547619Y-119666669D01*
X164547619Y-119571431D01*
X165214286Y-119238097D02*
X164214286Y-119238097D01*
X165166667Y-119238097D02*
X165214286Y-119142859D01*
X165214286Y-118952382D01*
X165166667Y-118857144D01*
X165119048Y-118809525D01*
X165023810Y-118761906D01*
X164738095Y-118761906D01*
X164642857Y-118809525D01*
X164595238Y-118857144D01*
X164547619Y-118952382D01*
X164547619Y-119142859D01*
X164595238Y-119238097D01*
X164595238Y-118380954D02*
X164547619Y-118285716D01*
X164547619Y-118095240D01*
X164595238Y-118000001D01*
X164690476Y-117952382D01*
X164738095Y-117952382D01*
X164833333Y-118000001D01*
X164880952Y-118095240D01*
X164880952Y-118238097D01*
X164928571Y-118333335D01*
X165023810Y-118380954D01*
X165071429Y-118380954D01*
X165166667Y-118333335D01*
X165214286Y-118238097D01*
X165214286Y-118095240D01*
X165166667Y-118000001D01*
X164642857Y-117523811D02*
X164595238Y-117476192D01*
X164547619Y-117523811D01*
X164595238Y-117571430D01*
X164642857Y-117523811D01*
X164547619Y-117523811D01*
X165166667Y-117523811D02*
X165119048Y-117476192D01*
X165071429Y-117523811D01*
X165119048Y-117571430D01*
X165166667Y-117523811D01*
X165071429Y-117523811D01*
X165595238Y-116333335D02*
X164309524Y-117190478D01*
X165595238Y-115285716D02*
X164309524Y-116142859D01*
X165214286Y-114523811D02*
X164404762Y-114523811D01*
X164309524Y-114571430D01*
X164261905Y-114619049D01*
X164214286Y-114714288D01*
X164214286Y-114857145D01*
X164261905Y-114952383D01*
X164595238Y-114523811D02*
X164547619Y-114619049D01*
X164547619Y-114809526D01*
X164595238Y-114904764D01*
X164642857Y-114952383D01*
X164738095Y-115000002D01*
X165023810Y-115000002D01*
X165119048Y-114952383D01*
X165166667Y-114904764D01*
X165214286Y-114809526D01*
X165214286Y-114619049D01*
X165166667Y-114523811D01*
X164547619Y-114047621D02*
X165214286Y-114047621D01*
X165547619Y-114047621D02*
X165500000Y-114095240D01*
X165452381Y-114047621D01*
X165500000Y-114000002D01*
X165547619Y-114047621D01*
X165452381Y-114047621D01*
X165214286Y-113714288D02*
X165214286Y-113333336D01*
X165547619Y-113571431D02*
X164690476Y-113571431D01*
X164595238Y-113523812D01*
X164547619Y-113428574D01*
X164547619Y-113333336D01*
X164547619Y-113000002D02*
X165547619Y-113000002D01*
X164547619Y-112571430D02*
X165071429Y-112571430D01*
X165166667Y-112619049D01*
X165214286Y-112714287D01*
X165214286Y-112857145D01*
X165166667Y-112952383D01*
X165119048Y-113000002D01*
X165214286Y-111666668D02*
X164547619Y-111666668D01*
X165214286Y-112095240D02*
X164690476Y-112095240D01*
X164595238Y-112047621D01*
X164547619Y-111952383D01*
X164547619Y-111809525D01*
X164595238Y-111714287D01*
X164642857Y-111666668D01*
X164547619Y-111190478D02*
X165547619Y-111190478D01*
X165166667Y-111190478D02*
X165214286Y-111095240D01*
X165214286Y-110904763D01*
X165166667Y-110809525D01*
X165119048Y-110761906D01*
X165023810Y-110714287D01*
X164738095Y-110714287D01*
X164642857Y-110761906D01*
X164595238Y-110809525D01*
X164547619Y-110904763D01*
X164547619Y-111095240D01*
X164595238Y-111190478D01*
X164642857Y-110285716D02*
X164595238Y-110238097D01*
X164547619Y-110285716D01*
X164595238Y-110333335D01*
X164642857Y-110285716D01*
X164547619Y-110285716D01*
X164595238Y-109380954D02*
X164547619Y-109476192D01*
X164547619Y-109666669D01*
X164595238Y-109761907D01*
X164642857Y-109809526D01*
X164738095Y-109857145D01*
X165023810Y-109857145D01*
X165119048Y-109809526D01*
X165166667Y-109761907D01*
X165214286Y-109666669D01*
X165214286Y-109476192D01*
X165166667Y-109380954D01*
X164547619Y-108809526D02*
X164595238Y-108904764D01*
X164642857Y-108952383D01*
X164738095Y-109000002D01*
X165023810Y-109000002D01*
X165119048Y-108952383D01*
X165166667Y-108904764D01*
X165214286Y-108809526D01*
X165214286Y-108666668D01*
X165166667Y-108571430D01*
X165119048Y-108523811D01*
X165023810Y-108476192D01*
X164738095Y-108476192D01*
X164642857Y-108523811D01*
X164595238Y-108571430D01*
X164547619Y-108666668D01*
X164547619Y-108809526D01*
X164547619Y-108047621D02*
X165214286Y-108047621D01*
X165119048Y-108047621D02*
X165166667Y-108000002D01*
X165214286Y-107904764D01*
X165214286Y-107761906D01*
X165166667Y-107666668D01*
X165071429Y-107619049D01*
X164547619Y-107619049D01*
X165071429Y-107619049D02*
X165166667Y-107571430D01*
X165214286Y-107476192D01*
X165214286Y-107333335D01*
X165166667Y-107238097D01*
X165071429Y-107190478D01*
X164547619Y-107190478D01*
X165595238Y-106000002D02*
X164309524Y-106857145D01*
X164547619Y-105666669D02*
X165547619Y-105666669D01*
X164547619Y-105095240D02*
X165119048Y-105523812D01*
X165547619Y-105095240D02*
X164976190Y-105666669D01*
X164547619Y-104238097D02*
X165071429Y-104238097D01*
X165166667Y-104285716D01*
X165214286Y-104380954D01*
X165214286Y-104571431D01*
X165166667Y-104666669D01*
X164595238Y-104238097D02*
X164547619Y-104333335D01*
X164547619Y-104571431D01*
X164595238Y-104666669D01*
X164690476Y-104714288D01*
X164785714Y-104714288D01*
X164880952Y-104666669D01*
X164928571Y-104571431D01*
X164928571Y-104333335D01*
X164976190Y-104238097D01*
X164595238Y-103380954D02*
X164547619Y-103476192D01*
X164547619Y-103666669D01*
X164595238Y-103761907D01*
X164690476Y-103809526D01*
X165071429Y-103809526D01*
X165166667Y-103761907D01*
X165214286Y-103666669D01*
X165214286Y-103476192D01*
X165166667Y-103380954D01*
X165071429Y-103333335D01*
X164976190Y-103333335D01*
X164880952Y-103809526D01*
X165214286Y-102904764D02*
X164214286Y-102904764D01*
X165166667Y-102904764D02*
X165214286Y-102809526D01*
X165214286Y-102619049D01*
X165166667Y-102523811D01*
X165119048Y-102476192D01*
X165023810Y-102428573D01*
X164738095Y-102428573D01*
X164642857Y-102476192D01*
X164595238Y-102523811D01*
X164547619Y-102619049D01*
X164547619Y-102809526D01*
X164595238Y-102904764D01*
X165214286Y-102142859D02*
X165214286Y-101761907D01*
X165547619Y-102000002D02*
X164690476Y-102000002D01*
X164595238Y-101952383D01*
X164547619Y-101857145D01*
X164547619Y-101761907D01*
X165214286Y-101428573D02*
X164547619Y-101428573D01*
X165119048Y-101428573D02*
X165166667Y-101380954D01*
X165214286Y-101285716D01*
X165214286Y-101142858D01*
X165166667Y-101047620D01*
X165071429Y-101000001D01*
X164547619Y-101000001D01*
X165071429Y-100190477D02*
X165023810Y-100047620D01*
X164976190Y-100000001D01*
X164880952Y-99952382D01*
X164738095Y-99952382D01*
X164642857Y-100000001D01*
X164595238Y-100047620D01*
X164547619Y-100142858D01*
X164547619Y-100523811D01*
X165547619Y-100523811D01*
X165547619Y-100190477D01*
X165500000Y-100095239D01*
X165452381Y-100047620D01*
X165357143Y-100000001D01*
X165261905Y-100000001D01*
X165166667Y-100047620D01*
X165119048Y-100095239D01*
X165071429Y-100190477D01*
X165071429Y-100523811D01*
X164547619Y-99095239D02*
X165071429Y-99095239D01*
X165166667Y-99142858D01*
X165214286Y-99238096D01*
X165214286Y-99428573D01*
X165166667Y-99523811D01*
X164595238Y-99095239D02*
X164547619Y-99190477D01*
X164547619Y-99428573D01*
X164595238Y-99523811D01*
X164690476Y-99571430D01*
X164785714Y-99571430D01*
X164880952Y-99523811D01*
X164928571Y-99428573D01*
X164928571Y-99190477D01*
X164976190Y-99095239D01*
X164547619Y-98476192D02*
X164595238Y-98571430D01*
X164690476Y-98619049D01*
X165547619Y-98619049D01*
X165214286Y-97666667D02*
X164547619Y-97666667D01*
X165214286Y-98095239D02*
X164690476Y-98095239D01*
X164595238Y-98047620D01*
X164547619Y-97952382D01*
X164547619Y-97809524D01*
X164595238Y-97714286D01*
X164642857Y-97666667D01*
X165595238Y-96476191D02*
X164309524Y-97333334D01*
X164833333Y-96190477D02*
X164833333Y-95714286D01*
X164547619Y-96285715D02*
X165547619Y-95952382D01*
X164547619Y-95619048D01*
X164547619Y-95285715D02*
X165214286Y-95285715D01*
X165023810Y-95285715D02*
X165119048Y-95238096D01*
X165166667Y-95190477D01*
X165214286Y-95095239D01*
X165214286Y-95000000D01*
X164547619Y-94238095D02*
X165547619Y-94238095D01*
X164595238Y-94238095D02*
X164547619Y-94333333D01*
X164547619Y-94523810D01*
X164595238Y-94619048D01*
X164642857Y-94666667D01*
X164738095Y-94714286D01*
X165023810Y-94714286D01*
X165119048Y-94666667D01*
X165166667Y-94619048D01*
X165214286Y-94523810D01*
X165214286Y-94333333D01*
X165166667Y-94238095D01*
X165214286Y-93333333D02*
X164547619Y-93333333D01*
X165214286Y-93761905D02*
X164690476Y-93761905D01*
X164595238Y-93714286D01*
X164547619Y-93619048D01*
X164547619Y-93476190D01*
X164595238Y-93380952D01*
X164642857Y-93333333D01*
X164547619Y-92857143D02*
X165214286Y-92857143D01*
X165547619Y-92857143D02*
X165500000Y-92904762D01*
X165452381Y-92857143D01*
X165500000Y-92809524D01*
X165547619Y-92857143D01*
X165452381Y-92857143D01*
X165214286Y-92380953D02*
X164547619Y-92380953D01*
X165119048Y-92380953D02*
X165166667Y-92333334D01*
X165214286Y-92238096D01*
X165214286Y-92095238D01*
X165166667Y-92000000D01*
X165071429Y-91952381D01*
X164547619Y-91952381D01*
X164547619Y-91333334D02*
X164595238Y-91428572D01*
X164642857Y-91476191D01*
X164738095Y-91523810D01*
X165023810Y-91523810D01*
X165119048Y-91476191D01*
X165166667Y-91428572D01*
X165214286Y-91333334D01*
X165214286Y-91190476D01*
X165166667Y-91095238D01*
X165119048Y-91047619D01*
X165023810Y-91000000D01*
X164738095Y-91000000D01*
X164642857Y-91047619D01*
X164595238Y-91095238D01*
X164547619Y-91190476D01*
X164547619Y-91333334D01*
X164452381Y-90809524D02*
X164452381Y-90047619D01*
X164595238Y-89857143D02*
X164547619Y-89714286D01*
X164547619Y-89476190D01*
X164595238Y-89380952D01*
X164642857Y-89333333D01*
X164738095Y-89285714D01*
X164833333Y-89285714D01*
X164928571Y-89333333D01*
X164976190Y-89380952D01*
X165023810Y-89476190D01*
X165071429Y-89666667D01*
X165119048Y-89761905D01*
X165166667Y-89809524D01*
X165261905Y-89857143D01*
X165357143Y-89857143D01*
X165452381Y-89809524D01*
X165500000Y-89761905D01*
X165547619Y-89666667D01*
X165547619Y-89428571D01*
X165500000Y-89285714D01*
X165214286Y-88857143D02*
X164214286Y-88857143D01*
X165166667Y-88857143D02*
X165214286Y-88761905D01*
X165214286Y-88571428D01*
X165166667Y-88476190D01*
X165119048Y-88428571D01*
X165023810Y-88380952D01*
X164738095Y-88380952D01*
X164642857Y-88428571D01*
X164595238Y-88476190D01*
X164547619Y-88571428D01*
X164547619Y-88761905D01*
X164595238Y-88857143D01*
X164547619Y-87809524D02*
X164595238Y-87904762D01*
X164642857Y-87952381D01*
X164738095Y-88000000D01*
X165023810Y-88000000D01*
X165119048Y-87952381D01*
X165166667Y-87904762D01*
X165214286Y-87809524D01*
X165214286Y-87666666D01*
X165166667Y-87571428D01*
X165119048Y-87523809D01*
X165023810Y-87476190D01*
X164738095Y-87476190D01*
X164642857Y-87523809D01*
X164595238Y-87571428D01*
X164547619Y-87666666D01*
X164547619Y-87809524D01*
X165214286Y-87190476D02*
X165214286Y-86809524D01*
X165547619Y-87047619D02*
X164690476Y-87047619D01*
X164595238Y-87000000D01*
X164547619Y-86904762D01*
X164547619Y-86809524D01*
X164452381Y-86714285D02*
X164452381Y-85952380D01*
X165547619Y-85809523D02*
X164547619Y-85571428D01*
X165261905Y-85380951D01*
X164547619Y-85190475D01*
X165547619Y-84952380D01*
X164595238Y-84190475D02*
X164547619Y-84285713D01*
X164547619Y-84476190D01*
X164595238Y-84571428D01*
X164690476Y-84619047D01*
X165071429Y-84619047D01*
X165166667Y-84571428D01*
X165214286Y-84476190D01*
X165214286Y-84285713D01*
X165166667Y-84190475D01*
X165071429Y-84142856D01*
X164976190Y-84142856D01*
X164880952Y-84619047D01*
X164547619Y-83571428D02*
X164595238Y-83666666D01*
X164690476Y-83714285D01*
X165547619Y-83714285D01*
X164547619Y-82761903D02*
X165547619Y-82761903D01*
X164595238Y-82761903D02*
X164547619Y-82857141D01*
X164547619Y-83047618D01*
X164595238Y-83142856D01*
X164642857Y-83190475D01*
X164738095Y-83238094D01*
X165023810Y-83238094D01*
X165119048Y-83190475D01*
X165166667Y-83142856D01*
X165214286Y-83047618D01*
X165214286Y-82857141D01*
X165166667Y-82761903D01*
X164595238Y-81904760D02*
X164547619Y-81999998D01*
X164547619Y-82190475D01*
X164595238Y-82285713D01*
X164690476Y-82333332D01*
X165071429Y-82333332D01*
X165166667Y-82285713D01*
X165214286Y-82190475D01*
X165214286Y-81999998D01*
X165166667Y-81904760D01*
X165071429Y-81857141D01*
X164976190Y-81857141D01*
X164880952Y-82333332D01*
X164547619Y-81428570D02*
X165214286Y-81428570D01*
X165023810Y-81428570D02*
X165119048Y-81380951D01*
X165166667Y-81333332D01*
X165214286Y-81238094D01*
X165214286Y-81142855D01*
X164452381Y-81047617D02*
X164452381Y-80285712D01*
X165547619Y-80190474D02*
X164547619Y-79857141D01*
X165547619Y-79523807D01*
X165547619Y-79285712D02*
X165547619Y-78666664D01*
X165166667Y-78999998D01*
X165166667Y-78857140D01*
X165119048Y-78761902D01*
X165071429Y-78714283D01*
X164976190Y-78666664D01*
X164738095Y-78666664D01*
X164642857Y-78714283D01*
X164595238Y-78761902D01*
X164547619Y-78857140D01*
X164547619Y-79142855D01*
X164595238Y-79238093D01*
X164642857Y-79285712D01*
D12*
X159550000Y-76500000D02*
X159550000Y-70000000D01*
X159550000Y-76500000D02*
X148350000Y-76500000D01*
X159550000Y-70000000D02*
X148350000Y-70000000D01*
X158550000Y-89750000D02*
X158550000Y-83250000D01*
X158550000Y-89750000D02*
X147350000Y-89750000D01*
X158550000Y-83250000D02*
X147350000Y-83250000D01*
X158550000Y-102750000D02*
X158550000Y-96250000D01*
X158550000Y-102750000D02*
X147350000Y-102750000D01*
X158550000Y-96250000D02*
X147350000Y-96250000D01*
X158550000Y-115750000D02*
X158550000Y-109250000D01*
X158550000Y-115750000D02*
X147350000Y-115750000D01*
X158550000Y-109250000D02*
X147350000Y-109250000D01*
D13*
X154416667Y-71202381D02*
X153845238Y-71202381D01*
X154130953Y-72202381D02*
X154130953Y-71202381D01*
X153654762Y-71202381D02*
X153321429Y-72202381D01*
X152988095Y-71202381D01*
X152702381Y-72154762D02*
X152559524Y-72202381D01*
X152321428Y-72202381D01*
X152226190Y-72154762D01*
X152178571Y-72107143D01*
X152130952Y-72011905D01*
X152130952Y-71916667D01*
X152178571Y-71821429D01*
X152226190Y-71773810D01*
X152321428Y-71726190D01*
X152511905Y-71678571D01*
X152607143Y-71630952D01*
X152654762Y-71583333D01*
X152702381Y-71488095D01*
X152702381Y-71392857D01*
X152654762Y-71297619D01*
X152607143Y-71250000D01*
X152511905Y-71202381D01*
X152273809Y-71202381D01*
X152130952Y-71250000D01*
X151178571Y-72202381D02*
X151750000Y-72202381D01*
X151464286Y-72202381D02*
X151464286Y-71202381D01*
X151559524Y-71345238D01*
X151654762Y-71440476D01*
X151750000Y-71488095D01*
X153416667Y-84452381D02*
X152845238Y-84452381D01*
X153130953Y-85452381D02*
X153130953Y-84452381D01*
X152654762Y-84452381D02*
X152321429Y-85452381D01*
X151988095Y-84452381D01*
X151702381Y-85404762D02*
X151559524Y-85452381D01*
X151321428Y-85452381D01*
X151226190Y-85404762D01*
X151178571Y-85357143D01*
X151130952Y-85261905D01*
X151130952Y-85166667D01*
X151178571Y-85071429D01*
X151226190Y-85023810D01*
X151321428Y-84976190D01*
X151511905Y-84928571D01*
X151607143Y-84880952D01*
X151654762Y-84833333D01*
X151702381Y-84738095D01*
X151702381Y-84642857D01*
X151654762Y-84547619D01*
X151607143Y-84500000D01*
X151511905Y-84452381D01*
X151273809Y-84452381D01*
X151130952Y-84500000D01*
X150750000Y-84547619D02*
X150702381Y-84500000D01*
X150607143Y-84452381D01*
X150369047Y-84452381D01*
X150273809Y-84500000D01*
X150226190Y-84547619D01*
X150178571Y-84642857D01*
X150178571Y-84738095D01*
X150226190Y-84880952D01*
X150797619Y-85452381D01*
X150178571Y-85452381D01*
X153416667Y-97452381D02*
X152845238Y-97452381D01*
X153130953Y-98452381D02*
X153130953Y-97452381D01*
X152654762Y-97452381D02*
X152321429Y-98452381D01*
X151988095Y-97452381D01*
X151702381Y-98404762D02*
X151559524Y-98452381D01*
X151321428Y-98452381D01*
X151226190Y-98404762D01*
X151178571Y-98357143D01*
X151130952Y-98261905D01*
X151130952Y-98166667D01*
X151178571Y-98071429D01*
X151226190Y-98023810D01*
X151321428Y-97976190D01*
X151511905Y-97928571D01*
X151607143Y-97880952D01*
X151654762Y-97833333D01*
X151702381Y-97738095D01*
X151702381Y-97642857D01*
X151654762Y-97547619D01*
X151607143Y-97500000D01*
X151511905Y-97452381D01*
X151273809Y-97452381D01*
X151130952Y-97500000D01*
X150797619Y-97452381D02*
X150178571Y-97452381D01*
X150511905Y-97833333D01*
X150369047Y-97833333D01*
X150273809Y-97880952D01*
X150226190Y-97928571D01*
X150178571Y-98023810D01*
X150178571Y-98261905D01*
X150226190Y-98357143D01*
X150273809Y-98404762D01*
X150369047Y-98452381D01*
X150654762Y-98452381D01*
X150750000Y-98404762D01*
X150797619Y-98357143D01*
X153416667Y-110452381D02*
X152845238Y-110452381D01*
X153130953Y-111452381D02*
X153130953Y-110452381D01*
X152654762Y-110452381D02*
X152321429Y-111452381D01*
X151988095Y-110452381D01*
X151702381Y-111404762D02*
X151559524Y-111452381D01*
X151321428Y-111452381D01*
X151226190Y-111404762D01*
X151178571Y-111357143D01*
X151130952Y-111261905D01*
X151130952Y-111166667D01*
X151178571Y-111071429D01*
X151226190Y-111023810D01*
X151321428Y-110976190D01*
X151511905Y-110928571D01*
X151607143Y-110880952D01*
X151654762Y-110833333D01*
X151702381Y-110738095D01*
X151702381Y-110642857D01*
X151654762Y-110547619D01*
X151607143Y-110500000D01*
X151511905Y-110452381D01*
X151273809Y-110452381D01*
X151130952Y-110500000D01*
X150273809Y-110785714D02*
X150273809Y-111452381D01*
X150511905Y-110404762D02*
X150750000Y-111119048D01*
X150130952Y-111119048D01*
M02*
