M48
;DRILL file {KiCad 4.0.4-stable} date 11/29/17 11:53:17
;FORMAT={3:3/ absolute / metric / suppress trailing zeros}
FMAT,2
METRIC,LZ
T1C0.400
T2C1.000
T3C1.001
T4C2.600
T5C3.200
T6C3.800
%
G90
G05
M71
T1
X1401Y-093
X1401Y-1061
X1401Y-1191
X141Y-093
X141Y-1061
X141Y-1191
X1411Y-0775
X1419Y-093
X1419Y-1061
X1419Y-1191
X142Y-0775
X1429Y-0775
X1453Y-1229
X159Y-0845
X159Y-0855
X159Y-0865
X159Y-0875
X159Y-0885
X159Y-0975
X159Y-0985
X159Y-0995
X159Y-1005
X159Y-1015
X159Y-1105
X159Y-1115
X159Y-1125
X159Y-1135
X159Y-1145
X15975Y-071
X15975Y-072
X15975Y-073
X15975Y-074
X15975Y-075
X16Y-0845
X16Y-0855
X16Y-0865
X16Y-0875
X16Y-0885
X16Y-0975
X16Y-0985
X16Y-0995
X16Y-1005
X16Y-1015
X16Y-1105
X16Y-1115
X16Y-1125
X16Y-1135
X16Y-1145
X16075Y-071
X16075Y-072
X16075Y-073
X16075Y-074
X16075Y-075
X161Y-0845
X161Y-0855
X161Y-0865
X161Y-0875
X161Y-0885
X161Y-0975
X161Y-0985
X161Y-0995
X161Y-1005
X161Y-1015
X161Y-1105
X161Y-1115
X161Y-1125
X161Y-1135
X161Y-1145
X16175Y-071
X16175Y-072
X16175Y-073
X16175Y-074
X16175Y-075
X162Y-0845
X162Y-0855
X162Y-0865
X162Y-0875
X162Y-0885
X162Y-0975
X162Y-0985
X162Y-0995
X162Y-1005
X162Y-1015
X162Y-1105
X162Y-1115
X162Y-1125
X162Y-1135
X162Y-1145
X16275Y-071
X16275Y-072
X16275Y-073
X16275Y-074
X16275Y-075
X163Y-0845
X163Y-0855
X163Y-0865
X163Y-0875
X163Y-0885
X163Y-0975
X163Y-0985
X163Y-0995
X163Y-1005
X163Y-1015
X163Y-1105
X163Y-1115
X163Y-1125
X163Y-1135
X163Y-1145
X16375Y-071
X16375Y-072
X16375Y-073
X16375Y-074
X16375Y-075
X1652Y-1229
X1681Y-08
X1681Y-0931
X1681Y-1061
X1681Y-1191
X169Y-08
X169Y-0931
X169Y-1061
X169Y-1191
X1699Y-08
X1699Y-0931
X1699Y-1061
X1699Y-1191
T2
X14Y-072
X14254Y-072
X1461Y-128
X14864Y-128
X15118Y-128
X15372Y-128
X15626Y-128
X1588Y-128
X16134Y-128
X16388Y-128
X16746Y-072
X17Y-072
T3
X133Y-07746
X133Y-08
X133Y-08254
X133Y-09046
X133Y-093
X133Y-09554
X133Y-10346
X133Y-106
X133Y-10854
X133Y-11646
X133Y-119
X133Y-12154
X177Y-07746
X177Y-08
X177Y-08254
X177Y-09046
X177Y-093
X177Y-09554
X177Y-10346
X177Y-106
X177Y-10854
X177Y-11646
X177Y-119
X177Y-12154
T4
X14025Y-0865
X14025Y-0995
X14025Y-1125
X14025Y-1265
X16975Y-0865
X16975Y-0995
X16975Y-1125
X16975Y-1265
T5
X133Y-073
X133Y-127
X177Y-073
X177Y-127
T6
X150764Y-08
X150764Y-093
X150764Y-106
X150764Y-119
X159236Y-08
X159236Y-093
X159236Y-106
X159236Y-119
T0
M30
