G04 #@! TF.FileFunction,Soldermask,Top*
%FSLAX46Y46*%
G04 Gerber Fmt 4.6, Leading zero omitted, Abs format (unit mm)*
G04 Created by KiCad (PCBNEW 4.0.4-stable) date 09/01/17 08:26:27*
%MOMM*%
%LPD*%
G01*
G04 APERTURE LIST*
%ADD10C,0.100000*%
%ADD11R,1.974800X2.686000*%
%ADD12O,1.974800X2.686000*%
%ADD13O,2.400000X1.924000*%
%ADD14C,2.900000*%
%ADD15C,2.400000*%
%ADD16R,2.800000X2.000000*%
%ADD17O,2.800000X2.000000*%
%ADD18O,1.920000X2.920000*%
%ADD19R,2.100000X2.400000*%
%ADD20C,3.600000*%
%ADD21C,2.899360*%
%ADD22R,2.900000X2.400000*%
%ADD23R,2.200000X3.900000*%
%ADD24R,3.700000X2.100000*%
%ADD25R,2.400000X2.900000*%
%ADD26C,2.150000*%
%ADD27O,4.400000X4.400000*%
%ADD28R,4.400000X2.900000*%
%ADD29R,1.200000X1.300000*%
%ADD30R,2.400000X3.000000*%
%ADD31O,2.400000X3.000000*%
%ADD32R,3.100000X3.600000*%
%ADD33R,2.400000X2.100000*%
G04 APERTURE END LIST*
D10*
D11*
X112050000Y-76380000D03*
D12*
X109510000Y-76380000D03*
X106970000Y-76380000D03*
X104430000Y-76380000D03*
X101890000Y-76380000D03*
X99350000Y-76380000D03*
X96810000Y-76380000D03*
X94270000Y-76380000D03*
X91730000Y-76380000D03*
X89190000Y-76380000D03*
X86650000Y-76380000D03*
X84110000Y-76380000D03*
X81570000Y-76380000D03*
X79030000Y-76380000D03*
X76490000Y-76380000D03*
X76490000Y-91620000D03*
X79030000Y-91620000D03*
X81570000Y-91620000D03*
X84110000Y-91620000D03*
X86650000Y-91620000D03*
X89190000Y-91620000D03*
X91730000Y-91620000D03*
X94270000Y-91620000D03*
X96810000Y-91620000D03*
X99350000Y-91620000D03*
X101890000Y-91620000D03*
X104430000Y-91620000D03*
X106970000Y-91620000D03*
X109510000Y-91620000D03*
X112050000Y-91620000D03*
D13*
X72500000Y-111810000D03*
X72500000Y-109270000D03*
X72500000Y-106730000D03*
X72500000Y-104190000D03*
D14*
X96800000Y-119650000D03*
X73000000Y-119650000D03*
X73000000Y-96350000D03*
X96800000Y-96350000D03*
D15*
X94500000Y-101000000D03*
X94500000Y-106000000D03*
D16*
X81000000Y-98000000D03*
D17*
X88620000Y-105620000D03*
X81000000Y-100540000D03*
X88620000Y-103080000D03*
X81000000Y-103080000D03*
X88620000Y-100540000D03*
X81000000Y-105620000D03*
X88620000Y-98000000D03*
D18*
X80000000Y-72000000D03*
X82540000Y-72000000D03*
X110000000Y-72000000D03*
X107460000Y-72000000D03*
D19*
X78000000Y-115250000D03*
X78000000Y-111250000D03*
X81000000Y-121000000D03*
X81000000Y-117000000D03*
X84000000Y-115000000D03*
X84000000Y-111000000D03*
X87000000Y-121750000D03*
X87000000Y-117750000D03*
X89750000Y-115000000D03*
X89750000Y-111000000D03*
X92750000Y-122000000D03*
X92750000Y-118000000D03*
X96000000Y-115000000D03*
X96000000Y-111000000D03*
X101000000Y-123000000D03*
X101000000Y-119000000D03*
D20*
X73000000Y-73000000D03*
X117000000Y-73000000D03*
X73000000Y-127000000D03*
X117000000Y-127000000D03*
D21*
X112000000Y-128000000D03*
X108000000Y-128000000D03*
D18*
X86100000Y-128000000D03*
X88640000Y-128000000D03*
X91180000Y-128000000D03*
X93720000Y-128000000D03*
X96260000Y-128000000D03*
X98800000Y-128000000D03*
X101340000Y-128000000D03*
X103880000Y-128000000D03*
D22*
X76500000Y-100250000D03*
X76500000Y-104250000D03*
D23*
X104250000Y-113500000D03*
X104250000Y-118500000D03*
D24*
X76500000Y-81000000D03*
X82000000Y-81000000D03*
D22*
X117000000Y-86750000D03*
X117000000Y-82750000D03*
D25*
X102750000Y-87500000D03*
X98750000Y-87500000D03*
D26*
X113250000Y-96500000D03*
X108250000Y-96500000D03*
X110750000Y-96500000D03*
X108250000Y-111000000D03*
X113250000Y-111000000D03*
D27*
X104550000Y-104000000D03*
X116950000Y-104000000D03*
D28*
X108750000Y-118250000D03*
X116750000Y-118250000D03*
D22*
X95250000Y-85750000D03*
X95250000Y-81750000D03*
D29*
X100300000Y-84750000D03*
X102200000Y-84750000D03*
X101250000Y-82750000D03*
D30*
X78600000Y-126000000D03*
D31*
X81140000Y-126000000D03*
D32*
X103550000Y-72600000D03*
X95650000Y-72600000D03*
D33*
X92200000Y-72200000D03*
X88200000Y-72200000D03*
X86600000Y-82200000D03*
X90600000Y-82200000D03*
X82800000Y-85200000D03*
X78800000Y-85200000D03*
X109000000Y-82200000D03*
X113000000Y-82200000D03*
X108800000Y-86200000D03*
X112800000Y-86200000D03*
D19*
X101800000Y-95600000D03*
X101800000Y-99600000D03*
X117400000Y-95800000D03*
X117400000Y-91800000D03*
M02*
