G04 #@! TF.FileFunction,Copper,L2,Bot,Signal*
%FSLAX46Y46*%
G04 Gerber Fmt 4.6, Leading zero omitted, Abs format (unit mm)*
G04 Created by KiCad (PCBNEW 4.0.4-stable) date 09/01/17 08:26:27*
%MOMM*%
%LPD*%
G01*
G04 APERTURE LIST*
%ADD10C,0.100000*%
%ADD11R,1.574800X2.286000*%
%ADD12O,1.574800X2.286000*%
%ADD13O,2.000000X1.524000*%
%ADD14C,2.500000*%
%ADD15C,2.000000*%
%ADD16R,2.400000X1.600000*%
%ADD17O,2.400000X1.600000*%
%ADD18O,1.520000X2.520000*%
%ADD19C,2.499360*%
%ADD20C,1.750000*%
%ADD21O,4.000000X4.000000*%
%ADD22R,2.000000X2.600000*%
%ADD23O,2.000000X2.600000*%
%ADD24C,0.600000*%
%ADD25C,0.350000*%
%ADD26C,0.250000*%
%ADD27C,1.000000*%
%ADD28C,0.254000*%
G04 APERTURE END LIST*
D10*
D11*
X112050000Y-76380000D03*
D12*
X109510000Y-76380000D03*
X106970000Y-76380000D03*
X104430000Y-76380000D03*
X101890000Y-76380000D03*
X99350000Y-76380000D03*
X96810000Y-76380000D03*
X94270000Y-76380000D03*
X91730000Y-76380000D03*
X89190000Y-76380000D03*
X86650000Y-76380000D03*
X84110000Y-76380000D03*
X81570000Y-76380000D03*
X79030000Y-76380000D03*
X76490000Y-76380000D03*
X76490000Y-91620000D03*
X79030000Y-91620000D03*
X81570000Y-91620000D03*
X84110000Y-91620000D03*
X86650000Y-91620000D03*
X89190000Y-91620000D03*
X91730000Y-91620000D03*
X94270000Y-91620000D03*
X96810000Y-91620000D03*
X99350000Y-91620000D03*
X101890000Y-91620000D03*
X104430000Y-91620000D03*
X106970000Y-91620000D03*
X109510000Y-91620000D03*
X112050000Y-91620000D03*
D13*
X72500000Y-111810000D03*
X72500000Y-109270000D03*
X72500000Y-106730000D03*
X72500000Y-104190000D03*
D14*
X96800000Y-119650000D03*
X73000000Y-119650000D03*
X73000000Y-96350000D03*
X96800000Y-96350000D03*
D15*
X94500000Y-101000000D03*
X94500000Y-106000000D03*
D16*
X81000000Y-98000000D03*
D17*
X88620000Y-105620000D03*
X81000000Y-100540000D03*
X88620000Y-103080000D03*
X81000000Y-103080000D03*
X88620000Y-100540000D03*
X81000000Y-105620000D03*
X88620000Y-98000000D03*
D18*
X80000000Y-72000000D03*
X82540000Y-72000000D03*
X110000000Y-72000000D03*
X107460000Y-72000000D03*
D19*
X112000000Y-128000000D03*
X108000000Y-128000000D03*
D18*
X86100000Y-128000000D03*
X88640000Y-128000000D03*
X91180000Y-128000000D03*
X93720000Y-128000000D03*
X96260000Y-128000000D03*
X98800000Y-128000000D03*
X101340000Y-128000000D03*
X103880000Y-128000000D03*
D20*
X113250000Y-96500000D03*
X108250000Y-96500000D03*
X110750000Y-96500000D03*
X108250000Y-111000000D03*
X113250000Y-111000000D03*
D21*
X104550000Y-104000000D03*
X116950000Y-104000000D03*
D22*
X78600000Y-126000000D03*
D23*
X81140000Y-126000000D03*
D24*
X75000000Y-85250000D03*
X78750000Y-85250000D03*
X95000000Y-73600000D03*
X96000000Y-73600000D03*
X96000000Y-72600000D03*
X95000000Y-72600000D03*
X77250000Y-104250000D03*
X75750000Y-104250000D03*
X85200000Y-108600000D03*
X100800000Y-107200000D03*
X104000000Y-81250000D03*
X102250000Y-79500000D03*
X78250000Y-108250000D03*
X107000000Y-108000000D03*
X86000000Y-96500000D03*
X86000000Y-99500000D03*
X73250000Y-78000000D03*
X76250000Y-80250000D03*
X103750000Y-72600000D03*
X92400000Y-72200000D03*
X72750000Y-88250000D03*
X95250000Y-78750000D03*
X94250000Y-78250000D03*
X72000000Y-87500000D03*
X101800000Y-95400000D03*
X90400000Y-93800000D03*
X111750000Y-94500000D03*
X117000000Y-89000000D03*
D25*
X75000000Y-85250000D02*
X78750000Y-85250000D01*
D26*
X96000000Y-73600000D02*
X95000000Y-73600000D01*
X96000000Y-72600000D02*
X96050000Y-73550000D01*
X96050000Y-73550000D02*
X96000000Y-73600000D01*
X96000000Y-72600000D02*
X95000000Y-72600000D01*
D27*
X76950000Y-104250000D02*
X77250000Y-104250000D01*
X75750000Y-104250000D02*
X75750000Y-104200000D01*
X94500000Y-106000000D02*
X93500000Y-107000000D01*
X94500000Y-106000000D02*
X95500000Y-107000000D01*
X94500000Y-106000000D02*
X95500000Y-105000000D01*
X94500000Y-106000000D02*
X93500000Y-105000000D01*
X112000000Y-128000000D02*
X111000000Y-129000000D01*
X112000000Y-128000000D02*
X113000000Y-129000000D01*
X112000000Y-128000000D02*
X113500000Y-126500000D01*
X112000000Y-128000000D02*
X110500000Y-126500000D01*
X81000000Y-105620000D02*
X79120000Y-105620000D01*
X79120000Y-105620000D02*
X79000000Y-105500000D01*
X81000000Y-105620000D02*
X82880000Y-105620000D01*
X82880000Y-105620000D02*
X83000000Y-105500000D01*
X88620000Y-105620000D02*
X90380000Y-105620000D01*
X90380000Y-105620000D02*
X90500000Y-105500000D01*
X88620000Y-105620000D02*
X86620000Y-105620000D01*
X86620000Y-105620000D02*
X86500000Y-105500000D01*
X111500000Y-128000000D02*
X112000000Y-128000000D01*
D25*
X85200000Y-108600000D02*
X100200000Y-108600000D01*
X100200000Y-108600000D02*
X100800000Y-108000000D01*
X100800000Y-108000000D02*
X100800000Y-107200000D01*
X104000000Y-81250000D02*
X102250000Y-79500000D01*
X79500000Y-109500000D02*
X78250000Y-108250000D01*
X105500000Y-109500000D02*
X79500000Y-109500000D01*
X107000000Y-108000000D02*
X105500000Y-109500000D01*
X86000000Y-99500000D02*
X86000000Y-96500000D01*
X73250000Y-78000000D02*
X75500000Y-80250000D01*
X75500000Y-80250000D02*
X76250000Y-80250000D01*
X103750000Y-72600000D02*
X102200000Y-71050000D01*
X102200000Y-71050000D02*
X93850000Y-71050000D01*
X93850000Y-71050000D02*
X92700000Y-72200000D01*
X92700000Y-72200000D02*
X92400000Y-72200000D01*
X72750000Y-88250000D02*
X73250000Y-87750000D01*
X73250000Y-87750000D02*
X93000000Y-87750000D01*
X93000000Y-87750000D02*
X95250000Y-85500000D01*
X95250000Y-85500000D02*
X95250000Y-78750000D01*
X94250000Y-85000000D02*
X94250000Y-78250000D01*
X92250000Y-87000000D02*
X94250000Y-85000000D01*
X72500000Y-87000000D02*
X92250000Y-87000000D01*
X72000000Y-87500000D02*
X72500000Y-87000000D01*
X101800000Y-94800000D02*
X101800000Y-95400000D01*
X100800000Y-93800000D02*
X101800000Y-94800000D01*
X99600000Y-93800000D02*
X100800000Y-93800000D01*
X90400000Y-93800000D02*
X99600000Y-93800000D01*
X116500000Y-94500000D02*
X111750000Y-94500000D01*
X117000000Y-94000000D02*
X116500000Y-94500000D01*
X117000000Y-89000000D02*
X117000000Y-94000000D01*
D28*
G36*
X79247073Y-70711152D02*
X79002507Y-71059332D01*
X78909800Y-71474600D01*
X78909800Y-71974600D01*
X79974600Y-71974600D01*
X79974600Y-71954600D01*
X80025400Y-71954600D01*
X80025400Y-71974600D01*
X81090200Y-71974600D01*
X81090200Y-71474600D01*
X80997493Y-71059332D01*
X80752927Y-70711152D01*
X80751113Y-70710000D01*
X81788887Y-70710000D01*
X81787073Y-70711152D01*
X81542507Y-71059332D01*
X81449800Y-71474600D01*
X81449800Y-71974600D01*
X82514600Y-71974600D01*
X82514600Y-71954600D01*
X82565400Y-71954600D01*
X82565400Y-71974600D01*
X83630200Y-71974600D01*
X83630200Y-71474600D01*
X83537493Y-71059332D01*
X83292927Y-70711152D01*
X83291113Y-70710000D01*
X93044487Y-70710000D01*
X92489411Y-71265077D01*
X92214833Y-71264838D01*
X91871057Y-71406883D01*
X91607808Y-71669673D01*
X91465162Y-72013201D01*
X91464838Y-72385167D01*
X91606883Y-72728943D01*
X91869673Y-72992192D01*
X92213201Y-73134838D01*
X92585167Y-73135162D01*
X92928943Y-72993117D01*
X92964793Y-72957329D01*
X93009974Y-72948342D01*
X93272756Y-72772756D01*
X94185513Y-71860000D01*
X101864488Y-71860000D01*
X102832571Y-72828083D01*
X102956883Y-73128943D01*
X103219673Y-73392192D01*
X103563201Y-73534838D01*
X103935167Y-73535162D01*
X104278943Y-73393117D01*
X104542192Y-73130327D01*
X104684838Y-72786799D01*
X104685162Y-72414833D01*
X104543117Y-72071057D01*
X104280327Y-71807808D01*
X103977629Y-71682116D01*
X103005512Y-70710000D01*
X106317540Y-70710000D01*
X106171188Y-70929032D01*
X106065000Y-71462875D01*
X106065000Y-72537125D01*
X106171188Y-73070968D01*
X106473586Y-73523539D01*
X106926157Y-73825937D01*
X107460000Y-73932125D01*
X107993843Y-73825937D01*
X108446414Y-73523539D01*
X108748812Y-73070968D01*
X108855000Y-72537125D01*
X108855000Y-72025400D01*
X108909800Y-72025400D01*
X108909800Y-72525400D01*
X109002507Y-72940668D01*
X109247073Y-73288848D01*
X109606265Y-73516933D01*
X109804414Y-73572512D01*
X109974600Y-73507330D01*
X109974600Y-72025400D01*
X110025400Y-72025400D01*
X110025400Y-73507330D01*
X110195586Y-73572512D01*
X110393735Y-73516933D01*
X110510765Y-73442619D01*
X114764613Y-73442619D01*
X115104155Y-74264372D01*
X115732321Y-74893636D01*
X116553481Y-75234611D01*
X117442619Y-75235387D01*
X118264372Y-74895845D01*
X118893636Y-74267679D01*
X119234611Y-73446519D01*
X119235387Y-72557381D01*
X118895845Y-71735628D01*
X118267679Y-71106364D01*
X117446519Y-70765389D01*
X116557381Y-70764613D01*
X115735628Y-71104155D01*
X115106364Y-71732321D01*
X114765389Y-72553481D01*
X114764613Y-73442619D01*
X110510765Y-73442619D01*
X110752927Y-73288848D01*
X110997493Y-72940668D01*
X111090200Y-72525400D01*
X111090200Y-72025400D01*
X110025400Y-72025400D01*
X109974600Y-72025400D01*
X108909800Y-72025400D01*
X108855000Y-72025400D01*
X108855000Y-71462875D01*
X108748812Y-70929032D01*
X108602460Y-70710000D01*
X109248887Y-70710000D01*
X109247073Y-70711152D01*
X109002507Y-71059332D01*
X108909800Y-71474600D01*
X108909800Y-71974600D01*
X109974600Y-71974600D01*
X109974600Y-71954600D01*
X110025400Y-71954600D01*
X110025400Y-71974600D01*
X111090200Y-71974600D01*
X111090200Y-71474600D01*
X110997493Y-71059332D01*
X110752927Y-70711152D01*
X110751113Y-70710000D01*
X119290000Y-70710000D01*
X119290000Y-102773056D01*
X118864849Y-102136774D01*
X118009994Y-101565577D01*
X117001623Y-101365000D01*
X116898377Y-101365000D01*
X115890006Y-101565577D01*
X115035151Y-102136774D01*
X114463954Y-102991629D01*
X114263377Y-104000000D01*
X114463954Y-105008371D01*
X115035151Y-105863226D01*
X115890006Y-106434423D01*
X116898377Y-106635000D01*
X117001623Y-106635000D01*
X118009994Y-106434423D01*
X118864849Y-105863226D01*
X119290000Y-105226944D01*
X119290000Y-129290000D01*
X112943530Y-129290000D01*
X113062549Y-129098470D01*
X112000000Y-128035921D01*
X110937451Y-129098470D01*
X111056470Y-129290000D01*
X109375415Y-129290000D01*
X109596822Y-129068979D01*
X109884352Y-128376531D01*
X109884438Y-128277045D01*
X110413171Y-128277045D01*
X110639982Y-128863209D01*
X110682041Y-128926156D01*
X110901530Y-129062549D01*
X111964079Y-128000000D01*
X112035921Y-128000000D01*
X113098470Y-129062549D01*
X113317959Y-128926156D01*
X113572060Y-128351296D01*
X113586829Y-127722955D01*
X113478356Y-127442619D01*
X114764613Y-127442619D01*
X115104155Y-128264372D01*
X115732321Y-128893636D01*
X116553481Y-129234611D01*
X117442619Y-129235387D01*
X118264372Y-128895845D01*
X118893636Y-128267679D01*
X119234611Y-127446519D01*
X119235387Y-126557381D01*
X118895845Y-125735628D01*
X118267679Y-125106364D01*
X117446519Y-124765389D01*
X116557381Y-124764613D01*
X115735628Y-125104155D01*
X115106364Y-125732321D01*
X114765389Y-126553481D01*
X114764613Y-127442619D01*
X113478356Y-127442619D01*
X113360018Y-127136791D01*
X113317959Y-127073844D01*
X113098470Y-126937451D01*
X112035921Y-128000000D01*
X111964079Y-128000000D01*
X110901530Y-126937451D01*
X110682041Y-127073844D01*
X110427940Y-127648704D01*
X110413171Y-128277045D01*
X109884438Y-128277045D01*
X109885006Y-127626759D01*
X109598686Y-126933809D01*
X109566464Y-126901530D01*
X110937451Y-126901530D01*
X112000000Y-127964079D01*
X113062549Y-126901530D01*
X112926156Y-126682041D01*
X112351296Y-126427940D01*
X111722955Y-126413171D01*
X111136791Y-126639982D01*
X111073844Y-126682041D01*
X110937451Y-126901530D01*
X109566464Y-126901530D01*
X109068979Y-126403178D01*
X108376531Y-126115648D01*
X107626759Y-126114994D01*
X106933809Y-126401314D01*
X106403178Y-126931021D01*
X106115648Y-127623469D01*
X106114994Y-128373241D01*
X106401314Y-129066191D01*
X106624733Y-129290000D01*
X105022460Y-129290000D01*
X105168812Y-129070968D01*
X105275000Y-128537125D01*
X105275000Y-127462875D01*
X105168812Y-126929032D01*
X104866414Y-126476461D01*
X104413843Y-126174063D01*
X103880000Y-126067875D01*
X103346157Y-126174063D01*
X102893586Y-126476461D01*
X102610000Y-126900878D01*
X102326414Y-126476461D01*
X101873843Y-126174063D01*
X101340000Y-126067875D01*
X100806157Y-126174063D01*
X100353586Y-126476461D01*
X100070000Y-126900878D01*
X99786414Y-126476461D01*
X99333843Y-126174063D01*
X98800000Y-126067875D01*
X98266157Y-126174063D01*
X97813586Y-126476461D01*
X97530000Y-126900878D01*
X97246414Y-126476461D01*
X96793843Y-126174063D01*
X96260000Y-126067875D01*
X95726157Y-126174063D01*
X95273586Y-126476461D01*
X94990000Y-126900878D01*
X94706414Y-126476461D01*
X94253843Y-126174063D01*
X93720000Y-126067875D01*
X93186157Y-126174063D01*
X92733586Y-126476461D01*
X92450000Y-126900878D01*
X92166414Y-126476461D01*
X91713843Y-126174063D01*
X91180000Y-126067875D01*
X90646157Y-126174063D01*
X90193586Y-126476461D01*
X89910000Y-126900878D01*
X89626414Y-126476461D01*
X89173843Y-126174063D01*
X88640000Y-126067875D01*
X88106157Y-126174063D01*
X87653586Y-126476461D01*
X87370000Y-126900878D01*
X87086414Y-126476461D01*
X86633843Y-126174063D01*
X86100000Y-126067875D01*
X85566157Y-126174063D01*
X85113586Y-126476461D01*
X84811188Y-126929032D01*
X84705000Y-127462875D01*
X84705000Y-128537125D01*
X84811188Y-129070968D01*
X84957540Y-129290000D01*
X70710000Y-129290000D01*
X70710000Y-127442619D01*
X70764613Y-127442619D01*
X71104155Y-128264372D01*
X71732321Y-128893636D01*
X72553481Y-129234611D01*
X73442619Y-129235387D01*
X74264372Y-128895845D01*
X74893636Y-128267679D01*
X75234611Y-127446519D01*
X75235387Y-126557381D01*
X74895845Y-125735628D01*
X74267679Y-125106364D01*
X73446519Y-124765389D01*
X72557381Y-124764613D01*
X71735628Y-125104155D01*
X71106364Y-125732321D01*
X70765389Y-126553481D01*
X70764613Y-127442619D01*
X70710000Y-127442619D01*
X70710000Y-124700000D01*
X76952560Y-124700000D01*
X76952560Y-127300000D01*
X76996838Y-127535317D01*
X77135910Y-127751441D01*
X77348110Y-127896431D01*
X77600000Y-127947440D01*
X79600000Y-127947440D01*
X79835317Y-127903162D01*
X80051441Y-127764090D01*
X80196431Y-127551890D01*
X80247440Y-127300000D01*
X80247440Y-127277828D01*
X80654421Y-127538665D01*
X80906862Y-127609610D01*
X81114600Y-127547391D01*
X81114600Y-126025400D01*
X81165400Y-126025400D01*
X81165400Y-127547391D01*
X81373138Y-127609610D01*
X81625579Y-127538665D01*
X82062633Y-127258554D01*
X82359224Y-126832512D01*
X82470200Y-126325400D01*
X82470200Y-126025400D01*
X81165400Y-126025400D01*
X81114600Y-126025400D01*
X81094600Y-126025400D01*
X81094600Y-125974600D01*
X81114600Y-125974600D01*
X81114600Y-124452609D01*
X81165400Y-124452609D01*
X81165400Y-125974600D01*
X82470200Y-125974600D01*
X82470200Y-125674600D01*
X82359224Y-125167488D01*
X82062633Y-124741446D01*
X81625579Y-124461335D01*
X81373138Y-124390390D01*
X81165400Y-124452609D01*
X81114600Y-124452609D01*
X80906862Y-124390390D01*
X80654421Y-124461335D01*
X80247440Y-124722172D01*
X80247440Y-124700000D01*
X80203162Y-124464683D01*
X80064090Y-124248559D01*
X79851890Y-124103569D01*
X79600000Y-124052560D01*
X77600000Y-124052560D01*
X77364683Y-124096838D01*
X77148559Y-124235910D01*
X77003569Y-124448110D01*
X76952560Y-124700000D01*
X70710000Y-124700000D01*
X70710000Y-120023305D01*
X71114674Y-120023305D01*
X71401043Y-120716372D01*
X71930839Y-121247093D01*
X72623405Y-121534672D01*
X73373305Y-121535326D01*
X74066372Y-121248957D01*
X74597093Y-120719161D01*
X74884672Y-120026595D01*
X74884674Y-120023305D01*
X94914674Y-120023305D01*
X95201043Y-120716372D01*
X95730839Y-121247093D01*
X96423405Y-121534672D01*
X97173305Y-121535326D01*
X97866372Y-121248957D01*
X98397093Y-120719161D01*
X98684672Y-120026595D01*
X98685326Y-119276695D01*
X98398957Y-118583628D01*
X97869161Y-118052907D01*
X97176595Y-117765328D01*
X96426695Y-117764674D01*
X95733628Y-118051043D01*
X95202907Y-118580839D01*
X94915328Y-119273405D01*
X94914674Y-120023305D01*
X74884674Y-120023305D01*
X74885326Y-119276695D01*
X74598957Y-118583628D01*
X74069161Y-118052907D01*
X73376595Y-117765328D01*
X72626695Y-117764674D01*
X71933628Y-118051043D01*
X71402907Y-118580839D01*
X71115328Y-119273405D01*
X71114674Y-120023305D01*
X70710000Y-120023305D01*
X70710000Y-112005899D01*
X71187512Y-112005899D01*
X71243219Y-112204501D01*
X71471738Y-112564342D01*
X71820567Y-112809341D01*
X72236600Y-112902200D01*
X72474600Y-112902200D01*
X72474600Y-111835400D01*
X72525400Y-111835400D01*
X72525400Y-112902200D01*
X72763400Y-112902200D01*
X73179433Y-112809341D01*
X73528262Y-112564342D01*
X73756781Y-112204501D01*
X73812488Y-112005899D01*
X73747330Y-111835400D01*
X72525400Y-111835400D01*
X72474600Y-111835400D01*
X71252670Y-111835400D01*
X71187512Y-112005899D01*
X70710000Y-112005899D01*
X70710000Y-111614101D01*
X71187512Y-111614101D01*
X71252670Y-111784600D01*
X72474600Y-111784600D01*
X72474600Y-110717800D01*
X72525400Y-110717800D01*
X72525400Y-111784600D01*
X73747330Y-111784600D01*
X73812488Y-111614101D01*
X73756781Y-111415499D01*
X73682824Y-111299040D01*
X106739738Y-111299040D01*
X106969138Y-111854229D01*
X107393537Y-112279370D01*
X107948325Y-112509738D01*
X108549040Y-112510262D01*
X109104229Y-112280862D01*
X109529370Y-111856463D01*
X109541068Y-111828291D01*
X112457630Y-111828291D01*
X112548427Y-112008846D01*
X112987900Y-112200533D01*
X113467275Y-112209449D01*
X113913572Y-112034238D01*
X113951573Y-112008846D01*
X114042370Y-111828291D01*
X113250000Y-111035921D01*
X112457630Y-111828291D01*
X109541068Y-111828291D01*
X109759738Y-111301675D01*
X109759811Y-111217275D01*
X112040551Y-111217275D01*
X112215762Y-111663572D01*
X112241154Y-111701573D01*
X112421709Y-111792370D01*
X113214079Y-111000000D01*
X113285921Y-111000000D01*
X114078291Y-111792370D01*
X114258846Y-111701573D01*
X114450533Y-111262100D01*
X114459449Y-110782725D01*
X114284238Y-110336428D01*
X114258846Y-110298427D01*
X114078291Y-110207630D01*
X113285921Y-111000000D01*
X113214079Y-111000000D01*
X112421709Y-110207630D01*
X112241154Y-110298427D01*
X112049467Y-110737900D01*
X112040551Y-111217275D01*
X109759811Y-111217275D01*
X109760262Y-110700960D01*
X109541580Y-110171709D01*
X112457630Y-110171709D01*
X113250000Y-110964079D01*
X114042370Y-110171709D01*
X113951573Y-109991154D01*
X113512100Y-109799467D01*
X113032725Y-109790551D01*
X112586428Y-109965762D01*
X112548427Y-109991154D01*
X112457630Y-110171709D01*
X109541580Y-110171709D01*
X109530862Y-110145771D01*
X109106463Y-109720630D01*
X108551675Y-109490262D01*
X107950960Y-109489738D01*
X107395771Y-109719138D01*
X106970630Y-110143537D01*
X106740262Y-110698325D01*
X106739738Y-111299040D01*
X73682824Y-111299040D01*
X73528262Y-111055658D01*
X73179433Y-110810659D01*
X72763400Y-110717800D01*
X72525400Y-110717800D01*
X72474600Y-110717800D01*
X72236600Y-110717800D01*
X71820567Y-110810659D01*
X71471738Y-111055658D01*
X71243219Y-111415499D01*
X71187512Y-111614101D01*
X70710000Y-111614101D01*
X70710000Y-104190000D01*
X70832968Y-104190000D01*
X70939308Y-104724609D01*
X71242140Y-105177828D01*
X71664439Y-105460000D01*
X71242140Y-105742172D01*
X70939308Y-106195391D01*
X70832968Y-106730000D01*
X70939308Y-107264609D01*
X71242140Y-107717828D01*
X71664439Y-108000000D01*
X71242140Y-108282172D01*
X70939308Y-108735391D01*
X70832968Y-109270000D01*
X70939308Y-109804609D01*
X71242140Y-110257828D01*
X71695359Y-110560660D01*
X72229968Y-110667000D01*
X72770032Y-110667000D01*
X73304641Y-110560660D01*
X73757860Y-110257828D01*
X74060692Y-109804609D01*
X74167032Y-109270000D01*
X74060692Y-108735391D01*
X73860089Y-108435167D01*
X77314838Y-108435167D01*
X77456883Y-108778943D01*
X77719673Y-109042192D01*
X78022372Y-109167884D01*
X78927244Y-110072757D01*
X79036518Y-110145771D01*
X79190026Y-110248342D01*
X79500000Y-110310000D01*
X105500000Y-110310000D01*
X105809974Y-110248342D01*
X106072756Y-110072756D01*
X107228083Y-108917429D01*
X107528943Y-108793117D01*
X107792192Y-108530327D01*
X107934838Y-108186799D01*
X107935162Y-107814833D01*
X107793117Y-107471057D01*
X107530327Y-107207808D01*
X107186799Y-107065162D01*
X106814833Y-107064838D01*
X106471057Y-107206883D01*
X106207808Y-107469673D01*
X106082116Y-107772371D01*
X105164488Y-108690000D01*
X101255513Y-108690000D01*
X101372756Y-108572757D01*
X101479368Y-108413201D01*
X101548342Y-108309974D01*
X101610000Y-108000000D01*
X101610000Y-107687441D01*
X101734838Y-107386799D01*
X101735162Y-107014833D01*
X101593117Y-106671057D01*
X101330327Y-106407808D01*
X100986799Y-106265162D01*
X100614833Y-106264838D01*
X100271057Y-106406883D01*
X100007808Y-106669673D01*
X99865162Y-107013201D01*
X99864838Y-107385167D01*
X99983101Y-107671386D01*
X99864488Y-107790000D01*
X85687441Y-107790000D01*
X85386799Y-107665162D01*
X85014833Y-107664838D01*
X84671057Y-107806883D01*
X84407808Y-108069673D01*
X84265162Y-108413201D01*
X84264921Y-108690000D01*
X79835513Y-108690000D01*
X79167430Y-108021917D01*
X79043117Y-107721057D01*
X78780327Y-107457808D01*
X78436799Y-107315162D01*
X78064833Y-107314838D01*
X77721057Y-107456883D01*
X77457808Y-107719673D01*
X77315162Y-108063201D01*
X77314838Y-108435167D01*
X73860089Y-108435167D01*
X73757860Y-108282172D01*
X73335561Y-108000000D01*
X73757860Y-107717828D01*
X74060692Y-107264609D01*
X74129550Y-106918431D01*
X93617490Y-106918431D01*
X93723499Y-107111975D01*
X94208141Y-107324485D01*
X94737216Y-107335354D01*
X95230177Y-107142928D01*
X95276501Y-107111975D01*
X95382510Y-106918431D01*
X94500000Y-106035921D01*
X93617490Y-106918431D01*
X74129550Y-106918431D01*
X74167032Y-106730000D01*
X74060692Y-106195391D01*
X73811096Y-105821845D01*
X79487970Y-105821845D01*
X79546112Y-106029042D01*
X79782868Y-106401211D01*
X80144025Y-106654448D01*
X80574600Y-106750200D01*
X80974600Y-106750200D01*
X80974600Y-105645400D01*
X81025400Y-105645400D01*
X81025400Y-106750200D01*
X81425400Y-106750200D01*
X81855975Y-106654448D01*
X82217132Y-106401211D01*
X82453888Y-106029042D01*
X82512030Y-105821845D01*
X87107970Y-105821845D01*
X87166112Y-106029042D01*
X87402868Y-106401211D01*
X87764025Y-106654448D01*
X88194600Y-106750200D01*
X88594600Y-106750200D01*
X88594600Y-105645400D01*
X88645400Y-105645400D01*
X88645400Y-106750200D01*
X89045400Y-106750200D01*
X89475975Y-106654448D01*
X89837132Y-106401211D01*
X89941457Y-106237216D01*
X93164646Y-106237216D01*
X93357072Y-106730177D01*
X93388025Y-106776501D01*
X93581569Y-106882510D01*
X94464079Y-106000000D01*
X94535921Y-106000000D01*
X95418431Y-106882510D01*
X95611975Y-106776501D01*
X95824485Y-106291859D01*
X95835354Y-105762784D01*
X95642928Y-105269823D01*
X95611975Y-105223499D01*
X95418431Y-105117490D01*
X94535921Y-106000000D01*
X94464079Y-106000000D01*
X93581569Y-105117490D01*
X93388025Y-105223499D01*
X93175515Y-105708141D01*
X93164646Y-106237216D01*
X89941457Y-106237216D01*
X90073888Y-106029042D01*
X90132030Y-105821845D01*
X90067342Y-105645400D01*
X88645400Y-105645400D01*
X88594600Y-105645400D01*
X87172658Y-105645400D01*
X87107970Y-105821845D01*
X82512030Y-105821845D01*
X82447342Y-105645400D01*
X81025400Y-105645400D01*
X80974600Y-105645400D01*
X79552658Y-105645400D01*
X79487970Y-105821845D01*
X73811096Y-105821845D01*
X73757860Y-105742172D01*
X73335561Y-105460000D01*
X73757860Y-105177828D01*
X74060692Y-104724609D01*
X74167032Y-104190000D01*
X74060692Y-103655391D01*
X73757860Y-103202172D01*
X73304641Y-102899340D01*
X72770032Y-102793000D01*
X72229968Y-102793000D01*
X71695359Y-102899340D01*
X71242140Y-103202172D01*
X70939308Y-103655391D01*
X70832968Y-104190000D01*
X70710000Y-104190000D01*
X70710000Y-100540000D01*
X79129050Y-100540000D01*
X79238283Y-101089151D01*
X79549352Y-101554698D01*
X79931438Y-101810000D01*
X79549352Y-102065302D01*
X79238283Y-102530849D01*
X79129050Y-103080000D01*
X79238283Y-103629151D01*
X79549352Y-104094698D01*
X80014899Y-104405767D01*
X80509803Y-104504210D01*
X80144025Y-104585552D01*
X79782868Y-104838789D01*
X79546112Y-105210958D01*
X79487970Y-105418155D01*
X79552658Y-105594600D01*
X80974600Y-105594600D01*
X80974600Y-105574600D01*
X81025400Y-105574600D01*
X81025400Y-105594600D01*
X82447342Y-105594600D01*
X82512030Y-105418155D01*
X82453888Y-105210958D01*
X82217132Y-104838789D01*
X81855975Y-104585552D01*
X81490197Y-104504210D01*
X81985101Y-104405767D01*
X82450648Y-104094698D01*
X82761717Y-103629151D01*
X82870950Y-103080000D01*
X82761717Y-102530849D01*
X82450648Y-102065302D01*
X82068562Y-101810000D01*
X82450648Y-101554698D01*
X82761717Y-101089151D01*
X82870950Y-100540000D01*
X82761717Y-99990849D01*
X82450648Y-99525302D01*
X82304650Y-99427749D01*
X82435317Y-99403162D01*
X82651441Y-99264090D01*
X82796431Y-99051890D01*
X82847440Y-98800000D01*
X82847440Y-97200000D01*
X82803162Y-96964683D01*
X82664090Y-96748559D01*
X82571313Y-96685167D01*
X85064838Y-96685167D01*
X85190000Y-96988083D01*
X85190000Y-99012559D01*
X85065162Y-99313201D01*
X85064838Y-99685167D01*
X85206883Y-100028943D01*
X85469673Y-100292192D01*
X85813201Y-100434838D01*
X86185167Y-100435162D01*
X86528943Y-100293117D01*
X86792192Y-100030327D01*
X86934838Y-99686799D01*
X86935162Y-99314833D01*
X86810000Y-99011917D01*
X86810000Y-98306416D01*
X86858283Y-98549151D01*
X87169352Y-99014698D01*
X87551438Y-99270000D01*
X87169352Y-99525302D01*
X86858283Y-99990849D01*
X86749050Y-100540000D01*
X86858283Y-101089151D01*
X87169352Y-101554698D01*
X87551438Y-101810000D01*
X87169352Y-102065302D01*
X86858283Y-102530849D01*
X86749050Y-103080000D01*
X86858283Y-103629151D01*
X87169352Y-104094698D01*
X87634899Y-104405767D01*
X88129803Y-104504210D01*
X87764025Y-104585552D01*
X87402868Y-104838789D01*
X87166112Y-105210958D01*
X87107970Y-105418155D01*
X87172658Y-105594600D01*
X88594600Y-105594600D01*
X88594600Y-105574600D01*
X88645400Y-105574600D01*
X88645400Y-105594600D01*
X90067342Y-105594600D01*
X90132030Y-105418155D01*
X90073888Y-105210958D01*
X89991577Y-105081569D01*
X93617490Y-105081569D01*
X94500000Y-105964079D01*
X95382510Y-105081569D01*
X95276501Y-104888025D01*
X94791859Y-104675515D01*
X94262784Y-104664646D01*
X93769823Y-104857072D01*
X93723499Y-104888025D01*
X93617490Y-105081569D01*
X89991577Y-105081569D01*
X89837132Y-104838789D01*
X89475975Y-104585552D01*
X89110197Y-104504210D01*
X89605101Y-104405767D01*
X90070648Y-104094698D01*
X90133923Y-104000000D01*
X101863377Y-104000000D01*
X102063954Y-105008371D01*
X102635151Y-105863226D01*
X103490006Y-106434423D01*
X104498377Y-106635000D01*
X104601623Y-106635000D01*
X105609994Y-106434423D01*
X106464849Y-105863226D01*
X107036046Y-105008371D01*
X107236623Y-104000000D01*
X107036046Y-102991629D01*
X106464849Y-102136774D01*
X105609994Y-101565577D01*
X104601623Y-101365000D01*
X104498377Y-101365000D01*
X103490006Y-101565577D01*
X102635151Y-102136774D01*
X102063954Y-102991629D01*
X101863377Y-104000000D01*
X90133923Y-104000000D01*
X90381717Y-103629151D01*
X90490950Y-103080000D01*
X90381717Y-102530849D01*
X90070648Y-102065302D01*
X89688562Y-101810000D01*
X90070648Y-101554698D01*
X90224932Y-101323795D01*
X92864716Y-101323795D01*
X93113106Y-101924943D01*
X93572637Y-102385278D01*
X94173352Y-102634716D01*
X94823795Y-102635284D01*
X95424943Y-102386894D01*
X95885278Y-101927363D01*
X96134716Y-101326648D01*
X96135284Y-100676205D01*
X95886894Y-100075057D01*
X95427363Y-99614722D01*
X94826648Y-99365284D01*
X94176205Y-99364716D01*
X93575057Y-99613106D01*
X93114722Y-100072637D01*
X92865284Y-100673352D01*
X92864716Y-101323795D01*
X90224932Y-101323795D01*
X90381717Y-101089151D01*
X90490950Y-100540000D01*
X90381717Y-99990849D01*
X90070648Y-99525302D01*
X89688562Y-99270000D01*
X90070648Y-99014698D01*
X90381717Y-98549151D01*
X90490950Y-98000000D01*
X90381717Y-97450849D01*
X90070648Y-96985302D01*
X89605101Y-96674233D01*
X89055950Y-96565000D01*
X88184050Y-96565000D01*
X87634899Y-96674233D01*
X87169352Y-96985302D01*
X86858283Y-97450849D01*
X86810000Y-97693584D01*
X86810000Y-96987441D01*
X86934838Y-96686799D01*
X86935162Y-96314833D01*
X86793117Y-95971057D01*
X86530327Y-95707808D01*
X86186799Y-95565162D01*
X85814833Y-95564838D01*
X85471057Y-95706883D01*
X85207808Y-95969673D01*
X85065162Y-96313201D01*
X85064838Y-96685167D01*
X82571313Y-96685167D01*
X82451890Y-96603569D01*
X82200000Y-96552560D01*
X79800000Y-96552560D01*
X79564683Y-96596838D01*
X79348559Y-96735910D01*
X79203569Y-96948110D01*
X79152560Y-97200000D01*
X79152560Y-98800000D01*
X79196838Y-99035317D01*
X79335910Y-99251441D01*
X79548110Y-99396431D01*
X79697074Y-99426597D01*
X79549352Y-99525302D01*
X79238283Y-99990849D01*
X79129050Y-100540000D01*
X70710000Y-100540000D01*
X70710000Y-96723305D01*
X71114674Y-96723305D01*
X71401043Y-97416372D01*
X71930839Y-97947093D01*
X72623405Y-98234672D01*
X73373305Y-98235326D01*
X74066372Y-97948957D01*
X74597093Y-97419161D01*
X74884672Y-96726595D01*
X74885326Y-95976695D01*
X74598957Y-95283628D01*
X74069161Y-94752907D01*
X73376595Y-94465328D01*
X72626695Y-94464674D01*
X71933628Y-94751043D01*
X71402907Y-95280839D01*
X71115328Y-95973405D01*
X71114674Y-96723305D01*
X70710000Y-96723305D01*
X70710000Y-91229567D01*
X75067600Y-91229567D01*
X75067600Y-92010433D01*
X75175874Y-92554762D01*
X75484211Y-93016222D01*
X75945671Y-93324559D01*
X76490000Y-93432833D01*
X77034329Y-93324559D01*
X77495789Y-93016222D01*
X77760000Y-92620801D01*
X78024211Y-93016222D01*
X78485671Y-93324559D01*
X79030000Y-93432833D01*
X79574329Y-93324559D01*
X80035789Y-93016222D01*
X80300000Y-92620801D01*
X80564211Y-93016222D01*
X81025671Y-93324559D01*
X81570000Y-93432833D01*
X82114329Y-93324559D01*
X82575789Y-93016222D01*
X82884126Y-92554762D01*
X82992400Y-92010433D01*
X82992400Y-92001000D01*
X83087192Y-92426754D01*
X83337698Y-92783824D01*
X83705780Y-93017849D01*
X83910127Y-93075182D01*
X84084600Y-93010338D01*
X84084600Y-91645400D01*
X82992400Y-91645400D01*
X82992400Y-91594600D01*
X84084600Y-91594600D01*
X84084600Y-90229662D01*
X84135400Y-90229662D01*
X84135400Y-91594600D01*
X85227600Y-91594600D01*
X85227600Y-91645400D01*
X84135400Y-91645400D01*
X84135400Y-93010338D01*
X84309873Y-93075182D01*
X84514220Y-93017849D01*
X84882302Y-92783824D01*
X85132808Y-92426754D01*
X85227600Y-92001000D01*
X85227600Y-92010433D01*
X85335874Y-92554762D01*
X85644211Y-93016222D01*
X86105671Y-93324559D01*
X86650000Y-93432833D01*
X87194329Y-93324559D01*
X87655789Y-93016222D01*
X87920000Y-92620801D01*
X88184211Y-93016222D01*
X88645671Y-93324559D01*
X89190000Y-93432833D01*
X89571574Y-93356933D01*
X89465162Y-93613201D01*
X89464838Y-93985167D01*
X89606883Y-94328943D01*
X89869673Y-94592192D01*
X90213201Y-94734838D01*
X90585167Y-94735162D01*
X90888083Y-94610000D01*
X96074979Y-94610000D01*
X95733628Y-94751043D01*
X95202907Y-95280839D01*
X94915328Y-95973405D01*
X94914674Y-96723305D01*
X95201043Y-97416372D01*
X95730839Y-97947093D01*
X96423405Y-98234672D01*
X97173305Y-98235326D01*
X97866372Y-97948957D01*
X98397093Y-97419161D01*
X98654590Y-96799040D01*
X106739738Y-96799040D01*
X106969138Y-97354229D01*
X107393537Y-97779370D01*
X107948325Y-98009738D01*
X108549040Y-98010262D01*
X109104229Y-97780862D01*
X109529370Y-97356463D01*
X109541068Y-97328291D01*
X109957630Y-97328291D01*
X110048427Y-97508846D01*
X110487900Y-97700533D01*
X110967275Y-97709449D01*
X111413572Y-97534238D01*
X111451573Y-97508846D01*
X111542370Y-97328291D01*
X110750000Y-96535921D01*
X109957630Y-97328291D01*
X109541068Y-97328291D01*
X109664104Y-97031988D01*
X109715762Y-97163572D01*
X109741154Y-97201573D01*
X109921709Y-97292370D01*
X110714079Y-96500000D01*
X110785921Y-96500000D01*
X111578291Y-97292370D01*
X111758846Y-97201573D01*
X111834446Y-97028249D01*
X111969138Y-97354229D01*
X112393537Y-97779370D01*
X112948325Y-98009738D01*
X113549040Y-98010262D01*
X114104229Y-97780862D01*
X114529370Y-97356463D01*
X114759738Y-96801675D01*
X114760262Y-96200960D01*
X114530862Y-95645771D01*
X114195677Y-95310000D01*
X116500000Y-95310000D01*
X116809974Y-95248342D01*
X117072756Y-95072756D01*
X117572757Y-94572756D01*
X117748343Y-94309973D01*
X117775766Y-94172103D01*
X117810000Y-94000000D01*
X117810000Y-89487441D01*
X117934838Y-89186799D01*
X117935162Y-88814833D01*
X117793117Y-88471057D01*
X117530327Y-88207808D01*
X117186799Y-88065162D01*
X116814833Y-88064838D01*
X116471057Y-88206883D01*
X116207808Y-88469673D01*
X116065162Y-88813201D01*
X116064838Y-89185167D01*
X116190000Y-89488083D01*
X116190000Y-93664487D01*
X116164488Y-93690000D01*
X112237441Y-93690000D01*
X111936799Y-93565162D01*
X111564833Y-93564838D01*
X111221057Y-93706883D01*
X110957808Y-93969673D01*
X110815162Y-94313201D01*
X110814838Y-94685167D01*
X110956883Y-95028943D01*
X111219673Y-95292192D01*
X111563201Y-95434838D01*
X111935167Y-95435162D01*
X112238083Y-95310000D01*
X112304750Y-95310000D01*
X111970630Y-95643537D01*
X111835896Y-95968012D01*
X111784238Y-95836428D01*
X111758846Y-95798427D01*
X111578291Y-95707630D01*
X110785921Y-96500000D01*
X110714079Y-96500000D01*
X109921709Y-95707630D01*
X109741154Y-95798427D01*
X109665554Y-95971751D01*
X109541580Y-95671709D01*
X109957630Y-95671709D01*
X110750000Y-96464079D01*
X111542370Y-95671709D01*
X111451573Y-95491154D01*
X111012100Y-95299467D01*
X110532725Y-95290551D01*
X110086428Y-95465762D01*
X110048427Y-95491154D01*
X109957630Y-95671709D01*
X109541580Y-95671709D01*
X109530862Y-95645771D01*
X109106463Y-95220630D01*
X108551675Y-94990262D01*
X107950960Y-94989738D01*
X107395771Y-95219138D01*
X106970630Y-95643537D01*
X106740262Y-96198325D01*
X106739738Y-96799040D01*
X98654590Y-96799040D01*
X98684672Y-96726595D01*
X98685326Y-95976695D01*
X98398957Y-95283628D01*
X97869161Y-94752907D01*
X97525003Y-94610000D01*
X100464488Y-94610000D01*
X100924584Y-95070097D01*
X100865162Y-95213201D01*
X100864838Y-95585167D01*
X101006883Y-95928943D01*
X101269673Y-96192192D01*
X101613201Y-96334838D01*
X101985167Y-96335162D01*
X102328943Y-96193117D01*
X102592192Y-95930327D01*
X102734838Y-95586799D01*
X102735162Y-95214833D01*
X102610000Y-94911917D01*
X102610000Y-94800000D01*
X102597103Y-94735162D01*
X102548343Y-94490027D01*
X102372757Y-94227244D01*
X101500960Y-93355448D01*
X101890000Y-93432833D01*
X102434329Y-93324559D01*
X102895789Y-93016222D01*
X103160000Y-92620801D01*
X103424211Y-93016222D01*
X103885671Y-93324559D01*
X104430000Y-93432833D01*
X104974329Y-93324559D01*
X105435789Y-93016222D01*
X105700000Y-92620801D01*
X105964211Y-93016222D01*
X106425671Y-93324559D01*
X106970000Y-93432833D01*
X107514329Y-93324559D01*
X107975789Y-93016222D01*
X108240000Y-92620801D01*
X108504211Y-93016222D01*
X108965671Y-93324559D01*
X109510000Y-93432833D01*
X110054329Y-93324559D01*
X110515789Y-93016222D01*
X110780000Y-92620801D01*
X111044211Y-93016222D01*
X111505671Y-93324559D01*
X112050000Y-93432833D01*
X112594329Y-93324559D01*
X113055789Y-93016222D01*
X113364126Y-92554762D01*
X113472400Y-92010433D01*
X113472400Y-91229567D01*
X113364126Y-90685238D01*
X113055789Y-90223778D01*
X112594329Y-89915441D01*
X112050000Y-89807167D01*
X111505671Y-89915441D01*
X111044211Y-90223778D01*
X110780000Y-90619199D01*
X110515789Y-90223778D01*
X110054329Y-89915441D01*
X109510000Y-89807167D01*
X108965671Y-89915441D01*
X108504211Y-90223778D01*
X108240000Y-90619199D01*
X107975789Y-90223778D01*
X107514329Y-89915441D01*
X106970000Y-89807167D01*
X106425671Y-89915441D01*
X105964211Y-90223778D01*
X105700000Y-90619199D01*
X105435789Y-90223778D01*
X104974329Y-89915441D01*
X104430000Y-89807167D01*
X103885671Y-89915441D01*
X103424211Y-90223778D01*
X103160000Y-90619199D01*
X102895789Y-90223778D01*
X102434329Y-89915441D01*
X101890000Y-89807167D01*
X101345671Y-89915441D01*
X100884211Y-90223778D01*
X100620000Y-90619199D01*
X100355789Y-90223778D01*
X99894329Y-89915441D01*
X99350000Y-89807167D01*
X98805671Y-89915441D01*
X98344211Y-90223778D01*
X98080000Y-90619199D01*
X97815789Y-90223778D01*
X97354329Y-89915441D01*
X96810000Y-89807167D01*
X96265671Y-89915441D01*
X95804211Y-90223778D01*
X95540000Y-90619199D01*
X95275789Y-90223778D01*
X94814329Y-89915441D01*
X94270000Y-89807167D01*
X93725671Y-89915441D01*
X93264211Y-90223778D01*
X93000000Y-90619199D01*
X92735789Y-90223778D01*
X92274329Y-89915441D01*
X91730000Y-89807167D01*
X91185671Y-89915441D01*
X90724211Y-90223778D01*
X90460000Y-90619199D01*
X90195789Y-90223778D01*
X89734329Y-89915441D01*
X89190000Y-89807167D01*
X88645671Y-89915441D01*
X88184211Y-90223778D01*
X87920000Y-90619199D01*
X87655789Y-90223778D01*
X87194329Y-89915441D01*
X86650000Y-89807167D01*
X86105671Y-89915441D01*
X85644211Y-90223778D01*
X85335874Y-90685238D01*
X85227600Y-91229567D01*
X85227600Y-91239000D01*
X85132808Y-90813246D01*
X84882302Y-90456176D01*
X84514220Y-90222151D01*
X84309873Y-90164818D01*
X84135400Y-90229662D01*
X84084600Y-90229662D01*
X83910127Y-90164818D01*
X83705780Y-90222151D01*
X83337698Y-90456176D01*
X83087192Y-90813246D01*
X82992400Y-91239000D01*
X82992400Y-91229567D01*
X82884126Y-90685238D01*
X82575789Y-90223778D01*
X82114329Y-89915441D01*
X81570000Y-89807167D01*
X81025671Y-89915441D01*
X80564211Y-90223778D01*
X80300000Y-90619199D01*
X80035789Y-90223778D01*
X79574329Y-89915441D01*
X79030000Y-89807167D01*
X78485671Y-89915441D01*
X78024211Y-90223778D01*
X77760000Y-90619199D01*
X77495789Y-90223778D01*
X77034329Y-89915441D01*
X76490000Y-89807167D01*
X75945671Y-89915441D01*
X75484211Y-90223778D01*
X75175874Y-90685238D01*
X75067600Y-91229567D01*
X70710000Y-91229567D01*
X70710000Y-87685167D01*
X71064838Y-87685167D01*
X71206883Y-88028943D01*
X71469673Y-88292192D01*
X71813201Y-88434838D01*
X71814838Y-88434839D01*
X71814838Y-88435167D01*
X71956883Y-88778943D01*
X72219673Y-89042192D01*
X72563201Y-89184838D01*
X72935167Y-89185162D01*
X73278943Y-89043117D01*
X73542192Y-88780327D01*
X73633680Y-88560000D01*
X93000000Y-88560000D01*
X93309974Y-88498342D01*
X93572756Y-88322756D01*
X95822757Y-86072756D01*
X95998343Y-85809973D01*
X96060000Y-85500000D01*
X96060000Y-79685167D01*
X101314838Y-79685167D01*
X101456883Y-80028943D01*
X101719673Y-80292192D01*
X102022372Y-80417884D01*
X103082571Y-81478083D01*
X103206883Y-81778943D01*
X103469673Y-82042192D01*
X103813201Y-82184838D01*
X104185167Y-82185162D01*
X104528943Y-82043117D01*
X104792192Y-81780327D01*
X104934838Y-81436799D01*
X104935162Y-81064833D01*
X104793117Y-80721057D01*
X104530327Y-80457808D01*
X104227629Y-80332116D01*
X103167430Y-79271918D01*
X103043117Y-78971057D01*
X102780327Y-78707808D01*
X102436799Y-78565162D01*
X102064833Y-78564838D01*
X101721057Y-78706883D01*
X101457808Y-78969673D01*
X101315162Y-79313201D01*
X101314838Y-79685167D01*
X96060000Y-79685167D01*
X96060000Y-79237441D01*
X96184838Y-78936799D01*
X96185162Y-78564833D01*
X96043117Y-78221057D01*
X95780327Y-77957808D01*
X95436799Y-77815162D01*
X95217797Y-77814971D01*
X95275789Y-77776222D01*
X95540000Y-77380801D01*
X95804211Y-77776222D01*
X96265671Y-78084559D01*
X96810000Y-78192833D01*
X97354329Y-78084559D01*
X97815789Y-77776222D01*
X98080000Y-77380801D01*
X98344211Y-77776222D01*
X98805671Y-78084559D01*
X99350000Y-78192833D01*
X99894329Y-78084559D01*
X100355789Y-77776222D01*
X100620000Y-77380801D01*
X100884211Y-77776222D01*
X101345671Y-78084559D01*
X101890000Y-78192833D01*
X102434329Y-78084559D01*
X102895789Y-77776222D01*
X103160000Y-77380801D01*
X103424211Y-77776222D01*
X103885671Y-78084559D01*
X104430000Y-78192833D01*
X104974329Y-78084559D01*
X105435789Y-77776222D01*
X105700000Y-77380801D01*
X105964211Y-77776222D01*
X106425671Y-78084559D01*
X106970000Y-78192833D01*
X107514329Y-78084559D01*
X107975789Y-77776222D01*
X108240000Y-77380801D01*
X108504211Y-77776222D01*
X108965671Y-78084559D01*
X109510000Y-78192833D01*
X110054329Y-78084559D01*
X110515789Y-77776222D01*
X110630503Y-77604540D01*
X110659438Y-77758317D01*
X110798510Y-77974441D01*
X111010710Y-78119431D01*
X111262600Y-78170440D01*
X112837400Y-78170440D01*
X113072717Y-78126162D01*
X113288841Y-77987090D01*
X113433831Y-77774890D01*
X113484840Y-77523000D01*
X113484840Y-75237000D01*
X113440562Y-75001683D01*
X113301490Y-74785559D01*
X113089290Y-74640569D01*
X112837400Y-74589560D01*
X111262600Y-74589560D01*
X111027283Y-74633838D01*
X110811159Y-74772910D01*
X110666169Y-74985110D01*
X110631400Y-75156803D01*
X110515789Y-74983778D01*
X110054329Y-74675441D01*
X109510000Y-74567167D01*
X108965671Y-74675441D01*
X108504211Y-74983778D01*
X108240000Y-75379199D01*
X107975789Y-74983778D01*
X107514329Y-74675441D01*
X106970000Y-74567167D01*
X106425671Y-74675441D01*
X105964211Y-74983778D01*
X105700000Y-75379199D01*
X105435789Y-74983778D01*
X104974329Y-74675441D01*
X104430000Y-74567167D01*
X103885671Y-74675441D01*
X103424211Y-74983778D01*
X103160000Y-75379199D01*
X102895789Y-74983778D01*
X102434329Y-74675441D01*
X101890000Y-74567167D01*
X101345671Y-74675441D01*
X100884211Y-74983778D01*
X100620000Y-75379199D01*
X100355789Y-74983778D01*
X99894329Y-74675441D01*
X99350000Y-74567167D01*
X98805671Y-74675441D01*
X98344211Y-74983778D01*
X98080000Y-75379199D01*
X97815789Y-74983778D01*
X97354329Y-74675441D01*
X96810000Y-74567167D01*
X96265671Y-74675441D01*
X95804211Y-74983778D01*
X95540000Y-75379199D01*
X95275789Y-74983778D01*
X94814329Y-74675441D01*
X94270000Y-74567167D01*
X93725671Y-74675441D01*
X93264211Y-74983778D01*
X93000000Y-75379199D01*
X92735789Y-74983778D01*
X92274329Y-74675441D01*
X91730000Y-74567167D01*
X91185671Y-74675441D01*
X90724211Y-74983778D01*
X90460000Y-75379199D01*
X90195789Y-74983778D01*
X89734329Y-74675441D01*
X89190000Y-74567167D01*
X88645671Y-74675441D01*
X88184211Y-74983778D01*
X87920000Y-75379199D01*
X87655789Y-74983778D01*
X87194329Y-74675441D01*
X86650000Y-74567167D01*
X86105671Y-74675441D01*
X85644211Y-74983778D01*
X85380000Y-75379199D01*
X85115789Y-74983778D01*
X84654329Y-74675441D01*
X84110000Y-74567167D01*
X83565671Y-74675441D01*
X83104211Y-74983778D01*
X82840000Y-75379199D01*
X82575789Y-74983778D01*
X82114329Y-74675441D01*
X81570000Y-74567167D01*
X81025671Y-74675441D01*
X80564211Y-74983778D01*
X80255874Y-75445238D01*
X80147600Y-75989567D01*
X80147600Y-75999000D01*
X80052808Y-75573246D01*
X79802302Y-75216176D01*
X79434220Y-74982151D01*
X79229873Y-74924818D01*
X79055400Y-74989662D01*
X79055400Y-76354600D01*
X80147600Y-76354600D01*
X80147600Y-76405400D01*
X79055400Y-76405400D01*
X79055400Y-77770338D01*
X79229873Y-77835182D01*
X79434220Y-77777849D01*
X79802302Y-77543824D01*
X80052808Y-77186754D01*
X80147600Y-76761000D01*
X80147600Y-76770433D01*
X80255874Y-77314762D01*
X80564211Y-77776222D01*
X81025671Y-78084559D01*
X81570000Y-78192833D01*
X82114329Y-78084559D01*
X82575789Y-77776222D01*
X82840000Y-77380801D01*
X83104211Y-77776222D01*
X83565671Y-78084559D01*
X84110000Y-78192833D01*
X84654329Y-78084559D01*
X85115789Y-77776222D01*
X85380000Y-77380801D01*
X85644211Y-77776222D01*
X86105671Y-78084559D01*
X86650000Y-78192833D01*
X87194329Y-78084559D01*
X87655789Y-77776222D01*
X87920000Y-77380801D01*
X88184211Y-77776222D01*
X88645671Y-78084559D01*
X89190000Y-78192833D01*
X89734329Y-78084559D01*
X90195789Y-77776222D01*
X90460000Y-77380801D01*
X90724211Y-77776222D01*
X91185671Y-78084559D01*
X91730000Y-78192833D01*
X92274329Y-78084559D01*
X92735789Y-77776222D01*
X93000000Y-77380801D01*
X93264211Y-77776222D01*
X93397379Y-77865202D01*
X93315162Y-78063201D01*
X93314838Y-78435167D01*
X93440000Y-78738083D01*
X93440000Y-84664487D01*
X91914488Y-86190000D01*
X72500000Y-86190000D01*
X72327897Y-86224234D01*
X72190027Y-86251657D01*
X71927244Y-86427243D01*
X71771917Y-86582571D01*
X71471057Y-86706883D01*
X71207808Y-86969673D01*
X71065162Y-87313201D01*
X71064838Y-87685167D01*
X70710000Y-87685167D01*
X70710000Y-85435167D01*
X74064838Y-85435167D01*
X74206883Y-85778943D01*
X74469673Y-86042192D01*
X74813201Y-86184838D01*
X75185167Y-86185162D01*
X75488083Y-86060000D01*
X78262559Y-86060000D01*
X78563201Y-86184838D01*
X78935167Y-86185162D01*
X79278943Y-86043117D01*
X79542192Y-85780327D01*
X79684838Y-85436799D01*
X79685162Y-85064833D01*
X79543117Y-84721057D01*
X79280327Y-84457808D01*
X78936799Y-84315162D01*
X78564833Y-84314838D01*
X78261917Y-84440000D01*
X75487441Y-84440000D01*
X75186799Y-84315162D01*
X74814833Y-84314838D01*
X74471057Y-84456883D01*
X74207808Y-84719673D01*
X74065162Y-85063201D01*
X74064838Y-85435167D01*
X70710000Y-85435167D01*
X70710000Y-78185167D01*
X72314838Y-78185167D01*
X72456883Y-78528943D01*
X72719673Y-78792192D01*
X73022372Y-78917884D01*
X74927244Y-80822757D01*
X75190027Y-80998343D01*
X75500000Y-81060000D01*
X75762559Y-81060000D01*
X76063201Y-81184838D01*
X76435167Y-81185162D01*
X76778943Y-81043117D01*
X77042192Y-80780327D01*
X77184838Y-80436799D01*
X77185162Y-80064833D01*
X77043117Y-79721057D01*
X76780327Y-79457808D01*
X76436799Y-79315162D01*
X76064833Y-79314838D01*
X75813995Y-79418482D01*
X74167430Y-77771918D01*
X74043117Y-77471057D01*
X73780327Y-77207808D01*
X73436799Y-77065162D01*
X73064833Y-77064838D01*
X72721057Y-77206883D01*
X72457808Y-77469673D01*
X72315162Y-77813201D01*
X72314838Y-78185167D01*
X70710000Y-78185167D01*
X70710000Y-75989567D01*
X75067600Y-75989567D01*
X75067600Y-76770433D01*
X75175874Y-77314762D01*
X75484211Y-77776222D01*
X75945671Y-78084559D01*
X76490000Y-78192833D01*
X77034329Y-78084559D01*
X77495789Y-77776222D01*
X77804126Y-77314762D01*
X77912400Y-76770433D01*
X77912400Y-76761000D01*
X78007192Y-77186754D01*
X78257698Y-77543824D01*
X78625780Y-77777849D01*
X78830127Y-77835182D01*
X79004600Y-77770338D01*
X79004600Y-76405400D01*
X77912400Y-76405400D01*
X77912400Y-76354600D01*
X79004600Y-76354600D01*
X79004600Y-74989662D01*
X78830127Y-74924818D01*
X78625780Y-74982151D01*
X78257698Y-75216176D01*
X78007192Y-75573246D01*
X77912400Y-75999000D01*
X77912400Y-75989567D01*
X77804126Y-75445238D01*
X77495789Y-74983778D01*
X77034329Y-74675441D01*
X76490000Y-74567167D01*
X75945671Y-74675441D01*
X75484211Y-74983778D01*
X75175874Y-75445238D01*
X75067600Y-75989567D01*
X70710000Y-75989567D01*
X70710000Y-73442619D01*
X70764613Y-73442619D01*
X71104155Y-74264372D01*
X71732321Y-74893636D01*
X72553481Y-75234611D01*
X73442619Y-75235387D01*
X74264372Y-74895845D01*
X74893636Y-74267679D01*
X75234611Y-73446519D01*
X75235387Y-72557381D01*
X75015577Y-72025400D01*
X78909800Y-72025400D01*
X78909800Y-72525400D01*
X79002507Y-72940668D01*
X79247073Y-73288848D01*
X79606265Y-73516933D01*
X79804414Y-73572512D01*
X79974600Y-73507330D01*
X79974600Y-72025400D01*
X80025400Y-72025400D01*
X80025400Y-73507330D01*
X80195586Y-73572512D01*
X80393735Y-73516933D01*
X80752927Y-73288848D01*
X80997493Y-72940668D01*
X81090200Y-72525400D01*
X81090200Y-72025400D01*
X81449800Y-72025400D01*
X81449800Y-72525400D01*
X81542507Y-72940668D01*
X81787073Y-73288848D01*
X82146265Y-73516933D01*
X82344414Y-73572512D01*
X82514600Y-73507330D01*
X82514600Y-72025400D01*
X82565400Y-72025400D01*
X82565400Y-73507330D01*
X82735586Y-73572512D01*
X82933735Y-73516933D01*
X83292927Y-73288848D01*
X83537493Y-72940668D01*
X83630200Y-72525400D01*
X83630200Y-72025400D01*
X82565400Y-72025400D01*
X82514600Y-72025400D01*
X81449800Y-72025400D01*
X81090200Y-72025400D01*
X80025400Y-72025400D01*
X79974600Y-72025400D01*
X78909800Y-72025400D01*
X75015577Y-72025400D01*
X74895845Y-71735628D01*
X74267679Y-71106364D01*
X73446519Y-70765389D01*
X72557381Y-70764613D01*
X71735628Y-71104155D01*
X71106364Y-71732321D01*
X70765389Y-72553481D01*
X70764613Y-73442619D01*
X70710000Y-73442619D01*
X70710000Y-70710000D01*
X79248887Y-70710000D01*
X79247073Y-70711152D01*
X79247073Y-70711152D01*
G37*
X79247073Y-70711152D02*
X79002507Y-71059332D01*
X78909800Y-71474600D01*
X78909800Y-71974600D01*
X79974600Y-71974600D01*
X79974600Y-71954600D01*
X80025400Y-71954600D01*
X80025400Y-71974600D01*
X81090200Y-71974600D01*
X81090200Y-71474600D01*
X80997493Y-71059332D01*
X80752927Y-70711152D01*
X80751113Y-70710000D01*
X81788887Y-70710000D01*
X81787073Y-70711152D01*
X81542507Y-71059332D01*
X81449800Y-71474600D01*
X81449800Y-71974600D01*
X82514600Y-71974600D01*
X82514600Y-71954600D01*
X82565400Y-71954600D01*
X82565400Y-71974600D01*
X83630200Y-71974600D01*
X83630200Y-71474600D01*
X83537493Y-71059332D01*
X83292927Y-70711152D01*
X83291113Y-70710000D01*
X93044487Y-70710000D01*
X92489411Y-71265077D01*
X92214833Y-71264838D01*
X91871057Y-71406883D01*
X91607808Y-71669673D01*
X91465162Y-72013201D01*
X91464838Y-72385167D01*
X91606883Y-72728943D01*
X91869673Y-72992192D01*
X92213201Y-73134838D01*
X92585167Y-73135162D01*
X92928943Y-72993117D01*
X92964793Y-72957329D01*
X93009974Y-72948342D01*
X93272756Y-72772756D01*
X94185513Y-71860000D01*
X101864488Y-71860000D01*
X102832571Y-72828083D01*
X102956883Y-73128943D01*
X103219673Y-73392192D01*
X103563201Y-73534838D01*
X103935167Y-73535162D01*
X104278943Y-73393117D01*
X104542192Y-73130327D01*
X104684838Y-72786799D01*
X104685162Y-72414833D01*
X104543117Y-72071057D01*
X104280327Y-71807808D01*
X103977629Y-71682116D01*
X103005512Y-70710000D01*
X106317540Y-70710000D01*
X106171188Y-70929032D01*
X106065000Y-71462875D01*
X106065000Y-72537125D01*
X106171188Y-73070968D01*
X106473586Y-73523539D01*
X106926157Y-73825937D01*
X107460000Y-73932125D01*
X107993843Y-73825937D01*
X108446414Y-73523539D01*
X108748812Y-73070968D01*
X108855000Y-72537125D01*
X108855000Y-72025400D01*
X108909800Y-72025400D01*
X108909800Y-72525400D01*
X109002507Y-72940668D01*
X109247073Y-73288848D01*
X109606265Y-73516933D01*
X109804414Y-73572512D01*
X109974600Y-73507330D01*
X109974600Y-72025400D01*
X110025400Y-72025400D01*
X110025400Y-73507330D01*
X110195586Y-73572512D01*
X110393735Y-73516933D01*
X110510765Y-73442619D01*
X114764613Y-73442619D01*
X115104155Y-74264372D01*
X115732321Y-74893636D01*
X116553481Y-75234611D01*
X117442619Y-75235387D01*
X118264372Y-74895845D01*
X118893636Y-74267679D01*
X119234611Y-73446519D01*
X119235387Y-72557381D01*
X118895845Y-71735628D01*
X118267679Y-71106364D01*
X117446519Y-70765389D01*
X116557381Y-70764613D01*
X115735628Y-71104155D01*
X115106364Y-71732321D01*
X114765389Y-72553481D01*
X114764613Y-73442619D01*
X110510765Y-73442619D01*
X110752927Y-73288848D01*
X110997493Y-72940668D01*
X111090200Y-72525400D01*
X111090200Y-72025400D01*
X110025400Y-72025400D01*
X109974600Y-72025400D01*
X108909800Y-72025400D01*
X108855000Y-72025400D01*
X108855000Y-71462875D01*
X108748812Y-70929032D01*
X108602460Y-70710000D01*
X109248887Y-70710000D01*
X109247073Y-70711152D01*
X109002507Y-71059332D01*
X108909800Y-71474600D01*
X108909800Y-71974600D01*
X109974600Y-71974600D01*
X109974600Y-71954600D01*
X110025400Y-71954600D01*
X110025400Y-71974600D01*
X111090200Y-71974600D01*
X111090200Y-71474600D01*
X110997493Y-71059332D01*
X110752927Y-70711152D01*
X110751113Y-70710000D01*
X119290000Y-70710000D01*
X119290000Y-102773056D01*
X118864849Y-102136774D01*
X118009994Y-101565577D01*
X117001623Y-101365000D01*
X116898377Y-101365000D01*
X115890006Y-101565577D01*
X115035151Y-102136774D01*
X114463954Y-102991629D01*
X114263377Y-104000000D01*
X114463954Y-105008371D01*
X115035151Y-105863226D01*
X115890006Y-106434423D01*
X116898377Y-106635000D01*
X117001623Y-106635000D01*
X118009994Y-106434423D01*
X118864849Y-105863226D01*
X119290000Y-105226944D01*
X119290000Y-129290000D01*
X112943530Y-129290000D01*
X113062549Y-129098470D01*
X112000000Y-128035921D01*
X110937451Y-129098470D01*
X111056470Y-129290000D01*
X109375415Y-129290000D01*
X109596822Y-129068979D01*
X109884352Y-128376531D01*
X109884438Y-128277045D01*
X110413171Y-128277045D01*
X110639982Y-128863209D01*
X110682041Y-128926156D01*
X110901530Y-129062549D01*
X111964079Y-128000000D01*
X112035921Y-128000000D01*
X113098470Y-129062549D01*
X113317959Y-128926156D01*
X113572060Y-128351296D01*
X113586829Y-127722955D01*
X113478356Y-127442619D01*
X114764613Y-127442619D01*
X115104155Y-128264372D01*
X115732321Y-128893636D01*
X116553481Y-129234611D01*
X117442619Y-129235387D01*
X118264372Y-128895845D01*
X118893636Y-128267679D01*
X119234611Y-127446519D01*
X119235387Y-126557381D01*
X118895845Y-125735628D01*
X118267679Y-125106364D01*
X117446519Y-124765389D01*
X116557381Y-124764613D01*
X115735628Y-125104155D01*
X115106364Y-125732321D01*
X114765389Y-126553481D01*
X114764613Y-127442619D01*
X113478356Y-127442619D01*
X113360018Y-127136791D01*
X113317959Y-127073844D01*
X113098470Y-126937451D01*
X112035921Y-128000000D01*
X111964079Y-128000000D01*
X110901530Y-126937451D01*
X110682041Y-127073844D01*
X110427940Y-127648704D01*
X110413171Y-128277045D01*
X109884438Y-128277045D01*
X109885006Y-127626759D01*
X109598686Y-126933809D01*
X109566464Y-126901530D01*
X110937451Y-126901530D01*
X112000000Y-127964079D01*
X113062549Y-126901530D01*
X112926156Y-126682041D01*
X112351296Y-126427940D01*
X111722955Y-126413171D01*
X111136791Y-126639982D01*
X111073844Y-126682041D01*
X110937451Y-126901530D01*
X109566464Y-126901530D01*
X109068979Y-126403178D01*
X108376531Y-126115648D01*
X107626759Y-126114994D01*
X106933809Y-126401314D01*
X106403178Y-126931021D01*
X106115648Y-127623469D01*
X106114994Y-128373241D01*
X106401314Y-129066191D01*
X106624733Y-129290000D01*
X105022460Y-129290000D01*
X105168812Y-129070968D01*
X105275000Y-128537125D01*
X105275000Y-127462875D01*
X105168812Y-126929032D01*
X104866414Y-126476461D01*
X104413843Y-126174063D01*
X103880000Y-126067875D01*
X103346157Y-126174063D01*
X102893586Y-126476461D01*
X102610000Y-126900878D01*
X102326414Y-126476461D01*
X101873843Y-126174063D01*
X101340000Y-126067875D01*
X100806157Y-126174063D01*
X100353586Y-126476461D01*
X100070000Y-126900878D01*
X99786414Y-126476461D01*
X99333843Y-126174063D01*
X98800000Y-126067875D01*
X98266157Y-126174063D01*
X97813586Y-126476461D01*
X97530000Y-126900878D01*
X97246414Y-126476461D01*
X96793843Y-126174063D01*
X96260000Y-126067875D01*
X95726157Y-126174063D01*
X95273586Y-126476461D01*
X94990000Y-126900878D01*
X94706414Y-126476461D01*
X94253843Y-126174063D01*
X93720000Y-126067875D01*
X93186157Y-126174063D01*
X92733586Y-126476461D01*
X92450000Y-126900878D01*
X92166414Y-126476461D01*
X91713843Y-126174063D01*
X91180000Y-126067875D01*
X90646157Y-126174063D01*
X90193586Y-126476461D01*
X89910000Y-126900878D01*
X89626414Y-126476461D01*
X89173843Y-126174063D01*
X88640000Y-126067875D01*
X88106157Y-126174063D01*
X87653586Y-126476461D01*
X87370000Y-126900878D01*
X87086414Y-126476461D01*
X86633843Y-126174063D01*
X86100000Y-126067875D01*
X85566157Y-126174063D01*
X85113586Y-126476461D01*
X84811188Y-126929032D01*
X84705000Y-127462875D01*
X84705000Y-128537125D01*
X84811188Y-129070968D01*
X84957540Y-129290000D01*
X70710000Y-129290000D01*
X70710000Y-127442619D01*
X70764613Y-127442619D01*
X71104155Y-128264372D01*
X71732321Y-128893636D01*
X72553481Y-129234611D01*
X73442619Y-129235387D01*
X74264372Y-128895845D01*
X74893636Y-128267679D01*
X75234611Y-127446519D01*
X75235387Y-126557381D01*
X74895845Y-125735628D01*
X74267679Y-125106364D01*
X73446519Y-124765389D01*
X72557381Y-124764613D01*
X71735628Y-125104155D01*
X71106364Y-125732321D01*
X70765389Y-126553481D01*
X70764613Y-127442619D01*
X70710000Y-127442619D01*
X70710000Y-124700000D01*
X76952560Y-124700000D01*
X76952560Y-127300000D01*
X76996838Y-127535317D01*
X77135910Y-127751441D01*
X77348110Y-127896431D01*
X77600000Y-127947440D01*
X79600000Y-127947440D01*
X79835317Y-127903162D01*
X80051441Y-127764090D01*
X80196431Y-127551890D01*
X80247440Y-127300000D01*
X80247440Y-127277828D01*
X80654421Y-127538665D01*
X80906862Y-127609610D01*
X81114600Y-127547391D01*
X81114600Y-126025400D01*
X81165400Y-126025400D01*
X81165400Y-127547391D01*
X81373138Y-127609610D01*
X81625579Y-127538665D01*
X82062633Y-127258554D01*
X82359224Y-126832512D01*
X82470200Y-126325400D01*
X82470200Y-126025400D01*
X81165400Y-126025400D01*
X81114600Y-126025400D01*
X81094600Y-126025400D01*
X81094600Y-125974600D01*
X81114600Y-125974600D01*
X81114600Y-124452609D01*
X81165400Y-124452609D01*
X81165400Y-125974600D01*
X82470200Y-125974600D01*
X82470200Y-125674600D01*
X82359224Y-125167488D01*
X82062633Y-124741446D01*
X81625579Y-124461335D01*
X81373138Y-124390390D01*
X81165400Y-124452609D01*
X81114600Y-124452609D01*
X80906862Y-124390390D01*
X80654421Y-124461335D01*
X80247440Y-124722172D01*
X80247440Y-124700000D01*
X80203162Y-124464683D01*
X80064090Y-124248559D01*
X79851890Y-124103569D01*
X79600000Y-124052560D01*
X77600000Y-124052560D01*
X77364683Y-124096838D01*
X77148559Y-124235910D01*
X77003569Y-124448110D01*
X76952560Y-124700000D01*
X70710000Y-124700000D01*
X70710000Y-120023305D01*
X71114674Y-120023305D01*
X71401043Y-120716372D01*
X71930839Y-121247093D01*
X72623405Y-121534672D01*
X73373305Y-121535326D01*
X74066372Y-121248957D01*
X74597093Y-120719161D01*
X74884672Y-120026595D01*
X74884674Y-120023305D01*
X94914674Y-120023305D01*
X95201043Y-120716372D01*
X95730839Y-121247093D01*
X96423405Y-121534672D01*
X97173305Y-121535326D01*
X97866372Y-121248957D01*
X98397093Y-120719161D01*
X98684672Y-120026595D01*
X98685326Y-119276695D01*
X98398957Y-118583628D01*
X97869161Y-118052907D01*
X97176595Y-117765328D01*
X96426695Y-117764674D01*
X95733628Y-118051043D01*
X95202907Y-118580839D01*
X94915328Y-119273405D01*
X94914674Y-120023305D01*
X74884674Y-120023305D01*
X74885326Y-119276695D01*
X74598957Y-118583628D01*
X74069161Y-118052907D01*
X73376595Y-117765328D01*
X72626695Y-117764674D01*
X71933628Y-118051043D01*
X71402907Y-118580839D01*
X71115328Y-119273405D01*
X71114674Y-120023305D01*
X70710000Y-120023305D01*
X70710000Y-112005899D01*
X71187512Y-112005899D01*
X71243219Y-112204501D01*
X71471738Y-112564342D01*
X71820567Y-112809341D01*
X72236600Y-112902200D01*
X72474600Y-112902200D01*
X72474600Y-111835400D01*
X72525400Y-111835400D01*
X72525400Y-112902200D01*
X72763400Y-112902200D01*
X73179433Y-112809341D01*
X73528262Y-112564342D01*
X73756781Y-112204501D01*
X73812488Y-112005899D01*
X73747330Y-111835400D01*
X72525400Y-111835400D01*
X72474600Y-111835400D01*
X71252670Y-111835400D01*
X71187512Y-112005899D01*
X70710000Y-112005899D01*
X70710000Y-111614101D01*
X71187512Y-111614101D01*
X71252670Y-111784600D01*
X72474600Y-111784600D01*
X72474600Y-110717800D01*
X72525400Y-110717800D01*
X72525400Y-111784600D01*
X73747330Y-111784600D01*
X73812488Y-111614101D01*
X73756781Y-111415499D01*
X73682824Y-111299040D01*
X106739738Y-111299040D01*
X106969138Y-111854229D01*
X107393537Y-112279370D01*
X107948325Y-112509738D01*
X108549040Y-112510262D01*
X109104229Y-112280862D01*
X109529370Y-111856463D01*
X109541068Y-111828291D01*
X112457630Y-111828291D01*
X112548427Y-112008846D01*
X112987900Y-112200533D01*
X113467275Y-112209449D01*
X113913572Y-112034238D01*
X113951573Y-112008846D01*
X114042370Y-111828291D01*
X113250000Y-111035921D01*
X112457630Y-111828291D01*
X109541068Y-111828291D01*
X109759738Y-111301675D01*
X109759811Y-111217275D01*
X112040551Y-111217275D01*
X112215762Y-111663572D01*
X112241154Y-111701573D01*
X112421709Y-111792370D01*
X113214079Y-111000000D01*
X113285921Y-111000000D01*
X114078291Y-111792370D01*
X114258846Y-111701573D01*
X114450533Y-111262100D01*
X114459449Y-110782725D01*
X114284238Y-110336428D01*
X114258846Y-110298427D01*
X114078291Y-110207630D01*
X113285921Y-111000000D01*
X113214079Y-111000000D01*
X112421709Y-110207630D01*
X112241154Y-110298427D01*
X112049467Y-110737900D01*
X112040551Y-111217275D01*
X109759811Y-111217275D01*
X109760262Y-110700960D01*
X109541580Y-110171709D01*
X112457630Y-110171709D01*
X113250000Y-110964079D01*
X114042370Y-110171709D01*
X113951573Y-109991154D01*
X113512100Y-109799467D01*
X113032725Y-109790551D01*
X112586428Y-109965762D01*
X112548427Y-109991154D01*
X112457630Y-110171709D01*
X109541580Y-110171709D01*
X109530862Y-110145771D01*
X109106463Y-109720630D01*
X108551675Y-109490262D01*
X107950960Y-109489738D01*
X107395771Y-109719138D01*
X106970630Y-110143537D01*
X106740262Y-110698325D01*
X106739738Y-111299040D01*
X73682824Y-111299040D01*
X73528262Y-111055658D01*
X73179433Y-110810659D01*
X72763400Y-110717800D01*
X72525400Y-110717800D01*
X72474600Y-110717800D01*
X72236600Y-110717800D01*
X71820567Y-110810659D01*
X71471738Y-111055658D01*
X71243219Y-111415499D01*
X71187512Y-111614101D01*
X70710000Y-111614101D01*
X70710000Y-104190000D01*
X70832968Y-104190000D01*
X70939308Y-104724609D01*
X71242140Y-105177828D01*
X71664439Y-105460000D01*
X71242140Y-105742172D01*
X70939308Y-106195391D01*
X70832968Y-106730000D01*
X70939308Y-107264609D01*
X71242140Y-107717828D01*
X71664439Y-108000000D01*
X71242140Y-108282172D01*
X70939308Y-108735391D01*
X70832968Y-109270000D01*
X70939308Y-109804609D01*
X71242140Y-110257828D01*
X71695359Y-110560660D01*
X72229968Y-110667000D01*
X72770032Y-110667000D01*
X73304641Y-110560660D01*
X73757860Y-110257828D01*
X74060692Y-109804609D01*
X74167032Y-109270000D01*
X74060692Y-108735391D01*
X73860089Y-108435167D01*
X77314838Y-108435167D01*
X77456883Y-108778943D01*
X77719673Y-109042192D01*
X78022372Y-109167884D01*
X78927244Y-110072757D01*
X79036518Y-110145771D01*
X79190026Y-110248342D01*
X79500000Y-110310000D01*
X105500000Y-110310000D01*
X105809974Y-110248342D01*
X106072756Y-110072756D01*
X107228083Y-108917429D01*
X107528943Y-108793117D01*
X107792192Y-108530327D01*
X107934838Y-108186799D01*
X107935162Y-107814833D01*
X107793117Y-107471057D01*
X107530327Y-107207808D01*
X107186799Y-107065162D01*
X106814833Y-107064838D01*
X106471057Y-107206883D01*
X106207808Y-107469673D01*
X106082116Y-107772371D01*
X105164488Y-108690000D01*
X101255513Y-108690000D01*
X101372756Y-108572757D01*
X101479368Y-108413201D01*
X101548342Y-108309974D01*
X101610000Y-108000000D01*
X101610000Y-107687441D01*
X101734838Y-107386799D01*
X101735162Y-107014833D01*
X101593117Y-106671057D01*
X101330327Y-106407808D01*
X100986799Y-106265162D01*
X100614833Y-106264838D01*
X100271057Y-106406883D01*
X100007808Y-106669673D01*
X99865162Y-107013201D01*
X99864838Y-107385167D01*
X99983101Y-107671386D01*
X99864488Y-107790000D01*
X85687441Y-107790000D01*
X85386799Y-107665162D01*
X85014833Y-107664838D01*
X84671057Y-107806883D01*
X84407808Y-108069673D01*
X84265162Y-108413201D01*
X84264921Y-108690000D01*
X79835513Y-108690000D01*
X79167430Y-108021917D01*
X79043117Y-107721057D01*
X78780327Y-107457808D01*
X78436799Y-107315162D01*
X78064833Y-107314838D01*
X77721057Y-107456883D01*
X77457808Y-107719673D01*
X77315162Y-108063201D01*
X77314838Y-108435167D01*
X73860089Y-108435167D01*
X73757860Y-108282172D01*
X73335561Y-108000000D01*
X73757860Y-107717828D01*
X74060692Y-107264609D01*
X74129550Y-106918431D01*
X93617490Y-106918431D01*
X93723499Y-107111975D01*
X94208141Y-107324485D01*
X94737216Y-107335354D01*
X95230177Y-107142928D01*
X95276501Y-107111975D01*
X95382510Y-106918431D01*
X94500000Y-106035921D01*
X93617490Y-106918431D01*
X74129550Y-106918431D01*
X74167032Y-106730000D01*
X74060692Y-106195391D01*
X73811096Y-105821845D01*
X79487970Y-105821845D01*
X79546112Y-106029042D01*
X79782868Y-106401211D01*
X80144025Y-106654448D01*
X80574600Y-106750200D01*
X80974600Y-106750200D01*
X80974600Y-105645400D01*
X81025400Y-105645400D01*
X81025400Y-106750200D01*
X81425400Y-106750200D01*
X81855975Y-106654448D01*
X82217132Y-106401211D01*
X82453888Y-106029042D01*
X82512030Y-105821845D01*
X87107970Y-105821845D01*
X87166112Y-106029042D01*
X87402868Y-106401211D01*
X87764025Y-106654448D01*
X88194600Y-106750200D01*
X88594600Y-106750200D01*
X88594600Y-105645400D01*
X88645400Y-105645400D01*
X88645400Y-106750200D01*
X89045400Y-106750200D01*
X89475975Y-106654448D01*
X89837132Y-106401211D01*
X89941457Y-106237216D01*
X93164646Y-106237216D01*
X93357072Y-106730177D01*
X93388025Y-106776501D01*
X93581569Y-106882510D01*
X94464079Y-106000000D01*
X94535921Y-106000000D01*
X95418431Y-106882510D01*
X95611975Y-106776501D01*
X95824485Y-106291859D01*
X95835354Y-105762784D01*
X95642928Y-105269823D01*
X95611975Y-105223499D01*
X95418431Y-105117490D01*
X94535921Y-106000000D01*
X94464079Y-106000000D01*
X93581569Y-105117490D01*
X93388025Y-105223499D01*
X93175515Y-105708141D01*
X93164646Y-106237216D01*
X89941457Y-106237216D01*
X90073888Y-106029042D01*
X90132030Y-105821845D01*
X90067342Y-105645400D01*
X88645400Y-105645400D01*
X88594600Y-105645400D01*
X87172658Y-105645400D01*
X87107970Y-105821845D01*
X82512030Y-105821845D01*
X82447342Y-105645400D01*
X81025400Y-105645400D01*
X80974600Y-105645400D01*
X79552658Y-105645400D01*
X79487970Y-105821845D01*
X73811096Y-105821845D01*
X73757860Y-105742172D01*
X73335561Y-105460000D01*
X73757860Y-105177828D01*
X74060692Y-104724609D01*
X74167032Y-104190000D01*
X74060692Y-103655391D01*
X73757860Y-103202172D01*
X73304641Y-102899340D01*
X72770032Y-102793000D01*
X72229968Y-102793000D01*
X71695359Y-102899340D01*
X71242140Y-103202172D01*
X70939308Y-103655391D01*
X70832968Y-104190000D01*
X70710000Y-104190000D01*
X70710000Y-100540000D01*
X79129050Y-100540000D01*
X79238283Y-101089151D01*
X79549352Y-101554698D01*
X79931438Y-101810000D01*
X79549352Y-102065302D01*
X79238283Y-102530849D01*
X79129050Y-103080000D01*
X79238283Y-103629151D01*
X79549352Y-104094698D01*
X80014899Y-104405767D01*
X80509803Y-104504210D01*
X80144025Y-104585552D01*
X79782868Y-104838789D01*
X79546112Y-105210958D01*
X79487970Y-105418155D01*
X79552658Y-105594600D01*
X80974600Y-105594600D01*
X80974600Y-105574600D01*
X81025400Y-105574600D01*
X81025400Y-105594600D01*
X82447342Y-105594600D01*
X82512030Y-105418155D01*
X82453888Y-105210958D01*
X82217132Y-104838789D01*
X81855975Y-104585552D01*
X81490197Y-104504210D01*
X81985101Y-104405767D01*
X82450648Y-104094698D01*
X82761717Y-103629151D01*
X82870950Y-103080000D01*
X82761717Y-102530849D01*
X82450648Y-102065302D01*
X82068562Y-101810000D01*
X82450648Y-101554698D01*
X82761717Y-101089151D01*
X82870950Y-100540000D01*
X82761717Y-99990849D01*
X82450648Y-99525302D01*
X82304650Y-99427749D01*
X82435317Y-99403162D01*
X82651441Y-99264090D01*
X82796431Y-99051890D01*
X82847440Y-98800000D01*
X82847440Y-97200000D01*
X82803162Y-96964683D01*
X82664090Y-96748559D01*
X82571313Y-96685167D01*
X85064838Y-96685167D01*
X85190000Y-96988083D01*
X85190000Y-99012559D01*
X85065162Y-99313201D01*
X85064838Y-99685167D01*
X85206883Y-100028943D01*
X85469673Y-100292192D01*
X85813201Y-100434838D01*
X86185167Y-100435162D01*
X86528943Y-100293117D01*
X86792192Y-100030327D01*
X86934838Y-99686799D01*
X86935162Y-99314833D01*
X86810000Y-99011917D01*
X86810000Y-98306416D01*
X86858283Y-98549151D01*
X87169352Y-99014698D01*
X87551438Y-99270000D01*
X87169352Y-99525302D01*
X86858283Y-99990849D01*
X86749050Y-100540000D01*
X86858283Y-101089151D01*
X87169352Y-101554698D01*
X87551438Y-101810000D01*
X87169352Y-102065302D01*
X86858283Y-102530849D01*
X86749050Y-103080000D01*
X86858283Y-103629151D01*
X87169352Y-104094698D01*
X87634899Y-104405767D01*
X88129803Y-104504210D01*
X87764025Y-104585552D01*
X87402868Y-104838789D01*
X87166112Y-105210958D01*
X87107970Y-105418155D01*
X87172658Y-105594600D01*
X88594600Y-105594600D01*
X88594600Y-105574600D01*
X88645400Y-105574600D01*
X88645400Y-105594600D01*
X90067342Y-105594600D01*
X90132030Y-105418155D01*
X90073888Y-105210958D01*
X89991577Y-105081569D01*
X93617490Y-105081569D01*
X94500000Y-105964079D01*
X95382510Y-105081569D01*
X95276501Y-104888025D01*
X94791859Y-104675515D01*
X94262784Y-104664646D01*
X93769823Y-104857072D01*
X93723499Y-104888025D01*
X93617490Y-105081569D01*
X89991577Y-105081569D01*
X89837132Y-104838789D01*
X89475975Y-104585552D01*
X89110197Y-104504210D01*
X89605101Y-104405767D01*
X90070648Y-104094698D01*
X90133923Y-104000000D01*
X101863377Y-104000000D01*
X102063954Y-105008371D01*
X102635151Y-105863226D01*
X103490006Y-106434423D01*
X104498377Y-106635000D01*
X104601623Y-106635000D01*
X105609994Y-106434423D01*
X106464849Y-105863226D01*
X107036046Y-105008371D01*
X107236623Y-104000000D01*
X107036046Y-102991629D01*
X106464849Y-102136774D01*
X105609994Y-101565577D01*
X104601623Y-101365000D01*
X104498377Y-101365000D01*
X103490006Y-101565577D01*
X102635151Y-102136774D01*
X102063954Y-102991629D01*
X101863377Y-104000000D01*
X90133923Y-104000000D01*
X90381717Y-103629151D01*
X90490950Y-103080000D01*
X90381717Y-102530849D01*
X90070648Y-102065302D01*
X89688562Y-101810000D01*
X90070648Y-101554698D01*
X90224932Y-101323795D01*
X92864716Y-101323795D01*
X93113106Y-101924943D01*
X93572637Y-102385278D01*
X94173352Y-102634716D01*
X94823795Y-102635284D01*
X95424943Y-102386894D01*
X95885278Y-101927363D01*
X96134716Y-101326648D01*
X96135284Y-100676205D01*
X95886894Y-100075057D01*
X95427363Y-99614722D01*
X94826648Y-99365284D01*
X94176205Y-99364716D01*
X93575057Y-99613106D01*
X93114722Y-100072637D01*
X92865284Y-100673352D01*
X92864716Y-101323795D01*
X90224932Y-101323795D01*
X90381717Y-101089151D01*
X90490950Y-100540000D01*
X90381717Y-99990849D01*
X90070648Y-99525302D01*
X89688562Y-99270000D01*
X90070648Y-99014698D01*
X90381717Y-98549151D01*
X90490950Y-98000000D01*
X90381717Y-97450849D01*
X90070648Y-96985302D01*
X89605101Y-96674233D01*
X89055950Y-96565000D01*
X88184050Y-96565000D01*
X87634899Y-96674233D01*
X87169352Y-96985302D01*
X86858283Y-97450849D01*
X86810000Y-97693584D01*
X86810000Y-96987441D01*
X86934838Y-96686799D01*
X86935162Y-96314833D01*
X86793117Y-95971057D01*
X86530327Y-95707808D01*
X86186799Y-95565162D01*
X85814833Y-95564838D01*
X85471057Y-95706883D01*
X85207808Y-95969673D01*
X85065162Y-96313201D01*
X85064838Y-96685167D01*
X82571313Y-96685167D01*
X82451890Y-96603569D01*
X82200000Y-96552560D01*
X79800000Y-96552560D01*
X79564683Y-96596838D01*
X79348559Y-96735910D01*
X79203569Y-96948110D01*
X79152560Y-97200000D01*
X79152560Y-98800000D01*
X79196838Y-99035317D01*
X79335910Y-99251441D01*
X79548110Y-99396431D01*
X79697074Y-99426597D01*
X79549352Y-99525302D01*
X79238283Y-99990849D01*
X79129050Y-100540000D01*
X70710000Y-100540000D01*
X70710000Y-96723305D01*
X71114674Y-96723305D01*
X71401043Y-97416372D01*
X71930839Y-97947093D01*
X72623405Y-98234672D01*
X73373305Y-98235326D01*
X74066372Y-97948957D01*
X74597093Y-97419161D01*
X74884672Y-96726595D01*
X74885326Y-95976695D01*
X74598957Y-95283628D01*
X74069161Y-94752907D01*
X73376595Y-94465328D01*
X72626695Y-94464674D01*
X71933628Y-94751043D01*
X71402907Y-95280839D01*
X71115328Y-95973405D01*
X71114674Y-96723305D01*
X70710000Y-96723305D01*
X70710000Y-91229567D01*
X75067600Y-91229567D01*
X75067600Y-92010433D01*
X75175874Y-92554762D01*
X75484211Y-93016222D01*
X75945671Y-93324559D01*
X76490000Y-93432833D01*
X77034329Y-93324559D01*
X77495789Y-93016222D01*
X77760000Y-92620801D01*
X78024211Y-93016222D01*
X78485671Y-93324559D01*
X79030000Y-93432833D01*
X79574329Y-93324559D01*
X80035789Y-93016222D01*
X80300000Y-92620801D01*
X80564211Y-93016222D01*
X81025671Y-93324559D01*
X81570000Y-93432833D01*
X82114329Y-93324559D01*
X82575789Y-93016222D01*
X82884126Y-92554762D01*
X82992400Y-92010433D01*
X82992400Y-92001000D01*
X83087192Y-92426754D01*
X83337698Y-92783824D01*
X83705780Y-93017849D01*
X83910127Y-93075182D01*
X84084600Y-93010338D01*
X84084600Y-91645400D01*
X82992400Y-91645400D01*
X82992400Y-91594600D01*
X84084600Y-91594600D01*
X84084600Y-90229662D01*
X84135400Y-90229662D01*
X84135400Y-91594600D01*
X85227600Y-91594600D01*
X85227600Y-91645400D01*
X84135400Y-91645400D01*
X84135400Y-93010338D01*
X84309873Y-93075182D01*
X84514220Y-93017849D01*
X84882302Y-92783824D01*
X85132808Y-92426754D01*
X85227600Y-92001000D01*
X85227600Y-92010433D01*
X85335874Y-92554762D01*
X85644211Y-93016222D01*
X86105671Y-93324559D01*
X86650000Y-93432833D01*
X87194329Y-93324559D01*
X87655789Y-93016222D01*
X87920000Y-92620801D01*
X88184211Y-93016222D01*
X88645671Y-93324559D01*
X89190000Y-93432833D01*
X89571574Y-93356933D01*
X89465162Y-93613201D01*
X89464838Y-93985167D01*
X89606883Y-94328943D01*
X89869673Y-94592192D01*
X90213201Y-94734838D01*
X90585167Y-94735162D01*
X90888083Y-94610000D01*
X96074979Y-94610000D01*
X95733628Y-94751043D01*
X95202907Y-95280839D01*
X94915328Y-95973405D01*
X94914674Y-96723305D01*
X95201043Y-97416372D01*
X95730839Y-97947093D01*
X96423405Y-98234672D01*
X97173305Y-98235326D01*
X97866372Y-97948957D01*
X98397093Y-97419161D01*
X98654590Y-96799040D01*
X106739738Y-96799040D01*
X106969138Y-97354229D01*
X107393537Y-97779370D01*
X107948325Y-98009738D01*
X108549040Y-98010262D01*
X109104229Y-97780862D01*
X109529370Y-97356463D01*
X109541068Y-97328291D01*
X109957630Y-97328291D01*
X110048427Y-97508846D01*
X110487900Y-97700533D01*
X110967275Y-97709449D01*
X111413572Y-97534238D01*
X111451573Y-97508846D01*
X111542370Y-97328291D01*
X110750000Y-96535921D01*
X109957630Y-97328291D01*
X109541068Y-97328291D01*
X109664104Y-97031988D01*
X109715762Y-97163572D01*
X109741154Y-97201573D01*
X109921709Y-97292370D01*
X110714079Y-96500000D01*
X110785921Y-96500000D01*
X111578291Y-97292370D01*
X111758846Y-97201573D01*
X111834446Y-97028249D01*
X111969138Y-97354229D01*
X112393537Y-97779370D01*
X112948325Y-98009738D01*
X113549040Y-98010262D01*
X114104229Y-97780862D01*
X114529370Y-97356463D01*
X114759738Y-96801675D01*
X114760262Y-96200960D01*
X114530862Y-95645771D01*
X114195677Y-95310000D01*
X116500000Y-95310000D01*
X116809974Y-95248342D01*
X117072756Y-95072756D01*
X117572757Y-94572756D01*
X117748343Y-94309973D01*
X117775766Y-94172103D01*
X117810000Y-94000000D01*
X117810000Y-89487441D01*
X117934838Y-89186799D01*
X117935162Y-88814833D01*
X117793117Y-88471057D01*
X117530327Y-88207808D01*
X117186799Y-88065162D01*
X116814833Y-88064838D01*
X116471057Y-88206883D01*
X116207808Y-88469673D01*
X116065162Y-88813201D01*
X116064838Y-89185167D01*
X116190000Y-89488083D01*
X116190000Y-93664487D01*
X116164488Y-93690000D01*
X112237441Y-93690000D01*
X111936799Y-93565162D01*
X111564833Y-93564838D01*
X111221057Y-93706883D01*
X110957808Y-93969673D01*
X110815162Y-94313201D01*
X110814838Y-94685167D01*
X110956883Y-95028943D01*
X111219673Y-95292192D01*
X111563201Y-95434838D01*
X111935167Y-95435162D01*
X112238083Y-95310000D01*
X112304750Y-95310000D01*
X111970630Y-95643537D01*
X111835896Y-95968012D01*
X111784238Y-95836428D01*
X111758846Y-95798427D01*
X111578291Y-95707630D01*
X110785921Y-96500000D01*
X110714079Y-96500000D01*
X109921709Y-95707630D01*
X109741154Y-95798427D01*
X109665554Y-95971751D01*
X109541580Y-95671709D01*
X109957630Y-95671709D01*
X110750000Y-96464079D01*
X111542370Y-95671709D01*
X111451573Y-95491154D01*
X111012100Y-95299467D01*
X110532725Y-95290551D01*
X110086428Y-95465762D01*
X110048427Y-95491154D01*
X109957630Y-95671709D01*
X109541580Y-95671709D01*
X109530862Y-95645771D01*
X109106463Y-95220630D01*
X108551675Y-94990262D01*
X107950960Y-94989738D01*
X107395771Y-95219138D01*
X106970630Y-95643537D01*
X106740262Y-96198325D01*
X106739738Y-96799040D01*
X98654590Y-96799040D01*
X98684672Y-96726595D01*
X98685326Y-95976695D01*
X98398957Y-95283628D01*
X97869161Y-94752907D01*
X97525003Y-94610000D01*
X100464488Y-94610000D01*
X100924584Y-95070097D01*
X100865162Y-95213201D01*
X100864838Y-95585167D01*
X101006883Y-95928943D01*
X101269673Y-96192192D01*
X101613201Y-96334838D01*
X101985167Y-96335162D01*
X102328943Y-96193117D01*
X102592192Y-95930327D01*
X102734838Y-95586799D01*
X102735162Y-95214833D01*
X102610000Y-94911917D01*
X102610000Y-94800000D01*
X102597103Y-94735162D01*
X102548343Y-94490027D01*
X102372757Y-94227244D01*
X101500960Y-93355448D01*
X101890000Y-93432833D01*
X102434329Y-93324559D01*
X102895789Y-93016222D01*
X103160000Y-92620801D01*
X103424211Y-93016222D01*
X103885671Y-93324559D01*
X104430000Y-93432833D01*
X104974329Y-93324559D01*
X105435789Y-93016222D01*
X105700000Y-92620801D01*
X105964211Y-93016222D01*
X106425671Y-93324559D01*
X106970000Y-93432833D01*
X107514329Y-93324559D01*
X107975789Y-93016222D01*
X108240000Y-92620801D01*
X108504211Y-93016222D01*
X108965671Y-93324559D01*
X109510000Y-93432833D01*
X110054329Y-93324559D01*
X110515789Y-93016222D01*
X110780000Y-92620801D01*
X111044211Y-93016222D01*
X111505671Y-93324559D01*
X112050000Y-93432833D01*
X112594329Y-93324559D01*
X113055789Y-93016222D01*
X113364126Y-92554762D01*
X113472400Y-92010433D01*
X113472400Y-91229567D01*
X113364126Y-90685238D01*
X113055789Y-90223778D01*
X112594329Y-89915441D01*
X112050000Y-89807167D01*
X111505671Y-89915441D01*
X111044211Y-90223778D01*
X110780000Y-90619199D01*
X110515789Y-90223778D01*
X110054329Y-89915441D01*
X109510000Y-89807167D01*
X108965671Y-89915441D01*
X108504211Y-90223778D01*
X108240000Y-90619199D01*
X107975789Y-90223778D01*
X107514329Y-89915441D01*
X106970000Y-89807167D01*
X106425671Y-89915441D01*
X105964211Y-90223778D01*
X105700000Y-90619199D01*
X105435789Y-90223778D01*
X104974329Y-89915441D01*
X104430000Y-89807167D01*
X103885671Y-89915441D01*
X103424211Y-90223778D01*
X103160000Y-90619199D01*
X102895789Y-90223778D01*
X102434329Y-89915441D01*
X101890000Y-89807167D01*
X101345671Y-89915441D01*
X100884211Y-90223778D01*
X100620000Y-90619199D01*
X100355789Y-90223778D01*
X99894329Y-89915441D01*
X99350000Y-89807167D01*
X98805671Y-89915441D01*
X98344211Y-90223778D01*
X98080000Y-90619199D01*
X97815789Y-90223778D01*
X97354329Y-89915441D01*
X96810000Y-89807167D01*
X96265671Y-89915441D01*
X95804211Y-90223778D01*
X95540000Y-90619199D01*
X95275789Y-90223778D01*
X94814329Y-89915441D01*
X94270000Y-89807167D01*
X93725671Y-89915441D01*
X93264211Y-90223778D01*
X93000000Y-90619199D01*
X92735789Y-90223778D01*
X92274329Y-89915441D01*
X91730000Y-89807167D01*
X91185671Y-89915441D01*
X90724211Y-90223778D01*
X90460000Y-90619199D01*
X90195789Y-90223778D01*
X89734329Y-89915441D01*
X89190000Y-89807167D01*
X88645671Y-89915441D01*
X88184211Y-90223778D01*
X87920000Y-90619199D01*
X87655789Y-90223778D01*
X87194329Y-89915441D01*
X86650000Y-89807167D01*
X86105671Y-89915441D01*
X85644211Y-90223778D01*
X85335874Y-90685238D01*
X85227600Y-91229567D01*
X85227600Y-91239000D01*
X85132808Y-90813246D01*
X84882302Y-90456176D01*
X84514220Y-90222151D01*
X84309873Y-90164818D01*
X84135400Y-90229662D01*
X84084600Y-90229662D01*
X83910127Y-90164818D01*
X83705780Y-90222151D01*
X83337698Y-90456176D01*
X83087192Y-90813246D01*
X82992400Y-91239000D01*
X82992400Y-91229567D01*
X82884126Y-90685238D01*
X82575789Y-90223778D01*
X82114329Y-89915441D01*
X81570000Y-89807167D01*
X81025671Y-89915441D01*
X80564211Y-90223778D01*
X80300000Y-90619199D01*
X80035789Y-90223778D01*
X79574329Y-89915441D01*
X79030000Y-89807167D01*
X78485671Y-89915441D01*
X78024211Y-90223778D01*
X77760000Y-90619199D01*
X77495789Y-90223778D01*
X77034329Y-89915441D01*
X76490000Y-89807167D01*
X75945671Y-89915441D01*
X75484211Y-90223778D01*
X75175874Y-90685238D01*
X75067600Y-91229567D01*
X70710000Y-91229567D01*
X70710000Y-87685167D01*
X71064838Y-87685167D01*
X71206883Y-88028943D01*
X71469673Y-88292192D01*
X71813201Y-88434838D01*
X71814838Y-88434839D01*
X71814838Y-88435167D01*
X71956883Y-88778943D01*
X72219673Y-89042192D01*
X72563201Y-89184838D01*
X72935167Y-89185162D01*
X73278943Y-89043117D01*
X73542192Y-88780327D01*
X73633680Y-88560000D01*
X93000000Y-88560000D01*
X93309974Y-88498342D01*
X93572756Y-88322756D01*
X95822757Y-86072756D01*
X95998343Y-85809973D01*
X96060000Y-85500000D01*
X96060000Y-79685167D01*
X101314838Y-79685167D01*
X101456883Y-80028943D01*
X101719673Y-80292192D01*
X102022372Y-80417884D01*
X103082571Y-81478083D01*
X103206883Y-81778943D01*
X103469673Y-82042192D01*
X103813201Y-82184838D01*
X104185167Y-82185162D01*
X104528943Y-82043117D01*
X104792192Y-81780327D01*
X104934838Y-81436799D01*
X104935162Y-81064833D01*
X104793117Y-80721057D01*
X104530327Y-80457808D01*
X104227629Y-80332116D01*
X103167430Y-79271918D01*
X103043117Y-78971057D01*
X102780327Y-78707808D01*
X102436799Y-78565162D01*
X102064833Y-78564838D01*
X101721057Y-78706883D01*
X101457808Y-78969673D01*
X101315162Y-79313201D01*
X101314838Y-79685167D01*
X96060000Y-79685167D01*
X96060000Y-79237441D01*
X96184838Y-78936799D01*
X96185162Y-78564833D01*
X96043117Y-78221057D01*
X95780327Y-77957808D01*
X95436799Y-77815162D01*
X95217797Y-77814971D01*
X95275789Y-77776222D01*
X95540000Y-77380801D01*
X95804211Y-77776222D01*
X96265671Y-78084559D01*
X96810000Y-78192833D01*
X97354329Y-78084559D01*
X97815789Y-77776222D01*
X98080000Y-77380801D01*
X98344211Y-77776222D01*
X98805671Y-78084559D01*
X99350000Y-78192833D01*
X99894329Y-78084559D01*
X100355789Y-77776222D01*
X100620000Y-77380801D01*
X100884211Y-77776222D01*
X101345671Y-78084559D01*
X101890000Y-78192833D01*
X102434329Y-78084559D01*
X102895789Y-77776222D01*
X103160000Y-77380801D01*
X103424211Y-77776222D01*
X103885671Y-78084559D01*
X104430000Y-78192833D01*
X104974329Y-78084559D01*
X105435789Y-77776222D01*
X105700000Y-77380801D01*
X105964211Y-77776222D01*
X106425671Y-78084559D01*
X106970000Y-78192833D01*
X107514329Y-78084559D01*
X107975789Y-77776222D01*
X108240000Y-77380801D01*
X108504211Y-77776222D01*
X108965671Y-78084559D01*
X109510000Y-78192833D01*
X110054329Y-78084559D01*
X110515789Y-77776222D01*
X110630503Y-77604540D01*
X110659438Y-77758317D01*
X110798510Y-77974441D01*
X111010710Y-78119431D01*
X111262600Y-78170440D01*
X112837400Y-78170440D01*
X113072717Y-78126162D01*
X113288841Y-77987090D01*
X113433831Y-77774890D01*
X113484840Y-77523000D01*
X113484840Y-75237000D01*
X113440562Y-75001683D01*
X113301490Y-74785559D01*
X113089290Y-74640569D01*
X112837400Y-74589560D01*
X111262600Y-74589560D01*
X111027283Y-74633838D01*
X110811159Y-74772910D01*
X110666169Y-74985110D01*
X110631400Y-75156803D01*
X110515789Y-74983778D01*
X110054329Y-74675441D01*
X109510000Y-74567167D01*
X108965671Y-74675441D01*
X108504211Y-74983778D01*
X108240000Y-75379199D01*
X107975789Y-74983778D01*
X107514329Y-74675441D01*
X106970000Y-74567167D01*
X106425671Y-74675441D01*
X105964211Y-74983778D01*
X105700000Y-75379199D01*
X105435789Y-74983778D01*
X104974329Y-74675441D01*
X104430000Y-74567167D01*
X103885671Y-74675441D01*
X103424211Y-74983778D01*
X103160000Y-75379199D01*
X102895789Y-74983778D01*
X102434329Y-74675441D01*
X101890000Y-74567167D01*
X101345671Y-74675441D01*
X100884211Y-74983778D01*
X100620000Y-75379199D01*
X100355789Y-74983778D01*
X99894329Y-74675441D01*
X99350000Y-74567167D01*
X98805671Y-74675441D01*
X98344211Y-74983778D01*
X98080000Y-75379199D01*
X97815789Y-74983778D01*
X97354329Y-74675441D01*
X96810000Y-74567167D01*
X96265671Y-74675441D01*
X95804211Y-74983778D01*
X95540000Y-75379199D01*
X95275789Y-74983778D01*
X94814329Y-74675441D01*
X94270000Y-74567167D01*
X93725671Y-74675441D01*
X93264211Y-74983778D01*
X93000000Y-75379199D01*
X92735789Y-74983778D01*
X92274329Y-74675441D01*
X91730000Y-74567167D01*
X91185671Y-74675441D01*
X90724211Y-74983778D01*
X90460000Y-75379199D01*
X90195789Y-74983778D01*
X89734329Y-74675441D01*
X89190000Y-74567167D01*
X88645671Y-74675441D01*
X88184211Y-74983778D01*
X87920000Y-75379199D01*
X87655789Y-74983778D01*
X87194329Y-74675441D01*
X86650000Y-74567167D01*
X86105671Y-74675441D01*
X85644211Y-74983778D01*
X85380000Y-75379199D01*
X85115789Y-74983778D01*
X84654329Y-74675441D01*
X84110000Y-74567167D01*
X83565671Y-74675441D01*
X83104211Y-74983778D01*
X82840000Y-75379199D01*
X82575789Y-74983778D01*
X82114329Y-74675441D01*
X81570000Y-74567167D01*
X81025671Y-74675441D01*
X80564211Y-74983778D01*
X80255874Y-75445238D01*
X80147600Y-75989567D01*
X80147600Y-75999000D01*
X80052808Y-75573246D01*
X79802302Y-75216176D01*
X79434220Y-74982151D01*
X79229873Y-74924818D01*
X79055400Y-74989662D01*
X79055400Y-76354600D01*
X80147600Y-76354600D01*
X80147600Y-76405400D01*
X79055400Y-76405400D01*
X79055400Y-77770338D01*
X79229873Y-77835182D01*
X79434220Y-77777849D01*
X79802302Y-77543824D01*
X80052808Y-77186754D01*
X80147600Y-76761000D01*
X80147600Y-76770433D01*
X80255874Y-77314762D01*
X80564211Y-77776222D01*
X81025671Y-78084559D01*
X81570000Y-78192833D01*
X82114329Y-78084559D01*
X82575789Y-77776222D01*
X82840000Y-77380801D01*
X83104211Y-77776222D01*
X83565671Y-78084559D01*
X84110000Y-78192833D01*
X84654329Y-78084559D01*
X85115789Y-77776222D01*
X85380000Y-77380801D01*
X85644211Y-77776222D01*
X86105671Y-78084559D01*
X86650000Y-78192833D01*
X87194329Y-78084559D01*
X87655789Y-77776222D01*
X87920000Y-77380801D01*
X88184211Y-77776222D01*
X88645671Y-78084559D01*
X89190000Y-78192833D01*
X89734329Y-78084559D01*
X90195789Y-77776222D01*
X90460000Y-77380801D01*
X90724211Y-77776222D01*
X91185671Y-78084559D01*
X91730000Y-78192833D01*
X92274329Y-78084559D01*
X92735789Y-77776222D01*
X93000000Y-77380801D01*
X93264211Y-77776222D01*
X93397379Y-77865202D01*
X93315162Y-78063201D01*
X93314838Y-78435167D01*
X93440000Y-78738083D01*
X93440000Y-84664487D01*
X91914488Y-86190000D01*
X72500000Y-86190000D01*
X72327897Y-86224234D01*
X72190027Y-86251657D01*
X71927244Y-86427243D01*
X71771917Y-86582571D01*
X71471057Y-86706883D01*
X71207808Y-86969673D01*
X71065162Y-87313201D01*
X71064838Y-87685167D01*
X70710000Y-87685167D01*
X70710000Y-85435167D01*
X74064838Y-85435167D01*
X74206883Y-85778943D01*
X74469673Y-86042192D01*
X74813201Y-86184838D01*
X75185167Y-86185162D01*
X75488083Y-86060000D01*
X78262559Y-86060000D01*
X78563201Y-86184838D01*
X78935167Y-86185162D01*
X79278943Y-86043117D01*
X79542192Y-85780327D01*
X79684838Y-85436799D01*
X79685162Y-85064833D01*
X79543117Y-84721057D01*
X79280327Y-84457808D01*
X78936799Y-84315162D01*
X78564833Y-84314838D01*
X78261917Y-84440000D01*
X75487441Y-84440000D01*
X75186799Y-84315162D01*
X74814833Y-84314838D01*
X74471057Y-84456883D01*
X74207808Y-84719673D01*
X74065162Y-85063201D01*
X74064838Y-85435167D01*
X70710000Y-85435167D01*
X70710000Y-78185167D01*
X72314838Y-78185167D01*
X72456883Y-78528943D01*
X72719673Y-78792192D01*
X73022372Y-78917884D01*
X74927244Y-80822757D01*
X75190027Y-80998343D01*
X75500000Y-81060000D01*
X75762559Y-81060000D01*
X76063201Y-81184838D01*
X76435167Y-81185162D01*
X76778943Y-81043117D01*
X77042192Y-80780327D01*
X77184838Y-80436799D01*
X77185162Y-80064833D01*
X77043117Y-79721057D01*
X76780327Y-79457808D01*
X76436799Y-79315162D01*
X76064833Y-79314838D01*
X75813995Y-79418482D01*
X74167430Y-77771918D01*
X74043117Y-77471057D01*
X73780327Y-77207808D01*
X73436799Y-77065162D01*
X73064833Y-77064838D01*
X72721057Y-77206883D01*
X72457808Y-77469673D01*
X72315162Y-77813201D01*
X72314838Y-78185167D01*
X70710000Y-78185167D01*
X70710000Y-75989567D01*
X75067600Y-75989567D01*
X75067600Y-76770433D01*
X75175874Y-77314762D01*
X75484211Y-77776222D01*
X75945671Y-78084559D01*
X76490000Y-78192833D01*
X77034329Y-78084559D01*
X77495789Y-77776222D01*
X77804126Y-77314762D01*
X77912400Y-76770433D01*
X77912400Y-76761000D01*
X78007192Y-77186754D01*
X78257698Y-77543824D01*
X78625780Y-77777849D01*
X78830127Y-77835182D01*
X79004600Y-77770338D01*
X79004600Y-76405400D01*
X77912400Y-76405400D01*
X77912400Y-76354600D01*
X79004600Y-76354600D01*
X79004600Y-74989662D01*
X78830127Y-74924818D01*
X78625780Y-74982151D01*
X78257698Y-75216176D01*
X78007192Y-75573246D01*
X77912400Y-75999000D01*
X77912400Y-75989567D01*
X77804126Y-75445238D01*
X77495789Y-74983778D01*
X77034329Y-74675441D01*
X76490000Y-74567167D01*
X75945671Y-74675441D01*
X75484211Y-74983778D01*
X75175874Y-75445238D01*
X75067600Y-75989567D01*
X70710000Y-75989567D01*
X70710000Y-73442619D01*
X70764613Y-73442619D01*
X71104155Y-74264372D01*
X71732321Y-74893636D01*
X72553481Y-75234611D01*
X73442619Y-75235387D01*
X74264372Y-74895845D01*
X74893636Y-74267679D01*
X75234611Y-73446519D01*
X75235387Y-72557381D01*
X75015577Y-72025400D01*
X78909800Y-72025400D01*
X78909800Y-72525400D01*
X79002507Y-72940668D01*
X79247073Y-73288848D01*
X79606265Y-73516933D01*
X79804414Y-73572512D01*
X79974600Y-73507330D01*
X79974600Y-72025400D01*
X80025400Y-72025400D01*
X80025400Y-73507330D01*
X80195586Y-73572512D01*
X80393735Y-73516933D01*
X80752927Y-73288848D01*
X80997493Y-72940668D01*
X81090200Y-72525400D01*
X81090200Y-72025400D01*
X81449800Y-72025400D01*
X81449800Y-72525400D01*
X81542507Y-72940668D01*
X81787073Y-73288848D01*
X82146265Y-73516933D01*
X82344414Y-73572512D01*
X82514600Y-73507330D01*
X82514600Y-72025400D01*
X82565400Y-72025400D01*
X82565400Y-73507330D01*
X82735586Y-73572512D01*
X82933735Y-73516933D01*
X83292927Y-73288848D01*
X83537493Y-72940668D01*
X83630200Y-72525400D01*
X83630200Y-72025400D01*
X82565400Y-72025400D01*
X82514600Y-72025400D01*
X81449800Y-72025400D01*
X81090200Y-72025400D01*
X80025400Y-72025400D01*
X79974600Y-72025400D01*
X78909800Y-72025400D01*
X75015577Y-72025400D01*
X74895845Y-71735628D01*
X74267679Y-71106364D01*
X73446519Y-70765389D01*
X72557381Y-70764613D01*
X71735628Y-71104155D01*
X71106364Y-71732321D01*
X70765389Y-72553481D01*
X70764613Y-73442619D01*
X70710000Y-73442619D01*
X70710000Y-70710000D01*
X79248887Y-70710000D01*
X79247073Y-70711152D01*
M02*
