G04 #@! TF.FileFunction,Legend,Top*
%FSLAX46Y46*%
G04 Gerber Fmt 4.6, Leading zero omitted, Abs format (unit mm)*
G04 Created by KiCad (PCBNEW 4.0.4-stable) date 09/01/17 08:26:27*
%MOMM*%
%LPD*%
G01*
G04 APERTURE LIST*
%ADD10C,0.100000*%
%ADD11C,0.300000*%
%ADD12C,0.381000*%
%ADD13C,0.150000*%
%ADD14C,0.120000*%
%ADD15C,0.200000*%
G04 APERTURE END LIST*
D10*
X104300000Y-116500000D02*
X104300000Y-116800000D01*
X104300000Y-115700000D02*
X104300000Y-115200000D01*
X103500000Y-115700000D02*
X105100000Y-115700000D01*
X104300000Y-115700000D02*
X103500000Y-115700000D01*
X104300000Y-115700000D02*
X103500000Y-116500000D01*
X105100000Y-116500000D02*
X104300000Y-115700000D01*
X105000000Y-116500000D02*
X105100000Y-116500000D01*
X103500000Y-116500000D02*
X105000000Y-116500000D01*
X109250000Y-120500000D02*
X110750000Y-120500000D01*
X110000000Y-121250000D02*
X110000000Y-119750000D01*
X79050000Y-81000000D02*
X79050000Y-80450000D01*
X79050000Y-81000000D02*
X79050000Y-81550000D01*
X79050000Y-81000000D02*
X78650000Y-81000000D01*
X79500000Y-81400000D02*
X79500000Y-81000000D01*
X79100000Y-81000000D02*
X79500000Y-81400000D01*
X79500000Y-80600000D02*
X79100000Y-81000000D01*
X79500000Y-81000000D02*
X79500000Y-80600000D01*
X80000000Y-81000000D02*
X79500000Y-81000000D01*
X96600000Y-100600000D02*
X97400000Y-100600000D01*
X97000000Y-100200000D02*
X97000000Y-101000000D01*
D11*
X97214285Y-79750000D02*
X97928571Y-79750000D01*
X97071428Y-80178571D02*
X97571428Y-78678571D01*
X98071428Y-80178571D01*
X98571428Y-80178571D02*
X98571428Y-79178571D01*
X98571428Y-79464286D02*
X98642856Y-79321429D01*
X98714285Y-79250000D01*
X98857142Y-79178571D01*
X98999999Y-79178571D01*
X100142856Y-80178571D02*
X100142856Y-78678571D01*
X100142856Y-80107143D02*
X99999999Y-80178571D01*
X99714285Y-80178571D01*
X99571427Y-80107143D01*
X99499999Y-80035714D01*
X99428570Y-79892857D01*
X99428570Y-79464286D01*
X99499999Y-79321429D01*
X99571427Y-79250000D01*
X99714285Y-79178571D01*
X99999999Y-79178571D01*
X100142856Y-79250000D01*
X101499999Y-79178571D02*
X101499999Y-80178571D01*
X100857142Y-79178571D02*
X100857142Y-79964286D01*
X100928570Y-80107143D01*
X101071428Y-80178571D01*
X101285713Y-80178571D01*
X101428570Y-80107143D01*
X101499999Y-80035714D01*
X102214285Y-80178571D02*
X102214285Y-79178571D01*
X102214285Y-78678571D02*
X102142856Y-78750000D01*
X102214285Y-78821429D01*
X102285713Y-78750000D01*
X102214285Y-78678571D01*
X102214285Y-78821429D01*
X102928571Y-79178571D02*
X102928571Y-80178571D01*
X102928571Y-79321429D02*
X102999999Y-79250000D01*
X103142857Y-79178571D01*
X103357142Y-79178571D01*
X103499999Y-79250000D01*
X103571428Y-79392857D01*
X103571428Y-80178571D01*
X104500000Y-80178571D02*
X104357142Y-80107143D01*
X104285714Y-80035714D01*
X104214285Y-79892857D01*
X104214285Y-79464286D01*
X104285714Y-79321429D01*
X104357142Y-79250000D01*
X104500000Y-79178571D01*
X104714285Y-79178571D01*
X104857142Y-79250000D01*
X104928571Y-79321429D01*
X105000000Y-79464286D01*
X105000000Y-79892857D01*
X104928571Y-80035714D01*
X104857142Y-80107143D01*
X104714285Y-80178571D01*
X104500000Y-80178571D01*
X106785714Y-80178571D02*
X106785714Y-78678571D01*
X107642857Y-80178571D01*
X107642857Y-78678571D01*
X109000000Y-80178571D02*
X109000000Y-79392857D01*
X108928571Y-79250000D01*
X108785714Y-79178571D01*
X108500000Y-79178571D01*
X108357143Y-79250000D01*
X109000000Y-80107143D02*
X108857143Y-80178571D01*
X108500000Y-80178571D01*
X108357143Y-80107143D01*
X108285714Y-79964286D01*
X108285714Y-79821429D01*
X108357143Y-79678571D01*
X108500000Y-79607143D01*
X108857143Y-79607143D01*
X109000000Y-79535714D01*
X109714286Y-79178571D02*
X109714286Y-80178571D01*
X109714286Y-79321429D02*
X109785714Y-79250000D01*
X109928572Y-79178571D01*
X110142857Y-79178571D01*
X110285714Y-79250000D01*
X110357143Y-79392857D01*
X110357143Y-80178571D01*
X111285715Y-80178571D02*
X111142857Y-80107143D01*
X111071429Y-80035714D01*
X111000000Y-79892857D01*
X111000000Y-79464286D01*
X111071429Y-79321429D01*
X111142857Y-79250000D01*
X111285715Y-79178571D01*
X111500000Y-79178571D01*
X111642857Y-79250000D01*
X111714286Y-79321429D01*
X111785715Y-79464286D01*
X111785715Y-79892857D01*
X111714286Y-80035714D01*
X111642857Y-80107143D01*
X111500000Y-80178571D01*
X111285715Y-80178571D01*
D12*
X115860000Y-90350000D02*
X72680000Y-90350000D01*
X72680000Y-90350000D02*
X72680000Y-77650000D01*
X72680000Y-77650000D02*
X115860000Y-77650000D01*
X115860000Y-77650000D02*
X115860000Y-90350000D01*
X115860000Y-82730000D02*
X114590000Y-82730000D01*
X114590000Y-82730000D02*
X114590000Y-85270000D01*
X114590000Y-85270000D02*
X115860000Y-85270000D01*
D13*
X71000000Y-94350000D02*
X98800000Y-94350000D01*
X98800000Y-121650000D02*
X98800000Y-94350000D01*
X71000000Y-121750000D02*
X98800000Y-121750000D01*
X71000000Y-121650000D02*
X71000000Y-94350000D01*
D14*
X97060000Y-99690000D02*
X97060000Y-107310000D01*
X91940000Y-99690000D02*
X91940000Y-107310000D01*
X97060000Y-99690000D02*
X91940000Y-99690000D01*
X97060000Y-107310000D02*
X91940000Y-107310000D01*
X85810000Y-96610000D02*
G75*
G02X83810000Y-96610000I-1000000J0D01*
G01*
X83810000Y-96610000D02*
X82440000Y-96610000D01*
X82440000Y-96610000D02*
X82440000Y-107010000D01*
X82440000Y-107010000D02*
X87180000Y-107010000D01*
X87180000Y-107010000D02*
X87180000Y-96610000D01*
X87180000Y-96610000D02*
X85810000Y-96610000D01*
X79610000Y-96610000D02*
X79610000Y-107010000D01*
X79610000Y-107010000D02*
X90010000Y-107010000D01*
X90010000Y-107010000D02*
X90010000Y-96610000D01*
X90010000Y-96610000D02*
X79610000Y-96610000D01*
X81270000Y-73390000D02*
X83930000Y-73390000D01*
X83930000Y-73390000D02*
X83930000Y-70610000D01*
X83930000Y-70610000D02*
X81270000Y-70610000D01*
X81270000Y-70610000D02*
X81270000Y-73390000D01*
X80000000Y-73390000D02*
X78610000Y-73390000D01*
X78610000Y-73390000D02*
X78610000Y-72000000D01*
X108730000Y-70610000D02*
X106070000Y-70610000D01*
X106070000Y-70610000D02*
X106070000Y-73390000D01*
X106070000Y-73390000D02*
X108730000Y-73390000D01*
X108730000Y-73390000D02*
X108730000Y-70610000D01*
X110000000Y-70610000D02*
X111390000Y-70610000D01*
X111390000Y-70610000D02*
X111390000Y-72000000D01*
D13*
X79075000Y-112250000D02*
X79075000Y-114250000D01*
X76925000Y-114250000D02*
X76925000Y-112250000D01*
X82075000Y-118000000D02*
X82075000Y-120000000D01*
X79925000Y-120000000D02*
X79925000Y-118000000D01*
X85075000Y-112000000D02*
X85075000Y-114000000D01*
X82925000Y-114000000D02*
X82925000Y-112000000D01*
X88075000Y-118750000D02*
X88075000Y-120750000D01*
X85925000Y-120750000D02*
X85925000Y-118750000D01*
X90825000Y-112000000D02*
X90825000Y-114000000D01*
X88675000Y-114000000D02*
X88675000Y-112000000D01*
X93825000Y-119000000D02*
X93825000Y-121000000D01*
X91675000Y-121000000D02*
X91675000Y-119000000D01*
X97075000Y-112000000D02*
X97075000Y-114000000D01*
X94925000Y-114000000D02*
X94925000Y-112000000D01*
X102075000Y-120000000D02*
X102075000Y-122000000D01*
X99925000Y-122000000D02*
X99925000Y-120000000D01*
D14*
X87370000Y-129390000D02*
X105270000Y-129390000D01*
X105270000Y-129390000D02*
X105270000Y-126610000D01*
X105270000Y-126610000D02*
X87370000Y-126610000D01*
X87370000Y-126610000D02*
X87370000Y-129390000D01*
X86100000Y-129390000D02*
X84710000Y-129390000D01*
X84710000Y-129390000D02*
X84710000Y-128000000D01*
X77980000Y-103250000D02*
X77980000Y-101250000D01*
X75020000Y-101250000D02*
X75020000Y-103250000D01*
X105900000Y-111600000D02*
X102600000Y-111600000D01*
X102600000Y-111600000D02*
X102600000Y-118500000D01*
X105900000Y-111600000D02*
X105900000Y-118500000D01*
X82000000Y-80000000D02*
X74700000Y-80000000D01*
X74700000Y-80000000D02*
X74700000Y-82000000D01*
X74700000Y-82000000D02*
X82000000Y-82000000D01*
X115520000Y-83750000D02*
X115520000Y-85750000D01*
X118480000Y-85750000D02*
X118480000Y-83750000D01*
X99750000Y-88980000D02*
X101750000Y-88980000D01*
X101750000Y-86020000D02*
X99750000Y-86020000D01*
D15*
X115350000Y-98850000D02*
G75*
G03X115350000Y-98850000I-500000J0D01*
G01*
X107150000Y-98850000D02*
G75*
G03X107150000Y-98850000I-500000J0D01*
G01*
X107150000Y-109050000D02*
G75*
G03X107150000Y-109050000I-500000J0D01*
G01*
X115350000Y-109050000D02*
G75*
G03X115350000Y-109050000I-500000J0D01*
G01*
X116950000Y-98200000D02*
X116950000Y-109800000D01*
X104550000Y-109800000D02*
X104550000Y-98200000D01*
X116150000Y-110600000D02*
X105350000Y-110600000D01*
X116150000Y-97400000D02*
X105350000Y-97400000D01*
X116150000Y-110600000D02*
G75*
G03X116950000Y-109800000I0J800000D01*
G01*
X116950000Y-98200000D02*
G75*
G03X116150000Y-97400000I-800000J0D01*
G01*
X105350000Y-97400000D02*
G75*
G03X104550000Y-98200000I0J-800000D01*
G01*
X104550000Y-109800000D02*
G75*
G03X105350000Y-110600000I800000J0D01*
G01*
X113350000Y-105500000D02*
X108150000Y-105500000D01*
X113750000Y-104000000D02*
G75*
G03X113750000Y-104000000I-3000000J0D01*
G01*
D14*
X107540000Y-113800000D02*
X107540000Y-116690000D01*
X107540000Y-122700000D02*
X107540000Y-119810000D01*
X117960000Y-123460000D02*
X117960000Y-119810000D01*
X117960000Y-113040000D02*
X117960000Y-116690000D01*
X117960000Y-123460000D02*
X108300000Y-123460000D01*
X108300000Y-123460000D02*
X107540000Y-122700000D01*
X107540000Y-113800000D02*
X108300000Y-113040000D01*
X108300000Y-113040000D02*
X117960000Y-113040000D01*
X93770000Y-82750000D02*
X93770000Y-84750000D01*
X96730000Y-84750000D02*
X96730000Y-82750000D01*
X102830000Y-82990000D02*
X101900000Y-82990000D01*
X99670000Y-82990000D02*
X100600000Y-82990000D01*
X99670000Y-82990000D02*
X99670000Y-85150000D01*
X102830000Y-82990000D02*
X102830000Y-84450000D01*
X77230000Y-122980000D02*
X77230000Y-128980000D01*
X77230000Y-128980000D02*
X82510000Y-128980000D01*
X82510000Y-128980000D02*
X82510000Y-122980000D01*
X82510000Y-122980000D02*
X77230000Y-122980000D01*
X78600000Y-128980000D02*
X78600000Y-127980000D01*
X78600000Y-127980000D02*
X81140000Y-127980000D01*
X81140000Y-127980000D02*
X81140000Y-128980000D01*
X78600000Y-127980000D02*
X78850000Y-127550000D01*
X78850000Y-127550000D02*
X80890000Y-127550000D01*
X80890000Y-127550000D02*
X81140000Y-127980000D01*
X78850000Y-128980000D02*
X78850000Y-127980000D01*
X80890000Y-128980000D02*
X80890000Y-127980000D01*
X77800000Y-122980000D02*
X77800000Y-123600000D01*
X77800000Y-123600000D02*
X79400000Y-123600000D01*
X79400000Y-123600000D02*
X79400000Y-122980000D01*
X80340000Y-122980000D02*
X80340000Y-123600000D01*
X80340000Y-123600000D02*
X81940000Y-123600000D01*
X81940000Y-123600000D02*
X81940000Y-122980000D01*
X97000000Y-70780000D02*
X102200000Y-70780000D01*
X102200000Y-74420000D02*
X97000000Y-74420000D01*
X89200000Y-71130000D02*
X91200000Y-71130000D01*
X91200000Y-73270000D02*
X89200000Y-73270000D01*
X89600000Y-83270000D02*
X87600000Y-83270000D01*
X87600000Y-81130000D02*
X89600000Y-81130000D01*
X79800000Y-84130000D02*
X81800000Y-84130000D01*
X81800000Y-86270000D02*
X79800000Y-86270000D01*
X112000000Y-83270000D02*
X110000000Y-83270000D01*
X110000000Y-81130000D02*
X112000000Y-81130000D01*
X111800000Y-87270000D02*
X109800000Y-87270000D01*
X109800000Y-85130000D02*
X111800000Y-85130000D01*
X100730000Y-98600000D02*
X100730000Y-96600000D01*
X102870000Y-96600000D02*
X102870000Y-98600000D01*
X118470000Y-92800000D02*
X118470000Y-94800000D01*
X116330000Y-94800000D02*
X116330000Y-92800000D01*
D13*
X72452381Y-99988095D02*
X71452381Y-99988095D01*
X71452381Y-99607142D01*
X71500000Y-99511904D01*
X71547619Y-99464285D01*
X71642857Y-99416666D01*
X71785714Y-99416666D01*
X71880952Y-99464285D01*
X71928571Y-99511904D01*
X71976190Y-99607142D01*
X71976190Y-99988095D01*
X71452381Y-98559523D02*
X71452381Y-98750000D01*
X71500000Y-98845238D01*
X71547619Y-98892857D01*
X71690476Y-98988095D01*
X71880952Y-99035714D01*
X72261905Y-99035714D01*
X72357143Y-98988095D01*
X72404762Y-98940476D01*
X72452381Y-98845238D01*
X72452381Y-98654761D01*
X72404762Y-98559523D01*
X72357143Y-98511904D01*
X72261905Y-98464285D01*
X72023810Y-98464285D01*
X71928571Y-98511904D01*
X71880952Y-98559523D01*
X71833333Y-98654761D01*
X71833333Y-98845238D01*
X71880952Y-98940476D01*
X71928571Y-98988095D01*
X72023810Y-99035714D01*
X71285714Y-102654762D02*
X71428571Y-102702381D01*
X71666667Y-102702381D01*
X71761905Y-102654762D01*
X71809524Y-102607143D01*
X71857143Y-102511905D01*
X71857143Y-102416667D01*
X71809524Y-102321429D01*
X71761905Y-102273810D01*
X71666667Y-102226190D01*
X71476190Y-102178571D01*
X71380952Y-102130952D01*
X71333333Y-102083333D01*
X71285714Y-101988095D01*
X71285714Y-101892857D01*
X71333333Y-101797619D01*
X71380952Y-101750000D01*
X71476190Y-101702381D01*
X71714286Y-101702381D01*
X71857143Y-101750000D01*
X72285714Y-102702381D02*
X72285714Y-101702381D01*
X72523809Y-101702381D01*
X72666667Y-101750000D01*
X72761905Y-101845238D01*
X72809524Y-101940476D01*
X72857143Y-102130952D01*
X72857143Y-102273810D01*
X72809524Y-102464286D01*
X72761905Y-102559524D01*
X72666667Y-102654762D01*
X72523809Y-102702381D01*
X72285714Y-102702381D01*
X73238095Y-102416667D02*
X73714286Y-102416667D01*
X73142857Y-102702381D02*
X73476190Y-101702381D01*
X73809524Y-102702381D01*
X73809524Y-107154762D02*
X73952381Y-107202381D01*
X74190477Y-107202381D01*
X74285715Y-107154762D01*
X74333334Y-107107143D01*
X74380953Y-107011905D01*
X74380953Y-106916667D01*
X74333334Y-106821429D01*
X74285715Y-106773810D01*
X74190477Y-106726190D01*
X74000000Y-106678571D01*
X73904762Y-106630952D01*
X73857143Y-106583333D01*
X73809524Y-106488095D01*
X73809524Y-106392857D01*
X73857143Y-106297619D01*
X73904762Y-106250000D01*
X74000000Y-106202381D01*
X74238096Y-106202381D01*
X74380953Y-106250000D01*
X75380953Y-107107143D02*
X75333334Y-107154762D01*
X75190477Y-107202381D01*
X75095239Y-107202381D01*
X74952381Y-107154762D01*
X74857143Y-107059524D01*
X74809524Y-106964286D01*
X74761905Y-106773810D01*
X74761905Y-106630952D01*
X74809524Y-106440476D01*
X74857143Y-106345238D01*
X74952381Y-106250000D01*
X75095239Y-106202381D01*
X75190477Y-106202381D01*
X75333334Y-106250000D01*
X75380953Y-106297619D01*
X76285715Y-107202381D02*
X75809524Y-107202381D01*
X75809524Y-106202381D01*
X74238096Y-111250000D02*
X74142858Y-111202381D01*
X74000001Y-111202381D01*
X73857143Y-111250000D01*
X73761905Y-111345238D01*
X73714286Y-111440476D01*
X73666667Y-111630952D01*
X73666667Y-111773810D01*
X73714286Y-111964286D01*
X73761905Y-112059524D01*
X73857143Y-112154762D01*
X74000001Y-112202381D01*
X74095239Y-112202381D01*
X74238096Y-112154762D01*
X74285715Y-112107143D01*
X74285715Y-111773810D01*
X74095239Y-111773810D01*
X74714286Y-112202381D02*
X74714286Y-111202381D01*
X75285715Y-112202381D01*
X75285715Y-111202381D01*
X75761905Y-112202381D02*
X75761905Y-111202381D01*
X76000000Y-111202381D01*
X76142858Y-111250000D01*
X76238096Y-111345238D01*
X76285715Y-111440476D01*
X76333334Y-111630952D01*
X76333334Y-111773810D01*
X76285715Y-111964286D01*
X76238096Y-112059524D01*
X76142858Y-112154762D01*
X76000000Y-112202381D01*
X75761905Y-112202381D01*
X73666667Y-108702381D02*
X74000000Y-109702381D01*
X74333334Y-108702381D01*
X75238096Y-109607143D02*
X75190477Y-109654762D01*
X75047620Y-109702381D01*
X74952382Y-109702381D01*
X74809524Y-109654762D01*
X74714286Y-109559524D01*
X74666667Y-109464286D01*
X74619048Y-109273810D01*
X74619048Y-109130952D01*
X74666667Y-108940476D01*
X74714286Y-108845238D01*
X74809524Y-108750000D01*
X74952382Y-108702381D01*
X75047620Y-108702381D01*
X75190477Y-108750000D01*
X75238096Y-108797619D01*
X76238096Y-109607143D02*
X76190477Y-109654762D01*
X76047620Y-109702381D01*
X75952382Y-109702381D01*
X75809524Y-109654762D01*
X75714286Y-109559524D01*
X75666667Y-109464286D01*
X75619048Y-109273810D01*
X75619048Y-109130952D01*
X75666667Y-108940476D01*
X75714286Y-108845238D01*
X75809524Y-108750000D01*
X75952382Y-108702381D01*
X76047620Y-108702381D01*
X76190477Y-108750000D01*
X76238096Y-108797619D01*
X98357143Y-106166666D02*
X98404762Y-106214285D01*
X98452381Y-106357142D01*
X98452381Y-106452380D01*
X98404762Y-106595238D01*
X98309524Y-106690476D01*
X98214286Y-106738095D01*
X98023810Y-106785714D01*
X97880952Y-106785714D01*
X97690476Y-106738095D01*
X97595238Y-106690476D01*
X97500000Y-106595238D01*
X97452381Y-106452380D01*
X97452381Y-106357142D01*
X97500000Y-106214285D01*
X97547619Y-106166666D01*
X97547619Y-105785714D02*
X97500000Y-105738095D01*
X97452381Y-105642857D01*
X97452381Y-105404761D01*
X97500000Y-105309523D01*
X97547619Y-105261904D01*
X97642857Y-105214285D01*
X97738095Y-105214285D01*
X97880952Y-105261904D01*
X98452381Y-105833333D01*
X98452381Y-105214285D01*
X98452381Y-103166666D02*
X98452381Y-103738095D01*
X98452381Y-103452381D02*
X97452381Y-103452381D01*
X97595238Y-103547619D01*
X97690476Y-103642857D01*
X97738095Y-103738095D01*
X97785714Y-102738095D02*
X98785714Y-102738095D01*
X98309524Y-102261904D02*
X98404762Y-102214285D01*
X98452381Y-102119047D01*
X98309524Y-102738095D02*
X98404762Y-102690476D01*
X98452381Y-102595238D01*
X98452381Y-102404761D01*
X98404762Y-102309523D01*
X98309524Y-102261904D01*
X97785714Y-102261904D01*
X97928571Y-101357142D02*
X97928571Y-101690476D01*
X98452381Y-101690476D02*
X97452381Y-101690476D01*
X97452381Y-101214285D01*
X84071905Y-96062381D02*
X84071905Y-95062381D01*
X84452858Y-95062381D01*
X84548096Y-95110000D01*
X84595715Y-95157619D01*
X84643334Y-95252857D01*
X84643334Y-95395714D01*
X84595715Y-95490952D01*
X84548096Y-95538571D01*
X84452858Y-95586190D01*
X84071905Y-95586190D01*
X85595715Y-96062381D02*
X85024286Y-96062381D01*
X85310000Y-96062381D02*
X85310000Y-95062381D01*
X85214762Y-95205238D01*
X85119524Y-95300476D01*
X85024286Y-95348095D01*
X81571905Y-108462381D02*
X81571905Y-107462381D01*
X81905239Y-108176667D01*
X82238572Y-107462381D01*
X82238572Y-108462381D01*
X83286191Y-108367143D02*
X83238572Y-108414762D01*
X83095715Y-108462381D01*
X83000477Y-108462381D01*
X82857619Y-108414762D01*
X82762381Y-108319524D01*
X82714762Y-108224286D01*
X82667143Y-108033810D01*
X82667143Y-107890952D01*
X82714762Y-107700476D01*
X82762381Y-107605238D01*
X82857619Y-107510000D01*
X83000477Y-107462381D01*
X83095715Y-107462381D01*
X83238572Y-107510000D01*
X83286191Y-107557619D01*
X83714762Y-108462381D02*
X83714762Y-107462381D01*
X84095715Y-107462381D01*
X84190953Y-107510000D01*
X84238572Y-107557619D01*
X84286191Y-107652857D01*
X84286191Y-107795714D01*
X84238572Y-107890952D01*
X84190953Y-107938571D01*
X84095715Y-107986190D01*
X83714762Y-107986190D01*
X85238572Y-108462381D02*
X84667143Y-108462381D01*
X84952857Y-108462381D02*
X84952857Y-107462381D01*
X84857619Y-107605238D01*
X84762381Y-107700476D01*
X84667143Y-107748095D01*
X86095715Y-107795714D02*
X86095715Y-108462381D01*
X85857619Y-107414762D02*
X85619524Y-108129048D01*
X86238572Y-108129048D01*
X86810000Y-107462381D02*
X86905239Y-107462381D01*
X87000477Y-107510000D01*
X87048096Y-107557619D01*
X87095715Y-107652857D01*
X87143334Y-107843333D01*
X87143334Y-108081429D01*
X87095715Y-108271905D01*
X87048096Y-108367143D01*
X87000477Y-108414762D01*
X86905239Y-108462381D01*
X86810000Y-108462381D01*
X86714762Y-108414762D01*
X86667143Y-108367143D01*
X86619524Y-108271905D01*
X86571905Y-108081429D01*
X86571905Y-107843333D01*
X86619524Y-107652857D01*
X86667143Y-107557619D01*
X86714762Y-107510000D01*
X86810000Y-107462381D01*
X87476667Y-107462381D02*
X88143334Y-107462381D01*
X87714762Y-108462381D01*
X78062381Y-72738095D02*
X77062381Y-72738095D01*
X77062381Y-72357142D01*
X77110000Y-72261904D01*
X77157619Y-72214285D01*
X77252857Y-72166666D01*
X77395714Y-72166666D01*
X77490952Y-72214285D01*
X77538571Y-72261904D01*
X77586190Y-72357142D01*
X77586190Y-72738095D01*
X77157619Y-71785714D02*
X77110000Y-71738095D01*
X77062381Y-71642857D01*
X77062381Y-71404761D01*
X77110000Y-71309523D01*
X77157619Y-71261904D01*
X77252857Y-71214285D01*
X77348095Y-71214285D01*
X77490952Y-71261904D01*
X78062381Y-71833333D01*
X78062381Y-71214285D01*
X78773810Y-73500000D02*
X78678572Y-73452381D01*
X78535715Y-73452381D01*
X78392857Y-73500000D01*
X78297619Y-73595238D01*
X78250000Y-73690476D01*
X78202381Y-73880952D01*
X78202381Y-74023810D01*
X78250000Y-74214286D01*
X78297619Y-74309524D01*
X78392857Y-74404762D01*
X78535715Y-74452381D01*
X78630953Y-74452381D01*
X78773810Y-74404762D01*
X78821429Y-74357143D01*
X78821429Y-74023810D01*
X78630953Y-74023810D01*
X79250000Y-74452381D02*
X79250000Y-73452381D01*
X79821429Y-74452381D01*
X79821429Y-73452381D01*
X80297619Y-74452381D02*
X80297619Y-73452381D01*
X80535714Y-73452381D01*
X80678572Y-73500000D01*
X80773810Y-73595238D01*
X80821429Y-73690476D01*
X80869048Y-73880952D01*
X80869048Y-74023810D01*
X80821429Y-74214286D01*
X80773810Y-74309524D01*
X80678572Y-74404762D01*
X80535714Y-74452381D01*
X80297619Y-74452381D01*
X81059524Y-74547619D02*
X81821429Y-74547619D01*
X82488096Y-74404762D02*
X82392858Y-74452381D01*
X82202381Y-74452381D01*
X82107143Y-74404762D01*
X82059524Y-74357143D01*
X82011905Y-74261905D01*
X82011905Y-73976190D01*
X82059524Y-73880952D01*
X82107143Y-73833333D01*
X82202381Y-73785714D01*
X82392858Y-73785714D01*
X82488096Y-73833333D01*
X83059524Y-74452381D02*
X82964286Y-74404762D01*
X82916667Y-74357143D01*
X82869048Y-74261905D01*
X82869048Y-73976190D01*
X82916667Y-73880952D01*
X82964286Y-73833333D01*
X83059524Y-73785714D01*
X83202382Y-73785714D01*
X83297620Y-73833333D01*
X83345239Y-73880952D01*
X83392858Y-73976190D01*
X83392858Y-74261905D01*
X83345239Y-74357143D01*
X83297620Y-74404762D01*
X83202382Y-74452381D01*
X83059524Y-74452381D01*
X83821429Y-73785714D02*
X83821429Y-74452381D01*
X83821429Y-73880952D02*
X83869048Y-73833333D01*
X83964286Y-73785714D01*
X84107144Y-73785714D01*
X84202382Y-73833333D01*
X84250001Y-73928571D01*
X84250001Y-74452381D01*
X112842381Y-72738095D02*
X111842381Y-72738095D01*
X111842381Y-72357142D01*
X111890000Y-72261904D01*
X111937619Y-72214285D01*
X112032857Y-72166666D01*
X112175714Y-72166666D01*
X112270952Y-72214285D01*
X112318571Y-72261904D01*
X112366190Y-72357142D01*
X112366190Y-72738095D01*
X111842381Y-71833333D02*
X111842381Y-71214285D01*
X112223333Y-71547619D01*
X112223333Y-71404761D01*
X112270952Y-71309523D01*
X112318571Y-71261904D01*
X112413810Y-71214285D01*
X112651905Y-71214285D01*
X112747143Y-71261904D01*
X112794762Y-71309523D01*
X112842381Y-71404761D01*
X112842381Y-71690476D01*
X112794762Y-71785714D01*
X112747143Y-71833333D01*
X106273810Y-73500000D02*
X106178572Y-73452381D01*
X106035715Y-73452381D01*
X105892857Y-73500000D01*
X105797619Y-73595238D01*
X105750000Y-73690476D01*
X105702381Y-73880952D01*
X105702381Y-74023810D01*
X105750000Y-74214286D01*
X105797619Y-74309524D01*
X105892857Y-74404762D01*
X106035715Y-74452381D01*
X106130953Y-74452381D01*
X106273810Y-74404762D01*
X106321429Y-74357143D01*
X106321429Y-74023810D01*
X106130953Y-74023810D01*
X106750000Y-74452381D02*
X106750000Y-73452381D01*
X107321429Y-74452381D01*
X107321429Y-73452381D01*
X107797619Y-74452381D02*
X107797619Y-73452381D01*
X108035714Y-73452381D01*
X108178572Y-73500000D01*
X108273810Y-73595238D01*
X108321429Y-73690476D01*
X108369048Y-73880952D01*
X108369048Y-74023810D01*
X108321429Y-74214286D01*
X108273810Y-74309524D01*
X108178572Y-74404762D01*
X108035714Y-74452381D01*
X107797619Y-74452381D01*
X108559524Y-74547619D02*
X109321429Y-74547619D01*
X109988096Y-74404762D02*
X109892858Y-74452381D01*
X109702381Y-74452381D01*
X109607143Y-74404762D01*
X109559524Y-74357143D01*
X109511905Y-74261905D01*
X109511905Y-73976190D01*
X109559524Y-73880952D01*
X109607143Y-73833333D01*
X109702381Y-73785714D01*
X109892858Y-73785714D01*
X109988096Y-73833333D01*
X110559524Y-74452381D02*
X110464286Y-74404762D01*
X110416667Y-74357143D01*
X110369048Y-74261905D01*
X110369048Y-73976190D01*
X110416667Y-73880952D01*
X110464286Y-73833333D01*
X110559524Y-73785714D01*
X110702382Y-73785714D01*
X110797620Y-73833333D01*
X110845239Y-73880952D01*
X110892858Y-73976190D01*
X110892858Y-74261905D01*
X110845239Y-74357143D01*
X110797620Y-74404762D01*
X110702382Y-74452381D01*
X110559524Y-74452381D01*
X111321429Y-73785714D02*
X111321429Y-74452381D01*
X111321429Y-73880952D02*
X111369048Y-73833333D01*
X111464286Y-73785714D01*
X111607144Y-73785714D01*
X111702382Y-73833333D01*
X111750001Y-73928571D01*
X111750001Y-74452381D01*
X76452381Y-114416666D02*
X75976190Y-114750000D01*
X76452381Y-114988095D02*
X75452381Y-114988095D01*
X75452381Y-114607142D01*
X75500000Y-114511904D01*
X75547619Y-114464285D01*
X75642857Y-114416666D01*
X75785714Y-114416666D01*
X75880952Y-114464285D01*
X75928571Y-114511904D01*
X75976190Y-114607142D01*
X75976190Y-114988095D01*
X75547619Y-114035714D02*
X75500000Y-113988095D01*
X75452381Y-113892857D01*
X75452381Y-113654761D01*
X75500000Y-113559523D01*
X75547619Y-113511904D01*
X75642857Y-113464285D01*
X75738095Y-113464285D01*
X75880952Y-113511904D01*
X76452381Y-114083333D01*
X76452381Y-113464285D01*
X79452381Y-114059524D02*
X79452381Y-113440476D01*
X79833333Y-113773810D01*
X79833333Y-113630952D01*
X79880952Y-113535714D01*
X79928571Y-113488095D01*
X80023810Y-113440476D01*
X80261905Y-113440476D01*
X80357143Y-113488095D01*
X80404762Y-113535714D01*
X80452381Y-113630952D01*
X80452381Y-113916667D01*
X80404762Y-114011905D01*
X80357143Y-114059524D01*
X79452381Y-112821429D02*
X79452381Y-112726190D01*
X79500000Y-112630952D01*
X79547619Y-112583333D01*
X79642857Y-112535714D01*
X79833333Y-112488095D01*
X80071429Y-112488095D01*
X80261905Y-112535714D01*
X80357143Y-112583333D01*
X80404762Y-112630952D01*
X80452381Y-112726190D01*
X80452381Y-112821429D01*
X80404762Y-112916667D01*
X80357143Y-112964286D01*
X80261905Y-113011905D01*
X80071429Y-113059524D01*
X79833333Y-113059524D01*
X79642857Y-113011905D01*
X79547619Y-112964286D01*
X79500000Y-112916667D01*
X79452381Y-112821429D01*
X79452381Y-119166666D02*
X78976190Y-119500000D01*
X79452381Y-119738095D02*
X78452381Y-119738095D01*
X78452381Y-119357142D01*
X78500000Y-119261904D01*
X78547619Y-119214285D01*
X78642857Y-119166666D01*
X78785714Y-119166666D01*
X78880952Y-119214285D01*
X78928571Y-119261904D01*
X78976190Y-119357142D01*
X78976190Y-119738095D01*
X78452381Y-118833333D02*
X78452381Y-118214285D01*
X78833333Y-118547619D01*
X78833333Y-118404761D01*
X78880952Y-118309523D01*
X78928571Y-118261904D01*
X79023810Y-118214285D01*
X79261905Y-118214285D01*
X79357143Y-118261904D01*
X79404762Y-118309523D01*
X79452381Y-118404761D01*
X79452381Y-118690476D01*
X79404762Y-118785714D01*
X79357143Y-118833333D01*
X82452381Y-119809524D02*
X82452381Y-119190476D01*
X82833333Y-119523810D01*
X82833333Y-119380952D01*
X82880952Y-119285714D01*
X82928571Y-119238095D01*
X83023810Y-119190476D01*
X83261905Y-119190476D01*
X83357143Y-119238095D01*
X83404762Y-119285714D01*
X83452381Y-119380952D01*
X83452381Y-119666667D01*
X83404762Y-119761905D01*
X83357143Y-119809524D01*
X82452381Y-118571429D02*
X82452381Y-118476190D01*
X82500000Y-118380952D01*
X82547619Y-118333333D01*
X82642857Y-118285714D01*
X82833333Y-118238095D01*
X83071429Y-118238095D01*
X83261905Y-118285714D01*
X83357143Y-118333333D01*
X83404762Y-118380952D01*
X83452381Y-118476190D01*
X83452381Y-118571429D01*
X83404762Y-118666667D01*
X83357143Y-118714286D01*
X83261905Y-118761905D01*
X83071429Y-118809524D01*
X82833333Y-118809524D01*
X82642857Y-118761905D01*
X82547619Y-118714286D01*
X82500000Y-118666667D01*
X82452381Y-118571429D01*
X82452381Y-113166666D02*
X81976190Y-113500000D01*
X82452381Y-113738095D02*
X81452381Y-113738095D01*
X81452381Y-113357142D01*
X81500000Y-113261904D01*
X81547619Y-113214285D01*
X81642857Y-113166666D01*
X81785714Y-113166666D01*
X81880952Y-113214285D01*
X81928571Y-113261904D01*
X81976190Y-113357142D01*
X81976190Y-113738095D01*
X81785714Y-112309523D02*
X82452381Y-112309523D01*
X81404762Y-112547619D02*
X82119048Y-112785714D01*
X82119048Y-112166666D01*
X85452381Y-113809524D02*
X85452381Y-113190476D01*
X85833333Y-113523810D01*
X85833333Y-113380952D01*
X85880952Y-113285714D01*
X85928571Y-113238095D01*
X86023810Y-113190476D01*
X86261905Y-113190476D01*
X86357143Y-113238095D01*
X86404762Y-113285714D01*
X86452381Y-113380952D01*
X86452381Y-113666667D01*
X86404762Y-113761905D01*
X86357143Y-113809524D01*
X85452381Y-112571429D02*
X85452381Y-112476190D01*
X85500000Y-112380952D01*
X85547619Y-112333333D01*
X85642857Y-112285714D01*
X85833333Y-112238095D01*
X86071429Y-112238095D01*
X86261905Y-112285714D01*
X86357143Y-112333333D01*
X86404762Y-112380952D01*
X86452381Y-112476190D01*
X86452381Y-112571429D01*
X86404762Y-112666667D01*
X86357143Y-112714286D01*
X86261905Y-112761905D01*
X86071429Y-112809524D01*
X85833333Y-112809524D01*
X85642857Y-112761905D01*
X85547619Y-112714286D01*
X85500000Y-112666667D01*
X85452381Y-112571429D01*
X85452381Y-119916666D02*
X84976190Y-120250000D01*
X85452381Y-120488095D02*
X84452381Y-120488095D01*
X84452381Y-120107142D01*
X84500000Y-120011904D01*
X84547619Y-119964285D01*
X84642857Y-119916666D01*
X84785714Y-119916666D01*
X84880952Y-119964285D01*
X84928571Y-120011904D01*
X84976190Y-120107142D01*
X84976190Y-120488095D01*
X84452381Y-119011904D02*
X84452381Y-119488095D01*
X84928571Y-119535714D01*
X84880952Y-119488095D01*
X84833333Y-119392857D01*
X84833333Y-119154761D01*
X84880952Y-119059523D01*
X84928571Y-119011904D01*
X85023810Y-118964285D01*
X85261905Y-118964285D01*
X85357143Y-119011904D01*
X85404762Y-119059523D01*
X85452381Y-119154761D01*
X85452381Y-119392857D01*
X85404762Y-119488095D01*
X85357143Y-119535714D01*
X88452381Y-120559524D02*
X88452381Y-119940476D01*
X88833333Y-120273810D01*
X88833333Y-120130952D01*
X88880952Y-120035714D01*
X88928571Y-119988095D01*
X89023810Y-119940476D01*
X89261905Y-119940476D01*
X89357143Y-119988095D01*
X89404762Y-120035714D01*
X89452381Y-120130952D01*
X89452381Y-120416667D01*
X89404762Y-120511905D01*
X89357143Y-120559524D01*
X88452381Y-119321429D02*
X88452381Y-119226190D01*
X88500000Y-119130952D01*
X88547619Y-119083333D01*
X88642857Y-119035714D01*
X88833333Y-118988095D01*
X89071429Y-118988095D01*
X89261905Y-119035714D01*
X89357143Y-119083333D01*
X89404762Y-119130952D01*
X89452381Y-119226190D01*
X89452381Y-119321429D01*
X89404762Y-119416667D01*
X89357143Y-119464286D01*
X89261905Y-119511905D01*
X89071429Y-119559524D01*
X88833333Y-119559524D01*
X88642857Y-119511905D01*
X88547619Y-119464286D01*
X88500000Y-119416667D01*
X88452381Y-119321429D01*
X88202381Y-113166666D02*
X87726190Y-113500000D01*
X88202381Y-113738095D02*
X87202381Y-113738095D01*
X87202381Y-113357142D01*
X87250000Y-113261904D01*
X87297619Y-113214285D01*
X87392857Y-113166666D01*
X87535714Y-113166666D01*
X87630952Y-113214285D01*
X87678571Y-113261904D01*
X87726190Y-113357142D01*
X87726190Y-113738095D01*
X87202381Y-112309523D02*
X87202381Y-112500000D01*
X87250000Y-112595238D01*
X87297619Y-112642857D01*
X87440476Y-112738095D01*
X87630952Y-112785714D01*
X88011905Y-112785714D01*
X88107143Y-112738095D01*
X88154762Y-112690476D01*
X88202381Y-112595238D01*
X88202381Y-112404761D01*
X88154762Y-112309523D01*
X88107143Y-112261904D01*
X88011905Y-112214285D01*
X87773810Y-112214285D01*
X87678571Y-112261904D01*
X87630952Y-112309523D01*
X87583333Y-112404761D01*
X87583333Y-112595238D01*
X87630952Y-112690476D01*
X87678571Y-112738095D01*
X87773810Y-112785714D01*
X91202381Y-113809524D02*
X91202381Y-113190476D01*
X91583333Y-113523810D01*
X91583333Y-113380952D01*
X91630952Y-113285714D01*
X91678571Y-113238095D01*
X91773810Y-113190476D01*
X92011905Y-113190476D01*
X92107143Y-113238095D01*
X92154762Y-113285714D01*
X92202381Y-113380952D01*
X92202381Y-113666667D01*
X92154762Y-113761905D01*
X92107143Y-113809524D01*
X91202381Y-112571429D02*
X91202381Y-112476190D01*
X91250000Y-112380952D01*
X91297619Y-112333333D01*
X91392857Y-112285714D01*
X91583333Y-112238095D01*
X91821429Y-112238095D01*
X92011905Y-112285714D01*
X92107143Y-112333333D01*
X92154762Y-112380952D01*
X92202381Y-112476190D01*
X92202381Y-112571429D01*
X92154762Y-112666667D01*
X92107143Y-112714286D01*
X92011905Y-112761905D01*
X91821429Y-112809524D01*
X91583333Y-112809524D01*
X91392857Y-112761905D01*
X91297619Y-112714286D01*
X91250000Y-112666667D01*
X91202381Y-112571429D01*
X91202381Y-120166666D02*
X90726190Y-120500000D01*
X91202381Y-120738095D02*
X90202381Y-120738095D01*
X90202381Y-120357142D01*
X90250000Y-120261904D01*
X90297619Y-120214285D01*
X90392857Y-120166666D01*
X90535714Y-120166666D01*
X90630952Y-120214285D01*
X90678571Y-120261904D01*
X90726190Y-120357142D01*
X90726190Y-120738095D01*
X90202381Y-119833333D02*
X90202381Y-119166666D01*
X91202381Y-119595238D01*
X94202381Y-120809524D02*
X94202381Y-120190476D01*
X94583333Y-120523810D01*
X94583333Y-120380952D01*
X94630952Y-120285714D01*
X94678571Y-120238095D01*
X94773810Y-120190476D01*
X95011905Y-120190476D01*
X95107143Y-120238095D01*
X95154762Y-120285714D01*
X95202381Y-120380952D01*
X95202381Y-120666667D01*
X95154762Y-120761905D01*
X95107143Y-120809524D01*
X94202381Y-119571429D02*
X94202381Y-119476190D01*
X94250000Y-119380952D01*
X94297619Y-119333333D01*
X94392857Y-119285714D01*
X94583333Y-119238095D01*
X94821429Y-119238095D01*
X95011905Y-119285714D01*
X95107143Y-119333333D01*
X95154762Y-119380952D01*
X95202381Y-119476190D01*
X95202381Y-119571429D01*
X95154762Y-119666667D01*
X95107143Y-119714286D01*
X95011905Y-119761905D01*
X94821429Y-119809524D01*
X94583333Y-119809524D01*
X94392857Y-119761905D01*
X94297619Y-119714286D01*
X94250000Y-119666667D01*
X94202381Y-119571429D01*
X94452381Y-113166666D02*
X93976190Y-113500000D01*
X94452381Y-113738095D02*
X93452381Y-113738095D01*
X93452381Y-113357142D01*
X93500000Y-113261904D01*
X93547619Y-113214285D01*
X93642857Y-113166666D01*
X93785714Y-113166666D01*
X93880952Y-113214285D01*
X93928571Y-113261904D01*
X93976190Y-113357142D01*
X93976190Y-113738095D01*
X93880952Y-112595238D02*
X93833333Y-112690476D01*
X93785714Y-112738095D01*
X93690476Y-112785714D01*
X93642857Y-112785714D01*
X93547619Y-112738095D01*
X93500000Y-112690476D01*
X93452381Y-112595238D01*
X93452381Y-112404761D01*
X93500000Y-112309523D01*
X93547619Y-112261904D01*
X93642857Y-112214285D01*
X93690476Y-112214285D01*
X93785714Y-112261904D01*
X93833333Y-112309523D01*
X93880952Y-112404761D01*
X93880952Y-112595238D01*
X93928571Y-112690476D01*
X93976190Y-112738095D01*
X94071429Y-112785714D01*
X94261905Y-112785714D01*
X94357143Y-112738095D01*
X94404762Y-112690476D01*
X94452381Y-112595238D01*
X94452381Y-112404761D01*
X94404762Y-112309523D01*
X94357143Y-112261904D01*
X94261905Y-112214285D01*
X94071429Y-112214285D01*
X93976190Y-112261904D01*
X93928571Y-112309523D01*
X93880952Y-112404761D01*
X97452381Y-113809524D02*
X97452381Y-113190476D01*
X97833333Y-113523810D01*
X97833333Y-113380952D01*
X97880952Y-113285714D01*
X97928571Y-113238095D01*
X98023810Y-113190476D01*
X98261905Y-113190476D01*
X98357143Y-113238095D01*
X98404762Y-113285714D01*
X98452381Y-113380952D01*
X98452381Y-113666667D01*
X98404762Y-113761905D01*
X98357143Y-113809524D01*
X97452381Y-112571429D02*
X97452381Y-112476190D01*
X97500000Y-112380952D01*
X97547619Y-112333333D01*
X97642857Y-112285714D01*
X97833333Y-112238095D01*
X98071429Y-112238095D01*
X98261905Y-112285714D01*
X98357143Y-112333333D01*
X98404762Y-112380952D01*
X98452381Y-112476190D01*
X98452381Y-112571429D01*
X98404762Y-112666667D01*
X98357143Y-112714286D01*
X98261905Y-112761905D01*
X98071429Y-112809524D01*
X97833333Y-112809524D01*
X97642857Y-112761905D01*
X97547619Y-112714286D01*
X97500000Y-112666667D01*
X97452381Y-112571429D01*
X99452381Y-121166666D02*
X98976190Y-121500000D01*
X99452381Y-121738095D02*
X98452381Y-121738095D01*
X98452381Y-121357142D01*
X98500000Y-121261904D01*
X98547619Y-121214285D01*
X98642857Y-121166666D01*
X98785714Y-121166666D01*
X98880952Y-121214285D01*
X98928571Y-121261904D01*
X98976190Y-121357142D01*
X98976190Y-121738095D01*
X99452381Y-120690476D02*
X99452381Y-120500000D01*
X99404762Y-120404761D01*
X99357143Y-120357142D01*
X99214286Y-120261904D01*
X99023810Y-120214285D01*
X98642857Y-120214285D01*
X98547619Y-120261904D01*
X98500000Y-120309523D01*
X98452381Y-120404761D01*
X98452381Y-120595238D01*
X98500000Y-120690476D01*
X98547619Y-120738095D01*
X98642857Y-120785714D01*
X98880952Y-120785714D01*
X98976190Y-120738095D01*
X99023810Y-120690476D01*
X99071429Y-120595238D01*
X99071429Y-120404761D01*
X99023810Y-120309523D01*
X98976190Y-120261904D01*
X98880952Y-120214285D01*
X102452381Y-121809524D02*
X102452381Y-121190476D01*
X102833333Y-121523810D01*
X102833333Y-121380952D01*
X102880952Y-121285714D01*
X102928571Y-121238095D01*
X103023810Y-121190476D01*
X103261905Y-121190476D01*
X103357143Y-121238095D01*
X103404762Y-121285714D01*
X103452381Y-121380952D01*
X103452381Y-121666667D01*
X103404762Y-121761905D01*
X103357143Y-121809524D01*
X102452381Y-120571429D02*
X102452381Y-120476190D01*
X102500000Y-120380952D01*
X102547619Y-120333333D01*
X102642857Y-120285714D01*
X102833333Y-120238095D01*
X103071429Y-120238095D01*
X103261905Y-120285714D01*
X103357143Y-120333333D01*
X103404762Y-120380952D01*
X103452381Y-120476190D01*
X103452381Y-120571429D01*
X103404762Y-120666667D01*
X103357143Y-120714286D01*
X103261905Y-120761905D01*
X103071429Y-120809524D01*
X102833333Y-120809524D01*
X102642857Y-120761905D01*
X102547619Y-120714286D01*
X102500000Y-120666667D01*
X102452381Y-120571429D01*
X111238096Y-125000000D02*
X111142858Y-124952381D01*
X111000001Y-124952381D01*
X110857143Y-125000000D01*
X110761905Y-125095238D01*
X110714286Y-125190476D01*
X110666667Y-125380952D01*
X110666667Y-125523810D01*
X110714286Y-125714286D01*
X110761905Y-125809524D01*
X110857143Y-125904762D01*
X111000001Y-125952381D01*
X111095239Y-125952381D01*
X111238096Y-125904762D01*
X111285715Y-125857143D01*
X111285715Y-125523810D01*
X111095239Y-125523810D01*
X111714286Y-125952381D02*
X111714286Y-124952381D01*
X112285715Y-125952381D01*
X112285715Y-124952381D01*
X112761905Y-125952381D02*
X112761905Y-124952381D01*
X113000000Y-124952381D01*
X113142858Y-125000000D01*
X113238096Y-125095238D01*
X113285715Y-125190476D01*
X113333334Y-125380952D01*
X113333334Y-125523810D01*
X113285715Y-125714286D01*
X113238096Y-125809524D01*
X113142858Y-125904762D01*
X113000000Y-125952381D01*
X112761905Y-125952381D01*
X107380953Y-125952381D02*
X106809524Y-125952381D01*
X107095238Y-125952381D02*
X107095238Y-124952381D01*
X107000000Y-125095238D01*
X106904762Y-125190476D01*
X106809524Y-125238095D01*
X107761905Y-125047619D02*
X107809524Y-125000000D01*
X107904762Y-124952381D01*
X108142858Y-124952381D01*
X108238096Y-125000000D01*
X108285715Y-125047619D01*
X108333334Y-125142857D01*
X108333334Y-125238095D01*
X108285715Y-125380952D01*
X107714286Y-125952381D01*
X108333334Y-125952381D01*
X108619048Y-124952381D02*
X108952381Y-125952381D01*
X109285715Y-124952381D01*
X86266666Y-125952381D02*
X86266666Y-124952381D01*
X86600000Y-125666667D01*
X86933333Y-124952381D01*
X86933333Y-125952381D01*
X87552380Y-125952381D02*
X87457142Y-125904762D01*
X87409523Y-125857143D01*
X87361904Y-125761905D01*
X87361904Y-125476190D01*
X87409523Y-125380952D01*
X87457142Y-125333333D01*
X87552380Y-125285714D01*
X87695238Y-125285714D01*
X87790476Y-125333333D01*
X87838095Y-125380952D01*
X87885714Y-125476190D01*
X87885714Y-125761905D01*
X87838095Y-125857143D01*
X87790476Y-125904762D01*
X87695238Y-125952381D01*
X87552380Y-125952381D01*
X88266666Y-125904762D02*
X88361904Y-125952381D01*
X88552380Y-125952381D01*
X88647619Y-125904762D01*
X88695238Y-125809524D01*
X88695238Y-125761905D01*
X88647619Y-125666667D01*
X88552380Y-125619048D01*
X88409523Y-125619048D01*
X88314285Y-125571429D01*
X88266666Y-125476190D01*
X88266666Y-125428571D01*
X88314285Y-125333333D01*
X88409523Y-125285714D01*
X88552380Y-125285714D01*
X88647619Y-125333333D01*
X88980952Y-125285714D02*
X89361904Y-125285714D01*
X89123809Y-125952381D02*
X89123809Y-125095238D01*
X89171428Y-125000000D01*
X89266666Y-124952381D01*
X89361904Y-124952381D01*
X90076191Y-125904762D02*
X89980953Y-125952381D01*
X89790476Y-125952381D01*
X89695238Y-125904762D01*
X89647619Y-125809524D01*
X89647619Y-125428571D01*
X89695238Y-125333333D01*
X89790476Y-125285714D01*
X89980953Y-125285714D01*
X90076191Y-125333333D01*
X90123810Y-125428571D01*
X90123810Y-125523810D01*
X89647619Y-125619048D01*
X90409524Y-125285714D02*
X90790476Y-125285714D01*
X90552381Y-124952381D02*
X90552381Y-125809524D01*
X90600000Y-125904762D01*
X90695238Y-125952381D01*
X90790476Y-125952381D01*
X90885715Y-126047619D02*
X91647620Y-126047619D01*
X92457144Y-125857143D02*
X92409525Y-125904762D01*
X92266668Y-125952381D01*
X92171430Y-125952381D01*
X92028572Y-125904762D01*
X91933334Y-125809524D01*
X91885715Y-125714286D01*
X91838096Y-125523810D01*
X91838096Y-125380952D01*
X91885715Y-125190476D01*
X91933334Y-125095238D01*
X92028572Y-125000000D01*
X92171430Y-124952381D01*
X92266668Y-124952381D01*
X92409525Y-125000000D01*
X92457144Y-125047619D01*
X92742858Y-124952381D02*
X93314287Y-124952381D01*
X93028572Y-125952381D02*
X93028572Y-124952381D01*
X94219049Y-125952381D02*
X93885715Y-125476190D01*
X93647620Y-125952381D02*
X93647620Y-124952381D01*
X94028573Y-124952381D01*
X94123811Y-125000000D01*
X94171430Y-125047619D01*
X94219049Y-125142857D01*
X94219049Y-125285714D01*
X94171430Y-125380952D01*
X94123811Y-125428571D01*
X94028573Y-125476190D01*
X93647620Y-125476190D01*
X95123811Y-125952381D02*
X94647620Y-125952381D01*
X94647620Y-124952381D01*
X95980954Y-125952381D02*
X95409525Y-125952381D01*
X95695239Y-125952381D02*
X95695239Y-124952381D01*
X95600001Y-125095238D01*
X95504763Y-125190476D01*
X95409525Y-125238095D01*
X79107143Y-104666666D02*
X79154762Y-104714285D01*
X79202381Y-104857142D01*
X79202381Y-104952380D01*
X79154762Y-105095238D01*
X79059524Y-105190476D01*
X78964286Y-105238095D01*
X78773810Y-105285714D01*
X78630952Y-105285714D01*
X78440476Y-105238095D01*
X78345238Y-105190476D01*
X78250000Y-105095238D01*
X78202381Y-104952380D01*
X78202381Y-104857142D01*
X78250000Y-104714285D01*
X78297619Y-104666666D01*
X79202381Y-103714285D02*
X79202381Y-104285714D01*
X79202381Y-104000000D02*
X78202381Y-104000000D01*
X78345238Y-104095238D01*
X78440476Y-104190476D01*
X78488095Y-104285714D01*
X78202381Y-102464286D02*
X78202381Y-102369047D01*
X78250000Y-102273809D01*
X78297619Y-102226190D01*
X78392857Y-102178571D01*
X78583333Y-102130952D01*
X78821429Y-102130952D01*
X79011905Y-102178571D01*
X79107143Y-102226190D01*
X79154762Y-102273809D01*
X79202381Y-102369047D01*
X79202381Y-102464286D01*
X79154762Y-102559524D01*
X79107143Y-102607143D01*
X79011905Y-102654762D01*
X78821429Y-102702381D01*
X78583333Y-102702381D01*
X78392857Y-102654762D01*
X78297619Y-102607143D01*
X78250000Y-102559524D01*
X78202381Y-102464286D01*
X79107143Y-101702381D02*
X79154762Y-101654762D01*
X79202381Y-101702381D01*
X79154762Y-101750000D01*
X79107143Y-101702381D01*
X79202381Y-101702381D01*
X79202381Y-100702381D02*
X79202381Y-101273810D01*
X79202381Y-100988096D02*
X78202381Y-100988096D01*
X78345238Y-101083334D01*
X78440476Y-101178572D01*
X78488095Y-101273810D01*
X78535714Y-100273810D02*
X79535714Y-100273810D01*
X79059524Y-99797619D02*
X79154762Y-99750000D01*
X79202381Y-99654762D01*
X79059524Y-100273810D02*
X79154762Y-100226191D01*
X79202381Y-100130953D01*
X79202381Y-99940476D01*
X79154762Y-99845238D01*
X79059524Y-99797619D01*
X78535714Y-99797619D01*
X78678571Y-98892857D02*
X78678571Y-99226191D01*
X79202381Y-99226191D02*
X78202381Y-99226191D01*
X78202381Y-98750000D01*
X102202381Y-115488095D02*
X101202381Y-115488095D01*
X101202381Y-115250000D01*
X101250000Y-115107142D01*
X101345238Y-115011904D01*
X101440476Y-114964285D01*
X101630952Y-114916666D01*
X101773810Y-114916666D01*
X101964286Y-114964285D01*
X102059524Y-115011904D01*
X102154762Y-115107142D01*
X102202381Y-115250000D01*
X102202381Y-115488095D01*
X102202381Y-113964285D02*
X102202381Y-114535714D01*
X102202381Y-114250000D02*
X101202381Y-114250000D01*
X101345238Y-114345238D01*
X101440476Y-114440476D01*
X101488095Y-114535714D01*
X102202381Y-112261905D02*
X101202381Y-112261905D01*
X101202381Y-112023810D01*
X101250000Y-111880952D01*
X101345238Y-111785714D01*
X101440476Y-111738095D01*
X101630952Y-111690476D01*
X101773810Y-111690476D01*
X101964286Y-111738095D01*
X102059524Y-111785714D01*
X102154762Y-111880952D01*
X102202381Y-112023810D01*
X102202381Y-112261905D01*
X74511905Y-83452381D02*
X74511905Y-82452381D01*
X74750000Y-82452381D01*
X74892858Y-82500000D01*
X74988096Y-82595238D01*
X75035715Y-82690476D01*
X75083334Y-82880952D01*
X75083334Y-83023810D01*
X75035715Y-83214286D01*
X74988096Y-83309524D01*
X74892858Y-83404762D01*
X74750000Y-83452381D01*
X74511905Y-83452381D01*
X75416667Y-82452381D02*
X76035715Y-82452381D01*
X75702381Y-82833333D01*
X75845239Y-82833333D01*
X75940477Y-82880952D01*
X75988096Y-82928571D01*
X76035715Y-83023810D01*
X76035715Y-83261905D01*
X75988096Y-83357143D01*
X75940477Y-83404762D01*
X75845239Y-83452381D01*
X75559524Y-83452381D01*
X75464286Y-83404762D01*
X75416667Y-83357143D01*
X78238095Y-82452381D02*
X78904762Y-82452381D01*
X78238095Y-83452381D01*
X78904762Y-83452381D01*
X79285714Y-82928571D02*
X79619048Y-82928571D01*
X79761905Y-83452381D02*
X79285714Y-83452381D01*
X79285714Y-82452381D01*
X79761905Y-82452381D01*
X80190476Y-83452381D02*
X80190476Y-82452381D01*
X80761905Y-83452381D01*
X80761905Y-82452381D01*
X81238095Y-82928571D02*
X81571429Y-82928571D01*
X81714286Y-83452381D02*
X81238095Y-83452381D01*
X81238095Y-82452381D01*
X81714286Y-82452381D01*
X82714286Y-83452381D02*
X82380952Y-82976190D01*
X82142857Y-83452381D02*
X82142857Y-82452381D01*
X82523810Y-82452381D01*
X82619048Y-82500000D01*
X82666667Y-82547619D01*
X82714286Y-82642857D01*
X82714286Y-82785714D01*
X82666667Y-82880952D01*
X82619048Y-82928571D01*
X82523810Y-82976190D01*
X82142857Y-82976190D01*
X115357143Y-86666666D02*
X115404762Y-86714285D01*
X115452381Y-86857142D01*
X115452381Y-86952380D01*
X115404762Y-87095238D01*
X115309524Y-87190476D01*
X115214286Y-87238095D01*
X115023810Y-87285714D01*
X114880952Y-87285714D01*
X114690476Y-87238095D01*
X114595238Y-87190476D01*
X114500000Y-87095238D01*
X114452381Y-86952380D01*
X114452381Y-86857142D01*
X114500000Y-86714285D01*
X114547619Y-86666666D01*
X114452381Y-86333333D02*
X114452381Y-85714285D01*
X114833333Y-86047619D01*
X114833333Y-85904761D01*
X114880952Y-85809523D01*
X114928571Y-85761904D01*
X115023810Y-85714285D01*
X115261905Y-85714285D01*
X115357143Y-85761904D01*
X115404762Y-85809523D01*
X115452381Y-85904761D01*
X115452381Y-86190476D01*
X115404762Y-86285714D01*
X115357143Y-86333333D01*
X115452381Y-81571428D02*
X115452381Y-82142857D01*
X115452381Y-81857143D02*
X114452381Y-81857143D01*
X114595238Y-81952381D01*
X114690476Y-82047619D01*
X114738095Y-82142857D01*
X114452381Y-80952381D02*
X114452381Y-80857142D01*
X114500000Y-80761904D01*
X114547619Y-80714285D01*
X114642857Y-80666666D01*
X114833333Y-80619047D01*
X115071429Y-80619047D01*
X115261905Y-80666666D01*
X115357143Y-80714285D01*
X115404762Y-80761904D01*
X115452381Y-80857142D01*
X115452381Y-80952381D01*
X115404762Y-81047619D01*
X115357143Y-81095238D01*
X115261905Y-81142857D01*
X115071429Y-81190476D01*
X114833333Y-81190476D01*
X114642857Y-81142857D01*
X114547619Y-81095238D01*
X114500000Y-81047619D01*
X114452381Y-80952381D01*
X114785714Y-80190476D02*
X115452381Y-80190476D01*
X114880952Y-80190476D02*
X114833333Y-80142857D01*
X114785714Y-80047619D01*
X114785714Y-79904761D01*
X114833333Y-79809523D01*
X114928571Y-79761904D01*
X115452381Y-79761904D01*
X114928571Y-78952380D02*
X114928571Y-79285714D01*
X115452381Y-79285714D02*
X114452381Y-79285714D01*
X114452381Y-78809523D01*
X98083334Y-89857143D02*
X98035715Y-89904762D01*
X97892858Y-89952381D01*
X97797620Y-89952381D01*
X97654762Y-89904762D01*
X97559524Y-89809524D01*
X97511905Y-89714286D01*
X97464286Y-89523810D01*
X97464286Y-89380952D01*
X97511905Y-89190476D01*
X97559524Y-89095238D01*
X97654762Y-89000000D01*
X97797620Y-88952381D01*
X97892858Y-88952381D01*
X98035715Y-89000000D01*
X98083334Y-89047619D01*
X98940477Y-89285714D02*
X98940477Y-89952381D01*
X98702381Y-88904762D02*
X98464286Y-89619048D01*
X99083334Y-89619048D01*
X100928572Y-89952381D02*
X100357143Y-89952381D01*
X100642857Y-89952381D02*
X100642857Y-88952381D01*
X100547619Y-89095238D01*
X100452381Y-89190476D01*
X100357143Y-89238095D01*
X101547619Y-88952381D02*
X101642858Y-88952381D01*
X101738096Y-89000000D01*
X101785715Y-89047619D01*
X101833334Y-89142857D01*
X101880953Y-89333333D01*
X101880953Y-89571429D01*
X101833334Y-89761905D01*
X101785715Y-89857143D01*
X101738096Y-89904762D01*
X101642858Y-89952381D01*
X101547619Y-89952381D01*
X101452381Y-89904762D01*
X101404762Y-89857143D01*
X101357143Y-89761905D01*
X101309524Y-89571429D01*
X101309524Y-89333333D01*
X101357143Y-89142857D01*
X101404762Y-89047619D01*
X101452381Y-89000000D01*
X101547619Y-88952381D01*
X102309524Y-89285714D02*
X102309524Y-89952381D01*
X102309524Y-89380952D02*
X102357143Y-89333333D01*
X102452381Y-89285714D01*
X102595239Y-89285714D01*
X102690477Y-89333333D01*
X102738096Y-89428571D01*
X102738096Y-89952381D01*
X103547620Y-89428571D02*
X103214286Y-89428571D01*
X103214286Y-89952381D02*
X103214286Y-88952381D01*
X103690477Y-88952381D01*
D15*
X79107143Y-104666666D02*
X79154762Y-104714285D01*
X79202381Y-104857142D01*
X79202381Y-104952380D01*
X79154762Y-105095238D01*
X79059524Y-105190476D01*
X78964286Y-105238095D01*
X78773810Y-105285714D01*
X78630952Y-105285714D01*
X78440476Y-105238095D01*
X78345238Y-105190476D01*
X78250000Y-105095238D01*
X78202381Y-104952380D01*
X78202381Y-104857142D01*
X78250000Y-104714285D01*
X78297619Y-104666666D01*
X79202381Y-103714285D02*
X79202381Y-104285714D01*
X79202381Y-104000000D02*
X78202381Y-104000000D01*
X78345238Y-104095238D01*
X78440476Y-104190476D01*
X78488095Y-104285714D01*
X105609524Y-107628571D02*
X105752381Y-107676190D01*
X105800000Y-107723810D01*
X105847619Y-107819048D01*
X105847619Y-107961905D01*
X105800000Y-108057143D01*
X105752381Y-108104762D01*
X105657143Y-108152381D01*
X105276190Y-108152381D01*
X105276190Y-107152381D01*
X105609524Y-107152381D01*
X105704762Y-107200000D01*
X105752381Y-107247619D01*
X105800000Y-107342857D01*
X105800000Y-107438095D01*
X105752381Y-107533333D01*
X105704762Y-107580952D01*
X105609524Y-107628571D01*
X105276190Y-107628571D01*
X106419047Y-108152381D02*
X106323809Y-108104762D01*
X106276190Y-108057143D01*
X106228571Y-107961905D01*
X106228571Y-107676190D01*
X106276190Y-107580952D01*
X106323809Y-107533333D01*
X106419047Y-107485714D01*
X106561905Y-107485714D01*
X106657143Y-107533333D01*
X106704762Y-107580952D01*
X106752381Y-107676190D01*
X106752381Y-107961905D01*
X106704762Y-108057143D01*
X106657143Y-108104762D01*
X106561905Y-108152381D01*
X106419047Y-108152381D01*
X107609524Y-107485714D02*
X107609524Y-108152381D01*
X107180952Y-107485714D02*
X107180952Y-108009524D01*
X107228571Y-108104762D01*
X107323809Y-108152381D01*
X107466667Y-108152381D01*
X107561905Y-108104762D01*
X107609524Y-108057143D01*
X108085714Y-108152381D02*
X108085714Y-107485714D01*
X108085714Y-107676190D02*
X108133333Y-107580952D01*
X108180952Y-107533333D01*
X108276190Y-107485714D01*
X108371429Y-107485714D01*
X108704762Y-107485714D02*
X108704762Y-108152381D01*
X108704762Y-107580952D02*
X108752381Y-107533333D01*
X108847619Y-107485714D01*
X108990477Y-107485714D01*
X109085715Y-107533333D01*
X109133334Y-107628571D01*
X109133334Y-108152381D01*
X109561905Y-108104762D02*
X109657143Y-108152381D01*
X109847619Y-108152381D01*
X109942858Y-108104762D01*
X109990477Y-108009524D01*
X109990477Y-107961905D01*
X109942858Y-107866667D01*
X109847619Y-107819048D01*
X109704762Y-107819048D01*
X109609524Y-107771429D01*
X109561905Y-107676190D01*
X109561905Y-107628571D01*
X109609524Y-107533333D01*
X109704762Y-107485714D01*
X109847619Y-107485714D01*
X109942858Y-107533333D01*
X110180953Y-108247619D02*
X110942858Y-108247619D01*
X111180953Y-108152381D02*
X111180953Y-107152381D01*
X111561906Y-107152381D01*
X111657144Y-107200000D01*
X111704763Y-107247619D01*
X111752382Y-107342857D01*
X111752382Y-107485714D01*
X111704763Y-107580952D01*
X111657144Y-107628571D01*
X111561906Y-107676190D01*
X111180953Y-107676190D01*
X112180953Y-107628571D02*
X112514287Y-107628571D01*
X112657144Y-108152381D02*
X112180953Y-108152381D01*
X112180953Y-107152381D01*
X112657144Y-107152381D01*
X113657144Y-108057143D02*
X113609525Y-108104762D01*
X113466668Y-108152381D01*
X113371430Y-108152381D01*
X113228572Y-108104762D01*
X113133334Y-108009524D01*
X113085715Y-107914286D01*
X113038096Y-107723810D01*
X113038096Y-107580952D01*
X113085715Y-107390476D01*
X113133334Y-107295238D01*
X113228572Y-107200000D01*
X113371430Y-107152381D01*
X113466668Y-107152381D01*
X113609525Y-107200000D01*
X113657144Y-107247619D01*
X114609525Y-108152381D02*
X114038096Y-108152381D01*
X114323810Y-108152381D02*
X114323810Y-107152381D01*
X114228572Y-107295238D01*
X114133334Y-107390476D01*
X114038096Y-107438095D01*
X115561906Y-108152381D02*
X114990477Y-108152381D01*
X115276191Y-108152381D02*
X115276191Y-107152381D01*
X115180953Y-107295238D01*
X115085715Y-107390476D01*
X114990477Y-107438095D01*
X116466668Y-108152381D02*
X115990477Y-108152381D01*
X115990477Y-107152381D01*
D13*
X112583334Y-121357143D02*
X112535715Y-121404762D01*
X112392858Y-121452381D01*
X112297620Y-121452381D01*
X112154762Y-121404762D01*
X112059524Y-121309524D01*
X112011905Y-121214286D01*
X111964286Y-121023810D01*
X111964286Y-120880952D01*
X112011905Y-120690476D01*
X112059524Y-120595238D01*
X112154762Y-120500000D01*
X112297620Y-120452381D01*
X112392858Y-120452381D01*
X112535715Y-120500000D01*
X112583334Y-120547619D01*
X113488096Y-120452381D02*
X113011905Y-120452381D01*
X112964286Y-120928571D01*
X113011905Y-120880952D01*
X113107143Y-120833333D01*
X113345239Y-120833333D01*
X113440477Y-120880952D01*
X113488096Y-120928571D01*
X113535715Y-121023810D01*
X113535715Y-121261905D01*
X113488096Y-121357143D01*
X113440477Y-121404762D01*
X113345239Y-121452381D01*
X113107143Y-121452381D01*
X113011905Y-121404762D01*
X112964286Y-121357143D01*
X110785715Y-115535714D02*
X110785715Y-116202381D01*
X110547619Y-115154762D02*
X110309524Y-115869048D01*
X110928572Y-115869048D01*
X111214286Y-115202381D02*
X111880953Y-115202381D01*
X111452381Y-116202381D01*
X112452381Y-115202381D02*
X112547620Y-115202381D01*
X112642858Y-115250000D01*
X112690477Y-115297619D01*
X112738096Y-115392857D01*
X112785715Y-115583333D01*
X112785715Y-115821429D01*
X112738096Y-116011905D01*
X112690477Y-116107143D01*
X112642858Y-116154762D01*
X112547620Y-116202381D01*
X112452381Y-116202381D01*
X112357143Y-116154762D01*
X112309524Y-116107143D01*
X112261905Y-116011905D01*
X112214286Y-115821429D01*
X112214286Y-115583333D01*
X112261905Y-115392857D01*
X112309524Y-115297619D01*
X112357143Y-115250000D01*
X112452381Y-115202381D01*
X113214286Y-115535714D02*
X113214286Y-116535714D01*
X113690477Y-116059524D02*
X113738096Y-116154762D01*
X113833334Y-116202381D01*
X113214286Y-116059524D02*
X113261905Y-116154762D01*
X113357143Y-116202381D01*
X113547620Y-116202381D01*
X113642858Y-116154762D01*
X113690477Y-116059524D01*
X113690477Y-115535714D01*
X114595239Y-115678571D02*
X114261905Y-115678571D01*
X114261905Y-116202381D02*
X114261905Y-115202381D01*
X114738096Y-115202381D01*
X106589048Y-123291429D02*
X107350953Y-123291429D01*
X106970001Y-123672381D02*
X106970001Y-122910476D01*
X93357143Y-86166666D02*
X93404762Y-86214285D01*
X93452381Y-86357142D01*
X93452381Y-86452380D01*
X93404762Y-86595238D01*
X93309524Y-86690476D01*
X93214286Y-86738095D01*
X93023810Y-86785714D01*
X92880952Y-86785714D01*
X92690476Y-86738095D01*
X92595238Y-86690476D01*
X92500000Y-86595238D01*
X92452381Y-86452380D01*
X92452381Y-86357142D01*
X92500000Y-86214285D01*
X92547619Y-86166666D01*
X92452381Y-85309523D02*
X92452381Y-85500000D01*
X92500000Y-85595238D01*
X92547619Y-85642857D01*
X92690476Y-85738095D01*
X92880952Y-85785714D01*
X93261905Y-85785714D01*
X93357143Y-85738095D01*
X93404762Y-85690476D01*
X93452381Y-85595238D01*
X93452381Y-85404761D01*
X93404762Y-85309523D01*
X93357143Y-85261904D01*
X93261905Y-85214285D01*
X93023810Y-85214285D01*
X92928571Y-85261904D01*
X92880952Y-85309523D01*
X92833333Y-85404761D01*
X92833333Y-85595238D01*
X92880952Y-85690476D01*
X92928571Y-85738095D01*
X93023810Y-85785714D01*
X93452381Y-83571428D02*
X93452381Y-84142857D01*
X93452381Y-83857143D02*
X92452381Y-83857143D01*
X92595238Y-83952381D01*
X92690476Y-84047619D01*
X92738095Y-84142857D01*
X92452381Y-82952381D02*
X92452381Y-82857142D01*
X92500000Y-82761904D01*
X92547619Y-82714285D01*
X92642857Y-82666666D01*
X92833333Y-82619047D01*
X93071429Y-82619047D01*
X93261905Y-82666666D01*
X93357143Y-82714285D01*
X93404762Y-82761904D01*
X93452381Y-82857142D01*
X93452381Y-82952381D01*
X93404762Y-83047619D01*
X93357143Y-83095238D01*
X93261905Y-83142857D01*
X93071429Y-83190476D01*
X92833333Y-83190476D01*
X92642857Y-83142857D01*
X92547619Y-83095238D01*
X92500000Y-83047619D01*
X92452381Y-82952381D01*
X92785714Y-82190476D02*
X93452381Y-82190476D01*
X92880952Y-82190476D02*
X92833333Y-82142857D01*
X92785714Y-82047619D01*
X92785714Y-81904761D01*
X92833333Y-81809523D01*
X92928571Y-81761904D01*
X93452381Y-81761904D01*
X92928571Y-80952380D02*
X92928571Y-81285714D01*
X93452381Y-81285714D02*
X92452381Y-81285714D01*
X92452381Y-80809523D01*
X99202381Y-84488095D02*
X98202381Y-84488095D01*
X98202381Y-84250000D01*
X98250000Y-84107142D01*
X98345238Y-84011904D01*
X98440476Y-83964285D01*
X98630952Y-83916666D01*
X98773810Y-83916666D01*
X98964286Y-83964285D01*
X99059524Y-84011904D01*
X99154762Y-84107142D01*
X99202381Y-84250000D01*
X99202381Y-84488095D01*
X98535714Y-83059523D02*
X99202381Y-83059523D01*
X98154762Y-83297619D02*
X98869048Y-83535714D01*
X98869048Y-82916666D01*
X71090476Y-122128571D02*
X70757142Y-122128571D01*
X70757142Y-122652381D02*
X70757142Y-121652381D01*
X71233333Y-121652381D01*
X71757142Y-122652381D02*
X71661904Y-122604762D01*
X71614285Y-122557143D01*
X71566666Y-122461905D01*
X71566666Y-122176190D01*
X71614285Y-122080952D01*
X71661904Y-122033333D01*
X71757142Y-121985714D01*
X71900000Y-121985714D01*
X71995238Y-122033333D01*
X72042857Y-122080952D01*
X72090476Y-122176190D01*
X72090476Y-122461905D01*
X72042857Y-122557143D01*
X71995238Y-122604762D01*
X71900000Y-122652381D01*
X71757142Y-122652381D01*
X72661904Y-122652381D02*
X72566666Y-122604762D01*
X72519047Y-122557143D01*
X72471428Y-122461905D01*
X72471428Y-122176190D01*
X72519047Y-122080952D01*
X72566666Y-122033333D01*
X72661904Y-121985714D01*
X72804762Y-121985714D01*
X72900000Y-122033333D01*
X72947619Y-122080952D01*
X72995238Y-122176190D01*
X72995238Y-122461905D01*
X72947619Y-122557143D01*
X72900000Y-122604762D01*
X72804762Y-122652381D01*
X72661904Y-122652381D01*
X73280952Y-121985714D02*
X73661904Y-121985714D01*
X73423809Y-121652381D02*
X73423809Y-122509524D01*
X73471428Y-122604762D01*
X73566666Y-122652381D01*
X73661904Y-122652381D01*
X73757143Y-122747619D02*
X74519048Y-122747619D01*
X74709524Y-122604762D02*
X74852381Y-122652381D01*
X75090477Y-122652381D01*
X75185715Y-122604762D01*
X75233334Y-122557143D01*
X75280953Y-122461905D01*
X75280953Y-122366667D01*
X75233334Y-122271429D01*
X75185715Y-122223810D01*
X75090477Y-122176190D01*
X74900000Y-122128571D01*
X74804762Y-122080952D01*
X74757143Y-122033333D01*
X74709524Y-121938095D01*
X74709524Y-121842857D01*
X74757143Y-121747619D01*
X74804762Y-121700000D01*
X74900000Y-121652381D01*
X75138096Y-121652381D01*
X75280953Y-121700000D01*
X75614286Y-121985714D02*
X75804762Y-122652381D01*
X75995239Y-122176190D01*
X76185715Y-122652381D01*
X76376191Y-121985714D01*
X76757143Y-122652381D02*
X76757143Y-121985714D01*
X76757143Y-121652381D02*
X76709524Y-121700000D01*
X76757143Y-121747619D01*
X76804762Y-121700000D01*
X76757143Y-121652381D01*
X76757143Y-121747619D01*
X77090476Y-121985714D02*
X77471428Y-121985714D01*
X77233333Y-121652381D02*
X77233333Y-122509524D01*
X77280952Y-122604762D01*
X77376190Y-122652381D01*
X77471428Y-122652381D01*
X78233334Y-122604762D02*
X78138096Y-122652381D01*
X77947619Y-122652381D01*
X77852381Y-122604762D01*
X77804762Y-122557143D01*
X77757143Y-122461905D01*
X77757143Y-122176190D01*
X77804762Y-122080952D01*
X77852381Y-122033333D01*
X77947619Y-121985714D01*
X78138096Y-121985714D01*
X78233334Y-122033333D01*
X78661905Y-122652381D02*
X78661905Y-121652381D01*
X79090477Y-122652381D02*
X79090477Y-122128571D01*
X79042858Y-122033333D01*
X78947620Y-121985714D01*
X78804762Y-121985714D01*
X78709524Y-122033333D01*
X78661905Y-122080952D01*
X80090477Y-122652381D02*
X79519048Y-122652381D01*
X79804762Y-122652381D02*
X79804762Y-121652381D01*
X79709524Y-121795238D01*
X79614286Y-121890476D01*
X79519048Y-121938095D01*
X99533334Y-72252381D02*
X99200000Y-71776190D01*
X98961905Y-72252381D02*
X98961905Y-71252381D01*
X99342858Y-71252381D01*
X99438096Y-71300000D01*
X99485715Y-71347619D01*
X99533334Y-71442857D01*
X99533334Y-71585714D01*
X99485715Y-71680952D01*
X99438096Y-71728571D01*
X99342858Y-71776190D01*
X98961905Y-71776190D01*
X100485715Y-72252381D02*
X99914286Y-72252381D01*
X100200000Y-72252381D02*
X100200000Y-71252381D01*
X100104762Y-71395238D01*
X100009524Y-71490476D01*
X99914286Y-71538095D01*
X99033334Y-73852381D02*
X98461905Y-73852381D01*
X98747619Y-73852381D02*
X98747619Y-72852381D01*
X98652381Y-72995238D01*
X98557143Y-73090476D01*
X98461905Y-73138095D01*
X99938096Y-72852381D02*
X99461905Y-72852381D01*
X99414286Y-73328571D01*
X99461905Y-73280952D01*
X99557143Y-73233333D01*
X99795239Y-73233333D01*
X99890477Y-73280952D01*
X99938096Y-73328571D01*
X99985715Y-73423810D01*
X99985715Y-73661905D01*
X99938096Y-73757143D01*
X99890477Y-73804762D01*
X99795239Y-73852381D01*
X99557143Y-73852381D01*
X99461905Y-73804762D01*
X99414286Y-73757143D01*
X100604762Y-72852381D02*
X100700001Y-72852381D01*
X100795239Y-72900000D01*
X100842858Y-72947619D01*
X100890477Y-73042857D01*
X100938096Y-73233333D01*
X100938096Y-73471429D01*
X100890477Y-73661905D01*
X100842858Y-73757143D01*
X100795239Y-73804762D01*
X100700001Y-73852381D01*
X100604762Y-73852381D01*
X100509524Y-73804762D01*
X100461905Y-73757143D01*
X100414286Y-73661905D01*
X100366667Y-73471429D01*
X100366667Y-73233333D01*
X100414286Y-73042857D01*
X100461905Y-72947619D01*
X100509524Y-72900000D01*
X100604762Y-72852381D01*
X87557143Y-74452381D02*
X87223809Y-73976190D01*
X86985714Y-74452381D02*
X86985714Y-73452381D01*
X87366667Y-73452381D01*
X87461905Y-73500000D01*
X87509524Y-73547619D01*
X87557143Y-73642857D01*
X87557143Y-73785714D01*
X87509524Y-73880952D01*
X87461905Y-73928571D01*
X87366667Y-73976190D01*
X86985714Y-73976190D01*
X88509524Y-74452381D02*
X87938095Y-74452381D01*
X88223809Y-74452381D02*
X88223809Y-73452381D01*
X88128571Y-73595238D01*
X88033333Y-73690476D01*
X87938095Y-73738095D01*
X89128571Y-73452381D02*
X89223810Y-73452381D01*
X89319048Y-73500000D01*
X89366667Y-73547619D01*
X89414286Y-73642857D01*
X89461905Y-73833333D01*
X89461905Y-74071429D01*
X89414286Y-74261905D01*
X89366667Y-74357143D01*
X89319048Y-74404762D01*
X89223810Y-74452381D01*
X89128571Y-74452381D01*
X89033333Y-74404762D01*
X88985714Y-74357143D01*
X88938095Y-74261905D01*
X88890476Y-74071429D01*
X88890476Y-73833333D01*
X88938095Y-73642857D01*
X88985714Y-73547619D01*
X89033333Y-73500000D01*
X89128571Y-73452381D01*
X91238096Y-73452381D02*
X91047619Y-73452381D01*
X90952381Y-73500000D01*
X90904762Y-73547619D01*
X90809524Y-73690476D01*
X90761905Y-73880952D01*
X90761905Y-74261905D01*
X90809524Y-74357143D01*
X90857143Y-74404762D01*
X90952381Y-74452381D01*
X91142858Y-74452381D01*
X91238096Y-74404762D01*
X91285715Y-74357143D01*
X91333334Y-74261905D01*
X91333334Y-74023810D01*
X91285715Y-73928571D01*
X91238096Y-73880952D01*
X91142858Y-73833333D01*
X90952381Y-73833333D01*
X90857143Y-73880952D01*
X90809524Y-73928571D01*
X90761905Y-74023810D01*
X91714286Y-73547619D02*
X91761905Y-73500000D01*
X91857143Y-73452381D01*
X92095239Y-73452381D01*
X92190477Y-73500000D01*
X92238096Y-73547619D01*
X92285715Y-73642857D01*
X92285715Y-73738095D01*
X92238096Y-73880952D01*
X91666667Y-74452381D01*
X92285715Y-74452381D01*
X92904762Y-73452381D02*
X93000001Y-73452381D01*
X93095239Y-73500000D01*
X93142858Y-73547619D01*
X93190477Y-73642857D01*
X93238096Y-73833333D01*
X93238096Y-74071429D01*
X93190477Y-74261905D01*
X93142858Y-74357143D01*
X93095239Y-74404762D01*
X93000001Y-74452381D01*
X92904762Y-74452381D01*
X92809524Y-74404762D01*
X92761905Y-74357143D01*
X92714286Y-74261905D01*
X92666667Y-74071429D01*
X92666667Y-73833333D01*
X92714286Y-73642857D01*
X92761905Y-73547619D01*
X92809524Y-73500000D01*
X92904762Y-73452381D01*
X86157143Y-84452381D02*
X85823809Y-83976190D01*
X85585714Y-84452381D02*
X85585714Y-83452381D01*
X85966667Y-83452381D01*
X86061905Y-83500000D01*
X86109524Y-83547619D01*
X86157143Y-83642857D01*
X86157143Y-83785714D01*
X86109524Y-83880952D01*
X86061905Y-83928571D01*
X85966667Y-83976190D01*
X85585714Y-83976190D01*
X87109524Y-84452381D02*
X86538095Y-84452381D01*
X86823809Y-84452381D02*
X86823809Y-83452381D01*
X86728571Y-83595238D01*
X86633333Y-83690476D01*
X86538095Y-83738095D01*
X88061905Y-84452381D02*
X87490476Y-84452381D01*
X87776190Y-84452381D02*
X87776190Y-83452381D01*
X87680952Y-83595238D01*
X87585714Y-83690476D01*
X87490476Y-83738095D01*
X88747619Y-83452381D02*
X89366667Y-83452381D01*
X89033333Y-83833333D01*
X89176191Y-83833333D01*
X89271429Y-83880952D01*
X89319048Y-83928571D01*
X89366667Y-84023810D01*
X89366667Y-84261905D01*
X89319048Y-84357143D01*
X89271429Y-84404762D01*
X89176191Y-84452381D01*
X88890476Y-84452381D01*
X88795238Y-84404762D01*
X88747619Y-84357143D01*
X89795238Y-84357143D02*
X89842857Y-84404762D01*
X89795238Y-84452381D01*
X89747619Y-84404762D01*
X89795238Y-84357143D01*
X89795238Y-84452381D01*
X90176190Y-83452381D02*
X90795238Y-83452381D01*
X90461904Y-83833333D01*
X90604762Y-83833333D01*
X90700000Y-83880952D01*
X90747619Y-83928571D01*
X90795238Y-84023810D01*
X90795238Y-84261905D01*
X90747619Y-84357143D01*
X90700000Y-84404762D01*
X90604762Y-84452381D01*
X90319047Y-84452381D01*
X90223809Y-84404762D01*
X90176190Y-84357143D01*
X91223809Y-84452381D02*
X91223809Y-83452381D01*
X91319047Y-84071429D02*
X91604762Y-84452381D01*
X91604762Y-83785714D02*
X91223809Y-84166667D01*
X78157143Y-87452381D02*
X77823809Y-86976190D01*
X77585714Y-87452381D02*
X77585714Y-86452381D01*
X77966667Y-86452381D01*
X78061905Y-86500000D01*
X78109524Y-86547619D01*
X78157143Y-86642857D01*
X78157143Y-86785714D01*
X78109524Y-86880952D01*
X78061905Y-86928571D01*
X77966667Y-86976190D01*
X77585714Y-86976190D01*
X79109524Y-87452381D02*
X78538095Y-87452381D01*
X78823809Y-87452381D02*
X78823809Y-86452381D01*
X78728571Y-86595238D01*
X78633333Y-86690476D01*
X78538095Y-86738095D01*
X79490476Y-86547619D02*
X79538095Y-86500000D01*
X79633333Y-86452381D01*
X79871429Y-86452381D01*
X79966667Y-86500000D01*
X80014286Y-86547619D01*
X80061905Y-86642857D01*
X80061905Y-86738095D01*
X80014286Y-86880952D01*
X79442857Y-87452381D01*
X80061905Y-87452381D01*
X81804762Y-87452381D02*
X81233333Y-87452381D01*
X81519047Y-87452381D02*
X81519047Y-86452381D01*
X81423809Y-86595238D01*
X81328571Y-86690476D01*
X81233333Y-86738095D01*
X82423809Y-86452381D02*
X82519048Y-86452381D01*
X82614286Y-86500000D01*
X82661905Y-86547619D01*
X82709524Y-86642857D01*
X82757143Y-86833333D01*
X82757143Y-87071429D01*
X82709524Y-87261905D01*
X82661905Y-87357143D01*
X82614286Y-87404762D01*
X82519048Y-87452381D01*
X82423809Y-87452381D01*
X82328571Y-87404762D01*
X82280952Y-87357143D01*
X82233333Y-87261905D01*
X82185714Y-87071429D01*
X82185714Y-86833333D01*
X82233333Y-86642857D01*
X82280952Y-86547619D01*
X82328571Y-86500000D01*
X82423809Y-86452381D01*
X83185714Y-87452381D02*
X83185714Y-86452381D01*
X83280952Y-87071429D02*
X83566667Y-87452381D01*
X83566667Y-86785714D02*
X83185714Y-87166667D01*
X108357143Y-84452381D02*
X108023809Y-83976190D01*
X107785714Y-84452381D02*
X107785714Y-83452381D01*
X108166667Y-83452381D01*
X108261905Y-83500000D01*
X108309524Y-83547619D01*
X108357143Y-83642857D01*
X108357143Y-83785714D01*
X108309524Y-83880952D01*
X108261905Y-83928571D01*
X108166667Y-83976190D01*
X107785714Y-83976190D01*
X109309524Y-84452381D02*
X108738095Y-84452381D01*
X109023809Y-84452381D02*
X109023809Y-83452381D01*
X108928571Y-83595238D01*
X108833333Y-83690476D01*
X108738095Y-83738095D01*
X109642857Y-83452381D02*
X110261905Y-83452381D01*
X109928571Y-83833333D01*
X110071429Y-83833333D01*
X110166667Y-83880952D01*
X110214286Y-83928571D01*
X110261905Y-84023810D01*
X110261905Y-84261905D01*
X110214286Y-84357143D01*
X110166667Y-84404762D01*
X110071429Y-84452381D01*
X109785714Y-84452381D01*
X109690476Y-84404762D01*
X109642857Y-84357143D01*
X112404762Y-84452381D02*
X111833333Y-84452381D01*
X112119047Y-84452381D02*
X112119047Y-83452381D01*
X112023809Y-83595238D01*
X111928571Y-83690476D01*
X111833333Y-83738095D01*
X113023809Y-83452381D02*
X113119048Y-83452381D01*
X113214286Y-83500000D01*
X113261905Y-83547619D01*
X113309524Y-83642857D01*
X113357143Y-83833333D01*
X113357143Y-84071429D01*
X113309524Y-84261905D01*
X113261905Y-84357143D01*
X113214286Y-84404762D01*
X113119048Y-84452381D01*
X113023809Y-84452381D01*
X112928571Y-84404762D01*
X112880952Y-84357143D01*
X112833333Y-84261905D01*
X112785714Y-84071429D01*
X112785714Y-83833333D01*
X112833333Y-83642857D01*
X112880952Y-83547619D01*
X112928571Y-83500000D01*
X113023809Y-83452381D01*
X113785714Y-84452381D02*
X113785714Y-83452381D01*
X113880952Y-84071429D02*
X114166667Y-84452381D01*
X114166667Y-83785714D02*
X113785714Y-84166667D01*
X108157143Y-88452381D02*
X107823809Y-87976190D01*
X107585714Y-88452381D02*
X107585714Y-87452381D01*
X107966667Y-87452381D01*
X108061905Y-87500000D01*
X108109524Y-87547619D01*
X108157143Y-87642857D01*
X108157143Y-87785714D01*
X108109524Y-87880952D01*
X108061905Y-87928571D01*
X107966667Y-87976190D01*
X107585714Y-87976190D01*
X109109524Y-88452381D02*
X108538095Y-88452381D01*
X108823809Y-88452381D02*
X108823809Y-87452381D01*
X108728571Y-87595238D01*
X108633333Y-87690476D01*
X108538095Y-87738095D01*
X109966667Y-87785714D02*
X109966667Y-88452381D01*
X109728571Y-87404762D02*
X109490476Y-88119048D01*
X110109524Y-88119048D01*
X112404762Y-88452381D02*
X111833333Y-88452381D01*
X112119047Y-88452381D02*
X112119047Y-87452381D01*
X112023809Y-87595238D01*
X111928571Y-87690476D01*
X111833333Y-87738095D01*
X113023809Y-87452381D02*
X113119048Y-87452381D01*
X113214286Y-87500000D01*
X113261905Y-87547619D01*
X113309524Y-87642857D01*
X113357143Y-87833333D01*
X113357143Y-88071429D01*
X113309524Y-88261905D01*
X113261905Y-88357143D01*
X113214286Y-88404762D01*
X113119048Y-88452381D01*
X113023809Y-88452381D01*
X112928571Y-88404762D01*
X112880952Y-88357143D01*
X112833333Y-88261905D01*
X112785714Y-88071429D01*
X112785714Y-87833333D01*
X112833333Y-87642857D01*
X112880952Y-87547619D01*
X112928571Y-87500000D01*
X113023809Y-87452381D01*
X113785714Y-88452381D02*
X113785714Y-87452381D01*
X113880952Y-88071429D02*
X114166667Y-88452381D01*
X114166667Y-87785714D02*
X113785714Y-88166667D01*
X100452381Y-100042857D02*
X99976190Y-100376191D01*
X100452381Y-100614286D02*
X99452381Y-100614286D01*
X99452381Y-100233333D01*
X99500000Y-100138095D01*
X99547619Y-100090476D01*
X99642857Y-100042857D01*
X99785714Y-100042857D01*
X99880952Y-100090476D01*
X99928571Y-100138095D01*
X99976190Y-100233333D01*
X99976190Y-100614286D01*
X100452381Y-99090476D02*
X100452381Y-99661905D01*
X100452381Y-99376191D02*
X99452381Y-99376191D01*
X99595238Y-99471429D01*
X99690476Y-99566667D01*
X99738095Y-99661905D01*
X99452381Y-98185714D02*
X99452381Y-98661905D01*
X99928571Y-98709524D01*
X99880952Y-98661905D01*
X99833333Y-98566667D01*
X99833333Y-98328571D01*
X99880952Y-98233333D01*
X99928571Y-98185714D01*
X100023810Y-98138095D01*
X100261905Y-98138095D01*
X100357143Y-98185714D01*
X100404762Y-98233333D01*
X100452381Y-98328571D01*
X100452381Y-98566667D01*
X100404762Y-98661905D01*
X100357143Y-98709524D01*
X100452381Y-96395238D02*
X100452381Y-96966667D01*
X100452381Y-96680953D02*
X99452381Y-96680953D01*
X99595238Y-96776191D01*
X99690476Y-96871429D01*
X99738095Y-96966667D01*
X99452381Y-95776191D02*
X99452381Y-95680952D01*
X99500000Y-95585714D01*
X99547619Y-95538095D01*
X99642857Y-95490476D01*
X99833333Y-95442857D01*
X100071429Y-95442857D01*
X100261905Y-95490476D01*
X100357143Y-95538095D01*
X100404762Y-95585714D01*
X100452381Y-95680952D01*
X100452381Y-95776191D01*
X100404762Y-95871429D01*
X100357143Y-95919048D01*
X100261905Y-95966667D01*
X100071429Y-96014286D01*
X99833333Y-96014286D01*
X99642857Y-95966667D01*
X99547619Y-95919048D01*
X99500000Y-95871429D01*
X99452381Y-95776191D01*
X100452381Y-95014286D02*
X99452381Y-95014286D01*
X100071429Y-94919048D02*
X100452381Y-94633333D01*
X99785714Y-94633333D02*
X100166667Y-95014286D01*
X116052381Y-96242857D02*
X115576190Y-96576191D01*
X116052381Y-96814286D02*
X115052381Y-96814286D01*
X115052381Y-96433333D01*
X115100000Y-96338095D01*
X115147619Y-96290476D01*
X115242857Y-96242857D01*
X115385714Y-96242857D01*
X115480952Y-96290476D01*
X115528571Y-96338095D01*
X115576190Y-96433333D01*
X115576190Y-96814286D01*
X116052381Y-95290476D02*
X116052381Y-95861905D01*
X116052381Y-95576191D02*
X115052381Y-95576191D01*
X115195238Y-95671429D01*
X115290476Y-95766667D01*
X115338095Y-95861905D01*
X115052381Y-94433333D02*
X115052381Y-94623810D01*
X115100000Y-94719048D01*
X115147619Y-94766667D01*
X115290476Y-94861905D01*
X115480952Y-94909524D01*
X115861905Y-94909524D01*
X115957143Y-94861905D01*
X116004762Y-94814286D01*
X116052381Y-94719048D01*
X116052381Y-94528571D01*
X116004762Y-94433333D01*
X115957143Y-94385714D01*
X115861905Y-94338095D01*
X115623810Y-94338095D01*
X115528571Y-94385714D01*
X115480952Y-94433333D01*
X115433333Y-94528571D01*
X115433333Y-94719048D01*
X115480952Y-94814286D01*
X115528571Y-94861905D01*
X115623810Y-94909524D01*
X116052381Y-92795238D02*
X116052381Y-93366667D01*
X116052381Y-93080953D02*
X115052381Y-93080953D01*
X115195238Y-93176191D01*
X115290476Y-93271429D01*
X115338095Y-93366667D01*
X115052381Y-92176191D02*
X115052381Y-92080952D01*
X115100000Y-91985714D01*
X115147619Y-91938095D01*
X115242857Y-91890476D01*
X115433333Y-91842857D01*
X115671429Y-91842857D01*
X115861905Y-91890476D01*
X115957143Y-91938095D01*
X116004762Y-91985714D01*
X116052381Y-92080952D01*
X116052381Y-92176191D01*
X116004762Y-92271429D01*
X115957143Y-92319048D01*
X115861905Y-92366667D01*
X115671429Y-92414286D01*
X115433333Y-92414286D01*
X115242857Y-92366667D01*
X115147619Y-92319048D01*
X115100000Y-92271429D01*
X115052381Y-92176191D01*
X116052381Y-91414286D02*
X115052381Y-91414286D01*
X115671429Y-91319048D02*
X116052381Y-91033333D01*
X115385714Y-91033333D02*
X115766667Y-91414286D01*
M02*
