G04 #@! TF.FileFunction,Copper,L1,Top,Signal*
%FSLAX46Y46*%
G04 Gerber Fmt 4.6, Leading zero omitted, Abs format (unit mm)*
G04 Created by KiCad (PCBNEW 4.0.4-stable) date 07/11/19 10:43:22*
%MOMM*%
%LPD*%
G01*
G04 APERTURE LIST*
%ADD10C,0.100000*%
%ADD11O,2.000000X1.524000*%
%ADD12C,2.500000*%
%ADD13R,1.574800X2.286000*%
%ADD14O,1.574800X2.286000*%
%ADD15C,2.000000*%
%ADD16R,2.400000X1.600000*%
%ADD17O,2.400000X1.600000*%
%ADD18O,1.520000X2.520000*%
%ADD19R,2.500000X2.000000*%
%ADD20R,1.800000X3.500000*%
%ADD21R,2.000000X2.500000*%
%ADD22R,4.000000X2.500000*%
%ADD23R,0.800000X0.900000*%
%ADD24R,2.000000X2.600000*%
%ADD25O,2.000000X2.600000*%
%ADD26R,2.000000X1.700000*%
%ADD27R,1.700000X2.000000*%
%ADD28C,1.750000*%
%ADD29O,4.000000X4.000000*%
%ADD30R,0.900000X1.200000*%
%ADD31O,1.800000X2.500000*%
%ADD32R,2.500000X1.800000*%
%ADD33R,1.700000X2.500000*%
%ADD34C,0.600000*%
%ADD35C,0.500000*%
%ADD36C,0.750000*%
%ADD37C,1.000000*%
%ADD38C,0.350000*%
G04 APERTURE END LIST*
D10*
D11*
X72500000Y-111810000D03*
X72500000Y-109270000D03*
X72500000Y-106730000D03*
X72500000Y-104190000D03*
D12*
X96800000Y-119650000D03*
X73000000Y-119650000D03*
X73000000Y-96350000D03*
X96800000Y-96350000D03*
D13*
X112050000Y-76380000D03*
D14*
X109510000Y-76380000D03*
X106970000Y-76380000D03*
X104430000Y-76380000D03*
X101890000Y-76380000D03*
X99350000Y-76380000D03*
X96810000Y-76380000D03*
X94270000Y-76380000D03*
X91730000Y-76380000D03*
X89190000Y-76380000D03*
X86650000Y-76380000D03*
X84110000Y-76380000D03*
X81570000Y-76380000D03*
X79030000Y-76380000D03*
X76490000Y-76380000D03*
X76490000Y-91620000D03*
X79030000Y-91620000D03*
X81570000Y-91620000D03*
X84110000Y-91620000D03*
X86650000Y-91620000D03*
X89190000Y-91620000D03*
X91730000Y-91620000D03*
X94270000Y-91620000D03*
X96810000Y-91620000D03*
X99350000Y-91620000D03*
X101890000Y-91620000D03*
X104430000Y-91620000D03*
X106970000Y-91620000D03*
X109510000Y-91620000D03*
X112050000Y-91620000D03*
D15*
X92450000Y-102000000D03*
X97450000Y-102000000D03*
D16*
X81000000Y-98000000D03*
D17*
X88620000Y-105620000D03*
X81000000Y-100540000D03*
X88620000Y-103080000D03*
X81000000Y-103080000D03*
X88620000Y-100540000D03*
X81000000Y-105620000D03*
X88620000Y-98000000D03*
D18*
X80000000Y-72000000D03*
X82540000Y-72000000D03*
X110000000Y-72000000D03*
X107460000Y-72000000D03*
X86100000Y-128000000D03*
X88640000Y-128000000D03*
X91180000Y-128000000D03*
X93720000Y-128000000D03*
X96260000Y-128000000D03*
X98800000Y-128000000D03*
X101340000Y-128000000D03*
X103880000Y-128000000D03*
D19*
X76500000Y-100250000D03*
X76500000Y-104250000D03*
D20*
X104250000Y-113500000D03*
X104250000Y-118500000D03*
D19*
X117000000Y-86750000D03*
X117000000Y-82750000D03*
D21*
X102750000Y-87500000D03*
X98750000Y-87500000D03*
D22*
X108750000Y-117500000D03*
X116750000Y-117500000D03*
D19*
X95250000Y-85750000D03*
X95250000Y-81750000D03*
D23*
X100300000Y-84750000D03*
X102200000Y-84750000D03*
X101250000Y-82750000D03*
D24*
X78600000Y-126500000D03*
D25*
X81140000Y-126500000D03*
D26*
X92200000Y-72200000D03*
X88200000Y-72200000D03*
X86600000Y-82200000D03*
X90600000Y-82200000D03*
X82800000Y-85200000D03*
X78800000Y-85200000D03*
X109000000Y-82200000D03*
X113000000Y-82200000D03*
X108800000Y-86200000D03*
X112800000Y-86200000D03*
D27*
X101800000Y-95600000D03*
X101800000Y-99600000D03*
X117400000Y-95800000D03*
X117400000Y-91800000D03*
D28*
X113250000Y-96500000D03*
X108250000Y-96500000D03*
X110750000Y-96500000D03*
X108250000Y-111000000D03*
X113250000Y-111000000D03*
D29*
X104550000Y-104000000D03*
X116950000Y-104000000D03*
D30*
X77750000Y-81000000D03*
X81050000Y-81000000D03*
D31*
X111100000Y-127000000D03*
X108100000Y-127000000D03*
D32*
X91700000Y-106750000D03*
X95700000Y-106750000D03*
D26*
X101300000Y-72200000D03*
X97300000Y-72200000D03*
D33*
X78000000Y-112000000D03*
X78000000Y-115000000D03*
X81000000Y-118250000D03*
X81000000Y-121250000D03*
X84000000Y-112000000D03*
X84000000Y-115000000D03*
X87000000Y-118250000D03*
X87000000Y-121250000D03*
X89750000Y-112000000D03*
X89750000Y-115000000D03*
X92500000Y-118250000D03*
X92500000Y-121250000D03*
X96250000Y-112000000D03*
X96250000Y-115000000D03*
X101250000Y-119750000D03*
X101250000Y-122750000D03*
D34*
X97300000Y-72200000D03*
X96250000Y-72250000D03*
X95700000Y-106750000D03*
X96600000Y-106800000D03*
X77250000Y-104250000D03*
X75750000Y-104250000D03*
X78800000Y-85200000D03*
X75400000Y-85200000D03*
X75400000Y-88600000D03*
X101200000Y-110400000D03*
X85200000Y-108600000D03*
X100800000Y-107200000D03*
X104000000Y-81250000D03*
X102250000Y-79500000D03*
X78250000Y-108250000D03*
X107000000Y-108000000D03*
X86000000Y-96500000D03*
X86000000Y-99500000D03*
X73250000Y-78000000D03*
X76250000Y-80250000D03*
X72750000Y-88250000D03*
X95250000Y-78750000D03*
X94250000Y-78250000D03*
X72000000Y-87500000D03*
X101800000Y-95400000D03*
X90400000Y-93800000D03*
X111750000Y-94500000D03*
X117000000Y-89000000D03*
D35*
X77400000Y-98000000D02*
X77400000Y-95400000D01*
X73600000Y-80400000D02*
X76490000Y-77510000D01*
X73600000Y-91600000D02*
X73600000Y-80400000D01*
X77400000Y-95400000D02*
X73600000Y-91600000D01*
X76490000Y-77510000D02*
X76490000Y-76380000D01*
X81000000Y-98000000D02*
X77400000Y-98000000D01*
X76500000Y-98900000D02*
X76500000Y-100250000D01*
X77400000Y-98000000D02*
X76500000Y-98900000D01*
D36*
X108750000Y-117500000D02*
X108750000Y-115350000D01*
X106900000Y-113500000D02*
X104250000Y-113500000D01*
X108750000Y-115350000D02*
X106900000Y-113500000D01*
D37*
X104250000Y-113500000D02*
X104250000Y-111050000D01*
X92450000Y-104050000D02*
X92450000Y-102000000D01*
X92800000Y-104400000D02*
X92450000Y-104050000D01*
X97400000Y-104400000D02*
X92800000Y-104400000D01*
X98400000Y-105400000D02*
X97400000Y-104400000D01*
X98400000Y-107800000D02*
X98400000Y-105400000D01*
X99800000Y-109200000D02*
X98400000Y-107800000D01*
X102400000Y-109200000D02*
X99800000Y-109200000D01*
X104250000Y-111050000D02*
X102400000Y-109200000D01*
X88620000Y-98000000D02*
X91000000Y-98000000D01*
X91000000Y-98000000D02*
X92450000Y-99450000D01*
X92450000Y-99450000D02*
X92450000Y-102000000D01*
D35*
X76490000Y-76380000D02*
X76490000Y-77010000D01*
D37*
X104500000Y-113250000D02*
X104250000Y-113500000D01*
X88620000Y-98000000D02*
X81000000Y-98000000D01*
D36*
X116750000Y-117500000D02*
X116750000Y-119250000D01*
X111100000Y-124900000D02*
X111100000Y-126600000D01*
X116750000Y-119250000D02*
X111100000Y-124900000D01*
D38*
X96550000Y-106750000D02*
X95700000Y-106750000D01*
X96600000Y-106800000D02*
X96550000Y-106750000D01*
X81050000Y-81000000D02*
X82000000Y-81000000D01*
X79030000Y-76380000D02*
X79030000Y-78230000D01*
X81050000Y-79650000D02*
X81050000Y-81000000D01*
X80400000Y-79000000D02*
X81050000Y-79650000D01*
X79800000Y-79000000D02*
X80400000Y-79000000D01*
X79030000Y-78230000D02*
X79800000Y-79000000D01*
X95250000Y-85750000D02*
X87450000Y-85750000D01*
X87450000Y-85750000D02*
X85700000Y-87500000D01*
X85700000Y-87500000D02*
X81500000Y-87500000D01*
X81500000Y-87500000D02*
X80800000Y-86800000D01*
X80800000Y-86800000D02*
X80800000Y-83900000D01*
X80800000Y-83900000D02*
X82000000Y-82700000D01*
X82000000Y-82700000D02*
X82000000Y-81000000D01*
X82000000Y-81000000D02*
X85400000Y-81000000D01*
X85400000Y-81000000D02*
X86600000Y-82200000D01*
X84000000Y-91510000D02*
X84110000Y-91620000D01*
X97000000Y-85750000D02*
X97500000Y-85250000D01*
X98000000Y-84750000D02*
X100300000Y-84750000D01*
X97500000Y-85250000D02*
X98000000Y-84750000D01*
X95250000Y-85750000D02*
X97000000Y-85750000D01*
X97000000Y-85750000D02*
X98750000Y-87500000D01*
X117000000Y-82750000D02*
X117000000Y-79000000D01*
X111000000Y-72000000D02*
X110000000Y-72000000D01*
X114000000Y-75000000D02*
X111000000Y-72000000D01*
X114000000Y-76000000D02*
X114000000Y-75000000D01*
X117000000Y-79000000D02*
X114000000Y-76000000D01*
D37*
X77250000Y-104250000D02*
X77200000Y-104200000D01*
X77200000Y-104200000D02*
X77050000Y-104200000D01*
D38*
X81000000Y-105620000D02*
X80880000Y-105620000D01*
X104250000Y-118500000D02*
X104250000Y-118250000D01*
X104250000Y-118250000D02*
X102000000Y-116000000D01*
X75400000Y-88600000D02*
X75400000Y-85200000D01*
X102000000Y-111200000D02*
X101200000Y-110400000D01*
X102000000Y-116000000D02*
X102000000Y-111200000D01*
D37*
X108100000Y-126600000D02*
X108100000Y-125300000D01*
X104250000Y-121450000D02*
X104250000Y-118500000D01*
X108100000Y-125300000D02*
X104250000Y-121450000D01*
D38*
X102750000Y-87500000D02*
X106000000Y-87500000D01*
X106000000Y-87500000D02*
X107250000Y-86250000D01*
X102750000Y-87500000D02*
X102750000Y-89250000D01*
X101890000Y-90110000D02*
X101890000Y-91620000D01*
X102750000Y-89250000D02*
X101890000Y-90110000D01*
X107250000Y-86250000D02*
X109000000Y-86250000D01*
X100800000Y-102400000D02*
X99600000Y-101200000D01*
X78600000Y-126000000D02*
X78600000Y-125000000D01*
X78600000Y-125000000D02*
X76600000Y-123000000D01*
X76600000Y-123000000D02*
X76600000Y-117400000D01*
X76600000Y-117400000D02*
X76000000Y-116800000D01*
X76000000Y-116800000D02*
X76000000Y-110200000D01*
X76000000Y-110200000D02*
X77000000Y-109200000D01*
X77000000Y-109200000D02*
X82400000Y-109200000D01*
X82400000Y-109200000D02*
X83000000Y-108600000D01*
X83000000Y-108600000D02*
X85200000Y-108600000D01*
X100800000Y-107200000D02*
X100800000Y-102400000D01*
X99600000Y-101200000D02*
X99600000Y-91870000D01*
X99600000Y-91870000D02*
X99350000Y-91620000D01*
X108250000Y-111000000D02*
X108000000Y-111000000D01*
X108000000Y-111000000D02*
X105200000Y-108200000D01*
X93600000Y-95400000D02*
X96810000Y-92190000D01*
X93600000Y-98200000D02*
X93600000Y-95400000D01*
X94800000Y-99400000D02*
X93600000Y-98200000D01*
X98000000Y-99400000D02*
X94800000Y-99400000D01*
X99000000Y-100400000D02*
X98000000Y-99400000D01*
X99000000Y-101600000D02*
X99000000Y-100400000D01*
X99800000Y-102400000D02*
X99000000Y-101600000D01*
X99800000Y-107400000D02*
X99800000Y-102400000D01*
X100600000Y-108200000D02*
X99800000Y-107400000D01*
X105200000Y-108200000D02*
X100600000Y-108200000D01*
X96810000Y-92190000D02*
X96810000Y-91620000D01*
X96810000Y-91620000D02*
X96810000Y-92190000D01*
X107500000Y-111000000D02*
X108250000Y-111000000D01*
X109000000Y-82250000D02*
X109000000Y-81500000D01*
X109000000Y-81500000D02*
X110000000Y-80500000D01*
X110000000Y-80500000D02*
X114000000Y-80500000D01*
X109000000Y-82250000D02*
X105000000Y-82250000D01*
X105000000Y-82250000D02*
X104000000Y-81250000D01*
X104000000Y-84000000D02*
X104000000Y-81250000D01*
X114000000Y-80500000D02*
X114750000Y-81250000D01*
X103250000Y-84750000D02*
X104000000Y-84000000D01*
X114750000Y-81250000D02*
X114750000Y-90250000D01*
X114750000Y-90250000D02*
X116250000Y-91750000D01*
X102250000Y-79500000D02*
X101500559Y-79706757D01*
X101500559Y-79706757D02*
X85500000Y-79750000D01*
X85500000Y-79750000D02*
X84110000Y-77860000D01*
X84110000Y-77860000D02*
X84110000Y-76380000D01*
X84110000Y-76380000D02*
X84110000Y-75610000D01*
X117500000Y-91750000D02*
X118500000Y-91750000D01*
X74480000Y-109270000D02*
X72500000Y-109270000D01*
X75500000Y-108250000D02*
X74480000Y-109270000D01*
X78250000Y-108250000D02*
X75500000Y-108250000D01*
X110500000Y-104500000D02*
X107000000Y-108000000D01*
X110500000Y-102500000D02*
X110500000Y-104500000D01*
X112000000Y-101000000D02*
X110500000Y-102500000D01*
X116250000Y-101000000D02*
X112000000Y-101000000D01*
X119000000Y-98250000D02*
X116250000Y-101000000D01*
X119000000Y-92250000D02*
X119000000Y-98250000D01*
X118500000Y-91750000D02*
X119000000Y-92250000D01*
X116250000Y-91750000D02*
X117500000Y-91750000D01*
X102200000Y-84750000D02*
X103250000Y-84750000D01*
D35*
X78000000Y-115500000D02*
X78000000Y-122500000D01*
X82250000Y-124000000D02*
X86100000Y-127850000D01*
X79500000Y-124000000D02*
X82250000Y-124000000D01*
X78000000Y-122500000D02*
X79500000Y-124000000D01*
X86100000Y-127850000D02*
X86100000Y-128000000D01*
X86100000Y-127600000D02*
X86100000Y-128000000D01*
X86100000Y-128000000D02*
X86100000Y-127600000D01*
D38*
X81000000Y-100540000D02*
X84960000Y-100540000D01*
X94270000Y-93730000D02*
X94270000Y-91620000D01*
X94000000Y-94000000D02*
X94270000Y-93730000D01*
X91500000Y-94000000D02*
X94000000Y-94000000D01*
X90500000Y-95000000D02*
X91500000Y-94000000D01*
X87500000Y-95000000D02*
X90500000Y-95000000D01*
X86000000Y-96500000D02*
X87500000Y-95000000D01*
X84960000Y-100540000D02*
X86000000Y-99500000D01*
X77750000Y-81000000D02*
X76500000Y-81000000D01*
X76500000Y-81000000D02*
X76600000Y-81000000D01*
X76600000Y-81000000D02*
X76500000Y-81000000D01*
X88250000Y-72250000D02*
X85750000Y-72250000D01*
X85750000Y-72250000D02*
X83750000Y-74250000D01*
X83750000Y-74250000D02*
X75750000Y-74250000D01*
X75750000Y-74250000D02*
X73250000Y-76750000D01*
X73250000Y-76750000D02*
X73250000Y-78000000D01*
X76500000Y-80250000D02*
X76500000Y-81000000D01*
X76500000Y-81000000D02*
X76500000Y-86500000D01*
X89190000Y-89440000D02*
X89190000Y-91620000D01*
X88500000Y-88750000D02*
X89190000Y-89440000D01*
X78750000Y-88750000D02*
X88500000Y-88750000D01*
X76500000Y-86500000D02*
X78750000Y-88750000D01*
X76250000Y-80250000D02*
X76500000Y-80250000D01*
X101300000Y-72200000D02*
X101300000Y-73200000D01*
X93950000Y-72200000D02*
X92200000Y-72200000D01*
X95500000Y-73750000D02*
X93950000Y-72200000D01*
X100750000Y-73750000D02*
X95500000Y-73750000D01*
X101300000Y-73200000D02*
X100750000Y-73750000D01*
X101300000Y-72200000D02*
X107260000Y-72200000D01*
X107260000Y-72200000D02*
X107460000Y-72000000D01*
X92200000Y-72200000D02*
X92200000Y-72100000D01*
X92350000Y-72250000D02*
X92250000Y-72250000D01*
X92600000Y-72600000D02*
X92250000Y-72250000D01*
X92250000Y-72250000D02*
X92500000Y-72250000D01*
X107210000Y-72250000D02*
X107460000Y-72000000D01*
X72500000Y-106730000D02*
X72770000Y-106730000D01*
X72770000Y-106730000D02*
X74500000Y-105000000D01*
X74500000Y-105000000D02*
X74500000Y-99000000D01*
X74500000Y-99000000D02*
X76000000Y-97500000D01*
X76000000Y-97500000D02*
X76000000Y-95250000D01*
X76000000Y-95250000D02*
X72750000Y-92000000D01*
X72750000Y-92000000D02*
X72750000Y-88250000D01*
X95250000Y-78750000D02*
X95000000Y-79000000D01*
X95000000Y-79000000D02*
X92250000Y-79000000D01*
X92250000Y-79000000D02*
X91730000Y-78480000D01*
X91730000Y-78480000D02*
X91730000Y-76380000D01*
X72500000Y-104190000D02*
X72500000Y-99000000D01*
X94270000Y-78230000D02*
X94270000Y-76380000D01*
X94250000Y-78250000D02*
X94270000Y-78230000D01*
X72000000Y-92250000D02*
X72000000Y-87500000D01*
X75250000Y-95500000D02*
X72000000Y-92250000D01*
X75250000Y-97250000D02*
X75250000Y-95500000D01*
X74000000Y-98500000D02*
X75250000Y-97250000D01*
X73000000Y-98500000D02*
X74000000Y-98500000D01*
X72500000Y-99000000D02*
X73000000Y-98500000D01*
X112000000Y-91670000D02*
X112050000Y-91620000D01*
X113750000Y-89500000D02*
X113750000Y-96000000D01*
X113750000Y-96000000D02*
X113250000Y-96500000D01*
X113000000Y-88750000D02*
X113750000Y-89500000D01*
X113000000Y-86250000D02*
X113000000Y-82250000D01*
X113000000Y-86250000D02*
X113000000Y-88750000D01*
X110000000Y-99250000D02*
X108250000Y-97500000D01*
X116500000Y-99250000D02*
X110000000Y-99250000D01*
X108250000Y-97500000D02*
X108250000Y-96500000D01*
X117500000Y-98250000D02*
X116500000Y-99250000D01*
X105000000Y-99750000D02*
X108250000Y-96500000D01*
X101750000Y-99750000D02*
X105000000Y-99750000D01*
X117500000Y-95750000D02*
X117500000Y-98250000D01*
X90600000Y-82200000D02*
X91400000Y-82200000D01*
X91400000Y-82200000D02*
X91850000Y-81750000D01*
X91850000Y-81750000D02*
X95250000Y-81750000D01*
X90600000Y-82200000D02*
X90600000Y-84200000D01*
X84600000Y-85200000D02*
X82800000Y-85200000D01*
X85400000Y-84400000D02*
X84600000Y-85200000D01*
X90400000Y-84400000D02*
X85400000Y-84400000D01*
X90600000Y-84200000D02*
X90400000Y-84400000D01*
X101250000Y-82750000D02*
X101250000Y-81000000D01*
X95250000Y-81000000D02*
X101250000Y-81000000D01*
X101250000Y-81000000D02*
X102500000Y-81000000D01*
X104430000Y-79070000D02*
X104430000Y-76380000D01*
X102500000Y-81000000D02*
X104430000Y-79070000D01*
X104430000Y-76380000D02*
X104430000Y-75570000D01*
X101800000Y-95400000D02*
X101750000Y-95450000D01*
X87000000Y-93800000D02*
X90400000Y-93800000D01*
X101750000Y-95450000D02*
X101750000Y-95750000D01*
X102750000Y-95750000D02*
X101750000Y-95750000D01*
X104000000Y-94500000D02*
X102750000Y-95750000D01*
X111750000Y-94500000D02*
X104000000Y-94500000D01*
X101750000Y-95750000D02*
X101250000Y-95750000D01*
X86650000Y-93450000D02*
X87000000Y-93800000D01*
X86650000Y-91620000D02*
X86650000Y-93450000D01*
X117000000Y-86750000D02*
X117000000Y-89000000D01*
D35*
X81000000Y-121750000D02*
X82250000Y-121750000D01*
X88640000Y-126640000D02*
X88640000Y-128000000D01*
X87500000Y-125500000D02*
X88640000Y-126640000D01*
X86000000Y-125500000D02*
X87500000Y-125500000D01*
X82250000Y-121750000D02*
X86000000Y-125500000D01*
X88640000Y-127140000D02*
X88640000Y-128000000D01*
X88640000Y-127140000D02*
X88640000Y-128000000D01*
X84000000Y-115500000D02*
X84000000Y-121500000D01*
X88250000Y-124500000D02*
X91180000Y-127430000D01*
X86500000Y-124500000D02*
X88250000Y-124500000D01*
X84000000Y-122000000D02*
X86500000Y-124500000D01*
X84000000Y-121500000D02*
X84000000Y-122000000D01*
X91180000Y-127430000D02*
X91180000Y-128000000D01*
X91180000Y-128000000D02*
X91180000Y-127180000D01*
X87000000Y-121750000D02*
X87250000Y-121750000D01*
X87250000Y-121750000D02*
X91000000Y-125500000D01*
X91000000Y-125500000D02*
X93000000Y-125500000D01*
X93000000Y-125500000D02*
X93720000Y-126220000D01*
X93720000Y-126220000D02*
X93720000Y-128000000D01*
X89750000Y-115500000D02*
X89750000Y-122250000D01*
X96260000Y-126260000D02*
X96260000Y-128000000D01*
X94250000Y-124250000D02*
X96260000Y-126260000D01*
X93250000Y-124250000D02*
X94250000Y-124250000D01*
X91750000Y-124250000D02*
X93250000Y-124250000D01*
X89750000Y-122250000D02*
X91750000Y-124250000D01*
X96260000Y-128000000D02*
X96260000Y-127260000D01*
X92500000Y-121750000D02*
X92750000Y-121750000D01*
X92750000Y-121750000D02*
X94000000Y-123000000D01*
X94000000Y-123000000D02*
X95000000Y-123000000D01*
X95000000Y-123000000D02*
X98800000Y-126800000D01*
X98800000Y-126800000D02*
X98800000Y-128000000D01*
X98500000Y-127700000D02*
X98800000Y-128000000D01*
X98800000Y-127800000D02*
X98800000Y-128000000D01*
X96250000Y-115500000D02*
X97000000Y-115500000D01*
X97000000Y-115500000D02*
X99500000Y-118000000D01*
X99500000Y-118000000D02*
X99500000Y-125000000D01*
X99500000Y-125000000D02*
X100500000Y-126000000D01*
X100500000Y-126000000D02*
X101000000Y-126000000D01*
X101000000Y-126000000D02*
X101340000Y-126340000D01*
X101340000Y-126340000D02*
X101340000Y-128000000D01*
X101250000Y-123250000D02*
X101250000Y-124000000D01*
X101250000Y-124000000D02*
X102250000Y-125000000D01*
X102250000Y-125000000D02*
X103250000Y-125000000D01*
X103250000Y-125000000D02*
X103880000Y-125630000D01*
X103880000Y-125630000D02*
X103880000Y-128000000D01*
D36*
X78000000Y-111500000D02*
X81750000Y-111500000D01*
X86500000Y-111750000D02*
X86500000Y-108800000D01*
X86500000Y-108800000D02*
X86900000Y-108400000D01*
X92500000Y-117750000D02*
X92500000Y-112500000D01*
X92500000Y-112500000D02*
X91500000Y-111500000D01*
X87000000Y-117750000D02*
X87000000Y-112250000D01*
X87000000Y-112250000D02*
X86500000Y-111750000D01*
X86500000Y-111750000D02*
X86250000Y-111500000D01*
X81000000Y-117750000D02*
X81000000Y-112250000D01*
X81000000Y-112250000D02*
X81750000Y-111500000D01*
X81750000Y-111500000D02*
X84000000Y-111500000D01*
X84000000Y-111500000D02*
X86250000Y-111500000D01*
X86250000Y-111500000D02*
X89750000Y-111500000D01*
X89750000Y-111500000D02*
X91500000Y-111500000D01*
X91500000Y-111500000D02*
X96250000Y-111500000D01*
X96250000Y-111500000D02*
X99500000Y-111500000D01*
X99500000Y-111500000D02*
X100250000Y-112250000D01*
X100250000Y-112250000D02*
X100250000Y-117000000D01*
X100250000Y-117000000D02*
X101250000Y-118000000D01*
X101250000Y-118000000D02*
X101250000Y-119250000D01*
D37*
X91700000Y-106750000D02*
X91250000Y-106750000D01*
X91250000Y-106750000D02*
X89600000Y-108400000D01*
X89600000Y-108400000D02*
X86900000Y-108400000D01*
X86500000Y-108000000D02*
X86900000Y-108400000D01*
X88620000Y-103080000D02*
X86420000Y-103080000D01*
X86500000Y-108000000D02*
X86500000Y-108000000D01*
X86000000Y-107500000D02*
X86500000Y-108000000D01*
X86000000Y-103500000D02*
X86000000Y-107500000D01*
X86420000Y-103080000D02*
X86000000Y-103500000D01*
X88620000Y-100540000D02*
X88620000Y-103080000D01*
X88620000Y-103080000D02*
X88540000Y-103000000D01*
M02*
