G04 #@! TF.FileFunction,Legend,Top*
%FSLAX46Y46*%
G04 Gerber Fmt 4.6, Leading zero omitted, Abs format (unit mm)*
G04 Created by KiCad (PCBNEW 4.0.4-stable) date 07/11/19 10:43:22*
%MOMM*%
%LPD*%
G01*
G04 APERTURE LIST*
%ADD10C,0.100000*%
%ADD11C,0.200000*%
%ADD12C,0.300000*%
%ADD13C,0.150000*%
%ADD14C,0.381000*%
%ADD15C,0.120000*%
G04 APERTURE END LIST*
D10*
X93200000Y-107500000D02*
X93200000Y-107600000D01*
X93200000Y-106800000D02*
X93000000Y-106800000D01*
X94000000Y-106800000D02*
X94400000Y-106800000D01*
X94000000Y-107600000D02*
X94000000Y-107500000D01*
X93200000Y-106800000D02*
X94000000Y-107600000D01*
X94000000Y-106000000D02*
X94000000Y-107500000D01*
X93200000Y-106800000D02*
X94000000Y-106000000D01*
X93200000Y-106800000D02*
X93200000Y-107500000D01*
X93200000Y-106800000D02*
X93200000Y-106000000D01*
D11*
X105071429Y-125261905D02*
X105071429Y-124500000D01*
X105452381Y-124880952D02*
X104690476Y-124880952D01*
X105452381Y-123500000D02*
X105452381Y-124071429D01*
X105452381Y-123785715D02*
X104452381Y-123785715D01*
X104595238Y-123880953D01*
X104690476Y-123976191D01*
X104738095Y-124071429D01*
X104547619Y-123119048D02*
X104500000Y-123071429D01*
X104452381Y-122976191D01*
X104452381Y-122738095D01*
X104500000Y-122642857D01*
X104547619Y-122595238D01*
X104642857Y-122547619D01*
X104738095Y-122547619D01*
X104880952Y-122595238D01*
X105452381Y-123166667D01*
X105452381Y-122547619D01*
X104452381Y-122261905D02*
X105452381Y-121928572D01*
X104452381Y-121595238D01*
X114038096Y-123000000D02*
X113942858Y-122952381D01*
X113800001Y-122952381D01*
X113657143Y-123000000D01*
X113561905Y-123095238D01*
X113514286Y-123190476D01*
X113466667Y-123380952D01*
X113466667Y-123523810D01*
X113514286Y-123714286D01*
X113561905Y-123809524D01*
X113657143Y-123904762D01*
X113800001Y-123952381D01*
X113895239Y-123952381D01*
X114038096Y-123904762D01*
X114085715Y-123857143D01*
X114085715Y-123523810D01*
X113895239Y-123523810D01*
X114514286Y-123952381D02*
X114514286Y-122952381D01*
X115085715Y-123952381D01*
X115085715Y-122952381D01*
X115561905Y-123952381D02*
X115561905Y-122952381D01*
X115800000Y-122952381D01*
X115942858Y-123000000D01*
X116038096Y-123095238D01*
X116085715Y-123190476D01*
X116133334Y-123380952D01*
X116133334Y-123523810D01*
X116085715Y-123714286D01*
X116038096Y-123809524D01*
X115942858Y-123904762D01*
X115800000Y-123952381D01*
X115561905Y-123952381D01*
D10*
X104300000Y-116500000D02*
X104300000Y-116800000D01*
X104300000Y-115700000D02*
X104300000Y-115200000D01*
X103500000Y-115700000D02*
X105100000Y-115700000D01*
X104300000Y-115700000D02*
X103500000Y-115700000D01*
X104300000Y-115700000D02*
X103500000Y-116500000D01*
X105100000Y-116500000D02*
X104300000Y-115700000D01*
X105000000Y-116500000D02*
X105100000Y-116500000D01*
X103500000Y-116500000D02*
X105000000Y-116500000D01*
X109250000Y-120500000D02*
X110750000Y-120500000D01*
X110000000Y-121250000D02*
X110000000Y-119750000D01*
X79050000Y-81000000D02*
X79050000Y-80450000D01*
X79050000Y-81000000D02*
X79050000Y-81550000D01*
X79050000Y-81000000D02*
X78650000Y-81000000D01*
X79500000Y-81400000D02*
X79500000Y-81000000D01*
X79100000Y-81000000D02*
X79500000Y-81400000D01*
X79500000Y-80600000D02*
X79100000Y-81000000D01*
X79500000Y-81000000D02*
X79500000Y-80600000D01*
X80000000Y-81000000D02*
X79500000Y-81000000D01*
X96600000Y-100600000D02*
X97400000Y-100600000D01*
X97000000Y-100200000D02*
X97000000Y-101000000D01*
D12*
X97214285Y-79750000D02*
X97928571Y-79750000D01*
X97071428Y-80178571D02*
X97571428Y-78678571D01*
X98071428Y-80178571D01*
X98571428Y-80178571D02*
X98571428Y-79178571D01*
X98571428Y-79464286D02*
X98642856Y-79321429D01*
X98714285Y-79250000D01*
X98857142Y-79178571D01*
X98999999Y-79178571D01*
X100142856Y-80178571D02*
X100142856Y-78678571D01*
X100142856Y-80107143D02*
X99999999Y-80178571D01*
X99714285Y-80178571D01*
X99571427Y-80107143D01*
X99499999Y-80035714D01*
X99428570Y-79892857D01*
X99428570Y-79464286D01*
X99499999Y-79321429D01*
X99571427Y-79250000D01*
X99714285Y-79178571D01*
X99999999Y-79178571D01*
X100142856Y-79250000D01*
X101499999Y-79178571D02*
X101499999Y-80178571D01*
X100857142Y-79178571D02*
X100857142Y-79964286D01*
X100928570Y-80107143D01*
X101071428Y-80178571D01*
X101285713Y-80178571D01*
X101428570Y-80107143D01*
X101499999Y-80035714D01*
X102214285Y-80178571D02*
X102214285Y-79178571D01*
X102214285Y-78678571D02*
X102142856Y-78750000D01*
X102214285Y-78821429D01*
X102285713Y-78750000D01*
X102214285Y-78678571D01*
X102214285Y-78821429D01*
X102928571Y-79178571D02*
X102928571Y-80178571D01*
X102928571Y-79321429D02*
X102999999Y-79250000D01*
X103142857Y-79178571D01*
X103357142Y-79178571D01*
X103499999Y-79250000D01*
X103571428Y-79392857D01*
X103571428Y-80178571D01*
X104500000Y-80178571D02*
X104357142Y-80107143D01*
X104285714Y-80035714D01*
X104214285Y-79892857D01*
X104214285Y-79464286D01*
X104285714Y-79321429D01*
X104357142Y-79250000D01*
X104500000Y-79178571D01*
X104714285Y-79178571D01*
X104857142Y-79250000D01*
X104928571Y-79321429D01*
X105000000Y-79464286D01*
X105000000Y-79892857D01*
X104928571Y-80035714D01*
X104857142Y-80107143D01*
X104714285Y-80178571D01*
X104500000Y-80178571D01*
X106785714Y-80178571D02*
X106785714Y-78678571D01*
X107642857Y-80178571D01*
X107642857Y-78678571D01*
X109000000Y-80178571D02*
X109000000Y-79392857D01*
X108928571Y-79250000D01*
X108785714Y-79178571D01*
X108500000Y-79178571D01*
X108357143Y-79250000D01*
X109000000Y-80107143D02*
X108857143Y-80178571D01*
X108500000Y-80178571D01*
X108357143Y-80107143D01*
X108285714Y-79964286D01*
X108285714Y-79821429D01*
X108357143Y-79678571D01*
X108500000Y-79607143D01*
X108857143Y-79607143D01*
X109000000Y-79535714D01*
X109714286Y-79178571D02*
X109714286Y-80178571D01*
X109714286Y-79321429D02*
X109785714Y-79250000D01*
X109928572Y-79178571D01*
X110142857Y-79178571D01*
X110285714Y-79250000D01*
X110357143Y-79392857D01*
X110357143Y-80178571D01*
X111285715Y-80178571D02*
X111142857Y-80107143D01*
X111071429Y-80035714D01*
X111000000Y-79892857D01*
X111000000Y-79464286D01*
X111071429Y-79321429D01*
X111142857Y-79250000D01*
X111285715Y-79178571D01*
X111500000Y-79178571D01*
X111642857Y-79250000D01*
X111714286Y-79321429D01*
X111785715Y-79464286D01*
X111785715Y-79892857D01*
X111714286Y-80035714D01*
X111642857Y-80107143D01*
X111500000Y-80178571D01*
X111285715Y-80178571D01*
D13*
X71000000Y-94350000D02*
X98800000Y-94350000D01*
X98800000Y-121650000D02*
X98800000Y-94350000D01*
X71000000Y-121750000D02*
X98800000Y-121750000D01*
X71000000Y-121650000D02*
X71000000Y-94350000D01*
D14*
X115860000Y-90350000D02*
X72680000Y-90350000D01*
X72680000Y-90350000D02*
X72680000Y-77650000D01*
X72680000Y-77650000D02*
X115860000Y-77650000D01*
X115860000Y-77650000D02*
X115860000Y-90350000D01*
X115860000Y-82730000D02*
X114590000Y-82730000D01*
X114590000Y-82730000D02*
X114590000Y-85270000D01*
X114590000Y-85270000D02*
X115860000Y-85270000D01*
D15*
X91140000Y-99440000D02*
X98760000Y-99440000D01*
X91140000Y-104560000D02*
X98760000Y-104560000D01*
X91140000Y-99440000D02*
X91140000Y-104560000D01*
X98760000Y-99440000D02*
X98760000Y-104560000D01*
X85810000Y-96610000D02*
G75*
G02X83810000Y-96610000I-1000000J0D01*
G01*
X83810000Y-96610000D02*
X82440000Y-96610000D01*
X82440000Y-96610000D02*
X82440000Y-107010000D01*
X82440000Y-107010000D02*
X87180000Y-107010000D01*
X87180000Y-107010000D02*
X87180000Y-96610000D01*
X87180000Y-96610000D02*
X85810000Y-96610000D01*
X79610000Y-96610000D02*
X79610000Y-107010000D01*
X79610000Y-107010000D02*
X90010000Y-107010000D01*
X90010000Y-107010000D02*
X90010000Y-96610000D01*
X90010000Y-96610000D02*
X79610000Y-96610000D01*
X81270000Y-73390000D02*
X83930000Y-73390000D01*
X83930000Y-73390000D02*
X83930000Y-70610000D01*
X83930000Y-70610000D02*
X81270000Y-70610000D01*
X81270000Y-70610000D02*
X81270000Y-73390000D01*
X80000000Y-73390000D02*
X78610000Y-73390000D01*
X78610000Y-73390000D02*
X78610000Y-72000000D01*
X108730000Y-70610000D02*
X106070000Y-70610000D01*
X106070000Y-70610000D02*
X106070000Y-73390000D01*
X106070000Y-73390000D02*
X108730000Y-73390000D01*
X108730000Y-73390000D02*
X108730000Y-70610000D01*
X110000000Y-70610000D02*
X111390000Y-70610000D01*
X111390000Y-70610000D02*
X111390000Y-72000000D01*
X87370000Y-129390000D02*
X105270000Y-129390000D01*
X105270000Y-129390000D02*
X105270000Y-126610000D01*
X105270000Y-126610000D02*
X87370000Y-126610000D01*
X87370000Y-126610000D02*
X87370000Y-129390000D01*
X86100000Y-129390000D02*
X84710000Y-129390000D01*
X84710000Y-129390000D02*
X84710000Y-128000000D01*
X77980000Y-103250000D02*
X77980000Y-101250000D01*
X75020000Y-101250000D02*
X75020000Y-103250000D01*
X105900000Y-111600000D02*
X102600000Y-111600000D01*
X102600000Y-111600000D02*
X102600000Y-118500000D01*
X105900000Y-111600000D02*
X105900000Y-118500000D01*
X115520000Y-83750000D02*
X115520000Y-85750000D01*
X118480000Y-85750000D02*
X118480000Y-83750000D01*
X99750000Y-88980000D02*
X101750000Y-88980000D01*
X101750000Y-86020000D02*
X99750000Y-86020000D01*
X107540000Y-113050000D02*
X107540000Y-115940000D01*
X107540000Y-121950000D02*
X107540000Y-119060000D01*
X117960000Y-122710000D02*
X117960000Y-119060000D01*
X117960000Y-112290000D02*
X117960000Y-115940000D01*
X117960000Y-122710000D02*
X108300000Y-122710000D01*
X108300000Y-122710000D02*
X107540000Y-121950000D01*
X107540000Y-113050000D02*
X108300000Y-112290000D01*
X108300000Y-112290000D02*
X117960000Y-112290000D01*
X93770000Y-82750000D02*
X93770000Y-84750000D01*
X96730000Y-84750000D02*
X96730000Y-82750000D01*
X102830000Y-82990000D02*
X101900000Y-82990000D01*
X99670000Y-82990000D02*
X100600000Y-82990000D01*
X99670000Y-82990000D02*
X99670000Y-85150000D01*
X102830000Y-82990000D02*
X102830000Y-84450000D01*
X77230000Y-123480000D02*
X77230000Y-129480000D01*
X77230000Y-129480000D02*
X82510000Y-129480000D01*
X82510000Y-129480000D02*
X82510000Y-123480000D01*
X82510000Y-123480000D02*
X77230000Y-123480000D01*
X78600000Y-129480000D02*
X78600000Y-128480000D01*
X78600000Y-128480000D02*
X81140000Y-128480000D01*
X81140000Y-128480000D02*
X81140000Y-129480000D01*
X78600000Y-128480000D02*
X78850000Y-128050000D01*
X78850000Y-128050000D02*
X80890000Y-128050000D01*
X80890000Y-128050000D02*
X81140000Y-128480000D01*
X78850000Y-129480000D02*
X78850000Y-128480000D01*
X80890000Y-129480000D02*
X80890000Y-128480000D01*
X77800000Y-123480000D02*
X77800000Y-124100000D01*
X77800000Y-124100000D02*
X79400000Y-124100000D01*
X79400000Y-124100000D02*
X79400000Y-123480000D01*
X80340000Y-123480000D02*
X80340000Y-124100000D01*
X80340000Y-124100000D02*
X81940000Y-124100000D01*
X81940000Y-124100000D02*
X81940000Y-123480000D01*
X89200000Y-71130000D02*
X91200000Y-71130000D01*
X91200000Y-73270000D02*
X89200000Y-73270000D01*
X89600000Y-83270000D02*
X87600000Y-83270000D01*
X87600000Y-81130000D02*
X89600000Y-81130000D01*
X79800000Y-84130000D02*
X81800000Y-84130000D01*
X81800000Y-86270000D02*
X79800000Y-86270000D01*
X112000000Y-83270000D02*
X110000000Y-83270000D01*
X110000000Y-81130000D02*
X112000000Y-81130000D01*
X111800000Y-87270000D02*
X109800000Y-87270000D01*
X109800000Y-85130000D02*
X111800000Y-85130000D01*
X100730000Y-98600000D02*
X100730000Y-96600000D01*
X102870000Y-96600000D02*
X102870000Y-98600000D01*
X118470000Y-92800000D02*
X118470000Y-94800000D01*
X116330000Y-94800000D02*
X116330000Y-92800000D01*
D11*
X115350000Y-98850000D02*
G75*
G03X115350000Y-98850000I-500000J0D01*
G01*
X107150000Y-98850000D02*
G75*
G03X107150000Y-98850000I-500000J0D01*
G01*
X107150000Y-109050000D02*
G75*
G03X107150000Y-109050000I-500000J0D01*
G01*
X115350000Y-109050000D02*
G75*
G03X115350000Y-109050000I-500000J0D01*
G01*
X116950000Y-98200000D02*
X116950000Y-109800000D01*
X104550000Y-109800000D02*
X104550000Y-98200000D01*
X116150000Y-110600000D02*
X105350000Y-110600000D01*
X116150000Y-97400000D02*
X105350000Y-97400000D01*
X116150000Y-110600000D02*
G75*
G03X116950000Y-109800000I0J800000D01*
G01*
X116950000Y-98200000D02*
G75*
G03X116150000Y-97400000I-800000J0D01*
G01*
X105350000Y-97400000D02*
G75*
G03X104550000Y-98200000I0J-800000D01*
G01*
X104550000Y-109800000D02*
G75*
G03X105350000Y-110600000I800000J0D01*
G01*
X113350000Y-105500000D02*
X108150000Y-105500000D01*
X113750000Y-104000000D02*
G75*
G03X113750000Y-104000000I-3000000J0D01*
G01*
D15*
X77150000Y-80000000D02*
X77150000Y-82000000D01*
X77150000Y-82000000D02*
X81050000Y-82000000D01*
X77150000Y-80000000D02*
X81050000Y-80000000D01*
D13*
X106100000Y-130700000D02*
X113100000Y-130700000D01*
X113100000Y-123300000D02*
X106100000Y-123300000D01*
X113100000Y-123300000D02*
X113100000Y-130700000D01*
X106100000Y-130700000D02*
X106100000Y-123300000D01*
D15*
X90300000Y-105100000D02*
X90300000Y-108400000D01*
X90300000Y-108400000D02*
X95700000Y-108400000D01*
X90300000Y-105100000D02*
X95700000Y-105100000D01*
X98300000Y-71130000D02*
X100300000Y-71130000D01*
X100300000Y-73270000D02*
X98300000Y-73270000D01*
X76930000Y-114500000D02*
X76930000Y-112500000D01*
X79070000Y-112500000D02*
X79070000Y-114500000D01*
X79930000Y-120750000D02*
X79930000Y-118750000D01*
X82070000Y-118750000D02*
X82070000Y-120750000D01*
X82930000Y-114500000D02*
X82930000Y-112500000D01*
X85070000Y-112500000D02*
X85070000Y-114500000D01*
X85930000Y-120750000D02*
X85930000Y-118750000D01*
X88070000Y-118750000D02*
X88070000Y-120750000D01*
X88680000Y-114500000D02*
X88680000Y-112500000D01*
X90820000Y-112500000D02*
X90820000Y-114500000D01*
X91430000Y-120750000D02*
X91430000Y-118750000D01*
X93570000Y-118750000D02*
X93570000Y-120750000D01*
X95180000Y-114500000D02*
X95180000Y-112500000D01*
X97320000Y-112500000D02*
X97320000Y-114500000D01*
X100180000Y-122250000D02*
X100180000Y-120250000D01*
X102320000Y-120250000D02*
X102320000Y-122250000D01*
D13*
X72452381Y-99988095D02*
X71452381Y-99988095D01*
X71452381Y-99607142D01*
X71500000Y-99511904D01*
X71547619Y-99464285D01*
X71642857Y-99416666D01*
X71785714Y-99416666D01*
X71880952Y-99464285D01*
X71928571Y-99511904D01*
X71976190Y-99607142D01*
X71976190Y-99988095D01*
X71452381Y-98559523D02*
X71452381Y-98750000D01*
X71500000Y-98845238D01*
X71547619Y-98892857D01*
X71690476Y-98988095D01*
X71880952Y-99035714D01*
X72261905Y-99035714D01*
X72357143Y-98988095D01*
X72404762Y-98940476D01*
X72452381Y-98845238D01*
X72452381Y-98654761D01*
X72404762Y-98559523D01*
X72357143Y-98511904D01*
X72261905Y-98464285D01*
X72023810Y-98464285D01*
X71928571Y-98511904D01*
X71880952Y-98559523D01*
X71833333Y-98654761D01*
X71833333Y-98845238D01*
X71880952Y-98940476D01*
X71928571Y-98988095D01*
X72023810Y-99035714D01*
X71285714Y-102654762D02*
X71428571Y-102702381D01*
X71666667Y-102702381D01*
X71761905Y-102654762D01*
X71809524Y-102607143D01*
X71857143Y-102511905D01*
X71857143Y-102416667D01*
X71809524Y-102321429D01*
X71761905Y-102273810D01*
X71666667Y-102226190D01*
X71476190Y-102178571D01*
X71380952Y-102130952D01*
X71333333Y-102083333D01*
X71285714Y-101988095D01*
X71285714Y-101892857D01*
X71333333Y-101797619D01*
X71380952Y-101750000D01*
X71476190Y-101702381D01*
X71714286Y-101702381D01*
X71857143Y-101750000D01*
X72285714Y-102702381D02*
X72285714Y-101702381D01*
X72523809Y-101702381D01*
X72666667Y-101750000D01*
X72761905Y-101845238D01*
X72809524Y-101940476D01*
X72857143Y-102130952D01*
X72857143Y-102273810D01*
X72809524Y-102464286D01*
X72761905Y-102559524D01*
X72666667Y-102654762D01*
X72523809Y-102702381D01*
X72285714Y-102702381D01*
X73238095Y-102416667D02*
X73714286Y-102416667D01*
X73142857Y-102702381D02*
X73476190Y-101702381D01*
X73809524Y-102702381D01*
X73809524Y-107154762D02*
X73952381Y-107202381D01*
X74190477Y-107202381D01*
X74285715Y-107154762D01*
X74333334Y-107107143D01*
X74380953Y-107011905D01*
X74380953Y-106916667D01*
X74333334Y-106821429D01*
X74285715Y-106773810D01*
X74190477Y-106726190D01*
X74000000Y-106678571D01*
X73904762Y-106630952D01*
X73857143Y-106583333D01*
X73809524Y-106488095D01*
X73809524Y-106392857D01*
X73857143Y-106297619D01*
X73904762Y-106250000D01*
X74000000Y-106202381D01*
X74238096Y-106202381D01*
X74380953Y-106250000D01*
X75380953Y-107107143D02*
X75333334Y-107154762D01*
X75190477Y-107202381D01*
X75095239Y-107202381D01*
X74952381Y-107154762D01*
X74857143Y-107059524D01*
X74809524Y-106964286D01*
X74761905Y-106773810D01*
X74761905Y-106630952D01*
X74809524Y-106440476D01*
X74857143Y-106345238D01*
X74952381Y-106250000D01*
X75095239Y-106202381D01*
X75190477Y-106202381D01*
X75333334Y-106250000D01*
X75380953Y-106297619D01*
X76285715Y-107202381D02*
X75809524Y-107202381D01*
X75809524Y-106202381D01*
X74238096Y-111250000D02*
X74142858Y-111202381D01*
X74000001Y-111202381D01*
X73857143Y-111250000D01*
X73761905Y-111345238D01*
X73714286Y-111440476D01*
X73666667Y-111630952D01*
X73666667Y-111773810D01*
X73714286Y-111964286D01*
X73761905Y-112059524D01*
X73857143Y-112154762D01*
X74000001Y-112202381D01*
X74095239Y-112202381D01*
X74238096Y-112154762D01*
X74285715Y-112107143D01*
X74285715Y-111773810D01*
X74095239Y-111773810D01*
X74714286Y-112202381D02*
X74714286Y-111202381D01*
X75285715Y-112202381D01*
X75285715Y-111202381D01*
X75761905Y-112202381D02*
X75761905Y-111202381D01*
X76000000Y-111202381D01*
X76142858Y-111250000D01*
X76238096Y-111345238D01*
X76285715Y-111440476D01*
X76333334Y-111630952D01*
X76333334Y-111773810D01*
X76285715Y-111964286D01*
X76238096Y-112059524D01*
X76142858Y-112154762D01*
X76000000Y-112202381D01*
X75761905Y-112202381D01*
X73666667Y-108702381D02*
X74000000Y-109702381D01*
X74333334Y-108702381D01*
X75238096Y-109607143D02*
X75190477Y-109654762D01*
X75047620Y-109702381D01*
X74952382Y-109702381D01*
X74809524Y-109654762D01*
X74714286Y-109559524D01*
X74666667Y-109464286D01*
X74619048Y-109273810D01*
X74619048Y-109130952D01*
X74666667Y-108940476D01*
X74714286Y-108845238D01*
X74809524Y-108750000D01*
X74952382Y-108702381D01*
X75047620Y-108702381D01*
X75190477Y-108750000D01*
X75238096Y-108797619D01*
X76238096Y-109607143D02*
X76190477Y-109654762D01*
X76047620Y-109702381D01*
X75952382Y-109702381D01*
X75809524Y-109654762D01*
X75714286Y-109559524D01*
X75666667Y-109464286D01*
X75619048Y-109273810D01*
X75619048Y-109130952D01*
X75666667Y-108940476D01*
X75714286Y-108845238D01*
X75809524Y-108750000D01*
X75952382Y-108702381D01*
X76047620Y-108702381D01*
X76190477Y-108750000D01*
X76238096Y-108797619D01*
X95033334Y-98957143D02*
X94985715Y-99004762D01*
X94842858Y-99052381D01*
X94747620Y-99052381D01*
X94604762Y-99004762D01*
X94509524Y-98909524D01*
X94461905Y-98814286D01*
X94414286Y-98623810D01*
X94414286Y-98480952D01*
X94461905Y-98290476D01*
X94509524Y-98195238D01*
X94604762Y-98100000D01*
X94747620Y-98052381D01*
X94842858Y-98052381D01*
X94985715Y-98100000D01*
X95033334Y-98147619D01*
X95414286Y-98147619D02*
X95461905Y-98100000D01*
X95557143Y-98052381D01*
X95795239Y-98052381D01*
X95890477Y-98100000D01*
X95938096Y-98147619D01*
X95985715Y-98242857D01*
X95985715Y-98338095D01*
X95938096Y-98480952D01*
X95366667Y-99052381D01*
X95985715Y-99052381D01*
X91733334Y-99052381D02*
X91161905Y-99052381D01*
X91447619Y-99052381D02*
X91447619Y-98052381D01*
X91352381Y-98195238D01*
X91257143Y-98290476D01*
X91161905Y-98338095D01*
X92161905Y-98385714D02*
X92161905Y-99385714D01*
X92638096Y-98909524D02*
X92685715Y-99004762D01*
X92780953Y-99052381D01*
X92161905Y-98909524D02*
X92209524Y-99004762D01*
X92304762Y-99052381D01*
X92495239Y-99052381D01*
X92590477Y-99004762D01*
X92638096Y-98909524D01*
X92638096Y-98385714D01*
X93542858Y-98528571D02*
X93209524Y-98528571D01*
X93209524Y-99052381D02*
X93209524Y-98052381D01*
X93685715Y-98052381D01*
X84071905Y-96062381D02*
X84071905Y-95062381D01*
X84452858Y-95062381D01*
X84548096Y-95110000D01*
X84595715Y-95157619D01*
X84643334Y-95252857D01*
X84643334Y-95395714D01*
X84595715Y-95490952D01*
X84548096Y-95538571D01*
X84452858Y-95586190D01*
X84071905Y-95586190D01*
X85595715Y-96062381D02*
X85024286Y-96062381D01*
X85310000Y-96062381D02*
X85310000Y-95062381D01*
X85214762Y-95205238D01*
X85119524Y-95300476D01*
X85024286Y-95348095D01*
X81571905Y-108462381D02*
X81571905Y-107462381D01*
X81905239Y-108176667D01*
X82238572Y-107462381D01*
X82238572Y-108462381D01*
X83286191Y-108367143D02*
X83238572Y-108414762D01*
X83095715Y-108462381D01*
X83000477Y-108462381D01*
X82857619Y-108414762D01*
X82762381Y-108319524D01*
X82714762Y-108224286D01*
X82667143Y-108033810D01*
X82667143Y-107890952D01*
X82714762Y-107700476D01*
X82762381Y-107605238D01*
X82857619Y-107510000D01*
X83000477Y-107462381D01*
X83095715Y-107462381D01*
X83238572Y-107510000D01*
X83286191Y-107557619D01*
X83714762Y-108462381D02*
X83714762Y-107462381D01*
X84095715Y-107462381D01*
X84190953Y-107510000D01*
X84238572Y-107557619D01*
X84286191Y-107652857D01*
X84286191Y-107795714D01*
X84238572Y-107890952D01*
X84190953Y-107938571D01*
X84095715Y-107986190D01*
X83714762Y-107986190D01*
X85238572Y-108462381D02*
X84667143Y-108462381D01*
X84952857Y-108462381D02*
X84952857Y-107462381D01*
X84857619Y-107605238D01*
X84762381Y-107700476D01*
X84667143Y-107748095D01*
X86095715Y-107795714D02*
X86095715Y-108462381D01*
X85857619Y-107414762D02*
X85619524Y-108129048D01*
X86238572Y-108129048D01*
X86810000Y-107462381D02*
X86905239Y-107462381D01*
X87000477Y-107510000D01*
X87048096Y-107557619D01*
X87095715Y-107652857D01*
X87143334Y-107843333D01*
X87143334Y-108081429D01*
X87095715Y-108271905D01*
X87048096Y-108367143D01*
X87000477Y-108414762D01*
X86905239Y-108462381D01*
X86810000Y-108462381D01*
X86714762Y-108414762D01*
X86667143Y-108367143D01*
X86619524Y-108271905D01*
X86571905Y-108081429D01*
X86571905Y-107843333D01*
X86619524Y-107652857D01*
X86667143Y-107557619D01*
X86714762Y-107510000D01*
X86810000Y-107462381D01*
X87476667Y-107462381D02*
X88143334Y-107462381D01*
X87714762Y-108462381D01*
X78062381Y-72738095D02*
X77062381Y-72738095D01*
X77062381Y-72357142D01*
X77110000Y-72261904D01*
X77157619Y-72214285D01*
X77252857Y-72166666D01*
X77395714Y-72166666D01*
X77490952Y-72214285D01*
X77538571Y-72261904D01*
X77586190Y-72357142D01*
X77586190Y-72738095D01*
X77157619Y-71785714D02*
X77110000Y-71738095D01*
X77062381Y-71642857D01*
X77062381Y-71404761D01*
X77110000Y-71309523D01*
X77157619Y-71261904D01*
X77252857Y-71214285D01*
X77348095Y-71214285D01*
X77490952Y-71261904D01*
X78062381Y-71833333D01*
X78062381Y-71214285D01*
X78773810Y-73500000D02*
X78678572Y-73452381D01*
X78535715Y-73452381D01*
X78392857Y-73500000D01*
X78297619Y-73595238D01*
X78250000Y-73690476D01*
X78202381Y-73880952D01*
X78202381Y-74023810D01*
X78250000Y-74214286D01*
X78297619Y-74309524D01*
X78392857Y-74404762D01*
X78535715Y-74452381D01*
X78630953Y-74452381D01*
X78773810Y-74404762D01*
X78821429Y-74357143D01*
X78821429Y-74023810D01*
X78630953Y-74023810D01*
X79250000Y-74452381D02*
X79250000Y-73452381D01*
X79821429Y-74452381D01*
X79821429Y-73452381D01*
X80297619Y-74452381D02*
X80297619Y-73452381D01*
X80535714Y-73452381D01*
X80678572Y-73500000D01*
X80773810Y-73595238D01*
X80821429Y-73690476D01*
X80869048Y-73880952D01*
X80869048Y-74023810D01*
X80821429Y-74214286D01*
X80773810Y-74309524D01*
X80678572Y-74404762D01*
X80535714Y-74452381D01*
X80297619Y-74452381D01*
X81059524Y-74547619D02*
X81821429Y-74547619D01*
X82488096Y-74404762D02*
X82392858Y-74452381D01*
X82202381Y-74452381D01*
X82107143Y-74404762D01*
X82059524Y-74357143D01*
X82011905Y-74261905D01*
X82011905Y-73976190D01*
X82059524Y-73880952D01*
X82107143Y-73833333D01*
X82202381Y-73785714D01*
X82392858Y-73785714D01*
X82488096Y-73833333D01*
X83059524Y-74452381D02*
X82964286Y-74404762D01*
X82916667Y-74357143D01*
X82869048Y-74261905D01*
X82869048Y-73976190D01*
X82916667Y-73880952D01*
X82964286Y-73833333D01*
X83059524Y-73785714D01*
X83202382Y-73785714D01*
X83297620Y-73833333D01*
X83345239Y-73880952D01*
X83392858Y-73976190D01*
X83392858Y-74261905D01*
X83345239Y-74357143D01*
X83297620Y-74404762D01*
X83202382Y-74452381D01*
X83059524Y-74452381D01*
X83821429Y-73785714D02*
X83821429Y-74452381D01*
X83821429Y-73880952D02*
X83869048Y-73833333D01*
X83964286Y-73785714D01*
X84107144Y-73785714D01*
X84202382Y-73833333D01*
X84250001Y-73928571D01*
X84250001Y-74452381D01*
X112842381Y-72738095D02*
X111842381Y-72738095D01*
X111842381Y-72357142D01*
X111890000Y-72261904D01*
X111937619Y-72214285D01*
X112032857Y-72166666D01*
X112175714Y-72166666D01*
X112270952Y-72214285D01*
X112318571Y-72261904D01*
X112366190Y-72357142D01*
X112366190Y-72738095D01*
X111842381Y-71833333D02*
X111842381Y-71214285D01*
X112223333Y-71547619D01*
X112223333Y-71404761D01*
X112270952Y-71309523D01*
X112318571Y-71261904D01*
X112413810Y-71214285D01*
X112651905Y-71214285D01*
X112747143Y-71261904D01*
X112794762Y-71309523D01*
X112842381Y-71404761D01*
X112842381Y-71690476D01*
X112794762Y-71785714D01*
X112747143Y-71833333D01*
X105273809Y-74166667D02*
X105750000Y-74166667D01*
X105178571Y-74452381D02*
X105511904Y-73452381D01*
X105845238Y-74452381D01*
X106607143Y-73785714D02*
X106607143Y-74452381D01*
X106178571Y-73785714D02*
X106178571Y-74309524D01*
X106226190Y-74404762D01*
X106321428Y-74452381D01*
X106464286Y-74452381D01*
X106559524Y-74404762D01*
X106607143Y-74357143D01*
X106940476Y-73785714D02*
X107321428Y-73785714D01*
X107083333Y-73452381D02*
X107083333Y-74309524D01*
X107130952Y-74404762D01*
X107226190Y-74452381D01*
X107321428Y-74452381D01*
X107797619Y-74452381D02*
X107702381Y-74404762D01*
X107654762Y-74357143D01*
X107607143Y-74261905D01*
X107607143Y-73976190D01*
X107654762Y-73880952D01*
X107702381Y-73833333D01*
X107797619Y-73785714D01*
X107940477Y-73785714D01*
X108035715Y-73833333D01*
X108083334Y-73880952D01*
X108130953Y-73976190D01*
X108130953Y-74261905D01*
X108083334Y-74357143D01*
X108035715Y-74404762D01*
X107940477Y-74452381D01*
X107797619Y-74452381D01*
X108559524Y-74452381D02*
X108559524Y-73452381D01*
X108940477Y-73452381D01*
X109035715Y-73500000D01*
X109083334Y-73547619D01*
X109130953Y-73642857D01*
X109130953Y-73785714D01*
X109083334Y-73880952D01*
X109035715Y-73928571D01*
X108940477Y-73976190D01*
X108559524Y-73976190D01*
X109988096Y-73785714D02*
X109988096Y-74452381D01*
X109559524Y-73785714D02*
X109559524Y-74309524D01*
X109607143Y-74404762D01*
X109702381Y-74452381D01*
X109845239Y-74452381D01*
X109940477Y-74404762D01*
X109988096Y-74357143D01*
X110607143Y-74452381D02*
X110511905Y-74404762D01*
X110464286Y-74309524D01*
X110464286Y-73452381D01*
X110940477Y-74404762D02*
X111035715Y-74452381D01*
X111226191Y-74452381D01*
X111321430Y-74404762D01*
X111369049Y-74309524D01*
X111369049Y-74261905D01*
X111321430Y-74166667D01*
X111226191Y-74119048D01*
X111083334Y-74119048D01*
X110988096Y-74071429D01*
X110940477Y-73976190D01*
X110940477Y-73928571D01*
X110988096Y-73833333D01*
X111083334Y-73785714D01*
X111226191Y-73785714D01*
X111321430Y-73833333D01*
X112178573Y-74404762D02*
X112083335Y-74452381D01*
X111892858Y-74452381D01*
X111797620Y-74404762D01*
X111750001Y-74309524D01*
X111750001Y-73928571D01*
X111797620Y-73833333D01*
X111892858Y-73785714D01*
X112083335Y-73785714D01*
X112178573Y-73833333D01*
X112226192Y-73928571D01*
X112226192Y-74023810D01*
X111750001Y-74119048D01*
X86266666Y-125952381D02*
X86266666Y-124952381D01*
X86600000Y-125666667D01*
X86933333Y-124952381D01*
X86933333Y-125952381D01*
X87552380Y-125952381D02*
X87457142Y-125904762D01*
X87409523Y-125857143D01*
X87361904Y-125761905D01*
X87361904Y-125476190D01*
X87409523Y-125380952D01*
X87457142Y-125333333D01*
X87552380Y-125285714D01*
X87695238Y-125285714D01*
X87790476Y-125333333D01*
X87838095Y-125380952D01*
X87885714Y-125476190D01*
X87885714Y-125761905D01*
X87838095Y-125857143D01*
X87790476Y-125904762D01*
X87695238Y-125952381D01*
X87552380Y-125952381D01*
X88266666Y-125904762D02*
X88361904Y-125952381D01*
X88552380Y-125952381D01*
X88647619Y-125904762D01*
X88695238Y-125809524D01*
X88695238Y-125761905D01*
X88647619Y-125666667D01*
X88552380Y-125619048D01*
X88409523Y-125619048D01*
X88314285Y-125571429D01*
X88266666Y-125476190D01*
X88266666Y-125428571D01*
X88314285Y-125333333D01*
X88409523Y-125285714D01*
X88552380Y-125285714D01*
X88647619Y-125333333D01*
X88980952Y-125285714D02*
X89361904Y-125285714D01*
X89123809Y-125952381D02*
X89123809Y-125095238D01*
X89171428Y-125000000D01*
X89266666Y-124952381D01*
X89361904Y-124952381D01*
X90076191Y-125904762D02*
X89980953Y-125952381D01*
X89790476Y-125952381D01*
X89695238Y-125904762D01*
X89647619Y-125809524D01*
X89647619Y-125428571D01*
X89695238Y-125333333D01*
X89790476Y-125285714D01*
X89980953Y-125285714D01*
X90076191Y-125333333D01*
X90123810Y-125428571D01*
X90123810Y-125523810D01*
X89647619Y-125619048D01*
X90409524Y-125285714D02*
X90790476Y-125285714D01*
X90552381Y-124952381D02*
X90552381Y-125809524D01*
X90600000Y-125904762D01*
X90695238Y-125952381D01*
X90790476Y-125952381D01*
X90885715Y-126047619D02*
X91647620Y-126047619D01*
X92457144Y-125857143D02*
X92409525Y-125904762D01*
X92266668Y-125952381D01*
X92171430Y-125952381D01*
X92028572Y-125904762D01*
X91933334Y-125809524D01*
X91885715Y-125714286D01*
X91838096Y-125523810D01*
X91838096Y-125380952D01*
X91885715Y-125190476D01*
X91933334Y-125095238D01*
X92028572Y-125000000D01*
X92171430Y-124952381D01*
X92266668Y-124952381D01*
X92409525Y-125000000D01*
X92457144Y-125047619D01*
X92742858Y-124952381D02*
X93314287Y-124952381D01*
X93028572Y-125952381D02*
X93028572Y-124952381D01*
X94219049Y-125952381D02*
X93885715Y-125476190D01*
X93647620Y-125952381D02*
X93647620Y-124952381D01*
X94028573Y-124952381D01*
X94123811Y-125000000D01*
X94171430Y-125047619D01*
X94219049Y-125142857D01*
X94219049Y-125285714D01*
X94171430Y-125380952D01*
X94123811Y-125428571D01*
X94028573Y-125476190D01*
X93647620Y-125476190D01*
X95123811Y-125952381D02*
X94647620Y-125952381D01*
X94647620Y-124952381D01*
X95980954Y-125952381D02*
X95409525Y-125952381D01*
X95695239Y-125952381D02*
X95695239Y-124952381D01*
X95600001Y-125095238D01*
X95504763Y-125190476D01*
X95409525Y-125238095D01*
X79107143Y-104666666D02*
X79154762Y-104714285D01*
X79202381Y-104857142D01*
X79202381Y-104952380D01*
X79154762Y-105095238D01*
X79059524Y-105190476D01*
X78964286Y-105238095D01*
X78773810Y-105285714D01*
X78630952Y-105285714D01*
X78440476Y-105238095D01*
X78345238Y-105190476D01*
X78250000Y-105095238D01*
X78202381Y-104952380D01*
X78202381Y-104857142D01*
X78250000Y-104714285D01*
X78297619Y-104666666D01*
X79202381Y-103714285D02*
X79202381Y-104285714D01*
X79202381Y-104000000D02*
X78202381Y-104000000D01*
X78345238Y-104095238D01*
X78440476Y-104190476D01*
X78488095Y-104285714D01*
X79202381Y-101821428D02*
X79202381Y-102392857D01*
X79202381Y-102107143D02*
X78202381Y-102107143D01*
X78345238Y-102202381D01*
X78440476Y-102297619D01*
X78488095Y-102392857D01*
X78202381Y-101202381D02*
X78202381Y-101107142D01*
X78250000Y-101011904D01*
X78297619Y-100964285D01*
X78392857Y-100916666D01*
X78583333Y-100869047D01*
X78821429Y-100869047D01*
X79011905Y-100916666D01*
X79107143Y-100964285D01*
X79154762Y-101011904D01*
X79202381Y-101107142D01*
X79202381Y-101202381D01*
X79154762Y-101297619D01*
X79107143Y-101345238D01*
X79011905Y-101392857D01*
X78821429Y-101440476D01*
X78583333Y-101440476D01*
X78392857Y-101392857D01*
X78297619Y-101345238D01*
X78250000Y-101297619D01*
X78202381Y-101202381D01*
X78535714Y-100440476D02*
X79202381Y-100440476D01*
X78630952Y-100440476D02*
X78583333Y-100392857D01*
X78535714Y-100297619D01*
X78535714Y-100154761D01*
X78583333Y-100059523D01*
X78678571Y-100011904D01*
X79202381Y-100011904D01*
X78678571Y-99202380D02*
X78678571Y-99535714D01*
X79202381Y-99535714D02*
X78202381Y-99535714D01*
X78202381Y-99059523D01*
X102202381Y-115488095D02*
X101202381Y-115488095D01*
X101202381Y-115250000D01*
X101250000Y-115107142D01*
X101345238Y-115011904D01*
X101440476Y-114964285D01*
X101630952Y-114916666D01*
X101773810Y-114916666D01*
X101964286Y-114964285D01*
X102059524Y-115011904D01*
X102154762Y-115107142D01*
X102202381Y-115250000D01*
X102202381Y-115488095D01*
X102202381Y-113964285D02*
X102202381Y-114535714D01*
X102202381Y-114250000D02*
X101202381Y-114250000D01*
X101345238Y-114345238D01*
X101440476Y-114440476D01*
X101488095Y-114535714D01*
X102202381Y-112261905D02*
X101202381Y-112261905D01*
X101202381Y-112023810D01*
X101250000Y-111880952D01*
X101345238Y-111785714D01*
X101440476Y-111738095D01*
X101630952Y-111690476D01*
X101773810Y-111690476D01*
X101964286Y-111738095D01*
X102059524Y-111785714D01*
X102154762Y-111880952D01*
X102202381Y-112023810D01*
X102202381Y-112261905D01*
X115357143Y-86666666D02*
X115404762Y-86714285D01*
X115452381Y-86857142D01*
X115452381Y-86952380D01*
X115404762Y-87095238D01*
X115309524Y-87190476D01*
X115214286Y-87238095D01*
X115023810Y-87285714D01*
X114880952Y-87285714D01*
X114690476Y-87238095D01*
X114595238Y-87190476D01*
X114500000Y-87095238D01*
X114452381Y-86952380D01*
X114452381Y-86857142D01*
X114500000Y-86714285D01*
X114547619Y-86666666D01*
X114452381Y-86333333D02*
X114452381Y-85714285D01*
X114833333Y-86047619D01*
X114833333Y-85904761D01*
X114880952Y-85809523D01*
X114928571Y-85761904D01*
X115023810Y-85714285D01*
X115261905Y-85714285D01*
X115357143Y-85761904D01*
X115404762Y-85809523D01*
X115452381Y-85904761D01*
X115452381Y-86190476D01*
X115404762Y-86285714D01*
X115357143Y-86333333D01*
X115452381Y-81571428D02*
X115452381Y-82142857D01*
X115452381Y-81857143D02*
X114452381Y-81857143D01*
X114595238Y-81952381D01*
X114690476Y-82047619D01*
X114738095Y-82142857D01*
X114452381Y-80952381D02*
X114452381Y-80857142D01*
X114500000Y-80761904D01*
X114547619Y-80714285D01*
X114642857Y-80666666D01*
X114833333Y-80619047D01*
X115071429Y-80619047D01*
X115261905Y-80666666D01*
X115357143Y-80714285D01*
X115404762Y-80761904D01*
X115452381Y-80857142D01*
X115452381Y-80952381D01*
X115404762Y-81047619D01*
X115357143Y-81095238D01*
X115261905Y-81142857D01*
X115071429Y-81190476D01*
X114833333Y-81190476D01*
X114642857Y-81142857D01*
X114547619Y-81095238D01*
X114500000Y-81047619D01*
X114452381Y-80952381D01*
X114785714Y-80190476D02*
X115452381Y-80190476D01*
X114880952Y-80190476D02*
X114833333Y-80142857D01*
X114785714Y-80047619D01*
X114785714Y-79904761D01*
X114833333Y-79809523D01*
X114928571Y-79761904D01*
X115452381Y-79761904D01*
X114928571Y-78952380D02*
X114928571Y-79285714D01*
X115452381Y-79285714D02*
X114452381Y-79285714D01*
X114452381Y-78809523D01*
X98083334Y-89857143D02*
X98035715Y-89904762D01*
X97892858Y-89952381D01*
X97797620Y-89952381D01*
X97654762Y-89904762D01*
X97559524Y-89809524D01*
X97511905Y-89714286D01*
X97464286Y-89523810D01*
X97464286Y-89380952D01*
X97511905Y-89190476D01*
X97559524Y-89095238D01*
X97654762Y-89000000D01*
X97797620Y-88952381D01*
X97892858Y-88952381D01*
X98035715Y-89000000D01*
X98083334Y-89047619D01*
X98940477Y-89285714D02*
X98940477Y-89952381D01*
X98702381Y-88904762D02*
X98464286Y-89619048D01*
X99083334Y-89619048D01*
X100928572Y-89952381D02*
X100357143Y-89952381D01*
X100642857Y-89952381D02*
X100642857Y-88952381D01*
X100547619Y-89095238D01*
X100452381Y-89190476D01*
X100357143Y-89238095D01*
X101547619Y-88952381D02*
X101642858Y-88952381D01*
X101738096Y-89000000D01*
X101785715Y-89047619D01*
X101833334Y-89142857D01*
X101880953Y-89333333D01*
X101880953Y-89571429D01*
X101833334Y-89761905D01*
X101785715Y-89857143D01*
X101738096Y-89904762D01*
X101642858Y-89952381D01*
X101547619Y-89952381D01*
X101452381Y-89904762D01*
X101404762Y-89857143D01*
X101357143Y-89761905D01*
X101309524Y-89571429D01*
X101309524Y-89333333D01*
X101357143Y-89142857D01*
X101404762Y-89047619D01*
X101452381Y-89000000D01*
X101547619Y-88952381D01*
X102309524Y-89285714D02*
X102309524Y-89952381D01*
X102309524Y-89380952D02*
X102357143Y-89333333D01*
X102452381Y-89285714D01*
X102595239Y-89285714D01*
X102690477Y-89333333D01*
X102738096Y-89428571D01*
X102738096Y-89952381D01*
X103547620Y-89428571D02*
X103214286Y-89428571D01*
X103214286Y-89952381D02*
X103214286Y-88952381D01*
X103690477Y-88952381D01*
X112583334Y-120607143D02*
X112535715Y-120654762D01*
X112392858Y-120702381D01*
X112297620Y-120702381D01*
X112154762Y-120654762D01*
X112059524Y-120559524D01*
X112011905Y-120464286D01*
X111964286Y-120273810D01*
X111964286Y-120130952D01*
X112011905Y-119940476D01*
X112059524Y-119845238D01*
X112154762Y-119750000D01*
X112297620Y-119702381D01*
X112392858Y-119702381D01*
X112535715Y-119750000D01*
X112583334Y-119797619D01*
X113488096Y-119702381D02*
X113011905Y-119702381D01*
X112964286Y-120178571D01*
X113011905Y-120130952D01*
X113107143Y-120083333D01*
X113345239Y-120083333D01*
X113440477Y-120130952D01*
X113488096Y-120178571D01*
X113535715Y-120273810D01*
X113535715Y-120511905D01*
X113488096Y-120607143D01*
X113440477Y-120654762D01*
X113345239Y-120702381D01*
X113107143Y-120702381D01*
X113011905Y-120654762D01*
X112964286Y-120607143D01*
X110785715Y-114785714D02*
X110785715Y-115452381D01*
X110547619Y-114404762D02*
X110309524Y-115119048D01*
X110928572Y-115119048D01*
X111214286Y-114452381D02*
X111880953Y-114452381D01*
X111452381Y-115452381D01*
X112452381Y-114452381D02*
X112547620Y-114452381D01*
X112642858Y-114500000D01*
X112690477Y-114547619D01*
X112738096Y-114642857D01*
X112785715Y-114833333D01*
X112785715Y-115071429D01*
X112738096Y-115261905D01*
X112690477Y-115357143D01*
X112642858Y-115404762D01*
X112547620Y-115452381D01*
X112452381Y-115452381D01*
X112357143Y-115404762D01*
X112309524Y-115357143D01*
X112261905Y-115261905D01*
X112214286Y-115071429D01*
X112214286Y-114833333D01*
X112261905Y-114642857D01*
X112309524Y-114547619D01*
X112357143Y-114500000D01*
X112452381Y-114452381D01*
X113214286Y-114785714D02*
X113214286Y-115785714D01*
X113690477Y-115309524D02*
X113738096Y-115404762D01*
X113833334Y-115452381D01*
X113214286Y-115309524D02*
X113261905Y-115404762D01*
X113357143Y-115452381D01*
X113547620Y-115452381D01*
X113642858Y-115404762D01*
X113690477Y-115309524D01*
X113690477Y-114785714D01*
X114595239Y-114928571D02*
X114261905Y-114928571D01*
X114261905Y-115452381D02*
X114261905Y-114452381D01*
X114738096Y-114452381D01*
X106419048Y-119671429D02*
X107180953Y-119671429D01*
X106800001Y-120052381D02*
X106800001Y-119290476D01*
X93357143Y-86166666D02*
X93404762Y-86214285D01*
X93452381Y-86357142D01*
X93452381Y-86452380D01*
X93404762Y-86595238D01*
X93309524Y-86690476D01*
X93214286Y-86738095D01*
X93023810Y-86785714D01*
X92880952Y-86785714D01*
X92690476Y-86738095D01*
X92595238Y-86690476D01*
X92500000Y-86595238D01*
X92452381Y-86452380D01*
X92452381Y-86357142D01*
X92500000Y-86214285D01*
X92547619Y-86166666D01*
X92452381Y-85309523D02*
X92452381Y-85500000D01*
X92500000Y-85595238D01*
X92547619Y-85642857D01*
X92690476Y-85738095D01*
X92880952Y-85785714D01*
X93261905Y-85785714D01*
X93357143Y-85738095D01*
X93404762Y-85690476D01*
X93452381Y-85595238D01*
X93452381Y-85404761D01*
X93404762Y-85309523D01*
X93357143Y-85261904D01*
X93261905Y-85214285D01*
X93023810Y-85214285D01*
X92928571Y-85261904D01*
X92880952Y-85309523D01*
X92833333Y-85404761D01*
X92833333Y-85595238D01*
X92880952Y-85690476D01*
X92928571Y-85738095D01*
X93023810Y-85785714D01*
X93452381Y-83571428D02*
X93452381Y-84142857D01*
X93452381Y-83857143D02*
X92452381Y-83857143D01*
X92595238Y-83952381D01*
X92690476Y-84047619D01*
X92738095Y-84142857D01*
X92452381Y-82952381D02*
X92452381Y-82857142D01*
X92500000Y-82761904D01*
X92547619Y-82714285D01*
X92642857Y-82666666D01*
X92833333Y-82619047D01*
X93071429Y-82619047D01*
X93261905Y-82666666D01*
X93357143Y-82714285D01*
X93404762Y-82761904D01*
X93452381Y-82857142D01*
X93452381Y-82952381D01*
X93404762Y-83047619D01*
X93357143Y-83095238D01*
X93261905Y-83142857D01*
X93071429Y-83190476D01*
X92833333Y-83190476D01*
X92642857Y-83142857D01*
X92547619Y-83095238D01*
X92500000Y-83047619D01*
X92452381Y-82952381D01*
X92785714Y-82190476D02*
X93452381Y-82190476D01*
X92880952Y-82190476D02*
X92833333Y-82142857D01*
X92785714Y-82047619D01*
X92785714Y-81904761D01*
X92833333Y-81809523D01*
X92928571Y-81761904D01*
X93452381Y-81761904D01*
X92928571Y-80952380D02*
X92928571Y-81285714D01*
X93452381Y-81285714D02*
X92452381Y-81285714D01*
X92452381Y-80809523D01*
X99202381Y-84488095D02*
X98202381Y-84488095D01*
X98202381Y-84250000D01*
X98250000Y-84107142D01*
X98345238Y-84011904D01*
X98440476Y-83964285D01*
X98630952Y-83916666D01*
X98773810Y-83916666D01*
X98964286Y-83964285D01*
X99059524Y-84011904D01*
X99154762Y-84107142D01*
X99202381Y-84250000D01*
X99202381Y-84488095D01*
X98535714Y-83059523D02*
X99202381Y-83059523D01*
X98154762Y-83297619D02*
X98869048Y-83535714D01*
X98869048Y-82916666D01*
X71090476Y-122628571D02*
X70757142Y-122628571D01*
X70757142Y-123152381D02*
X70757142Y-122152381D01*
X71233333Y-122152381D01*
X71757142Y-123152381D02*
X71661904Y-123104762D01*
X71614285Y-123057143D01*
X71566666Y-122961905D01*
X71566666Y-122676190D01*
X71614285Y-122580952D01*
X71661904Y-122533333D01*
X71757142Y-122485714D01*
X71900000Y-122485714D01*
X71995238Y-122533333D01*
X72042857Y-122580952D01*
X72090476Y-122676190D01*
X72090476Y-122961905D01*
X72042857Y-123057143D01*
X71995238Y-123104762D01*
X71900000Y-123152381D01*
X71757142Y-123152381D01*
X72661904Y-123152381D02*
X72566666Y-123104762D01*
X72519047Y-123057143D01*
X72471428Y-122961905D01*
X72471428Y-122676190D01*
X72519047Y-122580952D01*
X72566666Y-122533333D01*
X72661904Y-122485714D01*
X72804762Y-122485714D01*
X72900000Y-122533333D01*
X72947619Y-122580952D01*
X72995238Y-122676190D01*
X72995238Y-122961905D01*
X72947619Y-123057143D01*
X72900000Y-123104762D01*
X72804762Y-123152381D01*
X72661904Y-123152381D01*
X73280952Y-122485714D02*
X73661904Y-122485714D01*
X73423809Y-122152381D02*
X73423809Y-123009524D01*
X73471428Y-123104762D01*
X73566666Y-123152381D01*
X73661904Y-123152381D01*
X73757143Y-123247619D02*
X74519048Y-123247619D01*
X74709524Y-123104762D02*
X74852381Y-123152381D01*
X75090477Y-123152381D01*
X75185715Y-123104762D01*
X75233334Y-123057143D01*
X75280953Y-122961905D01*
X75280953Y-122866667D01*
X75233334Y-122771429D01*
X75185715Y-122723810D01*
X75090477Y-122676190D01*
X74900000Y-122628571D01*
X74804762Y-122580952D01*
X74757143Y-122533333D01*
X74709524Y-122438095D01*
X74709524Y-122342857D01*
X74757143Y-122247619D01*
X74804762Y-122200000D01*
X74900000Y-122152381D01*
X75138096Y-122152381D01*
X75280953Y-122200000D01*
X75614286Y-122485714D02*
X75804762Y-123152381D01*
X75995239Y-122676190D01*
X76185715Y-123152381D01*
X76376191Y-122485714D01*
X76757143Y-123152381D02*
X76757143Y-122485714D01*
X76757143Y-122152381D02*
X76709524Y-122200000D01*
X76757143Y-122247619D01*
X76804762Y-122200000D01*
X76757143Y-122152381D01*
X76757143Y-122247619D01*
X77090476Y-122485714D02*
X77471428Y-122485714D01*
X77233333Y-122152381D02*
X77233333Y-123009524D01*
X77280952Y-123104762D01*
X77376190Y-123152381D01*
X77471428Y-123152381D01*
X78233334Y-123104762D02*
X78138096Y-123152381D01*
X77947619Y-123152381D01*
X77852381Y-123104762D01*
X77804762Y-123057143D01*
X77757143Y-122961905D01*
X77757143Y-122676190D01*
X77804762Y-122580952D01*
X77852381Y-122533333D01*
X77947619Y-122485714D01*
X78138096Y-122485714D01*
X78233334Y-122533333D01*
X78661905Y-123152381D02*
X78661905Y-122152381D01*
X79090477Y-123152381D02*
X79090477Y-122628571D01*
X79042858Y-122533333D01*
X78947620Y-122485714D01*
X78804762Y-122485714D01*
X78709524Y-122533333D01*
X78661905Y-122580952D01*
X80090477Y-123152381D02*
X79519048Y-123152381D01*
X79804762Y-123152381D02*
X79804762Y-122152381D01*
X79709524Y-122295238D01*
X79614286Y-122390476D01*
X79519048Y-122438095D01*
X87557143Y-74452381D02*
X87223809Y-73976190D01*
X86985714Y-74452381D02*
X86985714Y-73452381D01*
X87366667Y-73452381D01*
X87461905Y-73500000D01*
X87509524Y-73547619D01*
X87557143Y-73642857D01*
X87557143Y-73785714D01*
X87509524Y-73880952D01*
X87461905Y-73928571D01*
X87366667Y-73976190D01*
X86985714Y-73976190D01*
X88509524Y-74452381D02*
X87938095Y-74452381D01*
X88223809Y-74452381D02*
X88223809Y-73452381D01*
X88128571Y-73595238D01*
X88033333Y-73690476D01*
X87938095Y-73738095D01*
X89128571Y-73452381D02*
X89223810Y-73452381D01*
X89319048Y-73500000D01*
X89366667Y-73547619D01*
X89414286Y-73642857D01*
X89461905Y-73833333D01*
X89461905Y-74071429D01*
X89414286Y-74261905D01*
X89366667Y-74357143D01*
X89319048Y-74404762D01*
X89223810Y-74452381D01*
X89128571Y-74452381D01*
X89033333Y-74404762D01*
X88985714Y-74357143D01*
X88938095Y-74261905D01*
X88890476Y-74071429D01*
X88890476Y-73833333D01*
X88938095Y-73642857D01*
X88985714Y-73547619D01*
X89033333Y-73500000D01*
X89128571Y-73452381D01*
X91238096Y-73452381D02*
X91047619Y-73452381D01*
X90952381Y-73500000D01*
X90904762Y-73547619D01*
X90809524Y-73690476D01*
X90761905Y-73880952D01*
X90761905Y-74261905D01*
X90809524Y-74357143D01*
X90857143Y-74404762D01*
X90952381Y-74452381D01*
X91142858Y-74452381D01*
X91238096Y-74404762D01*
X91285715Y-74357143D01*
X91333334Y-74261905D01*
X91333334Y-74023810D01*
X91285715Y-73928571D01*
X91238096Y-73880952D01*
X91142858Y-73833333D01*
X90952381Y-73833333D01*
X90857143Y-73880952D01*
X90809524Y-73928571D01*
X90761905Y-74023810D01*
X91714286Y-73547619D02*
X91761905Y-73500000D01*
X91857143Y-73452381D01*
X92095239Y-73452381D01*
X92190477Y-73500000D01*
X92238096Y-73547619D01*
X92285715Y-73642857D01*
X92285715Y-73738095D01*
X92238096Y-73880952D01*
X91666667Y-74452381D01*
X92285715Y-74452381D01*
X92904762Y-73452381D02*
X93000001Y-73452381D01*
X93095239Y-73500000D01*
X93142858Y-73547619D01*
X93190477Y-73642857D01*
X93238096Y-73833333D01*
X93238096Y-74071429D01*
X93190477Y-74261905D01*
X93142858Y-74357143D01*
X93095239Y-74404762D01*
X93000001Y-74452381D01*
X92904762Y-74452381D01*
X92809524Y-74404762D01*
X92761905Y-74357143D01*
X92714286Y-74261905D01*
X92666667Y-74071429D01*
X92666667Y-73833333D01*
X92714286Y-73642857D01*
X92761905Y-73547619D01*
X92809524Y-73500000D01*
X92904762Y-73452381D01*
X86157143Y-84452381D02*
X85823809Y-83976190D01*
X85585714Y-84452381D02*
X85585714Y-83452381D01*
X85966667Y-83452381D01*
X86061905Y-83500000D01*
X86109524Y-83547619D01*
X86157143Y-83642857D01*
X86157143Y-83785714D01*
X86109524Y-83880952D01*
X86061905Y-83928571D01*
X85966667Y-83976190D01*
X85585714Y-83976190D01*
X87109524Y-84452381D02*
X86538095Y-84452381D01*
X86823809Y-84452381D02*
X86823809Y-83452381D01*
X86728571Y-83595238D01*
X86633333Y-83690476D01*
X86538095Y-83738095D01*
X88061905Y-84452381D02*
X87490476Y-84452381D01*
X87776190Y-84452381D02*
X87776190Y-83452381D01*
X87680952Y-83595238D01*
X87585714Y-83690476D01*
X87490476Y-83738095D01*
X88747619Y-83452381D02*
X89366667Y-83452381D01*
X89033333Y-83833333D01*
X89176191Y-83833333D01*
X89271429Y-83880952D01*
X89319048Y-83928571D01*
X89366667Y-84023810D01*
X89366667Y-84261905D01*
X89319048Y-84357143D01*
X89271429Y-84404762D01*
X89176191Y-84452381D01*
X88890476Y-84452381D01*
X88795238Y-84404762D01*
X88747619Y-84357143D01*
X89795238Y-84357143D02*
X89842857Y-84404762D01*
X89795238Y-84452381D01*
X89747619Y-84404762D01*
X89795238Y-84357143D01*
X89795238Y-84452381D01*
X90176190Y-83452381D02*
X90795238Y-83452381D01*
X90461904Y-83833333D01*
X90604762Y-83833333D01*
X90700000Y-83880952D01*
X90747619Y-83928571D01*
X90795238Y-84023810D01*
X90795238Y-84261905D01*
X90747619Y-84357143D01*
X90700000Y-84404762D01*
X90604762Y-84452381D01*
X90319047Y-84452381D01*
X90223809Y-84404762D01*
X90176190Y-84357143D01*
X91223809Y-84452381D02*
X91223809Y-83452381D01*
X91319047Y-84071429D02*
X91604762Y-84452381D01*
X91604762Y-83785714D02*
X91223809Y-84166667D01*
X78157143Y-87452381D02*
X77823809Y-86976190D01*
X77585714Y-87452381D02*
X77585714Y-86452381D01*
X77966667Y-86452381D01*
X78061905Y-86500000D01*
X78109524Y-86547619D01*
X78157143Y-86642857D01*
X78157143Y-86785714D01*
X78109524Y-86880952D01*
X78061905Y-86928571D01*
X77966667Y-86976190D01*
X77585714Y-86976190D01*
X79109524Y-87452381D02*
X78538095Y-87452381D01*
X78823809Y-87452381D02*
X78823809Y-86452381D01*
X78728571Y-86595238D01*
X78633333Y-86690476D01*
X78538095Y-86738095D01*
X79490476Y-86547619D02*
X79538095Y-86500000D01*
X79633333Y-86452381D01*
X79871429Y-86452381D01*
X79966667Y-86500000D01*
X80014286Y-86547619D01*
X80061905Y-86642857D01*
X80061905Y-86738095D01*
X80014286Y-86880952D01*
X79442857Y-87452381D01*
X80061905Y-87452381D01*
X81804762Y-87452381D02*
X81233333Y-87452381D01*
X81519047Y-87452381D02*
X81519047Y-86452381D01*
X81423809Y-86595238D01*
X81328571Y-86690476D01*
X81233333Y-86738095D01*
X82423809Y-86452381D02*
X82519048Y-86452381D01*
X82614286Y-86500000D01*
X82661905Y-86547619D01*
X82709524Y-86642857D01*
X82757143Y-86833333D01*
X82757143Y-87071429D01*
X82709524Y-87261905D01*
X82661905Y-87357143D01*
X82614286Y-87404762D01*
X82519048Y-87452381D01*
X82423809Y-87452381D01*
X82328571Y-87404762D01*
X82280952Y-87357143D01*
X82233333Y-87261905D01*
X82185714Y-87071429D01*
X82185714Y-86833333D01*
X82233333Y-86642857D01*
X82280952Y-86547619D01*
X82328571Y-86500000D01*
X82423809Y-86452381D01*
X83185714Y-87452381D02*
X83185714Y-86452381D01*
X83280952Y-87071429D02*
X83566667Y-87452381D01*
X83566667Y-86785714D02*
X83185714Y-87166667D01*
X108357143Y-84452381D02*
X108023809Y-83976190D01*
X107785714Y-84452381D02*
X107785714Y-83452381D01*
X108166667Y-83452381D01*
X108261905Y-83500000D01*
X108309524Y-83547619D01*
X108357143Y-83642857D01*
X108357143Y-83785714D01*
X108309524Y-83880952D01*
X108261905Y-83928571D01*
X108166667Y-83976190D01*
X107785714Y-83976190D01*
X109309524Y-84452381D02*
X108738095Y-84452381D01*
X109023809Y-84452381D02*
X109023809Y-83452381D01*
X108928571Y-83595238D01*
X108833333Y-83690476D01*
X108738095Y-83738095D01*
X109642857Y-83452381D02*
X110261905Y-83452381D01*
X109928571Y-83833333D01*
X110071429Y-83833333D01*
X110166667Y-83880952D01*
X110214286Y-83928571D01*
X110261905Y-84023810D01*
X110261905Y-84261905D01*
X110214286Y-84357143D01*
X110166667Y-84404762D01*
X110071429Y-84452381D01*
X109785714Y-84452381D01*
X109690476Y-84404762D01*
X109642857Y-84357143D01*
X112404762Y-84452381D02*
X111833333Y-84452381D01*
X112119047Y-84452381D02*
X112119047Y-83452381D01*
X112023809Y-83595238D01*
X111928571Y-83690476D01*
X111833333Y-83738095D01*
X113023809Y-83452381D02*
X113119048Y-83452381D01*
X113214286Y-83500000D01*
X113261905Y-83547619D01*
X113309524Y-83642857D01*
X113357143Y-83833333D01*
X113357143Y-84071429D01*
X113309524Y-84261905D01*
X113261905Y-84357143D01*
X113214286Y-84404762D01*
X113119048Y-84452381D01*
X113023809Y-84452381D01*
X112928571Y-84404762D01*
X112880952Y-84357143D01*
X112833333Y-84261905D01*
X112785714Y-84071429D01*
X112785714Y-83833333D01*
X112833333Y-83642857D01*
X112880952Y-83547619D01*
X112928571Y-83500000D01*
X113023809Y-83452381D01*
X113785714Y-84452381D02*
X113785714Y-83452381D01*
X113880952Y-84071429D02*
X114166667Y-84452381D01*
X114166667Y-83785714D02*
X113785714Y-84166667D01*
X108157143Y-88452381D02*
X107823809Y-87976190D01*
X107585714Y-88452381D02*
X107585714Y-87452381D01*
X107966667Y-87452381D01*
X108061905Y-87500000D01*
X108109524Y-87547619D01*
X108157143Y-87642857D01*
X108157143Y-87785714D01*
X108109524Y-87880952D01*
X108061905Y-87928571D01*
X107966667Y-87976190D01*
X107585714Y-87976190D01*
X109109524Y-88452381D02*
X108538095Y-88452381D01*
X108823809Y-88452381D02*
X108823809Y-87452381D01*
X108728571Y-87595238D01*
X108633333Y-87690476D01*
X108538095Y-87738095D01*
X109966667Y-87785714D02*
X109966667Y-88452381D01*
X109728571Y-87404762D02*
X109490476Y-88119048D01*
X110109524Y-88119048D01*
X112404762Y-88452381D02*
X111833333Y-88452381D01*
X112119047Y-88452381D02*
X112119047Y-87452381D01*
X112023809Y-87595238D01*
X111928571Y-87690476D01*
X111833333Y-87738095D01*
X113023809Y-87452381D02*
X113119048Y-87452381D01*
X113214286Y-87500000D01*
X113261905Y-87547619D01*
X113309524Y-87642857D01*
X113357143Y-87833333D01*
X113357143Y-88071429D01*
X113309524Y-88261905D01*
X113261905Y-88357143D01*
X113214286Y-88404762D01*
X113119048Y-88452381D01*
X113023809Y-88452381D01*
X112928571Y-88404762D01*
X112880952Y-88357143D01*
X112833333Y-88261905D01*
X112785714Y-88071429D01*
X112785714Y-87833333D01*
X112833333Y-87642857D01*
X112880952Y-87547619D01*
X112928571Y-87500000D01*
X113023809Y-87452381D01*
X113785714Y-88452381D02*
X113785714Y-87452381D01*
X113880952Y-88071429D02*
X114166667Y-88452381D01*
X114166667Y-87785714D02*
X113785714Y-88166667D01*
X100452381Y-100042857D02*
X99976190Y-100376191D01*
X100452381Y-100614286D02*
X99452381Y-100614286D01*
X99452381Y-100233333D01*
X99500000Y-100138095D01*
X99547619Y-100090476D01*
X99642857Y-100042857D01*
X99785714Y-100042857D01*
X99880952Y-100090476D01*
X99928571Y-100138095D01*
X99976190Y-100233333D01*
X99976190Y-100614286D01*
X100452381Y-99090476D02*
X100452381Y-99661905D01*
X100452381Y-99376191D02*
X99452381Y-99376191D01*
X99595238Y-99471429D01*
X99690476Y-99566667D01*
X99738095Y-99661905D01*
X99452381Y-98185714D02*
X99452381Y-98661905D01*
X99928571Y-98709524D01*
X99880952Y-98661905D01*
X99833333Y-98566667D01*
X99833333Y-98328571D01*
X99880952Y-98233333D01*
X99928571Y-98185714D01*
X100023810Y-98138095D01*
X100261905Y-98138095D01*
X100357143Y-98185714D01*
X100404762Y-98233333D01*
X100452381Y-98328571D01*
X100452381Y-98566667D01*
X100404762Y-98661905D01*
X100357143Y-98709524D01*
X100452381Y-96395238D02*
X100452381Y-96966667D01*
X100452381Y-96680953D02*
X99452381Y-96680953D01*
X99595238Y-96776191D01*
X99690476Y-96871429D01*
X99738095Y-96966667D01*
X99452381Y-95776191D02*
X99452381Y-95680952D01*
X99500000Y-95585714D01*
X99547619Y-95538095D01*
X99642857Y-95490476D01*
X99833333Y-95442857D01*
X100071429Y-95442857D01*
X100261905Y-95490476D01*
X100357143Y-95538095D01*
X100404762Y-95585714D01*
X100452381Y-95680952D01*
X100452381Y-95776191D01*
X100404762Y-95871429D01*
X100357143Y-95919048D01*
X100261905Y-95966667D01*
X100071429Y-96014286D01*
X99833333Y-96014286D01*
X99642857Y-95966667D01*
X99547619Y-95919048D01*
X99500000Y-95871429D01*
X99452381Y-95776191D01*
X100452381Y-95014286D02*
X99452381Y-95014286D01*
X100071429Y-94919048D02*
X100452381Y-94633333D01*
X99785714Y-94633333D02*
X100166667Y-95014286D01*
X116052381Y-96242857D02*
X115576190Y-96576191D01*
X116052381Y-96814286D02*
X115052381Y-96814286D01*
X115052381Y-96433333D01*
X115100000Y-96338095D01*
X115147619Y-96290476D01*
X115242857Y-96242857D01*
X115385714Y-96242857D01*
X115480952Y-96290476D01*
X115528571Y-96338095D01*
X115576190Y-96433333D01*
X115576190Y-96814286D01*
X116052381Y-95290476D02*
X116052381Y-95861905D01*
X116052381Y-95576191D02*
X115052381Y-95576191D01*
X115195238Y-95671429D01*
X115290476Y-95766667D01*
X115338095Y-95861905D01*
X115052381Y-94433333D02*
X115052381Y-94623810D01*
X115100000Y-94719048D01*
X115147619Y-94766667D01*
X115290476Y-94861905D01*
X115480952Y-94909524D01*
X115861905Y-94909524D01*
X115957143Y-94861905D01*
X116004762Y-94814286D01*
X116052381Y-94719048D01*
X116052381Y-94528571D01*
X116004762Y-94433333D01*
X115957143Y-94385714D01*
X115861905Y-94338095D01*
X115623810Y-94338095D01*
X115528571Y-94385714D01*
X115480952Y-94433333D01*
X115433333Y-94528571D01*
X115433333Y-94719048D01*
X115480952Y-94814286D01*
X115528571Y-94861905D01*
X115623810Y-94909524D01*
X116052381Y-92795238D02*
X116052381Y-93366667D01*
X116052381Y-93080953D02*
X115052381Y-93080953D01*
X115195238Y-93176191D01*
X115290476Y-93271429D01*
X115338095Y-93366667D01*
X115052381Y-92176191D02*
X115052381Y-92080952D01*
X115100000Y-91985714D01*
X115147619Y-91938095D01*
X115242857Y-91890476D01*
X115433333Y-91842857D01*
X115671429Y-91842857D01*
X115861905Y-91890476D01*
X115957143Y-91938095D01*
X116004762Y-91985714D01*
X116052381Y-92080952D01*
X116052381Y-92176191D01*
X116004762Y-92271429D01*
X115957143Y-92319048D01*
X115861905Y-92366667D01*
X115671429Y-92414286D01*
X115433333Y-92414286D01*
X115242857Y-92366667D01*
X115147619Y-92319048D01*
X115100000Y-92271429D01*
X115052381Y-92176191D01*
X116052381Y-91414286D02*
X115052381Y-91414286D01*
X115671429Y-91319048D02*
X116052381Y-91033333D01*
X115385714Y-91033333D02*
X115766667Y-91414286D01*
D11*
X109285714Y-108678571D02*
X109619048Y-108678571D01*
X109761905Y-109202381D02*
X109285714Y-109202381D01*
X109285714Y-108202381D01*
X109761905Y-108202381D01*
X110190476Y-109202381D02*
X110190476Y-108202381D01*
X110761905Y-109202381D01*
X110761905Y-108202381D01*
X111809524Y-109107143D02*
X111761905Y-109154762D01*
X111619048Y-109202381D01*
X111523810Y-109202381D01*
X111380952Y-109154762D01*
X111285714Y-109059524D01*
X111238095Y-108964286D01*
X111190476Y-108773810D01*
X111190476Y-108630952D01*
X111238095Y-108440476D01*
X111285714Y-108345238D01*
X111380952Y-108250000D01*
X111523810Y-108202381D01*
X111619048Y-108202381D01*
X111761905Y-108250000D01*
X111809524Y-108297619D01*
X112761905Y-109202381D02*
X112190476Y-109202381D01*
X112476190Y-109202381D02*
X112476190Y-108202381D01*
X112380952Y-108345238D01*
X112285714Y-108440476D01*
X112190476Y-108488095D01*
D13*
X78661905Y-79452381D02*
X78661905Y-78452381D01*
X78900000Y-78452381D01*
X79042858Y-78500000D01*
X79138096Y-78595238D01*
X79185715Y-78690476D01*
X79233334Y-78880952D01*
X79233334Y-79023810D01*
X79185715Y-79214286D01*
X79138096Y-79309524D01*
X79042858Y-79404762D01*
X78900000Y-79452381D01*
X78661905Y-79452381D01*
X79566667Y-78452381D02*
X80185715Y-78452381D01*
X79852381Y-78833333D01*
X79995239Y-78833333D01*
X80090477Y-78880952D01*
X80138096Y-78928571D01*
X80185715Y-79023810D01*
X80185715Y-79261905D01*
X80138096Y-79357143D01*
X80090477Y-79404762D01*
X79995239Y-79452381D01*
X79709524Y-79452381D01*
X79614286Y-79404762D01*
X79566667Y-79357143D01*
X77138095Y-82552381D02*
X77804762Y-82552381D01*
X77138095Y-83552381D01*
X77804762Y-83552381D01*
X78185714Y-83028571D02*
X78519048Y-83028571D01*
X78661905Y-83552381D02*
X78185714Y-83552381D01*
X78185714Y-82552381D01*
X78661905Y-82552381D01*
X79090476Y-83552381D02*
X79090476Y-82552381D01*
X79661905Y-83552381D01*
X79661905Y-82552381D01*
X80138095Y-83028571D02*
X80471429Y-83028571D01*
X80614286Y-83552381D02*
X80138095Y-83552381D01*
X80138095Y-82552381D01*
X80614286Y-82552381D01*
X81614286Y-83552381D02*
X81280952Y-83076190D01*
X81042857Y-83552381D02*
X81042857Y-82552381D01*
X81423810Y-82552381D01*
X81519048Y-82600000D01*
X81566667Y-82647619D01*
X81614286Y-82742857D01*
X81614286Y-82885714D01*
X81566667Y-82980952D01*
X81519048Y-83028571D01*
X81423810Y-83076190D01*
X81042857Y-83076190D01*
X108861905Y-125052381D02*
X108861905Y-124052381D01*
X109242858Y-124052381D01*
X109338096Y-124100000D01*
X109385715Y-124147619D01*
X109433334Y-124242857D01*
X109433334Y-124385714D01*
X109385715Y-124480952D01*
X109338096Y-124528571D01*
X109242858Y-124576190D01*
X108861905Y-124576190D01*
X109766667Y-124052381D02*
X110433334Y-124052381D01*
X110004762Y-125052381D01*
X88333333Y-108652381D02*
X88904762Y-108652381D01*
X88619047Y-109652381D02*
X88619047Y-108652381D01*
X89095238Y-108652381D02*
X89428571Y-109652381D01*
X89761905Y-108652381D01*
X90047619Y-109604762D02*
X90190476Y-109652381D01*
X90428572Y-109652381D01*
X90523810Y-109604762D01*
X90571429Y-109557143D01*
X90619048Y-109461905D01*
X90619048Y-109366667D01*
X90571429Y-109271429D01*
X90523810Y-109223810D01*
X90428572Y-109176190D01*
X90238095Y-109128571D01*
X90142857Y-109080952D01*
X90095238Y-109033333D01*
X90047619Y-108938095D01*
X90047619Y-108842857D01*
X90095238Y-108747619D01*
X90142857Y-108700000D01*
X90238095Y-108652381D01*
X90476191Y-108652381D01*
X90619048Y-108700000D01*
X91523810Y-108652381D02*
X91047619Y-108652381D01*
X91000000Y-109128571D01*
X91047619Y-109080952D01*
X91142857Y-109033333D01*
X91380953Y-109033333D01*
X91476191Y-109080952D01*
X91523810Y-109128571D01*
X91571429Y-109223810D01*
X91571429Y-109461905D01*
X91523810Y-109557143D01*
X91476191Y-109604762D01*
X91380953Y-109652381D01*
X91142857Y-109652381D01*
X91047619Y-109604762D01*
X91000000Y-109557143D01*
X92552381Y-109604762D02*
X92695238Y-109652381D01*
X92933334Y-109652381D01*
X93028572Y-109604762D01*
X93076191Y-109557143D01*
X93123810Y-109461905D01*
X93123810Y-109366667D01*
X93076191Y-109271429D01*
X93028572Y-109223810D01*
X92933334Y-109176190D01*
X92742857Y-109128571D01*
X92647619Y-109080952D01*
X92600000Y-109033333D01*
X92552381Y-108938095D01*
X92552381Y-108842857D01*
X92600000Y-108747619D01*
X92647619Y-108700000D01*
X92742857Y-108652381D01*
X92980953Y-108652381D01*
X93123810Y-108700000D01*
X93552381Y-109652381D02*
X93552381Y-108652381D01*
X93885715Y-109366667D01*
X94219048Y-108652381D01*
X94219048Y-109652381D01*
X94647619Y-109366667D02*
X95123810Y-109366667D01*
X94552381Y-109652381D02*
X94885714Y-108652381D01*
X95219048Y-109652381D01*
X95838096Y-108652381D02*
X95838096Y-109366667D01*
X95790476Y-109509524D01*
X95695238Y-109604762D01*
X95552381Y-109652381D01*
X95457143Y-109652381D01*
X96838096Y-109652381D02*
X96266667Y-109652381D01*
X96552381Y-109652381D02*
X96552381Y-108652381D01*
X96457143Y-108795238D01*
X96361905Y-108890476D01*
X96266667Y-108938095D01*
X97171429Y-108652381D02*
X97790477Y-108652381D01*
X97457143Y-109033333D01*
X97600001Y-109033333D01*
X97695239Y-109080952D01*
X97742858Y-109128571D01*
X97790477Y-109223810D01*
X97790477Y-109461905D01*
X97742858Y-109557143D01*
X97695239Y-109604762D01*
X97600001Y-109652381D01*
X97314286Y-109652381D01*
X97219048Y-109604762D01*
X97171429Y-109557143D01*
X98171429Y-109366667D02*
X98647620Y-109366667D01*
X98076191Y-109652381D02*
X98409524Y-108652381D01*
X98742858Y-109652381D01*
X96833334Y-74452381D02*
X96500000Y-73976190D01*
X96261905Y-74452381D02*
X96261905Y-73452381D01*
X96642858Y-73452381D01*
X96738096Y-73500000D01*
X96785715Y-73547619D01*
X96833334Y-73642857D01*
X96833334Y-73785714D01*
X96785715Y-73880952D01*
X96738096Y-73928571D01*
X96642858Y-73976190D01*
X96261905Y-73976190D01*
X97785715Y-74452381D02*
X97214286Y-74452381D01*
X97500000Y-74452381D02*
X97500000Y-73452381D01*
X97404762Y-73595238D01*
X97309524Y-73690476D01*
X97214286Y-73738095D01*
X99880953Y-74452381D02*
X99309524Y-74452381D01*
X99595238Y-74452381D02*
X99595238Y-73452381D01*
X99500000Y-73595238D01*
X99404762Y-73690476D01*
X99309524Y-73738095D01*
X100309524Y-74452381D02*
X100309524Y-73452381D01*
X100404762Y-74071429D02*
X100690477Y-74452381D01*
X100690477Y-73785714D02*
X100309524Y-74166667D01*
X76702381Y-114392857D02*
X76226190Y-114726191D01*
X76702381Y-114964286D02*
X75702381Y-114964286D01*
X75702381Y-114583333D01*
X75750000Y-114488095D01*
X75797619Y-114440476D01*
X75892857Y-114392857D01*
X76035714Y-114392857D01*
X76130952Y-114440476D01*
X76178571Y-114488095D01*
X76226190Y-114583333D01*
X76226190Y-114964286D01*
X76702381Y-113440476D02*
X76702381Y-114011905D01*
X76702381Y-113726191D02*
X75702381Y-113726191D01*
X75845238Y-113821429D01*
X75940476Y-113916667D01*
X75988095Y-114011905D01*
X75702381Y-113107143D02*
X75702381Y-112440476D01*
X76702381Y-112869048D01*
X79452381Y-114309524D02*
X79452381Y-113690476D01*
X79833333Y-114023810D01*
X79833333Y-113880952D01*
X79880952Y-113785714D01*
X79928571Y-113738095D01*
X80023810Y-113690476D01*
X80261905Y-113690476D01*
X80357143Y-113738095D01*
X80404762Y-113785714D01*
X80452381Y-113880952D01*
X80452381Y-114166667D01*
X80404762Y-114261905D01*
X80357143Y-114309524D01*
X79452381Y-113071429D02*
X79452381Y-112976190D01*
X79500000Y-112880952D01*
X79547619Y-112833333D01*
X79642857Y-112785714D01*
X79833333Y-112738095D01*
X80071429Y-112738095D01*
X80261905Y-112785714D01*
X80357143Y-112833333D01*
X80404762Y-112880952D01*
X80452381Y-112976190D01*
X80452381Y-113071429D01*
X80404762Y-113166667D01*
X80357143Y-113214286D01*
X80261905Y-113261905D01*
X80071429Y-113309524D01*
X79833333Y-113309524D01*
X79642857Y-113261905D01*
X79547619Y-113214286D01*
X79500000Y-113166667D01*
X79452381Y-113071429D01*
X79702381Y-120642857D02*
X79226190Y-120976191D01*
X79702381Y-121214286D02*
X78702381Y-121214286D01*
X78702381Y-120833333D01*
X78750000Y-120738095D01*
X78797619Y-120690476D01*
X78892857Y-120642857D01*
X79035714Y-120642857D01*
X79130952Y-120690476D01*
X79178571Y-120738095D01*
X79226190Y-120833333D01*
X79226190Y-121214286D01*
X79702381Y-119690476D02*
X79702381Y-120261905D01*
X79702381Y-119976191D02*
X78702381Y-119976191D01*
X78845238Y-120071429D01*
X78940476Y-120166667D01*
X78988095Y-120261905D01*
X79130952Y-119119048D02*
X79083333Y-119214286D01*
X79035714Y-119261905D01*
X78940476Y-119309524D01*
X78892857Y-119309524D01*
X78797619Y-119261905D01*
X78750000Y-119214286D01*
X78702381Y-119119048D01*
X78702381Y-118928571D01*
X78750000Y-118833333D01*
X78797619Y-118785714D01*
X78892857Y-118738095D01*
X78940476Y-118738095D01*
X79035714Y-118785714D01*
X79083333Y-118833333D01*
X79130952Y-118928571D01*
X79130952Y-119119048D01*
X79178571Y-119214286D01*
X79226190Y-119261905D01*
X79321429Y-119309524D01*
X79511905Y-119309524D01*
X79607143Y-119261905D01*
X79654762Y-119214286D01*
X79702381Y-119119048D01*
X79702381Y-118928571D01*
X79654762Y-118833333D01*
X79607143Y-118785714D01*
X79511905Y-118738095D01*
X79321429Y-118738095D01*
X79226190Y-118785714D01*
X79178571Y-118833333D01*
X79130952Y-118928571D01*
X82452381Y-120559524D02*
X82452381Y-119940476D01*
X82833333Y-120273810D01*
X82833333Y-120130952D01*
X82880952Y-120035714D01*
X82928571Y-119988095D01*
X83023810Y-119940476D01*
X83261905Y-119940476D01*
X83357143Y-119988095D01*
X83404762Y-120035714D01*
X83452381Y-120130952D01*
X83452381Y-120416667D01*
X83404762Y-120511905D01*
X83357143Y-120559524D01*
X82452381Y-119321429D02*
X82452381Y-119226190D01*
X82500000Y-119130952D01*
X82547619Y-119083333D01*
X82642857Y-119035714D01*
X82833333Y-118988095D01*
X83071429Y-118988095D01*
X83261905Y-119035714D01*
X83357143Y-119083333D01*
X83404762Y-119130952D01*
X83452381Y-119226190D01*
X83452381Y-119321429D01*
X83404762Y-119416667D01*
X83357143Y-119464286D01*
X83261905Y-119511905D01*
X83071429Y-119559524D01*
X82833333Y-119559524D01*
X82642857Y-119511905D01*
X82547619Y-119464286D01*
X82500000Y-119416667D01*
X82452381Y-119321429D01*
X82702381Y-114392857D02*
X82226190Y-114726191D01*
X82702381Y-114964286D02*
X81702381Y-114964286D01*
X81702381Y-114583333D01*
X81750000Y-114488095D01*
X81797619Y-114440476D01*
X81892857Y-114392857D01*
X82035714Y-114392857D01*
X82130952Y-114440476D01*
X82178571Y-114488095D01*
X82226190Y-114583333D01*
X82226190Y-114964286D01*
X82702381Y-113440476D02*
X82702381Y-114011905D01*
X82702381Y-113726191D02*
X81702381Y-113726191D01*
X81845238Y-113821429D01*
X81940476Y-113916667D01*
X81988095Y-114011905D01*
X82702381Y-112964286D02*
X82702381Y-112773810D01*
X82654762Y-112678571D01*
X82607143Y-112630952D01*
X82464286Y-112535714D01*
X82273810Y-112488095D01*
X81892857Y-112488095D01*
X81797619Y-112535714D01*
X81750000Y-112583333D01*
X81702381Y-112678571D01*
X81702381Y-112869048D01*
X81750000Y-112964286D01*
X81797619Y-113011905D01*
X81892857Y-113059524D01*
X82130952Y-113059524D01*
X82226190Y-113011905D01*
X82273810Y-112964286D01*
X82321429Y-112869048D01*
X82321429Y-112678571D01*
X82273810Y-112583333D01*
X82226190Y-112535714D01*
X82130952Y-112488095D01*
X85452381Y-114309524D02*
X85452381Y-113690476D01*
X85833333Y-114023810D01*
X85833333Y-113880952D01*
X85880952Y-113785714D01*
X85928571Y-113738095D01*
X86023810Y-113690476D01*
X86261905Y-113690476D01*
X86357143Y-113738095D01*
X86404762Y-113785714D01*
X86452381Y-113880952D01*
X86452381Y-114166667D01*
X86404762Y-114261905D01*
X86357143Y-114309524D01*
X85452381Y-113071429D02*
X85452381Y-112976190D01*
X85500000Y-112880952D01*
X85547619Y-112833333D01*
X85642857Y-112785714D01*
X85833333Y-112738095D01*
X86071429Y-112738095D01*
X86261905Y-112785714D01*
X86357143Y-112833333D01*
X86404762Y-112880952D01*
X86452381Y-112976190D01*
X86452381Y-113071429D01*
X86404762Y-113166667D01*
X86357143Y-113214286D01*
X86261905Y-113261905D01*
X86071429Y-113309524D01*
X85833333Y-113309524D01*
X85642857Y-113261905D01*
X85547619Y-113214286D01*
X85500000Y-113166667D01*
X85452381Y-113071429D01*
X85702381Y-120392857D02*
X85226190Y-120726191D01*
X85702381Y-120964286D02*
X84702381Y-120964286D01*
X84702381Y-120583333D01*
X84750000Y-120488095D01*
X84797619Y-120440476D01*
X84892857Y-120392857D01*
X85035714Y-120392857D01*
X85130952Y-120440476D01*
X85178571Y-120488095D01*
X85226190Y-120583333D01*
X85226190Y-120964286D01*
X84797619Y-120011905D02*
X84750000Y-119964286D01*
X84702381Y-119869048D01*
X84702381Y-119630952D01*
X84750000Y-119535714D01*
X84797619Y-119488095D01*
X84892857Y-119440476D01*
X84988095Y-119440476D01*
X85130952Y-119488095D01*
X85702381Y-120059524D01*
X85702381Y-119440476D01*
X84702381Y-118821429D02*
X84702381Y-118726190D01*
X84750000Y-118630952D01*
X84797619Y-118583333D01*
X84892857Y-118535714D01*
X85083333Y-118488095D01*
X85321429Y-118488095D01*
X85511905Y-118535714D01*
X85607143Y-118583333D01*
X85654762Y-118630952D01*
X85702381Y-118726190D01*
X85702381Y-118821429D01*
X85654762Y-118916667D01*
X85607143Y-118964286D01*
X85511905Y-119011905D01*
X85321429Y-119059524D01*
X85083333Y-119059524D01*
X84892857Y-119011905D01*
X84797619Y-118964286D01*
X84750000Y-118916667D01*
X84702381Y-118821429D01*
X88452381Y-120559524D02*
X88452381Y-119940476D01*
X88833333Y-120273810D01*
X88833333Y-120130952D01*
X88880952Y-120035714D01*
X88928571Y-119988095D01*
X89023810Y-119940476D01*
X89261905Y-119940476D01*
X89357143Y-119988095D01*
X89404762Y-120035714D01*
X89452381Y-120130952D01*
X89452381Y-120416667D01*
X89404762Y-120511905D01*
X89357143Y-120559524D01*
X88452381Y-119321429D02*
X88452381Y-119226190D01*
X88500000Y-119130952D01*
X88547619Y-119083333D01*
X88642857Y-119035714D01*
X88833333Y-118988095D01*
X89071429Y-118988095D01*
X89261905Y-119035714D01*
X89357143Y-119083333D01*
X89404762Y-119130952D01*
X89452381Y-119226190D01*
X89452381Y-119321429D01*
X89404762Y-119416667D01*
X89357143Y-119464286D01*
X89261905Y-119511905D01*
X89071429Y-119559524D01*
X88833333Y-119559524D01*
X88642857Y-119511905D01*
X88547619Y-119464286D01*
X88500000Y-119416667D01*
X88452381Y-119321429D01*
X88452381Y-114392857D02*
X87976190Y-114726191D01*
X88452381Y-114964286D02*
X87452381Y-114964286D01*
X87452381Y-114583333D01*
X87500000Y-114488095D01*
X87547619Y-114440476D01*
X87642857Y-114392857D01*
X87785714Y-114392857D01*
X87880952Y-114440476D01*
X87928571Y-114488095D01*
X87976190Y-114583333D01*
X87976190Y-114964286D01*
X87547619Y-114011905D02*
X87500000Y-113964286D01*
X87452381Y-113869048D01*
X87452381Y-113630952D01*
X87500000Y-113535714D01*
X87547619Y-113488095D01*
X87642857Y-113440476D01*
X87738095Y-113440476D01*
X87880952Y-113488095D01*
X88452381Y-114059524D01*
X88452381Y-113440476D01*
X88452381Y-112488095D02*
X88452381Y-113059524D01*
X88452381Y-112773810D02*
X87452381Y-112773810D01*
X87595238Y-112869048D01*
X87690476Y-112964286D01*
X87738095Y-113059524D01*
X91202381Y-114309524D02*
X91202381Y-113690476D01*
X91583333Y-114023810D01*
X91583333Y-113880952D01*
X91630952Y-113785714D01*
X91678571Y-113738095D01*
X91773810Y-113690476D01*
X92011905Y-113690476D01*
X92107143Y-113738095D01*
X92154762Y-113785714D01*
X92202381Y-113880952D01*
X92202381Y-114166667D01*
X92154762Y-114261905D01*
X92107143Y-114309524D01*
X91202381Y-113071429D02*
X91202381Y-112976190D01*
X91250000Y-112880952D01*
X91297619Y-112833333D01*
X91392857Y-112785714D01*
X91583333Y-112738095D01*
X91821429Y-112738095D01*
X92011905Y-112785714D01*
X92107143Y-112833333D01*
X92154762Y-112880952D01*
X92202381Y-112976190D01*
X92202381Y-113071429D01*
X92154762Y-113166667D01*
X92107143Y-113214286D01*
X92011905Y-113261905D01*
X91821429Y-113309524D01*
X91583333Y-113309524D01*
X91392857Y-113261905D01*
X91297619Y-113214286D01*
X91250000Y-113166667D01*
X91202381Y-113071429D01*
X91202381Y-120392857D02*
X90726190Y-120726191D01*
X91202381Y-120964286D02*
X90202381Y-120964286D01*
X90202381Y-120583333D01*
X90250000Y-120488095D01*
X90297619Y-120440476D01*
X90392857Y-120392857D01*
X90535714Y-120392857D01*
X90630952Y-120440476D01*
X90678571Y-120488095D01*
X90726190Y-120583333D01*
X90726190Y-120964286D01*
X90297619Y-120011905D02*
X90250000Y-119964286D01*
X90202381Y-119869048D01*
X90202381Y-119630952D01*
X90250000Y-119535714D01*
X90297619Y-119488095D01*
X90392857Y-119440476D01*
X90488095Y-119440476D01*
X90630952Y-119488095D01*
X91202381Y-120059524D01*
X91202381Y-119440476D01*
X90297619Y-119059524D02*
X90250000Y-119011905D01*
X90202381Y-118916667D01*
X90202381Y-118678571D01*
X90250000Y-118583333D01*
X90297619Y-118535714D01*
X90392857Y-118488095D01*
X90488095Y-118488095D01*
X90630952Y-118535714D01*
X91202381Y-119107143D01*
X91202381Y-118488095D01*
X93952381Y-120559524D02*
X93952381Y-119940476D01*
X94333333Y-120273810D01*
X94333333Y-120130952D01*
X94380952Y-120035714D01*
X94428571Y-119988095D01*
X94523810Y-119940476D01*
X94761905Y-119940476D01*
X94857143Y-119988095D01*
X94904762Y-120035714D01*
X94952381Y-120130952D01*
X94952381Y-120416667D01*
X94904762Y-120511905D01*
X94857143Y-120559524D01*
X93952381Y-119321429D02*
X93952381Y-119226190D01*
X94000000Y-119130952D01*
X94047619Y-119083333D01*
X94142857Y-119035714D01*
X94333333Y-118988095D01*
X94571429Y-118988095D01*
X94761905Y-119035714D01*
X94857143Y-119083333D01*
X94904762Y-119130952D01*
X94952381Y-119226190D01*
X94952381Y-119321429D01*
X94904762Y-119416667D01*
X94857143Y-119464286D01*
X94761905Y-119511905D01*
X94571429Y-119559524D01*
X94333333Y-119559524D01*
X94142857Y-119511905D01*
X94047619Y-119464286D01*
X94000000Y-119416667D01*
X93952381Y-119321429D01*
X94952381Y-114392857D02*
X94476190Y-114726191D01*
X94952381Y-114964286D02*
X93952381Y-114964286D01*
X93952381Y-114583333D01*
X94000000Y-114488095D01*
X94047619Y-114440476D01*
X94142857Y-114392857D01*
X94285714Y-114392857D01*
X94380952Y-114440476D01*
X94428571Y-114488095D01*
X94476190Y-114583333D01*
X94476190Y-114964286D01*
X94047619Y-114011905D02*
X94000000Y-113964286D01*
X93952381Y-113869048D01*
X93952381Y-113630952D01*
X94000000Y-113535714D01*
X94047619Y-113488095D01*
X94142857Y-113440476D01*
X94238095Y-113440476D01*
X94380952Y-113488095D01*
X94952381Y-114059524D01*
X94952381Y-113440476D01*
X93952381Y-113107143D02*
X93952381Y-112488095D01*
X94333333Y-112821429D01*
X94333333Y-112678571D01*
X94380952Y-112583333D01*
X94428571Y-112535714D01*
X94523810Y-112488095D01*
X94761905Y-112488095D01*
X94857143Y-112535714D01*
X94904762Y-112583333D01*
X94952381Y-112678571D01*
X94952381Y-112964286D01*
X94904762Y-113059524D01*
X94857143Y-113107143D01*
X97702381Y-114309524D02*
X97702381Y-113690476D01*
X98083333Y-114023810D01*
X98083333Y-113880952D01*
X98130952Y-113785714D01*
X98178571Y-113738095D01*
X98273810Y-113690476D01*
X98511905Y-113690476D01*
X98607143Y-113738095D01*
X98654762Y-113785714D01*
X98702381Y-113880952D01*
X98702381Y-114166667D01*
X98654762Y-114261905D01*
X98607143Y-114309524D01*
X97702381Y-113071429D02*
X97702381Y-112976190D01*
X97750000Y-112880952D01*
X97797619Y-112833333D01*
X97892857Y-112785714D01*
X98083333Y-112738095D01*
X98321429Y-112738095D01*
X98511905Y-112785714D01*
X98607143Y-112833333D01*
X98654762Y-112880952D01*
X98702381Y-112976190D01*
X98702381Y-113071429D01*
X98654762Y-113166667D01*
X98607143Y-113214286D01*
X98511905Y-113261905D01*
X98321429Y-113309524D01*
X98083333Y-113309524D01*
X97892857Y-113261905D01*
X97797619Y-113214286D01*
X97750000Y-113166667D01*
X97702381Y-113071429D01*
X99952381Y-121892857D02*
X99476190Y-122226191D01*
X99952381Y-122464286D02*
X98952381Y-122464286D01*
X98952381Y-122083333D01*
X99000000Y-121988095D01*
X99047619Y-121940476D01*
X99142857Y-121892857D01*
X99285714Y-121892857D01*
X99380952Y-121940476D01*
X99428571Y-121988095D01*
X99476190Y-122083333D01*
X99476190Y-122464286D01*
X99047619Y-121511905D02*
X99000000Y-121464286D01*
X98952381Y-121369048D01*
X98952381Y-121130952D01*
X99000000Y-121035714D01*
X99047619Y-120988095D01*
X99142857Y-120940476D01*
X99238095Y-120940476D01*
X99380952Y-120988095D01*
X99952381Y-121559524D01*
X99952381Y-120940476D01*
X99285714Y-120083333D02*
X99952381Y-120083333D01*
X98904762Y-120321429D02*
X99619048Y-120559524D01*
X99619048Y-119940476D01*
X102452381Y-122059524D02*
X102452381Y-121440476D01*
X102833333Y-121773810D01*
X102833333Y-121630952D01*
X102880952Y-121535714D01*
X102928571Y-121488095D01*
X103023810Y-121440476D01*
X103261905Y-121440476D01*
X103357143Y-121488095D01*
X103404762Y-121535714D01*
X103452381Y-121630952D01*
X103452381Y-121916667D01*
X103404762Y-122011905D01*
X103357143Y-122059524D01*
X102452381Y-120821429D02*
X102452381Y-120726190D01*
X102500000Y-120630952D01*
X102547619Y-120583333D01*
X102642857Y-120535714D01*
X102833333Y-120488095D01*
X103071429Y-120488095D01*
X103261905Y-120535714D01*
X103357143Y-120583333D01*
X103404762Y-120630952D01*
X103452381Y-120726190D01*
X103452381Y-120821429D01*
X103404762Y-120916667D01*
X103357143Y-120964286D01*
X103261905Y-121011905D01*
X103071429Y-121059524D01*
X102833333Y-121059524D01*
X102642857Y-121011905D01*
X102547619Y-120964286D01*
X102500000Y-120916667D01*
X102452381Y-120821429D01*
M02*
