G04 #@! TF.FileFunction,Legend,Bot*
%FSLAX46Y46*%
G04 Gerber Fmt 4.6, Leading zero omitted, Abs format (unit mm)*
G04 Created by KiCad (PCBNEW 4.0.4-stable) date 07/11/19 10:43:22*
%MOMM*%
%LPD*%
G01*
G04 APERTURE LIST*
%ADD10C,0.100000*%
%ADD11C,0.300000*%
%ADD12C,0.200000*%
G04 APERTURE END LIST*
D10*
D11*
X103130953Y-125154762D02*
X103130953Y-123154762D01*
X102464286Y-124583333D01*
X101797619Y-123154762D01*
X101797619Y-125154762D01*
X99988096Y-125154762D02*
X99988096Y-124107143D01*
X100083334Y-123916667D01*
X100273810Y-123821429D01*
X100654762Y-123821429D01*
X100845239Y-123916667D01*
X99988096Y-125059524D02*
X100178572Y-125154762D01*
X100654762Y-125154762D01*
X100845239Y-125059524D01*
X100940477Y-124869048D01*
X100940477Y-124678571D01*
X100845239Y-124488095D01*
X100654762Y-124392857D01*
X100178572Y-124392857D01*
X99988096Y-124297619D01*
X98750000Y-125154762D02*
X98940476Y-125059524D01*
X99035715Y-124869048D01*
X99035715Y-123154762D01*
X97226191Y-125059524D02*
X97416667Y-125154762D01*
X97797619Y-125154762D01*
X97988096Y-125059524D01*
X98083334Y-124869048D01*
X98083334Y-124107143D01*
X97988096Y-123916667D01*
X97797619Y-123821429D01*
X97416667Y-123821429D01*
X97226191Y-123916667D01*
X97130953Y-124107143D01*
X97130953Y-124297619D01*
X98083334Y-124488095D01*
X95416667Y-125059524D02*
X95607143Y-125154762D01*
X95988095Y-125154762D01*
X96178571Y-125059524D01*
X96273810Y-124964286D01*
X96369048Y-124773810D01*
X96369048Y-124202381D01*
X96273810Y-124011905D01*
X96178571Y-123916667D01*
X95988095Y-123821429D01*
X95607143Y-123821429D01*
X95416667Y-123916667D01*
X94845238Y-123821429D02*
X94083333Y-123821429D01*
X94559524Y-123154762D02*
X94559524Y-124869048D01*
X94464285Y-125059524D01*
X94273809Y-125154762D01*
X94083333Y-125154762D01*
X93416667Y-125154762D02*
X93416667Y-123821429D01*
X93416667Y-124202381D02*
X93321428Y-124011905D01*
X93226190Y-123916667D01*
X93035714Y-123821429D01*
X92845238Y-123821429D01*
X92178572Y-125154762D02*
X92178572Y-123821429D01*
X92178572Y-123154762D02*
X92273810Y-123250000D01*
X92178572Y-123345238D01*
X92083333Y-123250000D01*
X92178572Y-123154762D01*
X92178572Y-123345238D01*
X90369048Y-125059524D02*
X90559524Y-125154762D01*
X90940476Y-125154762D01*
X91130952Y-125059524D01*
X91226191Y-124964286D01*
X91321429Y-124773810D01*
X91321429Y-124202381D01*
X91226191Y-124011905D01*
X91130952Y-123916667D01*
X90940476Y-123821429D01*
X90559524Y-123821429D01*
X90369048Y-123916667D01*
X89607143Y-125059524D02*
X89416666Y-125154762D01*
X89035714Y-125154762D01*
X88845238Y-125059524D01*
X88750000Y-124869048D01*
X88750000Y-124773810D01*
X88845238Y-124583333D01*
X89035714Y-124488095D01*
X89321428Y-124488095D01*
X89511905Y-124392857D01*
X89607143Y-124202381D01*
X89607143Y-124107143D01*
X89511905Y-123916667D01*
X89321428Y-123821429D01*
X89035714Y-123821429D01*
X88845238Y-123916667D01*
X87892857Y-124964286D02*
X87797618Y-125059524D01*
X87892857Y-125154762D01*
X87988095Y-125059524D01*
X87892857Y-124964286D01*
X87892857Y-125154762D01*
X86178571Y-125059524D02*
X86369047Y-125154762D01*
X86749999Y-125154762D01*
X86940476Y-125059524D01*
X87035714Y-124869048D01*
X87035714Y-124107143D01*
X86940476Y-123916667D01*
X86749999Y-123821429D01*
X86369047Y-123821429D01*
X86178571Y-123916667D01*
X86083333Y-124107143D01*
X86083333Y-124297619D01*
X87035714Y-124488095D01*
X84369047Y-123821429D02*
X84369047Y-125154762D01*
X85226190Y-123821429D02*
X85226190Y-124869048D01*
X85130951Y-125059524D01*
X84940475Y-125154762D01*
X84654761Y-125154762D01*
X84464285Y-125059524D01*
X84369047Y-124964286D01*
D12*
X110700000Y-122638096D02*
X110652381Y-122542858D01*
X110652381Y-122400001D01*
X110700000Y-122257143D01*
X110795238Y-122161905D01*
X110890476Y-122114286D01*
X111080952Y-122066667D01*
X111223810Y-122066667D01*
X111414286Y-122114286D01*
X111509524Y-122161905D01*
X111604762Y-122257143D01*
X111652381Y-122400001D01*
X111652381Y-122495239D01*
X111604762Y-122638096D01*
X111557143Y-122685715D01*
X111223810Y-122685715D01*
X111223810Y-122495239D01*
X111652381Y-123114286D02*
X110652381Y-123114286D01*
X111652381Y-123685715D01*
X110652381Y-123685715D01*
X111652381Y-124161905D02*
X110652381Y-124161905D01*
X110652381Y-124400000D01*
X110700000Y-124542858D01*
X110795238Y-124638096D01*
X110890476Y-124685715D01*
X111080952Y-124733334D01*
X111223810Y-124733334D01*
X111414286Y-124685715D01*
X111509524Y-124638096D01*
X111604762Y-124542858D01*
X111652381Y-124400000D01*
X111652381Y-124161905D01*
X108071429Y-120838095D02*
X108071429Y-121600000D01*
X108452381Y-121219048D02*
X107690476Y-121219048D01*
X108452381Y-122600000D02*
X108452381Y-122028571D01*
X108452381Y-122314285D02*
X107452381Y-122314285D01*
X107595238Y-122219047D01*
X107690476Y-122123809D01*
X107738095Y-122028571D01*
X107547619Y-122980952D02*
X107500000Y-123028571D01*
X107452381Y-123123809D01*
X107452381Y-123361905D01*
X107500000Y-123457143D01*
X107547619Y-123504762D01*
X107642857Y-123552381D01*
X107738095Y-123552381D01*
X107880952Y-123504762D01*
X108452381Y-122933333D01*
X108452381Y-123552381D01*
X107452381Y-123838095D02*
X108452381Y-124171428D01*
X107452381Y-124504762D01*
D10*
X114750000Y-85000000D02*
X113250000Y-86500000D01*
X113000000Y-83250000D02*
X114750000Y-85000000D01*
X114750000Y-85000000D02*
X113000000Y-83250000D01*
X107000000Y-85000000D02*
X114750000Y-85000000D01*
D12*
X111892858Y-83202381D02*
X111892858Y-84011905D01*
X111845239Y-84107143D01*
X111797620Y-84154762D01*
X111702382Y-84202381D01*
X111511905Y-84202381D01*
X111416667Y-84154762D01*
X111369048Y-84107143D01*
X111321429Y-84011905D01*
X111321429Y-83202381D01*
X110892858Y-84154762D02*
X110750001Y-84202381D01*
X110511905Y-84202381D01*
X110416667Y-84154762D01*
X110369048Y-84107143D01*
X110321429Y-84011905D01*
X110321429Y-83916667D01*
X110369048Y-83821429D01*
X110416667Y-83773810D01*
X110511905Y-83726190D01*
X110702382Y-83678571D01*
X110797620Y-83630952D01*
X110845239Y-83583333D01*
X110892858Y-83488095D01*
X110892858Y-83392857D01*
X110845239Y-83297619D01*
X110797620Y-83250000D01*
X110702382Y-83202381D01*
X110464286Y-83202381D01*
X110321429Y-83250000D01*
X109559524Y-83678571D02*
X109416667Y-83726190D01*
X109369048Y-83773810D01*
X109321429Y-83869048D01*
X109321429Y-84011905D01*
X109369048Y-84107143D01*
X109416667Y-84154762D01*
X109511905Y-84202381D01*
X109892858Y-84202381D01*
X109892858Y-83202381D01*
X109559524Y-83202381D01*
X109464286Y-83250000D01*
X109416667Y-83297619D01*
X109369048Y-83392857D01*
X109369048Y-83488095D01*
X109416667Y-83583333D01*
X109464286Y-83630952D01*
X109559524Y-83678571D01*
X109892858Y-83678571D01*
X108130953Y-83535714D02*
X108130953Y-84535714D01*
X108130953Y-83583333D02*
X108035715Y-83535714D01*
X107845238Y-83535714D01*
X107750000Y-83583333D01*
X107702381Y-83630952D01*
X107654762Y-83726190D01*
X107654762Y-84011905D01*
X107702381Y-84107143D01*
X107750000Y-84154762D01*
X107845238Y-84202381D01*
X108035715Y-84202381D01*
X108130953Y-84154762D01*
X107083334Y-84202381D02*
X107178572Y-84154762D01*
X107226191Y-84107143D01*
X107273810Y-84011905D01*
X107273810Y-83726190D01*
X107226191Y-83630952D01*
X107178572Y-83583333D01*
X107083334Y-83535714D01*
X106940476Y-83535714D01*
X106845238Y-83583333D01*
X106797619Y-83630952D01*
X106750000Y-83726190D01*
X106750000Y-84011905D01*
X106797619Y-84107143D01*
X106845238Y-84154762D01*
X106940476Y-84202381D01*
X107083334Y-84202381D01*
X106321429Y-84202381D02*
X106321429Y-83535714D01*
X106321429Y-83726190D02*
X106273810Y-83630952D01*
X106226191Y-83583333D01*
X106130953Y-83535714D01*
X106035714Y-83535714D01*
X105845238Y-83535714D02*
X105464286Y-83535714D01*
X105702381Y-83202381D02*
X105702381Y-84059524D01*
X105654762Y-84154762D01*
X105559524Y-84202381D01*
X105464286Y-84202381D01*
X104511904Y-83535714D02*
X104130952Y-83535714D01*
X104369047Y-83202381D02*
X104369047Y-84059524D01*
X104321428Y-84154762D01*
X104226190Y-84202381D01*
X104130952Y-84202381D01*
X103797618Y-84202381D02*
X103797618Y-83202381D01*
X103369046Y-84202381D02*
X103369046Y-83678571D01*
X103416665Y-83583333D01*
X103511903Y-83535714D01*
X103654761Y-83535714D01*
X103749999Y-83583333D01*
X103797618Y-83630952D01*
X102892856Y-84202381D02*
X102892856Y-83535714D01*
X102892856Y-83202381D02*
X102940475Y-83250000D01*
X102892856Y-83297619D01*
X102845237Y-83250000D01*
X102892856Y-83202381D01*
X102892856Y-83297619D01*
X102464285Y-84154762D02*
X102369047Y-84202381D01*
X102178571Y-84202381D01*
X102083332Y-84154762D01*
X102035713Y-84059524D01*
X102035713Y-84011905D01*
X102083332Y-83916667D01*
X102178571Y-83869048D01*
X102321428Y-83869048D01*
X102416666Y-83821429D01*
X102464285Y-83726190D01*
X102464285Y-83678571D01*
X102416666Y-83583333D01*
X102321428Y-83535714D01*
X102178571Y-83535714D01*
X102083332Y-83583333D01*
X100940475Y-83535714D02*
X100749999Y-84202381D01*
X100559522Y-83726190D01*
X100369046Y-84202381D01*
X100178570Y-83535714D01*
X99369046Y-84202381D02*
X99369046Y-83678571D01*
X99416665Y-83583333D01*
X99511903Y-83535714D01*
X99702380Y-83535714D01*
X99797618Y-83583333D01*
X99369046Y-84154762D02*
X99464284Y-84202381D01*
X99702380Y-84202381D01*
X99797618Y-84154762D01*
X99845237Y-84059524D01*
X99845237Y-83964286D01*
X99797618Y-83869048D01*
X99702380Y-83821429D01*
X99464284Y-83821429D01*
X99369046Y-83773810D01*
X98988094Y-83535714D02*
X98749999Y-84202381D01*
X98511903Y-83535714D02*
X98749999Y-84202381D01*
X98845237Y-84440476D01*
X98892856Y-84488095D01*
X98988094Y-84535714D01*
X115785717Y-89452381D02*
X115785717Y-88452381D01*
X115357145Y-89452381D02*
X115357145Y-88928571D01*
X115404764Y-88833333D01*
X115500002Y-88785714D01*
X115642860Y-88785714D01*
X115738098Y-88833333D01*
X115785717Y-88880952D01*
X115023812Y-88785714D02*
X114642860Y-88785714D01*
X114880955Y-88452381D02*
X114880955Y-89309524D01*
X114833336Y-89404762D01*
X114738098Y-89452381D01*
X114642860Y-89452381D01*
X114452383Y-88785714D02*
X114071431Y-88785714D01*
X114309526Y-88452381D02*
X114309526Y-89309524D01*
X114261907Y-89404762D01*
X114166669Y-89452381D01*
X114071431Y-89452381D01*
X113738097Y-88785714D02*
X113738097Y-89785714D01*
X113738097Y-88833333D02*
X113642859Y-88785714D01*
X113452382Y-88785714D01*
X113357144Y-88833333D01*
X113309525Y-88880952D01*
X113261906Y-88976190D01*
X113261906Y-89261905D01*
X113309525Y-89357143D01*
X113357144Y-89404762D01*
X113452382Y-89452381D01*
X113642859Y-89452381D01*
X113738097Y-89404762D01*
X112880954Y-89404762D02*
X112785716Y-89452381D01*
X112595240Y-89452381D01*
X112500001Y-89404762D01*
X112452382Y-89309524D01*
X112452382Y-89261905D01*
X112500001Y-89166667D01*
X112595240Y-89119048D01*
X112738097Y-89119048D01*
X112833335Y-89071429D01*
X112880954Y-88976190D01*
X112880954Y-88928571D01*
X112833335Y-88833333D01*
X112738097Y-88785714D01*
X112595240Y-88785714D01*
X112500001Y-88833333D01*
X112023811Y-89357143D02*
X111976192Y-89404762D01*
X112023811Y-89452381D01*
X112071430Y-89404762D01*
X112023811Y-89357143D01*
X112023811Y-89452381D01*
X112023811Y-88833333D02*
X111976192Y-88880952D01*
X112023811Y-88928571D01*
X112071430Y-88880952D01*
X112023811Y-88833333D01*
X112023811Y-88928571D01*
X110833335Y-88404762D02*
X111690478Y-89690476D01*
X109785716Y-88404762D02*
X110642859Y-89690476D01*
X109023811Y-88785714D02*
X109023811Y-89595238D01*
X109071430Y-89690476D01*
X109119049Y-89738095D01*
X109214288Y-89785714D01*
X109357145Y-89785714D01*
X109452383Y-89738095D01*
X109023811Y-89404762D02*
X109119049Y-89452381D01*
X109309526Y-89452381D01*
X109404764Y-89404762D01*
X109452383Y-89357143D01*
X109500002Y-89261905D01*
X109500002Y-88976190D01*
X109452383Y-88880952D01*
X109404764Y-88833333D01*
X109309526Y-88785714D01*
X109119049Y-88785714D01*
X109023811Y-88833333D01*
X108547621Y-89452381D02*
X108547621Y-88785714D01*
X108547621Y-88452381D02*
X108595240Y-88500000D01*
X108547621Y-88547619D01*
X108500002Y-88500000D01*
X108547621Y-88452381D01*
X108547621Y-88547619D01*
X108214288Y-88785714D02*
X107833336Y-88785714D01*
X108071431Y-88452381D02*
X108071431Y-89309524D01*
X108023812Y-89404762D01*
X107928574Y-89452381D01*
X107833336Y-89452381D01*
X107500002Y-89452381D02*
X107500002Y-88452381D01*
X107071430Y-89452381D02*
X107071430Y-88928571D01*
X107119049Y-88833333D01*
X107214287Y-88785714D01*
X107357145Y-88785714D01*
X107452383Y-88833333D01*
X107500002Y-88880952D01*
X106166668Y-88785714D02*
X106166668Y-89452381D01*
X106595240Y-88785714D02*
X106595240Y-89309524D01*
X106547621Y-89404762D01*
X106452383Y-89452381D01*
X106309525Y-89452381D01*
X106214287Y-89404762D01*
X106166668Y-89357143D01*
X105690478Y-89452381D02*
X105690478Y-88452381D01*
X105690478Y-88833333D02*
X105595240Y-88785714D01*
X105404763Y-88785714D01*
X105309525Y-88833333D01*
X105261906Y-88880952D01*
X105214287Y-88976190D01*
X105214287Y-89261905D01*
X105261906Y-89357143D01*
X105309525Y-89404762D01*
X105404763Y-89452381D01*
X105595240Y-89452381D01*
X105690478Y-89404762D01*
X104785716Y-89357143D02*
X104738097Y-89404762D01*
X104785716Y-89452381D01*
X104833335Y-89404762D01*
X104785716Y-89357143D01*
X104785716Y-89452381D01*
X103880954Y-89404762D02*
X103976192Y-89452381D01*
X104166669Y-89452381D01*
X104261907Y-89404762D01*
X104309526Y-89357143D01*
X104357145Y-89261905D01*
X104357145Y-88976190D01*
X104309526Y-88880952D01*
X104261907Y-88833333D01*
X104166669Y-88785714D01*
X103976192Y-88785714D01*
X103880954Y-88833333D01*
X103309526Y-89452381D02*
X103404764Y-89404762D01*
X103452383Y-89357143D01*
X103500002Y-89261905D01*
X103500002Y-88976190D01*
X103452383Y-88880952D01*
X103404764Y-88833333D01*
X103309526Y-88785714D01*
X103166668Y-88785714D01*
X103071430Y-88833333D01*
X103023811Y-88880952D01*
X102976192Y-88976190D01*
X102976192Y-89261905D01*
X103023811Y-89357143D01*
X103071430Y-89404762D01*
X103166668Y-89452381D01*
X103309526Y-89452381D01*
X102547621Y-89452381D02*
X102547621Y-88785714D01*
X102547621Y-88880952D02*
X102500002Y-88833333D01*
X102404764Y-88785714D01*
X102261906Y-88785714D01*
X102166668Y-88833333D01*
X102119049Y-88928571D01*
X102119049Y-89452381D01*
X102119049Y-88928571D02*
X102071430Y-88833333D01*
X101976192Y-88785714D01*
X101833335Y-88785714D01*
X101738097Y-88833333D01*
X101690478Y-88928571D01*
X101690478Y-89452381D01*
X100500002Y-88404762D02*
X101357145Y-89690476D01*
X100166669Y-89452381D02*
X100166669Y-88452381D01*
X99595240Y-89452381D02*
X100023812Y-88880952D01*
X99595240Y-88452381D02*
X100166669Y-89023810D01*
X98738097Y-89452381D02*
X98738097Y-88928571D01*
X98785716Y-88833333D01*
X98880954Y-88785714D01*
X99071431Y-88785714D01*
X99166669Y-88833333D01*
X98738097Y-89404762D02*
X98833335Y-89452381D01*
X99071431Y-89452381D01*
X99166669Y-89404762D01*
X99214288Y-89309524D01*
X99214288Y-89214286D01*
X99166669Y-89119048D01*
X99071431Y-89071429D01*
X98833335Y-89071429D01*
X98738097Y-89023810D01*
X97880954Y-89404762D02*
X97976192Y-89452381D01*
X98166669Y-89452381D01*
X98261907Y-89404762D01*
X98309526Y-89309524D01*
X98309526Y-88928571D01*
X98261907Y-88833333D01*
X98166669Y-88785714D01*
X97976192Y-88785714D01*
X97880954Y-88833333D01*
X97833335Y-88928571D01*
X97833335Y-89023810D01*
X98309526Y-89119048D01*
X97404764Y-88785714D02*
X97404764Y-89785714D01*
X97404764Y-88833333D02*
X97309526Y-88785714D01*
X97119049Y-88785714D01*
X97023811Y-88833333D01*
X96976192Y-88880952D01*
X96928573Y-88976190D01*
X96928573Y-89261905D01*
X96976192Y-89357143D01*
X97023811Y-89404762D01*
X97119049Y-89452381D01*
X97309526Y-89452381D01*
X97404764Y-89404762D01*
X96642859Y-88785714D02*
X96261907Y-88785714D01*
X96500002Y-88452381D02*
X96500002Y-89309524D01*
X96452383Y-89404762D01*
X96357145Y-89452381D01*
X96261907Y-89452381D01*
X95928573Y-88785714D02*
X95928573Y-89452381D01*
X95928573Y-88880952D02*
X95880954Y-88833333D01*
X95785716Y-88785714D01*
X95642858Y-88785714D01*
X95547620Y-88833333D01*
X95500001Y-88928571D01*
X95500001Y-89452381D01*
X94690477Y-88928571D02*
X94547620Y-88976190D01*
X94500001Y-89023810D01*
X94452382Y-89119048D01*
X94452382Y-89261905D01*
X94500001Y-89357143D01*
X94547620Y-89404762D01*
X94642858Y-89452381D01*
X95023811Y-89452381D01*
X95023811Y-88452381D01*
X94690477Y-88452381D01*
X94595239Y-88500000D01*
X94547620Y-88547619D01*
X94500001Y-88642857D01*
X94500001Y-88738095D01*
X94547620Y-88833333D01*
X94595239Y-88880952D01*
X94690477Y-88928571D01*
X95023811Y-88928571D01*
X93595239Y-89452381D02*
X93595239Y-88928571D01*
X93642858Y-88833333D01*
X93738096Y-88785714D01*
X93928573Y-88785714D01*
X94023811Y-88833333D01*
X93595239Y-89404762D02*
X93690477Y-89452381D01*
X93928573Y-89452381D01*
X94023811Y-89404762D01*
X94071430Y-89309524D01*
X94071430Y-89214286D01*
X94023811Y-89119048D01*
X93928573Y-89071429D01*
X93690477Y-89071429D01*
X93595239Y-89023810D01*
X92976192Y-89452381D02*
X93071430Y-89404762D01*
X93119049Y-89309524D01*
X93119049Y-88452381D01*
X92166667Y-88785714D02*
X92166667Y-89452381D01*
X92595239Y-88785714D02*
X92595239Y-89309524D01*
X92547620Y-89404762D01*
X92452382Y-89452381D01*
X92309524Y-89452381D01*
X92214286Y-89404762D01*
X92166667Y-89357143D01*
X90976191Y-88404762D02*
X91833334Y-89690476D01*
X90690477Y-89166667D02*
X90214286Y-89166667D01*
X90785715Y-89452381D02*
X90452382Y-88452381D01*
X90119048Y-89452381D01*
X89785715Y-89452381D02*
X89785715Y-88785714D01*
X89785715Y-88976190D02*
X89738096Y-88880952D01*
X89690477Y-88833333D01*
X89595239Y-88785714D01*
X89500000Y-88785714D01*
X88738095Y-89452381D02*
X88738095Y-88452381D01*
X88738095Y-89404762D02*
X88833333Y-89452381D01*
X89023810Y-89452381D01*
X89119048Y-89404762D01*
X89166667Y-89357143D01*
X89214286Y-89261905D01*
X89214286Y-88976190D01*
X89166667Y-88880952D01*
X89119048Y-88833333D01*
X89023810Y-88785714D01*
X88833333Y-88785714D01*
X88738095Y-88833333D01*
X87833333Y-88785714D02*
X87833333Y-89452381D01*
X88261905Y-88785714D02*
X88261905Y-89309524D01*
X88214286Y-89404762D01*
X88119048Y-89452381D01*
X87976190Y-89452381D01*
X87880952Y-89404762D01*
X87833333Y-89357143D01*
X87357143Y-89452381D02*
X87357143Y-88785714D01*
X87357143Y-88452381D02*
X87404762Y-88500000D01*
X87357143Y-88547619D01*
X87309524Y-88500000D01*
X87357143Y-88452381D01*
X87357143Y-88547619D01*
X86880953Y-88785714D02*
X86880953Y-89452381D01*
X86880953Y-88880952D02*
X86833334Y-88833333D01*
X86738096Y-88785714D01*
X86595238Y-88785714D01*
X86500000Y-88833333D01*
X86452381Y-88928571D01*
X86452381Y-89452381D01*
X85833334Y-89452381D02*
X85928572Y-89404762D01*
X85976191Y-89357143D01*
X86023810Y-89261905D01*
X86023810Y-88976190D01*
X85976191Y-88880952D01*
X85928572Y-88833333D01*
X85833334Y-88785714D01*
X85690476Y-88785714D01*
X85595238Y-88833333D01*
X85547619Y-88880952D01*
X85500000Y-88976190D01*
X85500000Y-89261905D01*
X85547619Y-89357143D01*
X85595238Y-89404762D01*
X85690476Y-89452381D01*
X85833334Y-89452381D01*
X85309524Y-89547619D02*
X84547619Y-89547619D01*
X84357143Y-89404762D02*
X84214286Y-89452381D01*
X83976190Y-89452381D01*
X83880952Y-89404762D01*
X83833333Y-89357143D01*
X83785714Y-89261905D01*
X83785714Y-89166667D01*
X83833333Y-89071429D01*
X83880952Y-89023810D01*
X83976190Y-88976190D01*
X84166667Y-88928571D01*
X84261905Y-88880952D01*
X84309524Y-88833333D01*
X84357143Y-88738095D01*
X84357143Y-88642857D01*
X84309524Y-88547619D01*
X84261905Y-88500000D01*
X84166667Y-88452381D01*
X83928571Y-88452381D01*
X83785714Y-88500000D01*
X83357143Y-88785714D02*
X83357143Y-89785714D01*
X83357143Y-88833333D02*
X83261905Y-88785714D01*
X83071428Y-88785714D01*
X82976190Y-88833333D01*
X82928571Y-88880952D01*
X82880952Y-88976190D01*
X82880952Y-89261905D01*
X82928571Y-89357143D01*
X82976190Y-89404762D01*
X83071428Y-89452381D01*
X83261905Y-89452381D01*
X83357143Y-89404762D01*
X82309524Y-89452381D02*
X82404762Y-89404762D01*
X82452381Y-89357143D01*
X82500000Y-89261905D01*
X82500000Y-88976190D01*
X82452381Y-88880952D01*
X82404762Y-88833333D01*
X82309524Y-88785714D01*
X82166666Y-88785714D01*
X82071428Y-88833333D01*
X82023809Y-88880952D01*
X81976190Y-88976190D01*
X81976190Y-89261905D01*
X82023809Y-89357143D01*
X82071428Y-89404762D01*
X82166666Y-89452381D01*
X82309524Y-89452381D01*
X81690476Y-88785714D02*
X81309524Y-88785714D01*
X81547619Y-88452381D02*
X81547619Y-89309524D01*
X81500000Y-89404762D01*
X81404762Y-89452381D01*
X81309524Y-89452381D01*
X81214285Y-89547619D02*
X80452380Y-89547619D01*
X80309523Y-88452381D02*
X80071428Y-89452381D01*
X79880951Y-88738095D01*
X79690475Y-89452381D01*
X79452380Y-88452381D01*
X78690475Y-89404762D02*
X78785713Y-89452381D01*
X78976190Y-89452381D01*
X79071428Y-89404762D01*
X79119047Y-89309524D01*
X79119047Y-88928571D01*
X79071428Y-88833333D01*
X78976190Y-88785714D01*
X78785713Y-88785714D01*
X78690475Y-88833333D01*
X78642856Y-88928571D01*
X78642856Y-89023810D01*
X79119047Y-89119048D01*
X78071428Y-89452381D02*
X78166666Y-89404762D01*
X78214285Y-89309524D01*
X78214285Y-88452381D01*
X77261903Y-89452381D02*
X77261903Y-88452381D01*
X77261903Y-89404762D02*
X77357141Y-89452381D01*
X77547618Y-89452381D01*
X77642856Y-89404762D01*
X77690475Y-89357143D01*
X77738094Y-89261905D01*
X77738094Y-88976190D01*
X77690475Y-88880952D01*
X77642856Y-88833333D01*
X77547618Y-88785714D01*
X77357141Y-88785714D01*
X77261903Y-88833333D01*
X76404760Y-89404762D02*
X76499998Y-89452381D01*
X76690475Y-89452381D01*
X76785713Y-89404762D01*
X76833332Y-89309524D01*
X76833332Y-88928571D01*
X76785713Y-88833333D01*
X76690475Y-88785714D01*
X76499998Y-88785714D01*
X76404760Y-88833333D01*
X76357141Y-88928571D01*
X76357141Y-89023810D01*
X76833332Y-89119048D01*
X75928570Y-89452381D02*
X75928570Y-88785714D01*
X75928570Y-88976190D02*
X75880951Y-88880952D01*
X75833332Y-88833333D01*
X75738094Y-88785714D01*
X75642855Y-88785714D01*
X75547617Y-89547619D02*
X74785712Y-89547619D01*
X74690474Y-88452381D02*
X74357141Y-89452381D01*
X74023807Y-88452381D01*
X73785712Y-88452381D02*
X73166664Y-88452381D01*
X73499998Y-88833333D01*
X73357140Y-88833333D01*
X73261902Y-88880952D01*
X73214283Y-88928571D01*
X73166664Y-89023810D01*
X73166664Y-89261905D01*
X73214283Y-89357143D01*
X73261902Y-89404762D01*
X73357140Y-89452381D01*
X73642855Y-89452381D01*
X73738093Y-89404762D01*
X73785712Y-89357143D01*
X114500002Y-79816667D02*
X114023811Y-79816667D01*
X114595240Y-80102381D02*
X114261907Y-79102381D01*
X113928573Y-80102381D01*
X113595240Y-80102381D02*
X113595240Y-79435714D01*
X113595240Y-79626190D02*
X113547621Y-79530952D01*
X113500002Y-79483333D01*
X113404764Y-79435714D01*
X113309525Y-79435714D01*
X112547620Y-80102381D02*
X112547620Y-79102381D01*
X112547620Y-80054762D02*
X112642858Y-80102381D01*
X112833335Y-80102381D01*
X112928573Y-80054762D01*
X112976192Y-80007143D01*
X113023811Y-79911905D01*
X113023811Y-79626190D01*
X112976192Y-79530952D01*
X112928573Y-79483333D01*
X112833335Y-79435714D01*
X112642858Y-79435714D01*
X112547620Y-79483333D01*
X111642858Y-79435714D02*
X111642858Y-80102381D01*
X112071430Y-79435714D02*
X112071430Y-79959524D01*
X112023811Y-80054762D01*
X111928573Y-80102381D01*
X111785715Y-80102381D01*
X111690477Y-80054762D01*
X111642858Y-80007143D01*
X111166668Y-80102381D02*
X111166668Y-79435714D01*
X111166668Y-79102381D02*
X111214287Y-79150000D01*
X111166668Y-79197619D01*
X111119049Y-79150000D01*
X111166668Y-79102381D01*
X111166668Y-79197619D01*
X110690478Y-79435714D02*
X110690478Y-80102381D01*
X110690478Y-79530952D02*
X110642859Y-79483333D01*
X110547621Y-79435714D01*
X110404763Y-79435714D01*
X110309525Y-79483333D01*
X110261906Y-79578571D01*
X110261906Y-80102381D01*
X109642859Y-80102381D02*
X109738097Y-80054762D01*
X109785716Y-80007143D01*
X109833335Y-79911905D01*
X109833335Y-79626190D01*
X109785716Y-79530952D01*
X109738097Y-79483333D01*
X109642859Y-79435714D01*
X109500001Y-79435714D01*
X109404763Y-79483333D01*
X109357144Y-79530952D01*
X109309525Y-79626190D01*
X109309525Y-79911905D01*
X109357144Y-80007143D01*
X109404763Y-80054762D01*
X109500001Y-80102381D01*
X109642859Y-80102381D01*
X107785715Y-79578571D02*
X107642858Y-79626190D01*
X107595239Y-79673810D01*
X107547620Y-79769048D01*
X107547620Y-79911905D01*
X107595239Y-80007143D01*
X107642858Y-80054762D01*
X107738096Y-80102381D01*
X108119049Y-80102381D01*
X108119049Y-79102381D01*
X107785715Y-79102381D01*
X107690477Y-79150000D01*
X107642858Y-79197619D01*
X107595239Y-79292857D01*
X107595239Y-79388095D01*
X107642858Y-79483333D01*
X107690477Y-79530952D01*
X107785715Y-79578571D01*
X108119049Y-79578571D01*
X106690477Y-80102381D02*
X106690477Y-79578571D01*
X106738096Y-79483333D01*
X106833334Y-79435714D01*
X107023811Y-79435714D01*
X107119049Y-79483333D01*
X106690477Y-80054762D02*
X106785715Y-80102381D01*
X107023811Y-80102381D01*
X107119049Y-80054762D01*
X107166668Y-79959524D01*
X107166668Y-79864286D01*
X107119049Y-79769048D01*
X107023811Y-79721429D01*
X106785715Y-79721429D01*
X106690477Y-79673810D01*
X106357144Y-79435714D02*
X105976192Y-79435714D01*
X106214287Y-79102381D02*
X106214287Y-79959524D01*
X106166668Y-80054762D01*
X106071430Y-80102381D01*
X105976192Y-80102381D01*
X105785715Y-79435714D02*
X105404763Y-79435714D01*
X105642858Y-79102381D02*
X105642858Y-79959524D01*
X105595239Y-80054762D01*
X105500001Y-80102381D01*
X105404763Y-80102381D01*
X104690476Y-80054762D02*
X104785714Y-80102381D01*
X104976191Y-80102381D01*
X105071429Y-80054762D01*
X105119048Y-79959524D01*
X105119048Y-79578571D01*
X105071429Y-79483333D01*
X104976191Y-79435714D01*
X104785714Y-79435714D01*
X104690476Y-79483333D01*
X104642857Y-79578571D01*
X104642857Y-79673810D01*
X105119048Y-79769048D01*
X104214286Y-80102381D02*
X104214286Y-79435714D01*
X104214286Y-79626190D02*
X104166667Y-79530952D01*
X104119048Y-79483333D01*
X104023810Y-79435714D01*
X103928571Y-79435714D01*
X103690476Y-79435714D02*
X103452381Y-80102381D01*
X103214285Y-79435714D02*
X103452381Y-80102381D01*
X103547619Y-80340476D01*
X103595238Y-80388095D01*
X103690476Y-80435714D01*
X102119047Y-80054762D02*
X101976190Y-80102381D01*
X101738094Y-80102381D01*
X101642856Y-80054762D01*
X101595237Y-80007143D01*
X101547618Y-79911905D01*
X101547618Y-79816667D01*
X101595237Y-79721429D01*
X101642856Y-79673810D01*
X101738094Y-79626190D01*
X101928571Y-79578571D01*
X102023809Y-79530952D01*
X102071428Y-79483333D01*
X102119047Y-79388095D01*
X102119047Y-79292857D01*
X102071428Y-79197619D01*
X102023809Y-79150000D01*
X101928571Y-79102381D01*
X101690475Y-79102381D01*
X101547618Y-79150000D01*
X101119047Y-79435714D02*
X101119047Y-80435714D01*
X101119047Y-79483333D02*
X101023809Y-79435714D01*
X100833332Y-79435714D01*
X100738094Y-79483333D01*
X100690475Y-79530952D01*
X100642856Y-79626190D01*
X100642856Y-79911905D01*
X100690475Y-80007143D01*
X100738094Y-80054762D01*
X100833332Y-80102381D01*
X101023809Y-80102381D01*
X101119047Y-80054762D01*
X100071428Y-80102381D02*
X100166666Y-80054762D01*
X100214285Y-80007143D01*
X100261904Y-79911905D01*
X100261904Y-79626190D01*
X100214285Y-79530952D01*
X100166666Y-79483333D01*
X100071428Y-79435714D01*
X99928570Y-79435714D01*
X99833332Y-79483333D01*
X99785713Y-79530952D01*
X99738094Y-79626190D01*
X99738094Y-79911905D01*
X99785713Y-80007143D01*
X99833332Y-80054762D01*
X99928570Y-80102381D01*
X100071428Y-80102381D01*
X99452380Y-79435714D02*
X99071428Y-79435714D01*
X99309523Y-79102381D02*
X99309523Y-79959524D01*
X99261904Y-80054762D01*
X99166666Y-80102381D01*
X99071428Y-80102381D01*
X98071427Y-79102381D02*
X97833332Y-80102381D01*
X97642855Y-79388095D01*
X97452379Y-80102381D01*
X97214284Y-79102381D01*
X96452379Y-80054762D02*
X96547617Y-80102381D01*
X96738094Y-80102381D01*
X96833332Y-80054762D01*
X96880951Y-79959524D01*
X96880951Y-79578571D01*
X96833332Y-79483333D01*
X96738094Y-79435714D01*
X96547617Y-79435714D01*
X96452379Y-79483333D01*
X96404760Y-79578571D01*
X96404760Y-79673810D01*
X96880951Y-79769048D01*
X95833332Y-80102381D02*
X95928570Y-80054762D01*
X95976189Y-79959524D01*
X95976189Y-79102381D01*
X95023807Y-80102381D02*
X95023807Y-79102381D01*
X95023807Y-80054762D02*
X95119045Y-80102381D01*
X95309522Y-80102381D01*
X95404760Y-80054762D01*
X95452379Y-80007143D01*
X95499998Y-79911905D01*
X95499998Y-79626190D01*
X95452379Y-79530952D01*
X95404760Y-79483333D01*
X95309522Y-79435714D01*
X95119045Y-79435714D01*
X95023807Y-79483333D01*
X94166664Y-80054762D02*
X94261902Y-80102381D01*
X94452379Y-80102381D01*
X94547617Y-80054762D01*
X94595236Y-79959524D01*
X94595236Y-79578571D01*
X94547617Y-79483333D01*
X94452379Y-79435714D01*
X94261902Y-79435714D01*
X94166664Y-79483333D01*
X94119045Y-79578571D01*
X94119045Y-79673810D01*
X94595236Y-79769048D01*
X93690474Y-80102381D02*
X93690474Y-79435714D01*
X93690474Y-79626190D02*
X93642855Y-79530952D01*
X93595236Y-79483333D01*
X93499998Y-79435714D01*
X93404759Y-79435714D01*
X92452378Y-79102381D02*
X92119045Y-80102381D01*
X91785711Y-79102381D01*
X91547616Y-79102381D02*
X90928568Y-79102381D01*
X91261902Y-79483333D01*
X91119044Y-79483333D01*
X91023806Y-79530952D01*
X90976187Y-79578571D01*
X90928568Y-79673810D01*
X90928568Y-79911905D01*
X90976187Y-80007143D01*
X91023806Y-80054762D01*
X91119044Y-80102381D01*
X91404759Y-80102381D01*
X91499997Y-80054762D01*
X91547616Y-80007143D01*
X90499997Y-80007143D02*
X90452378Y-80054762D01*
X90499997Y-80102381D01*
X90547616Y-80054762D01*
X90499997Y-80007143D01*
X90499997Y-80102381D01*
X90119045Y-79102381D02*
X89499997Y-79102381D01*
X89833331Y-79483333D01*
X89690473Y-79483333D01*
X89595235Y-79530952D01*
X89547616Y-79578571D01*
X89499997Y-79673810D01*
X89499997Y-79911905D01*
X89547616Y-80007143D01*
X89595235Y-80054762D01*
X89690473Y-80102381D01*
X89976188Y-80102381D01*
X90071426Y-80054762D01*
X90119045Y-80007143D01*
X107595239Y-81802381D02*
X107595239Y-80802381D01*
X107595239Y-81183333D02*
X107500001Y-81135714D01*
X107309524Y-81135714D01*
X107214286Y-81183333D01*
X107166667Y-81230952D01*
X107119048Y-81326190D01*
X107119048Y-81611905D01*
X107166667Y-81707143D01*
X107214286Y-81754762D01*
X107309524Y-81802381D01*
X107500001Y-81802381D01*
X107595239Y-81754762D01*
X106785715Y-81135714D02*
X106547620Y-81802381D01*
X106309524Y-81135714D02*
X106547620Y-81802381D01*
X106642858Y-82040476D01*
X106690477Y-82088095D01*
X106785715Y-82135714D01*
X105166667Y-81802381D02*
X105166667Y-80802381D01*
X104595238Y-81802381D02*
X105023810Y-81230952D01*
X104595238Y-80802381D02*
X105166667Y-81373810D01*
X103738095Y-81802381D02*
X103738095Y-81278571D01*
X103785714Y-81183333D01*
X103880952Y-81135714D01*
X104071429Y-81135714D01*
X104166667Y-81183333D01*
X103738095Y-81754762D02*
X103833333Y-81802381D01*
X104071429Y-81802381D01*
X104166667Y-81754762D01*
X104214286Y-81659524D01*
X104214286Y-81564286D01*
X104166667Y-81469048D01*
X104071429Y-81421429D01*
X103833333Y-81421429D01*
X103738095Y-81373810D01*
X102880952Y-81754762D02*
X102976190Y-81802381D01*
X103166667Y-81802381D01*
X103261905Y-81754762D01*
X103309524Y-81659524D01*
X103309524Y-81278571D01*
X103261905Y-81183333D01*
X103166667Y-81135714D01*
X102976190Y-81135714D01*
X102880952Y-81183333D01*
X102833333Y-81278571D01*
X102833333Y-81373810D01*
X103309524Y-81469048D01*
X102404762Y-81135714D02*
X102404762Y-82135714D01*
X102404762Y-81183333D02*
X102309524Y-81135714D01*
X102119047Y-81135714D01*
X102023809Y-81183333D01*
X101976190Y-81230952D01*
X101928571Y-81326190D01*
X101928571Y-81611905D01*
X101976190Y-81707143D01*
X102023809Y-81754762D01*
X102119047Y-81802381D01*
X102309524Y-81802381D01*
X102404762Y-81754762D01*
X101642857Y-81135714D02*
X101261905Y-81135714D01*
X101500000Y-80802381D02*
X101500000Y-81659524D01*
X101452381Y-81754762D01*
X101357143Y-81802381D01*
X101261905Y-81802381D01*
X100928571Y-81135714D02*
X100928571Y-81802381D01*
X100928571Y-81230952D02*
X100880952Y-81183333D01*
X100785714Y-81135714D01*
X100642856Y-81135714D01*
X100547618Y-81183333D01*
X100499999Y-81278571D01*
X100499999Y-81802381D01*
X98928570Y-81278571D02*
X98785713Y-81326190D01*
X98738094Y-81373810D01*
X98690475Y-81469048D01*
X98690475Y-81611905D01*
X98738094Y-81707143D01*
X98785713Y-81754762D01*
X98880951Y-81802381D01*
X99261904Y-81802381D01*
X99261904Y-80802381D01*
X98928570Y-80802381D01*
X98833332Y-80850000D01*
X98785713Y-80897619D01*
X98738094Y-80992857D01*
X98738094Y-81088095D01*
X98785713Y-81183333D01*
X98833332Y-81230952D01*
X98928570Y-81278571D01*
X99261904Y-81278571D01*
X97833332Y-81802381D02*
X97833332Y-81278571D01*
X97880951Y-81183333D01*
X97976189Y-81135714D01*
X98166666Y-81135714D01*
X98261904Y-81183333D01*
X97833332Y-81754762D02*
X97928570Y-81802381D01*
X98166666Y-81802381D01*
X98261904Y-81754762D01*
X98309523Y-81659524D01*
X98309523Y-81564286D01*
X98261904Y-81469048D01*
X98166666Y-81421429D01*
X97928570Y-81421429D01*
X97833332Y-81373810D01*
X97214285Y-81802381D02*
X97309523Y-81754762D01*
X97357142Y-81659524D01*
X97357142Y-80802381D01*
X96404760Y-81135714D02*
X96404760Y-81802381D01*
X96833332Y-81135714D02*
X96833332Y-81659524D01*
X96785713Y-81754762D01*
X96690475Y-81802381D01*
X96547617Y-81802381D01*
X96452379Y-81754762D01*
X96404760Y-81707143D01*
M02*
