G04 #@! TF.FileFunction,Copper,L2,Bot,Signal*
%FSLAX46Y46*%
G04 Gerber Fmt 4.6, Leading zero omitted, Abs format (unit mm)*
G04 Created by KiCad (PCBNEW 4.0.4-stable) date 08/22/17 11:56:14*
%MOMM*%
%LPD*%
G01*
G04 APERTURE LIST*
%ADD10C,0.100000*%
%ADD11O,3.500120X1.699260*%
%ADD12O,1.520000X2.520000*%
%ADD13R,4.500000X3.300000*%
%ADD14C,0.600000*%
%ADD15C,0.250000*%
%ADD16C,2.000000*%
%ADD17C,0.350000*%
%ADD18C,0.500000*%
%ADD19C,0.254000*%
G04 APERTURE END LIST*
D10*
D11*
X177000000Y-80000000D03*
X177000000Y-82540000D03*
X177000000Y-77460000D03*
X133000000Y-80000000D03*
X133000000Y-77460000D03*
X133000000Y-82540000D03*
D12*
X140000000Y-72000000D03*
X142540000Y-72000000D03*
X170000000Y-72000000D03*
X167460000Y-72000000D03*
D11*
X177000000Y-119000000D03*
X177000000Y-121540000D03*
X177000000Y-116460000D03*
X177000000Y-106000000D03*
X177000000Y-108540000D03*
X177000000Y-103460000D03*
X177000000Y-93000000D03*
X177000000Y-95540000D03*
X177000000Y-90460000D03*
X133000000Y-93000000D03*
X133000000Y-90460000D03*
X133000000Y-95540000D03*
X133000000Y-106000000D03*
X133000000Y-103460000D03*
X133000000Y-108540000D03*
X133000000Y-119000000D03*
X133000000Y-116460000D03*
X133000000Y-121540000D03*
D12*
X146100000Y-128000000D03*
X148640000Y-128000000D03*
X151180000Y-128000000D03*
X153720000Y-128000000D03*
X156260000Y-128000000D03*
X158800000Y-128000000D03*
X161340000Y-128000000D03*
X163880000Y-128000000D03*
D13*
X157150000Y-73250000D03*
X148350000Y-73250000D03*
D14*
X142900000Y-77500000D03*
X142000000Y-77500000D03*
X141100000Y-77500000D03*
X141900000Y-93000000D03*
X141900000Y-106100000D03*
X141900000Y-119100000D03*
X168100000Y-119100000D03*
X169000000Y-119100000D03*
X169900000Y-119100000D03*
X168100000Y-80000000D03*
X169000000Y-80000000D03*
X169900000Y-80000000D03*
X168100000Y-93100000D03*
X169000000Y-93100000D03*
X169900000Y-93100000D03*
X168100000Y-106100000D03*
X169000000Y-106100000D03*
X169900000Y-106100000D03*
X140100000Y-93000000D03*
X141000000Y-93000000D03*
X141000000Y-106100000D03*
X140100000Y-106100000D03*
X140100000Y-119100000D03*
X141000000Y-119100000D03*
X163750000Y-75000000D03*
X163750000Y-74000000D03*
X163750000Y-73000000D03*
X163750000Y-72000000D03*
X163750000Y-71000000D03*
X159750000Y-71000000D03*
X160750000Y-71000000D03*
X161750000Y-71000000D03*
X162750000Y-71000000D03*
X159750000Y-75000000D03*
X161750000Y-75000000D03*
X160750000Y-75000000D03*
X162750000Y-75000000D03*
X162750000Y-73000000D03*
X161750000Y-73000000D03*
X160750000Y-73000000D03*
X159750000Y-73000000D03*
X159750000Y-74000000D03*
X160750000Y-74000000D03*
X161750000Y-74000000D03*
X162750000Y-74000000D03*
X159750000Y-72000000D03*
X160750000Y-72000000D03*
X161750000Y-72000000D03*
X162750000Y-72000000D03*
X165200000Y-122900000D03*
X145300000Y-122900000D03*
D15*
X142000000Y-77500000D02*
X142900000Y-77500000D01*
X142000000Y-77500000D02*
X141100000Y-77500000D01*
X141000000Y-93000000D02*
X141900000Y-93000000D01*
X141000000Y-106100000D02*
X141900000Y-106100000D01*
X141000000Y-119100000D02*
X141900000Y-119100000D01*
X169000000Y-119100000D02*
X168100000Y-119100000D01*
X169000000Y-119100000D02*
X169900000Y-119100000D01*
X169000000Y-80000000D02*
X168100000Y-80000000D01*
X169000000Y-80000000D02*
X169900000Y-80000000D01*
X169000000Y-93100000D02*
X168100000Y-93100000D01*
X169000000Y-93100000D02*
X169900000Y-93100000D01*
X169000000Y-106100000D02*
X168100000Y-106100000D01*
X169000000Y-106100000D02*
X169900000Y-106100000D01*
D16*
X133000000Y-82540000D02*
X137710000Y-82540000D01*
X137710000Y-82540000D02*
X137750000Y-82500000D01*
D15*
X141000000Y-93000000D02*
X140100000Y-93000000D01*
X141000000Y-106100000D02*
X142000000Y-106100000D01*
X141000000Y-106100000D02*
X140100000Y-106100000D01*
X141000000Y-106100000D02*
X142000000Y-106100000D01*
X141000000Y-119100000D02*
X140100000Y-119100000D01*
X148350000Y-73250000D02*
X146000000Y-73250000D01*
X144750000Y-72000000D02*
X142540000Y-72000000D01*
X146000000Y-73250000D02*
X144750000Y-72000000D01*
D16*
X177000000Y-77460000D02*
X172290000Y-77460000D01*
X172290000Y-77460000D02*
X172250000Y-77500000D01*
X133000000Y-108540000D02*
X137210000Y-108540000D01*
X137210000Y-108540000D02*
X137250000Y-108500000D01*
X133000000Y-121540000D02*
X137960000Y-121540000D01*
X137960000Y-121540000D02*
X138000000Y-121500000D01*
X177000000Y-116460000D02*
X172290000Y-116460000D01*
X172290000Y-116460000D02*
X172250000Y-116500000D01*
X177000000Y-103460000D02*
X172460000Y-103460000D01*
X172460000Y-103460000D02*
X172250000Y-103250000D01*
X177000000Y-90460000D02*
X172540000Y-90460000D01*
X172540000Y-90460000D02*
X172500000Y-90500000D01*
X133000000Y-95540000D02*
X137460000Y-95540000D01*
X137460000Y-95540000D02*
X137500000Y-95500000D01*
D17*
X162750000Y-71000000D02*
X163750000Y-71000000D01*
X163750000Y-74000000D02*
X163750000Y-75000000D01*
X163750000Y-72000000D02*
X163750000Y-73000000D01*
X162750000Y-72000000D02*
X162750000Y-71000000D01*
X161750000Y-71000000D02*
X160750000Y-71000000D01*
D15*
X161750000Y-75000000D02*
X160750000Y-75000000D01*
X162750000Y-72000000D02*
X162750000Y-73000000D01*
X161750000Y-73000000D02*
X160750000Y-73000000D01*
X159750000Y-73000000D02*
X159750000Y-74000000D01*
X160750000Y-74000000D02*
X161750000Y-74000000D01*
X162750000Y-74000000D02*
X162750000Y-75000000D01*
X157150000Y-73500000D02*
X158250000Y-73500000D01*
X158250000Y-73500000D02*
X159750000Y-72000000D01*
X160750000Y-72000000D02*
X161750000Y-72000000D01*
D18*
X158800000Y-128000000D02*
X158800000Y-127200000D01*
X158800000Y-128000000D02*
X158800000Y-126950000D01*
X156260000Y-128000000D02*
X156260000Y-126740000D01*
X156260000Y-126740000D02*
X158700000Y-124300000D01*
X163800000Y-124300000D02*
X165200000Y-122900000D01*
X158700000Y-124300000D02*
X163800000Y-124300000D01*
X156260000Y-128000000D02*
X156260000Y-127490000D01*
X153720000Y-128000000D02*
X153720000Y-127220000D01*
X153720000Y-127220000D02*
X150700000Y-124200000D01*
X146600000Y-124200000D02*
X145300000Y-122900000D01*
X150700000Y-124200000D02*
X146600000Y-124200000D01*
X153720000Y-126970000D02*
X153720000Y-128000000D01*
X151180000Y-128000000D02*
X151180000Y-127430000D01*
D19*
G36*
X164123000Y-75373000D02*
X159377000Y-75373000D01*
X159377000Y-70710000D01*
X164123000Y-70710000D01*
X164123000Y-75373000D01*
X164123000Y-75373000D01*
G37*
X164123000Y-75373000D02*
X159377000Y-75373000D01*
X159377000Y-70710000D01*
X164123000Y-70710000D01*
X164123000Y-75373000D01*
G36*
X139002507Y-71059332D02*
X138909800Y-71474600D01*
X138909800Y-71974600D01*
X139974600Y-71974600D01*
X139974600Y-71954600D01*
X140025400Y-71954600D01*
X140025400Y-71974600D01*
X141090200Y-71974600D01*
X141090200Y-71474600D01*
X140997493Y-71059332D01*
X140869421Y-70877000D01*
X141670579Y-70877000D01*
X141542507Y-71059332D01*
X141449800Y-71474600D01*
X141449800Y-71974600D01*
X142514600Y-71974600D01*
X142514600Y-71954600D01*
X142565400Y-71954600D01*
X142565400Y-71974600D01*
X143630200Y-71974600D01*
X143630200Y-71474600D01*
X143537493Y-71059332D01*
X143409421Y-70877000D01*
X143873000Y-70877000D01*
X143873000Y-71500000D01*
X143883006Y-71549410D01*
X143911447Y-71591035D01*
X143953841Y-71618315D01*
X144000000Y-71627000D01*
X146123000Y-71627000D01*
X146123000Y-74750000D01*
X146133006Y-74799410D01*
X146161447Y-74841035D01*
X146203841Y-74868315D01*
X146250000Y-74877000D01*
X150623000Y-74877000D01*
X150623000Y-76250000D01*
X150633006Y-76299410D01*
X150661447Y-76341035D01*
X150703841Y-76368315D01*
X150750000Y-76377000D01*
X166000000Y-76377000D01*
X166049410Y-76366994D01*
X166091035Y-76338553D01*
X166118315Y-76296159D01*
X166127000Y-76250000D01*
X166127000Y-72848820D01*
X166171188Y-73070968D01*
X166473586Y-73523539D01*
X166926157Y-73825937D01*
X167460000Y-73932125D01*
X167993843Y-73825937D01*
X168446414Y-73523539D01*
X168748812Y-73070968D01*
X168855000Y-72537125D01*
X168855000Y-71462875D01*
X168748812Y-70929032D01*
X168714045Y-70877000D01*
X173373000Y-70877000D01*
X173373000Y-74750000D01*
X173383006Y-74799410D01*
X173410197Y-74839803D01*
X175160197Y-76589803D01*
X175202211Y-76617666D01*
X175250000Y-76627000D01*
X177373000Y-76627000D01*
X177373000Y-78373000D01*
X175250000Y-78373000D01*
X175200590Y-78383006D01*
X175160197Y-78410197D01*
X173410197Y-80160197D01*
X173382334Y-80202211D01*
X173373000Y-80250000D01*
X173373000Y-87750000D01*
X173383006Y-87799410D01*
X173410197Y-87839803D01*
X175160197Y-89589803D01*
X175202211Y-89617666D01*
X175250000Y-89627000D01*
X177373000Y-89627000D01*
X177373000Y-91373000D01*
X175250000Y-91373000D01*
X175200590Y-91383006D01*
X175160197Y-91410197D01*
X173410197Y-93160197D01*
X173382334Y-93202211D01*
X173373000Y-93250000D01*
X173373000Y-100750000D01*
X173383006Y-100799410D01*
X173410197Y-100839803D01*
X175160197Y-102589803D01*
X175202211Y-102617666D01*
X175250000Y-102627000D01*
X177373000Y-102627000D01*
X177373000Y-104373000D01*
X175250000Y-104373000D01*
X175200590Y-104383006D01*
X175160197Y-104410197D01*
X173410197Y-106160197D01*
X173382334Y-106202211D01*
X173373000Y-106250000D01*
X173373000Y-113750000D01*
X173383006Y-113799410D01*
X173410197Y-113839803D01*
X175160197Y-115589803D01*
X175202211Y-115617666D01*
X175250000Y-115627000D01*
X177373000Y-115627000D01*
X177373000Y-117373000D01*
X175250000Y-117373000D01*
X175200590Y-117383006D01*
X175160197Y-117410197D01*
X173410197Y-119160197D01*
X173382334Y-119202211D01*
X173373000Y-119250000D01*
X173373000Y-129290000D01*
X166127000Y-129290000D01*
X166127000Y-126883207D01*
X167814665Y-126883207D01*
X168108630Y-127594658D01*
X168652479Y-128139457D01*
X169363416Y-128434663D01*
X170133207Y-128435335D01*
X170844658Y-128141370D01*
X171389457Y-127597521D01*
X171684663Y-126886584D01*
X171685335Y-126116793D01*
X171391370Y-125405342D01*
X170847521Y-124860543D01*
X170136584Y-124565337D01*
X169366793Y-124564665D01*
X168655342Y-124858630D01*
X168110543Y-125402479D01*
X167815337Y-126113416D01*
X167814665Y-126883207D01*
X166127000Y-126883207D01*
X166127000Y-123105675D01*
X166134838Y-123086799D01*
X166135162Y-122714833D01*
X166127000Y-122695079D01*
X166127000Y-122250000D01*
X166116994Y-122200590D01*
X166088553Y-122158965D01*
X166046159Y-122131685D01*
X166000000Y-122123000D01*
X165745493Y-122123000D01*
X165730327Y-122107808D01*
X165386799Y-121965162D01*
X165014833Y-121964838D01*
X164671057Y-122106883D01*
X164654912Y-122123000D01*
X145845493Y-122123000D01*
X145830327Y-122107808D01*
X145486799Y-121965162D01*
X145114833Y-121964838D01*
X144771057Y-122106883D01*
X144754912Y-122123000D01*
X144000000Y-122123000D01*
X143950590Y-122133006D01*
X143908965Y-122161447D01*
X143881685Y-122203841D01*
X143873000Y-122250000D01*
X143873000Y-129290000D01*
X136627000Y-129290000D01*
X136627000Y-126883207D01*
X138314665Y-126883207D01*
X138608630Y-127594658D01*
X139152479Y-128139457D01*
X139863416Y-128434663D01*
X140633207Y-128435335D01*
X141344658Y-128141370D01*
X141889457Y-127597521D01*
X142184663Y-126886584D01*
X142185335Y-126116793D01*
X141891370Y-125405342D01*
X141347521Y-124860543D01*
X140636584Y-124565337D01*
X139866793Y-124564665D01*
X139155342Y-124858630D01*
X138610543Y-125402479D01*
X138315337Y-126113416D01*
X138314665Y-126883207D01*
X136627000Y-126883207D01*
X136627000Y-124250000D01*
X136616994Y-124200590D01*
X136583630Y-124154423D01*
X134583630Y-122404423D01*
X134539856Y-122379416D01*
X134500000Y-122373000D01*
X132627000Y-122373000D01*
X132627000Y-120627000D01*
X134500000Y-120627000D01*
X134549410Y-120616994D01*
X134583630Y-120595577D01*
X135833415Y-119502015D01*
X148228641Y-119502015D01*
X148613746Y-120434041D01*
X149326208Y-121147748D01*
X150257561Y-121534479D01*
X151266015Y-121535359D01*
X152198041Y-121150254D01*
X152911748Y-120437792D01*
X153298479Y-119506439D01*
X153298482Y-119502015D01*
X156700641Y-119502015D01*
X157085746Y-120434041D01*
X157798208Y-121147748D01*
X158729561Y-121534479D01*
X159738015Y-121535359D01*
X160670041Y-121150254D01*
X161383748Y-120437792D01*
X161770479Y-119506439D01*
X161771359Y-118497985D01*
X161386254Y-117565959D01*
X160673792Y-116852252D01*
X159742439Y-116465521D01*
X158733985Y-116464641D01*
X157801959Y-116849746D01*
X157088252Y-117562208D01*
X156701521Y-118493561D01*
X156700641Y-119502015D01*
X153298482Y-119502015D01*
X153299359Y-118497985D01*
X152914254Y-117565959D01*
X152201792Y-116852252D01*
X151270439Y-116465521D01*
X150261985Y-116464641D01*
X149329959Y-116849746D01*
X148616252Y-117562208D01*
X148229521Y-118493561D01*
X148228641Y-119502015D01*
X135833415Y-119502015D01*
X136583630Y-118845577D01*
X136614226Y-118805510D01*
X136627000Y-118750000D01*
X136627000Y-112883207D01*
X138314665Y-112883207D01*
X138608630Y-113594658D01*
X139152479Y-114139457D01*
X139863416Y-114434663D01*
X140633207Y-114435335D01*
X141344658Y-114141370D01*
X141889457Y-113597521D01*
X142184663Y-112886584D01*
X142184665Y-112883207D01*
X167814665Y-112883207D01*
X168108630Y-113594658D01*
X168652479Y-114139457D01*
X169363416Y-114434663D01*
X170133207Y-114435335D01*
X170844658Y-114141370D01*
X171389457Y-113597521D01*
X171684663Y-112886584D01*
X171685335Y-112116793D01*
X171391370Y-111405342D01*
X170847521Y-110860543D01*
X170136584Y-110565337D01*
X169366793Y-110564665D01*
X168655342Y-110858630D01*
X168110543Y-111402479D01*
X167815337Y-112113416D01*
X167814665Y-112883207D01*
X142184665Y-112883207D01*
X142185335Y-112116793D01*
X141891370Y-111405342D01*
X141347521Y-110860543D01*
X140636584Y-110565337D01*
X139866793Y-110564665D01*
X139155342Y-110858630D01*
X138610543Y-111402479D01*
X138315337Y-112113416D01*
X138314665Y-112883207D01*
X136627000Y-112883207D01*
X136627000Y-111250000D01*
X136616994Y-111200590D01*
X136583630Y-111154423D01*
X134583630Y-109404423D01*
X134539856Y-109379416D01*
X134500000Y-109373000D01*
X132627000Y-109373000D01*
X132627000Y-107627000D01*
X134500000Y-107627000D01*
X134549410Y-107616994D01*
X134583630Y-107595577D01*
X135833415Y-106502015D01*
X148228641Y-106502015D01*
X148613746Y-107434041D01*
X149326208Y-108147748D01*
X150257561Y-108534479D01*
X151266015Y-108535359D01*
X152198041Y-108150254D01*
X152911748Y-107437792D01*
X153298479Y-106506439D01*
X153298482Y-106502015D01*
X156700641Y-106502015D01*
X157085746Y-107434041D01*
X157798208Y-108147748D01*
X158729561Y-108534479D01*
X159738015Y-108535359D01*
X160670041Y-108150254D01*
X161383748Y-107437792D01*
X161770479Y-106506439D01*
X161771359Y-105497985D01*
X161386254Y-104565959D01*
X160673792Y-103852252D01*
X159742439Y-103465521D01*
X158733985Y-103464641D01*
X157801959Y-103849746D01*
X157088252Y-104562208D01*
X156701521Y-105493561D01*
X156700641Y-106502015D01*
X153298482Y-106502015D01*
X153299359Y-105497985D01*
X152914254Y-104565959D01*
X152201792Y-103852252D01*
X151270439Y-103465521D01*
X150261985Y-103464641D01*
X149329959Y-103849746D01*
X148616252Y-104562208D01*
X148229521Y-105493561D01*
X148228641Y-106502015D01*
X135833415Y-106502015D01*
X136583630Y-105845577D01*
X136614226Y-105805510D01*
X136627000Y-105750000D01*
X136627000Y-99883207D01*
X138314665Y-99883207D01*
X138608630Y-100594658D01*
X139152479Y-101139457D01*
X139863416Y-101434663D01*
X140633207Y-101435335D01*
X141344658Y-101141370D01*
X141889457Y-100597521D01*
X142184663Y-99886584D01*
X142184665Y-99883207D01*
X167814665Y-99883207D01*
X168108630Y-100594658D01*
X168652479Y-101139457D01*
X169363416Y-101434663D01*
X170133207Y-101435335D01*
X170844658Y-101141370D01*
X171389457Y-100597521D01*
X171684663Y-99886584D01*
X171685335Y-99116793D01*
X171391370Y-98405342D01*
X170847521Y-97860543D01*
X170136584Y-97565337D01*
X169366793Y-97564665D01*
X168655342Y-97858630D01*
X168110543Y-98402479D01*
X167815337Y-99113416D01*
X167814665Y-99883207D01*
X142184665Y-99883207D01*
X142185335Y-99116793D01*
X141891370Y-98405342D01*
X141347521Y-97860543D01*
X140636584Y-97565337D01*
X139866793Y-97564665D01*
X139155342Y-97858630D01*
X138610543Y-98402479D01*
X138315337Y-99113416D01*
X138314665Y-99883207D01*
X136627000Y-99883207D01*
X136627000Y-98250000D01*
X136616994Y-98200590D01*
X136589803Y-98160197D01*
X134839803Y-96410197D01*
X134797789Y-96382334D01*
X134750000Y-96373000D01*
X132627000Y-96373000D01*
X132627000Y-94627000D01*
X134750000Y-94627000D01*
X134799410Y-94616994D01*
X134839803Y-94589803D01*
X135927591Y-93502015D01*
X148228641Y-93502015D01*
X148613746Y-94434041D01*
X149326208Y-95147748D01*
X150257561Y-95534479D01*
X151266015Y-95535359D01*
X152198041Y-95150254D01*
X152911748Y-94437792D01*
X153298479Y-93506439D01*
X153298482Y-93502015D01*
X156700641Y-93502015D01*
X157085746Y-94434041D01*
X157798208Y-95147748D01*
X158729561Y-95534479D01*
X159738015Y-95535359D01*
X160670041Y-95150254D01*
X161383748Y-94437792D01*
X161770479Y-93506439D01*
X161771359Y-92497985D01*
X161386254Y-91565959D01*
X160673792Y-90852252D01*
X159742439Y-90465521D01*
X158733985Y-90464641D01*
X157801959Y-90849746D01*
X157088252Y-91562208D01*
X156701521Y-92493561D01*
X156700641Y-93502015D01*
X153298482Y-93502015D01*
X153299359Y-92497985D01*
X152914254Y-91565959D01*
X152201792Y-90852252D01*
X151270439Y-90465521D01*
X150261985Y-90464641D01*
X149329959Y-90849746D01*
X148616252Y-91562208D01*
X148229521Y-92493561D01*
X148228641Y-93502015D01*
X135927591Y-93502015D01*
X136589803Y-92839803D01*
X136617666Y-92797789D01*
X136627000Y-92750000D01*
X136627000Y-86883207D01*
X138314665Y-86883207D01*
X138608630Y-87594658D01*
X139152479Y-88139457D01*
X139863416Y-88434663D01*
X140633207Y-88435335D01*
X141344658Y-88141370D01*
X141889457Y-87597521D01*
X142184663Y-86886584D01*
X142184665Y-86883207D01*
X167814665Y-86883207D01*
X168108630Y-87594658D01*
X168652479Y-88139457D01*
X169363416Y-88434663D01*
X170133207Y-88435335D01*
X170844658Y-88141370D01*
X171389457Y-87597521D01*
X171684663Y-86886584D01*
X171685335Y-86116793D01*
X171391370Y-85405342D01*
X170847521Y-84860543D01*
X170136584Y-84565337D01*
X169366793Y-84564665D01*
X168655342Y-84858630D01*
X168110543Y-85402479D01*
X167815337Y-86113416D01*
X167814665Y-86883207D01*
X142184665Y-86883207D01*
X142185335Y-86116793D01*
X141891370Y-85405342D01*
X141347521Y-84860543D01*
X140636584Y-84565337D01*
X139866793Y-84564665D01*
X139155342Y-84858630D01*
X138610543Y-85402479D01*
X138315337Y-86113416D01*
X138314665Y-86883207D01*
X136627000Y-86883207D01*
X136627000Y-85250000D01*
X136616994Y-85200590D01*
X136589803Y-85160197D01*
X134839803Y-83410197D01*
X134797789Y-83382334D01*
X134750000Y-83373000D01*
X132627000Y-83373000D01*
X132627000Y-81627000D01*
X134750000Y-81627000D01*
X134799410Y-81616994D01*
X134839803Y-81589803D01*
X135927591Y-80502015D01*
X148228641Y-80502015D01*
X148613746Y-81434041D01*
X149326208Y-82147748D01*
X150257561Y-82534479D01*
X151266015Y-82535359D01*
X152198041Y-82150254D01*
X152911748Y-81437792D01*
X153298479Y-80506439D01*
X153298482Y-80502015D01*
X156700641Y-80502015D01*
X157085746Y-81434041D01*
X157798208Y-82147748D01*
X158729561Y-82534479D01*
X159738015Y-82535359D01*
X160670041Y-82150254D01*
X161383748Y-81437792D01*
X161770479Y-80506439D01*
X161771359Y-79497985D01*
X161386254Y-78565959D01*
X160673792Y-77852252D01*
X159742439Y-77465521D01*
X158733985Y-77464641D01*
X157801959Y-77849746D01*
X157088252Y-78562208D01*
X156701521Y-79493561D01*
X156700641Y-80502015D01*
X153298482Y-80502015D01*
X153299359Y-79497985D01*
X152914254Y-78565959D01*
X152201792Y-77852252D01*
X151270439Y-77465521D01*
X150261985Y-77464641D01*
X149329959Y-77849746D01*
X148616252Y-78562208D01*
X148229521Y-79493561D01*
X148228641Y-80502015D01*
X135927591Y-80502015D01*
X136589803Y-79839803D01*
X136617666Y-79797789D01*
X136627000Y-79750000D01*
X136627000Y-72025400D01*
X138909800Y-72025400D01*
X138909800Y-72525400D01*
X139002507Y-72940668D01*
X139247073Y-73288848D01*
X139606265Y-73516933D01*
X139804414Y-73572512D01*
X139974600Y-73507330D01*
X139974600Y-72025400D01*
X140025400Y-72025400D01*
X140025400Y-73507330D01*
X140195586Y-73572512D01*
X140393735Y-73516933D01*
X140752927Y-73288848D01*
X140997493Y-72940668D01*
X141090200Y-72525400D01*
X141090200Y-72025400D01*
X141449800Y-72025400D01*
X141449800Y-72525400D01*
X141542507Y-72940668D01*
X141787073Y-73288848D01*
X142146265Y-73516933D01*
X142344414Y-73572512D01*
X142514600Y-73507330D01*
X142514600Y-72025400D01*
X142565400Y-72025400D01*
X142565400Y-73507330D01*
X142735586Y-73572512D01*
X142933735Y-73516933D01*
X143292927Y-73288848D01*
X143537493Y-72940668D01*
X143630200Y-72525400D01*
X143630200Y-72025400D01*
X142565400Y-72025400D01*
X142514600Y-72025400D01*
X141449800Y-72025400D01*
X141090200Y-72025400D01*
X140025400Y-72025400D01*
X139974600Y-72025400D01*
X138909800Y-72025400D01*
X136627000Y-72025400D01*
X136627000Y-70877000D01*
X139130579Y-70877000D01*
X139002507Y-71059332D01*
X139002507Y-71059332D01*
G37*
X139002507Y-71059332D02*
X138909800Y-71474600D01*
X138909800Y-71974600D01*
X139974600Y-71974600D01*
X139974600Y-71954600D01*
X140025400Y-71954600D01*
X140025400Y-71974600D01*
X141090200Y-71974600D01*
X141090200Y-71474600D01*
X140997493Y-71059332D01*
X140869421Y-70877000D01*
X141670579Y-70877000D01*
X141542507Y-71059332D01*
X141449800Y-71474600D01*
X141449800Y-71974600D01*
X142514600Y-71974600D01*
X142514600Y-71954600D01*
X142565400Y-71954600D01*
X142565400Y-71974600D01*
X143630200Y-71974600D01*
X143630200Y-71474600D01*
X143537493Y-71059332D01*
X143409421Y-70877000D01*
X143873000Y-70877000D01*
X143873000Y-71500000D01*
X143883006Y-71549410D01*
X143911447Y-71591035D01*
X143953841Y-71618315D01*
X144000000Y-71627000D01*
X146123000Y-71627000D01*
X146123000Y-74750000D01*
X146133006Y-74799410D01*
X146161447Y-74841035D01*
X146203841Y-74868315D01*
X146250000Y-74877000D01*
X150623000Y-74877000D01*
X150623000Y-76250000D01*
X150633006Y-76299410D01*
X150661447Y-76341035D01*
X150703841Y-76368315D01*
X150750000Y-76377000D01*
X166000000Y-76377000D01*
X166049410Y-76366994D01*
X166091035Y-76338553D01*
X166118315Y-76296159D01*
X166127000Y-76250000D01*
X166127000Y-72848820D01*
X166171188Y-73070968D01*
X166473586Y-73523539D01*
X166926157Y-73825937D01*
X167460000Y-73932125D01*
X167993843Y-73825937D01*
X168446414Y-73523539D01*
X168748812Y-73070968D01*
X168855000Y-72537125D01*
X168855000Y-71462875D01*
X168748812Y-70929032D01*
X168714045Y-70877000D01*
X173373000Y-70877000D01*
X173373000Y-74750000D01*
X173383006Y-74799410D01*
X173410197Y-74839803D01*
X175160197Y-76589803D01*
X175202211Y-76617666D01*
X175250000Y-76627000D01*
X177373000Y-76627000D01*
X177373000Y-78373000D01*
X175250000Y-78373000D01*
X175200590Y-78383006D01*
X175160197Y-78410197D01*
X173410197Y-80160197D01*
X173382334Y-80202211D01*
X173373000Y-80250000D01*
X173373000Y-87750000D01*
X173383006Y-87799410D01*
X173410197Y-87839803D01*
X175160197Y-89589803D01*
X175202211Y-89617666D01*
X175250000Y-89627000D01*
X177373000Y-89627000D01*
X177373000Y-91373000D01*
X175250000Y-91373000D01*
X175200590Y-91383006D01*
X175160197Y-91410197D01*
X173410197Y-93160197D01*
X173382334Y-93202211D01*
X173373000Y-93250000D01*
X173373000Y-100750000D01*
X173383006Y-100799410D01*
X173410197Y-100839803D01*
X175160197Y-102589803D01*
X175202211Y-102617666D01*
X175250000Y-102627000D01*
X177373000Y-102627000D01*
X177373000Y-104373000D01*
X175250000Y-104373000D01*
X175200590Y-104383006D01*
X175160197Y-104410197D01*
X173410197Y-106160197D01*
X173382334Y-106202211D01*
X173373000Y-106250000D01*
X173373000Y-113750000D01*
X173383006Y-113799410D01*
X173410197Y-113839803D01*
X175160197Y-115589803D01*
X175202211Y-115617666D01*
X175250000Y-115627000D01*
X177373000Y-115627000D01*
X177373000Y-117373000D01*
X175250000Y-117373000D01*
X175200590Y-117383006D01*
X175160197Y-117410197D01*
X173410197Y-119160197D01*
X173382334Y-119202211D01*
X173373000Y-119250000D01*
X173373000Y-129290000D01*
X166127000Y-129290000D01*
X166127000Y-126883207D01*
X167814665Y-126883207D01*
X168108630Y-127594658D01*
X168652479Y-128139457D01*
X169363416Y-128434663D01*
X170133207Y-128435335D01*
X170844658Y-128141370D01*
X171389457Y-127597521D01*
X171684663Y-126886584D01*
X171685335Y-126116793D01*
X171391370Y-125405342D01*
X170847521Y-124860543D01*
X170136584Y-124565337D01*
X169366793Y-124564665D01*
X168655342Y-124858630D01*
X168110543Y-125402479D01*
X167815337Y-126113416D01*
X167814665Y-126883207D01*
X166127000Y-126883207D01*
X166127000Y-123105675D01*
X166134838Y-123086799D01*
X166135162Y-122714833D01*
X166127000Y-122695079D01*
X166127000Y-122250000D01*
X166116994Y-122200590D01*
X166088553Y-122158965D01*
X166046159Y-122131685D01*
X166000000Y-122123000D01*
X165745493Y-122123000D01*
X165730327Y-122107808D01*
X165386799Y-121965162D01*
X165014833Y-121964838D01*
X164671057Y-122106883D01*
X164654912Y-122123000D01*
X145845493Y-122123000D01*
X145830327Y-122107808D01*
X145486799Y-121965162D01*
X145114833Y-121964838D01*
X144771057Y-122106883D01*
X144754912Y-122123000D01*
X144000000Y-122123000D01*
X143950590Y-122133006D01*
X143908965Y-122161447D01*
X143881685Y-122203841D01*
X143873000Y-122250000D01*
X143873000Y-129290000D01*
X136627000Y-129290000D01*
X136627000Y-126883207D01*
X138314665Y-126883207D01*
X138608630Y-127594658D01*
X139152479Y-128139457D01*
X139863416Y-128434663D01*
X140633207Y-128435335D01*
X141344658Y-128141370D01*
X141889457Y-127597521D01*
X142184663Y-126886584D01*
X142185335Y-126116793D01*
X141891370Y-125405342D01*
X141347521Y-124860543D01*
X140636584Y-124565337D01*
X139866793Y-124564665D01*
X139155342Y-124858630D01*
X138610543Y-125402479D01*
X138315337Y-126113416D01*
X138314665Y-126883207D01*
X136627000Y-126883207D01*
X136627000Y-124250000D01*
X136616994Y-124200590D01*
X136583630Y-124154423D01*
X134583630Y-122404423D01*
X134539856Y-122379416D01*
X134500000Y-122373000D01*
X132627000Y-122373000D01*
X132627000Y-120627000D01*
X134500000Y-120627000D01*
X134549410Y-120616994D01*
X134583630Y-120595577D01*
X135833415Y-119502015D01*
X148228641Y-119502015D01*
X148613746Y-120434041D01*
X149326208Y-121147748D01*
X150257561Y-121534479D01*
X151266015Y-121535359D01*
X152198041Y-121150254D01*
X152911748Y-120437792D01*
X153298479Y-119506439D01*
X153298482Y-119502015D01*
X156700641Y-119502015D01*
X157085746Y-120434041D01*
X157798208Y-121147748D01*
X158729561Y-121534479D01*
X159738015Y-121535359D01*
X160670041Y-121150254D01*
X161383748Y-120437792D01*
X161770479Y-119506439D01*
X161771359Y-118497985D01*
X161386254Y-117565959D01*
X160673792Y-116852252D01*
X159742439Y-116465521D01*
X158733985Y-116464641D01*
X157801959Y-116849746D01*
X157088252Y-117562208D01*
X156701521Y-118493561D01*
X156700641Y-119502015D01*
X153298482Y-119502015D01*
X153299359Y-118497985D01*
X152914254Y-117565959D01*
X152201792Y-116852252D01*
X151270439Y-116465521D01*
X150261985Y-116464641D01*
X149329959Y-116849746D01*
X148616252Y-117562208D01*
X148229521Y-118493561D01*
X148228641Y-119502015D01*
X135833415Y-119502015D01*
X136583630Y-118845577D01*
X136614226Y-118805510D01*
X136627000Y-118750000D01*
X136627000Y-112883207D01*
X138314665Y-112883207D01*
X138608630Y-113594658D01*
X139152479Y-114139457D01*
X139863416Y-114434663D01*
X140633207Y-114435335D01*
X141344658Y-114141370D01*
X141889457Y-113597521D01*
X142184663Y-112886584D01*
X142184665Y-112883207D01*
X167814665Y-112883207D01*
X168108630Y-113594658D01*
X168652479Y-114139457D01*
X169363416Y-114434663D01*
X170133207Y-114435335D01*
X170844658Y-114141370D01*
X171389457Y-113597521D01*
X171684663Y-112886584D01*
X171685335Y-112116793D01*
X171391370Y-111405342D01*
X170847521Y-110860543D01*
X170136584Y-110565337D01*
X169366793Y-110564665D01*
X168655342Y-110858630D01*
X168110543Y-111402479D01*
X167815337Y-112113416D01*
X167814665Y-112883207D01*
X142184665Y-112883207D01*
X142185335Y-112116793D01*
X141891370Y-111405342D01*
X141347521Y-110860543D01*
X140636584Y-110565337D01*
X139866793Y-110564665D01*
X139155342Y-110858630D01*
X138610543Y-111402479D01*
X138315337Y-112113416D01*
X138314665Y-112883207D01*
X136627000Y-112883207D01*
X136627000Y-111250000D01*
X136616994Y-111200590D01*
X136583630Y-111154423D01*
X134583630Y-109404423D01*
X134539856Y-109379416D01*
X134500000Y-109373000D01*
X132627000Y-109373000D01*
X132627000Y-107627000D01*
X134500000Y-107627000D01*
X134549410Y-107616994D01*
X134583630Y-107595577D01*
X135833415Y-106502015D01*
X148228641Y-106502015D01*
X148613746Y-107434041D01*
X149326208Y-108147748D01*
X150257561Y-108534479D01*
X151266015Y-108535359D01*
X152198041Y-108150254D01*
X152911748Y-107437792D01*
X153298479Y-106506439D01*
X153298482Y-106502015D01*
X156700641Y-106502015D01*
X157085746Y-107434041D01*
X157798208Y-108147748D01*
X158729561Y-108534479D01*
X159738015Y-108535359D01*
X160670041Y-108150254D01*
X161383748Y-107437792D01*
X161770479Y-106506439D01*
X161771359Y-105497985D01*
X161386254Y-104565959D01*
X160673792Y-103852252D01*
X159742439Y-103465521D01*
X158733985Y-103464641D01*
X157801959Y-103849746D01*
X157088252Y-104562208D01*
X156701521Y-105493561D01*
X156700641Y-106502015D01*
X153298482Y-106502015D01*
X153299359Y-105497985D01*
X152914254Y-104565959D01*
X152201792Y-103852252D01*
X151270439Y-103465521D01*
X150261985Y-103464641D01*
X149329959Y-103849746D01*
X148616252Y-104562208D01*
X148229521Y-105493561D01*
X148228641Y-106502015D01*
X135833415Y-106502015D01*
X136583630Y-105845577D01*
X136614226Y-105805510D01*
X136627000Y-105750000D01*
X136627000Y-99883207D01*
X138314665Y-99883207D01*
X138608630Y-100594658D01*
X139152479Y-101139457D01*
X139863416Y-101434663D01*
X140633207Y-101435335D01*
X141344658Y-101141370D01*
X141889457Y-100597521D01*
X142184663Y-99886584D01*
X142184665Y-99883207D01*
X167814665Y-99883207D01*
X168108630Y-100594658D01*
X168652479Y-101139457D01*
X169363416Y-101434663D01*
X170133207Y-101435335D01*
X170844658Y-101141370D01*
X171389457Y-100597521D01*
X171684663Y-99886584D01*
X171685335Y-99116793D01*
X171391370Y-98405342D01*
X170847521Y-97860543D01*
X170136584Y-97565337D01*
X169366793Y-97564665D01*
X168655342Y-97858630D01*
X168110543Y-98402479D01*
X167815337Y-99113416D01*
X167814665Y-99883207D01*
X142184665Y-99883207D01*
X142185335Y-99116793D01*
X141891370Y-98405342D01*
X141347521Y-97860543D01*
X140636584Y-97565337D01*
X139866793Y-97564665D01*
X139155342Y-97858630D01*
X138610543Y-98402479D01*
X138315337Y-99113416D01*
X138314665Y-99883207D01*
X136627000Y-99883207D01*
X136627000Y-98250000D01*
X136616994Y-98200590D01*
X136589803Y-98160197D01*
X134839803Y-96410197D01*
X134797789Y-96382334D01*
X134750000Y-96373000D01*
X132627000Y-96373000D01*
X132627000Y-94627000D01*
X134750000Y-94627000D01*
X134799410Y-94616994D01*
X134839803Y-94589803D01*
X135927591Y-93502015D01*
X148228641Y-93502015D01*
X148613746Y-94434041D01*
X149326208Y-95147748D01*
X150257561Y-95534479D01*
X151266015Y-95535359D01*
X152198041Y-95150254D01*
X152911748Y-94437792D01*
X153298479Y-93506439D01*
X153298482Y-93502015D01*
X156700641Y-93502015D01*
X157085746Y-94434041D01*
X157798208Y-95147748D01*
X158729561Y-95534479D01*
X159738015Y-95535359D01*
X160670041Y-95150254D01*
X161383748Y-94437792D01*
X161770479Y-93506439D01*
X161771359Y-92497985D01*
X161386254Y-91565959D01*
X160673792Y-90852252D01*
X159742439Y-90465521D01*
X158733985Y-90464641D01*
X157801959Y-90849746D01*
X157088252Y-91562208D01*
X156701521Y-92493561D01*
X156700641Y-93502015D01*
X153298482Y-93502015D01*
X153299359Y-92497985D01*
X152914254Y-91565959D01*
X152201792Y-90852252D01*
X151270439Y-90465521D01*
X150261985Y-90464641D01*
X149329959Y-90849746D01*
X148616252Y-91562208D01*
X148229521Y-92493561D01*
X148228641Y-93502015D01*
X135927591Y-93502015D01*
X136589803Y-92839803D01*
X136617666Y-92797789D01*
X136627000Y-92750000D01*
X136627000Y-86883207D01*
X138314665Y-86883207D01*
X138608630Y-87594658D01*
X139152479Y-88139457D01*
X139863416Y-88434663D01*
X140633207Y-88435335D01*
X141344658Y-88141370D01*
X141889457Y-87597521D01*
X142184663Y-86886584D01*
X142184665Y-86883207D01*
X167814665Y-86883207D01*
X168108630Y-87594658D01*
X168652479Y-88139457D01*
X169363416Y-88434663D01*
X170133207Y-88435335D01*
X170844658Y-88141370D01*
X171389457Y-87597521D01*
X171684663Y-86886584D01*
X171685335Y-86116793D01*
X171391370Y-85405342D01*
X170847521Y-84860543D01*
X170136584Y-84565337D01*
X169366793Y-84564665D01*
X168655342Y-84858630D01*
X168110543Y-85402479D01*
X167815337Y-86113416D01*
X167814665Y-86883207D01*
X142184665Y-86883207D01*
X142185335Y-86116793D01*
X141891370Y-85405342D01*
X141347521Y-84860543D01*
X140636584Y-84565337D01*
X139866793Y-84564665D01*
X139155342Y-84858630D01*
X138610543Y-85402479D01*
X138315337Y-86113416D01*
X138314665Y-86883207D01*
X136627000Y-86883207D01*
X136627000Y-85250000D01*
X136616994Y-85200590D01*
X136589803Y-85160197D01*
X134839803Y-83410197D01*
X134797789Y-83382334D01*
X134750000Y-83373000D01*
X132627000Y-83373000D01*
X132627000Y-81627000D01*
X134750000Y-81627000D01*
X134799410Y-81616994D01*
X134839803Y-81589803D01*
X135927591Y-80502015D01*
X148228641Y-80502015D01*
X148613746Y-81434041D01*
X149326208Y-82147748D01*
X150257561Y-82534479D01*
X151266015Y-82535359D01*
X152198041Y-82150254D01*
X152911748Y-81437792D01*
X153298479Y-80506439D01*
X153298482Y-80502015D01*
X156700641Y-80502015D01*
X157085746Y-81434041D01*
X157798208Y-82147748D01*
X158729561Y-82534479D01*
X159738015Y-82535359D01*
X160670041Y-82150254D01*
X161383748Y-81437792D01*
X161770479Y-80506439D01*
X161771359Y-79497985D01*
X161386254Y-78565959D01*
X160673792Y-77852252D01*
X159742439Y-77465521D01*
X158733985Y-77464641D01*
X157801959Y-77849746D01*
X157088252Y-78562208D01*
X156701521Y-79493561D01*
X156700641Y-80502015D01*
X153298482Y-80502015D01*
X153299359Y-79497985D01*
X152914254Y-78565959D01*
X152201792Y-77852252D01*
X151270439Y-77465521D01*
X150261985Y-77464641D01*
X149329959Y-77849746D01*
X148616252Y-78562208D01*
X148229521Y-79493561D01*
X148228641Y-80502015D01*
X135927591Y-80502015D01*
X136589803Y-79839803D01*
X136617666Y-79797789D01*
X136627000Y-79750000D01*
X136627000Y-72025400D01*
X138909800Y-72025400D01*
X138909800Y-72525400D01*
X139002507Y-72940668D01*
X139247073Y-73288848D01*
X139606265Y-73516933D01*
X139804414Y-73572512D01*
X139974600Y-73507330D01*
X139974600Y-72025400D01*
X140025400Y-72025400D01*
X140025400Y-73507330D01*
X140195586Y-73572512D01*
X140393735Y-73516933D01*
X140752927Y-73288848D01*
X140997493Y-72940668D01*
X141090200Y-72525400D01*
X141090200Y-72025400D01*
X141449800Y-72025400D01*
X141449800Y-72525400D01*
X141542507Y-72940668D01*
X141787073Y-73288848D01*
X142146265Y-73516933D01*
X142344414Y-73572512D01*
X142514600Y-73507330D01*
X142514600Y-72025400D01*
X142565400Y-72025400D01*
X142565400Y-73507330D01*
X142735586Y-73572512D01*
X142933735Y-73516933D01*
X143292927Y-73288848D01*
X143537493Y-72940668D01*
X143630200Y-72525400D01*
X143630200Y-72025400D01*
X142565400Y-72025400D01*
X142514600Y-72025400D01*
X141449800Y-72025400D01*
X141090200Y-72025400D01*
X140025400Y-72025400D01*
X139974600Y-72025400D01*
X138909800Y-72025400D01*
X136627000Y-72025400D01*
X136627000Y-70877000D01*
X139130579Y-70877000D01*
X139002507Y-71059332D01*
M02*
