G04 #@! TF.FileFunction,Soldermask,Bot*
%FSLAX46Y46*%
G04 Gerber Fmt 4.6, Leading zero omitted, Abs format (unit mm)*
G04 Created by KiCad (PCBNEW 4.0.4-stable) date 08/22/17 11:56:14*
%MOMM*%
%LPD*%
G01*
G04 APERTURE LIST*
%ADD10C,0.100000*%
%ADD11O,3.900120X2.099260*%
%ADD12C,4.199840*%
%ADD13C,3.000000*%
%ADD14C,3.600000*%
%ADD15O,1.920000X2.920000*%
%ADD16R,4.900000X3.700000*%
%ADD17C,0.254000*%
G04 APERTURE END LIST*
D10*
D11*
X177000000Y-80000000D03*
X177000000Y-82540000D03*
X177000000Y-77460000D03*
D12*
X159236000Y-80000000D03*
D11*
X133000000Y-80000000D03*
X133000000Y-77460000D03*
X133000000Y-82540000D03*
D12*
X150764000Y-80000000D03*
D13*
X169750000Y-86500000D03*
X169750000Y-99500000D03*
X169750000Y-112500000D03*
X169750000Y-126500000D03*
X140250000Y-126500000D03*
X140250000Y-112500000D03*
X140250000Y-99500000D03*
D14*
X133000000Y-127000000D03*
X177000000Y-127000000D03*
X177000000Y-73000000D03*
D15*
X140000000Y-72000000D03*
X142540000Y-72000000D03*
X170000000Y-72000000D03*
X167460000Y-72000000D03*
D14*
X133000000Y-73000000D03*
D13*
X140250000Y-86500000D03*
D11*
X177000000Y-119000000D03*
X177000000Y-121540000D03*
X177000000Y-116460000D03*
D12*
X159236000Y-119000000D03*
D11*
X177000000Y-106000000D03*
X177000000Y-108540000D03*
X177000000Y-103460000D03*
D12*
X159236000Y-106000000D03*
D11*
X177000000Y-93000000D03*
X177000000Y-95540000D03*
X177000000Y-90460000D03*
D12*
X159236000Y-93000000D03*
D11*
X133000000Y-93000000D03*
X133000000Y-90460000D03*
X133000000Y-95540000D03*
D12*
X150764000Y-93000000D03*
D11*
X133000000Y-106000000D03*
X133000000Y-103460000D03*
X133000000Y-108540000D03*
D12*
X150764000Y-106000000D03*
D11*
X133000000Y-119000000D03*
X133000000Y-116460000D03*
X133000000Y-121540000D03*
D12*
X150764000Y-119000000D03*
D15*
X146100000Y-128000000D03*
X148640000Y-128000000D03*
X151180000Y-128000000D03*
X153720000Y-128000000D03*
X156260000Y-128000000D03*
X158800000Y-128000000D03*
X161340000Y-128000000D03*
X163880000Y-128000000D03*
D16*
X157150000Y-73250000D03*
X148350000Y-73250000D03*
D17*
G36*
X143873000Y-129373000D02*
X136627000Y-129373000D01*
X136627000Y-124250000D01*
X136616994Y-124200590D01*
X136583630Y-124154423D01*
X134583630Y-122404423D01*
X134539856Y-122379416D01*
X134500000Y-122373000D01*
X132627000Y-122373000D01*
X132627000Y-120627000D01*
X134500000Y-120627000D01*
X134549410Y-120616994D01*
X134583630Y-120595577D01*
X136583630Y-118845577D01*
X136614226Y-118805510D01*
X136627000Y-118750000D01*
X136627000Y-111250000D01*
X136616994Y-111200590D01*
X136583630Y-111154423D01*
X134583630Y-109404423D01*
X134539856Y-109379416D01*
X134500000Y-109373000D01*
X132627000Y-109373000D01*
X132627000Y-107627000D01*
X134500000Y-107627000D01*
X134549410Y-107616994D01*
X134583630Y-107595577D01*
X136583630Y-105845577D01*
X136614226Y-105805510D01*
X136627000Y-105750000D01*
X136627000Y-98250000D01*
X136616994Y-98200590D01*
X136589803Y-98160197D01*
X134839803Y-96410197D01*
X134797789Y-96382334D01*
X134750000Y-96373000D01*
X134127000Y-96373000D01*
X134127000Y-94627000D01*
X134750000Y-94627000D01*
X134799410Y-94616994D01*
X134839803Y-94589803D01*
X136589803Y-92839803D01*
X136617666Y-92797789D01*
X136627000Y-92750000D01*
X136627000Y-85250000D01*
X136616994Y-85200590D01*
X136589803Y-85160197D01*
X134839803Y-83410197D01*
X134797789Y-83382334D01*
X134750000Y-83373000D01*
X132627000Y-83373000D01*
X132627000Y-81627000D01*
X134750000Y-81627000D01*
X134799410Y-81616994D01*
X134839803Y-81589803D01*
X136589803Y-79839803D01*
X136617666Y-79797789D01*
X136627000Y-79750000D01*
X136627000Y-73627000D01*
X143873000Y-73627000D01*
X143873000Y-129373000D01*
X143873000Y-129373000D01*
G37*
X143873000Y-129373000D02*
X136627000Y-129373000D01*
X136627000Y-124250000D01*
X136616994Y-124200590D01*
X136583630Y-124154423D01*
X134583630Y-122404423D01*
X134539856Y-122379416D01*
X134500000Y-122373000D01*
X132627000Y-122373000D01*
X132627000Y-120627000D01*
X134500000Y-120627000D01*
X134549410Y-120616994D01*
X134583630Y-120595577D01*
X136583630Y-118845577D01*
X136614226Y-118805510D01*
X136627000Y-118750000D01*
X136627000Y-111250000D01*
X136616994Y-111200590D01*
X136583630Y-111154423D01*
X134583630Y-109404423D01*
X134539856Y-109379416D01*
X134500000Y-109373000D01*
X132627000Y-109373000D01*
X132627000Y-107627000D01*
X134500000Y-107627000D01*
X134549410Y-107616994D01*
X134583630Y-107595577D01*
X136583630Y-105845577D01*
X136614226Y-105805510D01*
X136627000Y-105750000D01*
X136627000Y-98250000D01*
X136616994Y-98200590D01*
X136589803Y-98160197D01*
X134839803Y-96410197D01*
X134797789Y-96382334D01*
X134750000Y-96373000D01*
X134127000Y-96373000D01*
X134127000Y-94627000D01*
X134750000Y-94627000D01*
X134799410Y-94616994D01*
X134839803Y-94589803D01*
X136589803Y-92839803D01*
X136617666Y-92797789D01*
X136627000Y-92750000D01*
X136627000Y-85250000D01*
X136616994Y-85200590D01*
X136589803Y-85160197D01*
X134839803Y-83410197D01*
X134797789Y-83382334D01*
X134750000Y-83373000D01*
X132627000Y-83373000D01*
X132627000Y-81627000D01*
X134750000Y-81627000D01*
X134799410Y-81616994D01*
X134839803Y-81589803D01*
X136589803Y-79839803D01*
X136617666Y-79797789D01*
X136627000Y-79750000D01*
X136627000Y-73627000D01*
X143873000Y-73627000D01*
X143873000Y-129373000D01*
G36*
X175160197Y-76589803D02*
X175202211Y-76617666D01*
X175250000Y-76627000D01*
X177373000Y-76627000D01*
X177373000Y-78373000D01*
X175250000Y-78373000D01*
X175200590Y-78383006D01*
X175160197Y-78410197D01*
X173410197Y-80160197D01*
X173382334Y-80202211D01*
X173373000Y-80250000D01*
X173373000Y-87750000D01*
X173383006Y-87799410D01*
X173410197Y-87839803D01*
X175160197Y-89589803D01*
X175202211Y-89617666D01*
X175250000Y-89627000D01*
X177373000Y-89627000D01*
X177373000Y-91373000D01*
X175250000Y-91373000D01*
X175200590Y-91383006D01*
X175160197Y-91410197D01*
X173410197Y-93160197D01*
X173382334Y-93202211D01*
X173373000Y-93250000D01*
X173373000Y-100750000D01*
X173383006Y-100799410D01*
X173410197Y-100839803D01*
X175160197Y-102589803D01*
X175202211Y-102617666D01*
X175250000Y-102627000D01*
X177373000Y-102627000D01*
X177373000Y-104373000D01*
X175250000Y-104373000D01*
X175200590Y-104383006D01*
X175160197Y-104410197D01*
X173410197Y-106160197D01*
X173382334Y-106202211D01*
X173373000Y-106250000D01*
X173373000Y-113750000D01*
X173383006Y-113799410D01*
X173410197Y-113839803D01*
X175160197Y-115589803D01*
X175202211Y-115617666D01*
X175250000Y-115627000D01*
X177373000Y-115627000D01*
X177373000Y-117373000D01*
X175250000Y-117373000D01*
X175200590Y-117383006D01*
X175160197Y-117410197D01*
X173410197Y-119160197D01*
X173382334Y-119202211D01*
X173373000Y-119250000D01*
X173373000Y-129373000D01*
X166127000Y-129373000D01*
X166127000Y-74877000D01*
X173447394Y-74877000D01*
X175160197Y-76589803D01*
X175160197Y-76589803D01*
G37*
X175160197Y-76589803D02*
X175202211Y-76617666D01*
X175250000Y-76627000D01*
X177373000Y-76627000D01*
X177373000Y-78373000D01*
X175250000Y-78373000D01*
X175200590Y-78383006D01*
X175160197Y-78410197D01*
X173410197Y-80160197D01*
X173382334Y-80202211D01*
X173373000Y-80250000D01*
X173373000Y-87750000D01*
X173383006Y-87799410D01*
X173410197Y-87839803D01*
X175160197Y-89589803D01*
X175202211Y-89617666D01*
X175250000Y-89627000D01*
X177373000Y-89627000D01*
X177373000Y-91373000D01*
X175250000Y-91373000D01*
X175200590Y-91383006D01*
X175160197Y-91410197D01*
X173410197Y-93160197D01*
X173382334Y-93202211D01*
X173373000Y-93250000D01*
X173373000Y-100750000D01*
X173383006Y-100799410D01*
X173410197Y-100839803D01*
X175160197Y-102589803D01*
X175202211Y-102617666D01*
X175250000Y-102627000D01*
X177373000Y-102627000D01*
X177373000Y-104373000D01*
X175250000Y-104373000D01*
X175200590Y-104383006D01*
X175160197Y-104410197D01*
X173410197Y-106160197D01*
X173382334Y-106202211D01*
X173373000Y-106250000D01*
X173373000Y-113750000D01*
X173383006Y-113799410D01*
X173410197Y-113839803D01*
X175160197Y-115589803D01*
X175202211Y-115617666D01*
X175250000Y-115627000D01*
X177373000Y-115627000D01*
X177373000Y-117373000D01*
X175250000Y-117373000D01*
X175200590Y-117383006D01*
X175160197Y-117410197D01*
X173410197Y-119160197D01*
X173382334Y-119202211D01*
X173373000Y-119250000D01*
X173373000Y-129373000D01*
X166127000Y-129373000D01*
X166127000Y-74877000D01*
X173447394Y-74877000D01*
X175160197Y-76589803D01*
M02*
