G04 #@! TF.FileFunction,Legend,Top*
%FSLAX46Y46*%
G04 Gerber Fmt 4.6, Leading zero omitted, Abs format (unit mm)*
G04 Created by KiCad (PCBNEW 4.0.4-stable) date 08/22/17 11:56:14*
%MOMM*%
%LPD*%
G01*
G04 APERTURE LIST*
%ADD10C,0.100000*%
%ADD11C,0.150000*%
%ADD12C,0.120000*%
G04 APERTURE END LIST*
D10*
X171400000Y-119100000D02*
X171800000Y-119100000D01*
X170500000Y-119100000D02*
X170200000Y-119100000D01*
X138500000Y-118300000D02*
X138500000Y-119900000D01*
X138500000Y-105300000D02*
X138500000Y-106900000D01*
X171500000Y-79200000D02*
X171500000Y-80800000D01*
X170500000Y-80000000D02*
X170200000Y-80000000D01*
X171500000Y-80000000D02*
X171800000Y-80000000D01*
X170500000Y-81000000D02*
X171500000Y-80000000D01*
X170500000Y-79000000D02*
X170500000Y-81000000D01*
X171500000Y-80000000D02*
X170500000Y-79000000D01*
X171500000Y-92300000D02*
X171500000Y-93900000D01*
X170500000Y-93100000D02*
X170200000Y-93100000D01*
X171500000Y-93100000D02*
X171800000Y-93100000D01*
X170500000Y-94100000D02*
X171500000Y-93100000D01*
X170500000Y-92100000D02*
X170500000Y-94100000D01*
X171500000Y-93100000D02*
X170500000Y-92100000D01*
X171500000Y-106100000D02*
X171500000Y-106900000D01*
X171500000Y-105300000D02*
X171500000Y-106100000D01*
X171500000Y-106100000D02*
X171500000Y-105300000D01*
X170500000Y-106100000D02*
X170200000Y-106100000D01*
X171500000Y-106100000D02*
X171700000Y-106100000D01*
X170500000Y-107100000D02*
X171500000Y-106100000D01*
X170500000Y-105100000D02*
X170500000Y-107100000D01*
X171500000Y-106100000D02*
X170500000Y-105100000D01*
X171400000Y-119900000D02*
X171400000Y-118300000D01*
X172300000Y-119600000D02*
X172300000Y-119200000D01*
X172300000Y-120800000D02*
X172300000Y-119600000D01*
X172300000Y-120500000D02*
X172300000Y-120800000D01*
X170500000Y-118200000D02*
X171400000Y-119100000D01*
X170500000Y-120000000D02*
X170500000Y-118200000D01*
X171400000Y-119100000D02*
X170500000Y-120000000D01*
X139500000Y-77500000D02*
X139500000Y-78300000D01*
X139500000Y-77500000D02*
X139500000Y-76700000D01*
X140400000Y-77500000D02*
X140800000Y-77500000D01*
X139500000Y-77500000D02*
X139200000Y-77500000D01*
X140400000Y-78400000D02*
X139500000Y-77500000D01*
X140400000Y-76600000D02*
X140400000Y-78400000D01*
X139500000Y-77500000D02*
X140400000Y-76600000D01*
X139800000Y-119100000D02*
X139400000Y-119100000D01*
X138500000Y-119100000D02*
X138200000Y-119100000D01*
X139400000Y-120000000D02*
X138500000Y-119100000D01*
X139400000Y-118200000D02*
X139400000Y-120000000D01*
X138500000Y-119100000D02*
X139400000Y-118200000D01*
X139400000Y-106100000D02*
X139800000Y-106100000D01*
X138500000Y-106100000D02*
X138200000Y-106100000D01*
X139400000Y-107000000D02*
X138500000Y-106100000D01*
X139400000Y-105200000D02*
X139400000Y-107000000D01*
X138500000Y-106100000D02*
X139400000Y-105200000D01*
X138550000Y-92150000D02*
X138550000Y-93750000D01*
X138550000Y-93750000D02*
X138550000Y-92950000D01*
X138550000Y-92950000D02*
X139450000Y-92050000D01*
X139450000Y-92050000D02*
X139450000Y-93750000D01*
X138550000Y-92950000D02*
X139450000Y-93850000D01*
X139450000Y-93850000D02*
X139450000Y-93750000D01*
X138550000Y-92950000D02*
X138350000Y-92950000D01*
X138350000Y-92950000D02*
X138150000Y-92950000D01*
X139450000Y-92950000D02*
X139750000Y-92950000D01*
X139450000Y-92950000D02*
X139750000Y-92950000D01*
X138350000Y-92950000D02*
X138150000Y-92950000D01*
X138550000Y-92950000D02*
X138350000Y-92950000D01*
X139450000Y-93850000D02*
X139450000Y-93750000D01*
X138550000Y-92950000D02*
X139450000Y-93850000D01*
X139450000Y-92050000D02*
X139450000Y-93750000D01*
X138550000Y-92950000D02*
X139450000Y-92050000D01*
X138550000Y-93750000D02*
X138550000Y-92950000D01*
X138550000Y-92150000D02*
X138550000Y-93750000D01*
D11*
X172317000Y-82540000D02*
X173714000Y-82540000D01*
X172317000Y-80000000D02*
X173714000Y-80000000D01*
X172317000Y-77460000D02*
X173714000Y-77460000D01*
X161750472Y-80000000D02*
G75*
G03X161750472Y-80000000I-2514472J0D01*
G01*
X163808000Y-74666000D02*
X155807000Y-74666000D01*
X155807000Y-74666000D02*
X155807000Y-85334000D01*
X155807000Y-85334000D02*
X163808000Y-85334000D01*
X172317000Y-74666000D02*
X163808000Y-74666000D01*
X163808000Y-74666000D02*
X163808000Y-85334000D01*
X163808000Y-85334000D02*
X172317000Y-85334000D01*
X172317000Y-80000000D02*
X172317000Y-85334000D01*
X172317000Y-80000000D02*
X172317000Y-74666000D01*
X137683000Y-77460000D02*
X136286000Y-77460000D01*
X137683000Y-80000000D02*
X136286000Y-80000000D01*
X137683000Y-82540000D02*
X136286000Y-82540000D01*
X153278472Y-80000000D02*
G75*
G03X153278472Y-80000000I-2514472J0D01*
G01*
X146192000Y-85334000D02*
X154193000Y-85334000D01*
X154193000Y-85334000D02*
X154193000Y-74666000D01*
X154193000Y-74666000D02*
X146192000Y-74666000D01*
X137683000Y-85334000D02*
X146192000Y-85334000D01*
X146192000Y-85334000D02*
X146192000Y-74666000D01*
X146192000Y-74666000D02*
X137683000Y-74666000D01*
X137683000Y-80000000D02*
X137683000Y-74666000D01*
X137683000Y-80000000D02*
X137683000Y-85334000D01*
D12*
X141270000Y-73390000D02*
X143930000Y-73390000D01*
X143930000Y-73390000D02*
X143930000Y-70610000D01*
X143930000Y-70610000D02*
X141270000Y-70610000D01*
X141270000Y-70610000D02*
X141270000Y-73390000D01*
X140000000Y-73390000D02*
X138610000Y-73390000D01*
X138610000Y-73390000D02*
X138610000Y-72000000D01*
X168730000Y-70610000D02*
X166070000Y-70610000D01*
X166070000Y-70610000D02*
X166070000Y-73390000D01*
X166070000Y-73390000D02*
X168730000Y-73390000D01*
X168730000Y-73390000D02*
X168730000Y-70610000D01*
X170000000Y-70610000D02*
X171390000Y-70610000D01*
X171390000Y-70610000D02*
X171390000Y-72000000D01*
D11*
X172317000Y-121540000D02*
X173714000Y-121540000D01*
X172317000Y-119000000D02*
X173714000Y-119000000D01*
X172317000Y-116460000D02*
X173714000Y-116460000D01*
X161750472Y-119000000D02*
G75*
G03X161750472Y-119000000I-2514472J0D01*
G01*
X163808000Y-113666000D02*
X155807000Y-113666000D01*
X155807000Y-113666000D02*
X155807000Y-124334000D01*
X155807000Y-124334000D02*
X163808000Y-124334000D01*
X172317000Y-113666000D02*
X163808000Y-113666000D01*
X163808000Y-113666000D02*
X163808000Y-124334000D01*
X163808000Y-124334000D02*
X172317000Y-124334000D01*
X172317000Y-119000000D02*
X172317000Y-124334000D01*
X172317000Y-119000000D02*
X172317000Y-113666000D01*
X172317000Y-108540000D02*
X173714000Y-108540000D01*
X172317000Y-106000000D02*
X173714000Y-106000000D01*
X172317000Y-103460000D02*
X173714000Y-103460000D01*
X161750472Y-106000000D02*
G75*
G03X161750472Y-106000000I-2514472J0D01*
G01*
X163808000Y-100666000D02*
X155807000Y-100666000D01*
X155807000Y-100666000D02*
X155807000Y-111334000D01*
X155807000Y-111334000D02*
X163808000Y-111334000D01*
X172317000Y-100666000D02*
X163808000Y-100666000D01*
X163808000Y-100666000D02*
X163808000Y-111334000D01*
X163808000Y-111334000D02*
X172317000Y-111334000D01*
X172317000Y-106000000D02*
X172317000Y-111334000D01*
X172317000Y-106000000D02*
X172317000Y-100666000D01*
X172317000Y-95540000D02*
X173714000Y-95540000D01*
X172317000Y-93000000D02*
X173714000Y-93000000D01*
X172317000Y-90460000D02*
X173714000Y-90460000D01*
X161750472Y-93000000D02*
G75*
G03X161750472Y-93000000I-2514472J0D01*
G01*
X163808000Y-87666000D02*
X155807000Y-87666000D01*
X155807000Y-87666000D02*
X155807000Y-98334000D01*
X155807000Y-98334000D02*
X163808000Y-98334000D01*
X172317000Y-87666000D02*
X163808000Y-87666000D01*
X163808000Y-87666000D02*
X163808000Y-98334000D01*
X163808000Y-98334000D02*
X172317000Y-98334000D01*
X172317000Y-93000000D02*
X172317000Y-98334000D01*
X172317000Y-93000000D02*
X172317000Y-87666000D01*
X137683000Y-90460000D02*
X136286000Y-90460000D01*
X137683000Y-93000000D02*
X136286000Y-93000000D01*
X137683000Y-95540000D02*
X136286000Y-95540000D01*
X153278472Y-93000000D02*
G75*
G03X153278472Y-93000000I-2514472J0D01*
G01*
X146192000Y-98334000D02*
X154193000Y-98334000D01*
X154193000Y-98334000D02*
X154193000Y-87666000D01*
X154193000Y-87666000D02*
X146192000Y-87666000D01*
X137683000Y-98334000D02*
X146192000Y-98334000D01*
X146192000Y-98334000D02*
X146192000Y-87666000D01*
X146192000Y-87666000D02*
X137683000Y-87666000D01*
X137683000Y-93000000D02*
X137683000Y-87666000D01*
X137683000Y-93000000D02*
X137683000Y-98334000D01*
X137683000Y-103460000D02*
X136286000Y-103460000D01*
X137683000Y-106000000D02*
X136286000Y-106000000D01*
X137683000Y-108540000D02*
X136286000Y-108540000D01*
X153278472Y-106000000D02*
G75*
G03X153278472Y-106000000I-2514472J0D01*
G01*
X146192000Y-111334000D02*
X154193000Y-111334000D01*
X154193000Y-111334000D02*
X154193000Y-100666000D01*
X154193000Y-100666000D02*
X146192000Y-100666000D01*
X137683000Y-111334000D02*
X146192000Y-111334000D01*
X146192000Y-111334000D02*
X146192000Y-100666000D01*
X146192000Y-100666000D02*
X137683000Y-100666000D01*
X137683000Y-106000000D02*
X137683000Y-100666000D01*
X137683000Y-106000000D02*
X137683000Y-111334000D01*
X137683000Y-116460000D02*
X136286000Y-116460000D01*
X137683000Y-119000000D02*
X136286000Y-119000000D01*
X137683000Y-121540000D02*
X136286000Y-121540000D01*
X153278472Y-119000000D02*
G75*
G03X153278472Y-119000000I-2514472J0D01*
G01*
X146192000Y-124334000D02*
X154193000Y-124334000D01*
X154193000Y-124334000D02*
X154193000Y-113666000D01*
X154193000Y-113666000D02*
X146192000Y-113666000D01*
X137683000Y-124334000D02*
X146192000Y-124334000D01*
X146192000Y-124334000D02*
X146192000Y-113666000D01*
X146192000Y-113666000D02*
X137683000Y-113666000D01*
X137683000Y-119000000D02*
X137683000Y-113666000D01*
X137683000Y-119000000D02*
X137683000Y-124334000D01*
D12*
X147370000Y-129390000D02*
X165270000Y-129390000D01*
X165270000Y-129390000D02*
X165270000Y-126610000D01*
X165270000Y-126610000D02*
X147370000Y-126610000D01*
X147370000Y-126610000D02*
X147370000Y-129390000D01*
X146100000Y-129390000D02*
X144710000Y-129390000D01*
X144710000Y-129390000D02*
X144710000Y-128000000D01*
X174400000Y-120750000D02*
X174400000Y-117450000D01*
X174400000Y-117450000D02*
X169000000Y-117450000D01*
X174400000Y-120750000D02*
X169000000Y-120750000D01*
X174400000Y-107750000D02*
X174400000Y-104450000D01*
X174400000Y-104450000D02*
X169000000Y-104450000D01*
X174400000Y-107750000D02*
X169000000Y-107750000D01*
X174400000Y-94750000D02*
X174400000Y-91450000D01*
X174400000Y-91450000D02*
X169000000Y-91450000D01*
X174400000Y-94750000D02*
X169000000Y-94750000D01*
X174400000Y-81650000D02*
X174400000Y-78350000D01*
X174400000Y-78350000D02*
X169000000Y-78350000D01*
X174400000Y-81650000D02*
X169000000Y-81650000D01*
X136600000Y-75850000D02*
X136600000Y-79150000D01*
X136600000Y-79150000D02*
X142000000Y-79150000D01*
X136600000Y-75850000D02*
X142000000Y-75850000D01*
X135600000Y-91350000D02*
X135600000Y-94650000D01*
X135600000Y-94650000D02*
X141000000Y-94650000D01*
X135600000Y-91350000D02*
X141000000Y-91350000D01*
X135600000Y-104450000D02*
X135600000Y-107750000D01*
X135600000Y-107750000D02*
X141000000Y-107750000D01*
X135600000Y-104450000D02*
X141000000Y-104450000D01*
X135600000Y-117450000D02*
X135600000Y-120750000D01*
X135600000Y-120750000D02*
X141000000Y-120750000D01*
X135600000Y-117450000D02*
X141000000Y-117450000D01*
D11*
X164285714Y-77452381D02*
X164285714Y-76452381D01*
X165333333Y-77452381D02*
X164999999Y-76976190D01*
X164761904Y-77452381D02*
X164761904Y-76452381D01*
X165142857Y-76452381D01*
X165238095Y-76500000D01*
X165285714Y-76547619D01*
X165333333Y-76642857D01*
X165333333Y-76785714D01*
X165285714Y-76880952D01*
X165238095Y-76928571D01*
X165142857Y-76976190D01*
X164761904Y-76976190D01*
X166095238Y-76928571D02*
X165761904Y-76928571D01*
X165761904Y-77452381D02*
X165761904Y-76452381D01*
X166238095Y-76452381D01*
X166952381Y-76928571D02*
X167095238Y-76976190D01*
X167142857Y-77023810D01*
X167190476Y-77119048D01*
X167190476Y-77261905D01*
X167142857Y-77357143D01*
X167095238Y-77404762D01*
X167000000Y-77452381D01*
X166619047Y-77452381D01*
X166619047Y-76452381D01*
X166952381Y-76452381D01*
X167047619Y-76500000D01*
X167095238Y-76547619D01*
X167142857Y-76642857D01*
X167142857Y-76738095D01*
X167095238Y-76833333D01*
X167047619Y-76880952D01*
X166952381Y-76928571D01*
X166619047Y-76928571D01*
X167380952Y-77547619D02*
X168142857Y-77547619D01*
X168285714Y-76452381D02*
X168952381Y-76452381D01*
X168523809Y-77452381D01*
X169761905Y-76785714D02*
X169761905Y-77452381D01*
X169523809Y-76404762D02*
X169285714Y-77119048D01*
X169904762Y-77119048D01*
X170190476Y-76452381D02*
X170809524Y-76452381D01*
X170476190Y-76833333D01*
X170619048Y-76833333D01*
X170714286Y-76880952D01*
X170761905Y-76928571D01*
X170809524Y-77023810D01*
X170809524Y-77261905D01*
X170761905Y-77357143D01*
X170714286Y-77404762D01*
X170619048Y-77452381D01*
X170333333Y-77452381D01*
X170238095Y-77404762D01*
X170190476Y-77357143D01*
X171428571Y-76452381D02*
X171523810Y-76452381D01*
X171619048Y-76500000D01*
X171666667Y-76547619D01*
X171714286Y-76642857D01*
X171761905Y-76833333D01*
X171761905Y-77071429D01*
X171714286Y-77261905D01*
X171666667Y-77357143D01*
X171619048Y-77404762D01*
X171523810Y-77452381D01*
X171428571Y-77452381D01*
X171333333Y-77404762D01*
X171285714Y-77357143D01*
X171238095Y-77261905D01*
X171190476Y-77071429D01*
X171190476Y-76833333D01*
X171238095Y-76642857D01*
X171285714Y-76547619D01*
X171333333Y-76500000D01*
X171428571Y-76452381D01*
X138285714Y-83452381D02*
X138285714Y-82452381D01*
X139333333Y-83452381D02*
X138999999Y-82976190D01*
X138761904Y-83452381D02*
X138761904Y-82452381D01*
X139142857Y-82452381D01*
X139238095Y-82500000D01*
X139285714Y-82547619D01*
X139333333Y-82642857D01*
X139333333Y-82785714D01*
X139285714Y-82880952D01*
X139238095Y-82928571D01*
X139142857Y-82976190D01*
X138761904Y-82976190D01*
X140095238Y-82928571D02*
X139761904Y-82928571D01*
X139761904Y-83452381D02*
X139761904Y-82452381D01*
X140238095Y-82452381D01*
X140952381Y-82928571D02*
X141095238Y-82976190D01*
X141142857Y-83023810D01*
X141190476Y-83119048D01*
X141190476Y-83261905D01*
X141142857Y-83357143D01*
X141095238Y-83404762D01*
X141000000Y-83452381D01*
X140619047Y-83452381D01*
X140619047Y-82452381D01*
X140952381Y-82452381D01*
X141047619Y-82500000D01*
X141095238Y-82547619D01*
X141142857Y-82642857D01*
X141142857Y-82738095D01*
X141095238Y-82833333D01*
X141047619Y-82880952D01*
X140952381Y-82928571D01*
X140619047Y-82928571D01*
X141380952Y-83547619D02*
X142142857Y-83547619D01*
X142285714Y-82452381D02*
X142952381Y-82452381D01*
X142523809Y-83452381D01*
X143761905Y-82785714D02*
X143761905Y-83452381D01*
X143523809Y-82404762D02*
X143285714Y-83119048D01*
X143904762Y-83119048D01*
X144190476Y-82452381D02*
X144809524Y-82452381D01*
X144476190Y-82833333D01*
X144619048Y-82833333D01*
X144714286Y-82880952D01*
X144761905Y-82928571D01*
X144809524Y-83023810D01*
X144809524Y-83261905D01*
X144761905Y-83357143D01*
X144714286Y-83404762D01*
X144619048Y-83452381D01*
X144333333Y-83452381D01*
X144238095Y-83404762D01*
X144190476Y-83357143D01*
X145428571Y-82452381D02*
X145523810Y-82452381D01*
X145619048Y-82500000D01*
X145666667Y-82547619D01*
X145714286Y-82642857D01*
X145761905Y-82833333D01*
X145761905Y-83071429D01*
X145714286Y-83261905D01*
X145666667Y-83357143D01*
X145619048Y-83404762D01*
X145523810Y-83452381D01*
X145428571Y-83452381D01*
X145333333Y-83404762D01*
X145285714Y-83357143D01*
X145238095Y-83261905D01*
X145190476Y-83071429D01*
X145190476Y-82833333D01*
X145238095Y-82642857D01*
X145285714Y-82547619D01*
X145333333Y-82500000D01*
X145428571Y-82452381D01*
X138062381Y-72738095D02*
X137062381Y-72738095D01*
X137062381Y-72357142D01*
X137110000Y-72261904D01*
X137157619Y-72214285D01*
X137252857Y-72166666D01*
X137395714Y-72166666D01*
X137490952Y-72214285D01*
X137538571Y-72261904D01*
X137586190Y-72357142D01*
X137586190Y-72738095D01*
X137395714Y-71309523D02*
X138062381Y-71309523D01*
X137014762Y-71547619D02*
X137729048Y-71785714D01*
X137729048Y-71166666D01*
X172842381Y-72738095D02*
X171842381Y-72738095D01*
X171842381Y-72357142D01*
X171890000Y-72261904D01*
X171937619Y-72214285D01*
X172032857Y-72166666D01*
X172175714Y-72166666D01*
X172270952Y-72214285D01*
X172318571Y-72261904D01*
X172366190Y-72357142D01*
X172366190Y-72738095D01*
X171842381Y-71261904D02*
X171842381Y-71738095D01*
X172318571Y-71785714D01*
X172270952Y-71738095D01*
X172223333Y-71642857D01*
X172223333Y-71404761D01*
X172270952Y-71309523D01*
X172318571Y-71261904D01*
X172413810Y-71214285D01*
X172651905Y-71214285D01*
X172747143Y-71261904D01*
X172794762Y-71309523D01*
X172842381Y-71404761D01*
X172842381Y-71642857D01*
X172794762Y-71738095D01*
X172747143Y-71785714D01*
X164285714Y-116452381D02*
X164285714Y-115452381D01*
X165333333Y-116452381D02*
X164999999Y-115976190D01*
X164761904Y-116452381D02*
X164761904Y-115452381D01*
X165142857Y-115452381D01*
X165238095Y-115500000D01*
X165285714Y-115547619D01*
X165333333Y-115642857D01*
X165333333Y-115785714D01*
X165285714Y-115880952D01*
X165238095Y-115928571D01*
X165142857Y-115976190D01*
X164761904Y-115976190D01*
X166095238Y-115928571D02*
X165761904Y-115928571D01*
X165761904Y-116452381D02*
X165761904Y-115452381D01*
X166238095Y-115452381D01*
X166952381Y-115928571D02*
X167095238Y-115976190D01*
X167142857Y-116023810D01*
X167190476Y-116119048D01*
X167190476Y-116261905D01*
X167142857Y-116357143D01*
X167095238Y-116404762D01*
X167000000Y-116452381D01*
X166619047Y-116452381D01*
X166619047Y-115452381D01*
X166952381Y-115452381D01*
X167047619Y-115500000D01*
X167095238Y-115547619D01*
X167142857Y-115642857D01*
X167142857Y-115738095D01*
X167095238Y-115833333D01*
X167047619Y-115880952D01*
X166952381Y-115928571D01*
X166619047Y-115928571D01*
X167380952Y-116547619D02*
X168142857Y-116547619D01*
X168285714Y-115452381D02*
X168952381Y-115452381D01*
X168523809Y-116452381D01*
X169761905Y-115785714D02*
X169761905Y-116452381D01*
X169523809Y-115404762D02*
X169285714Y-116119048D01*
X169904762Y-116119048D01*
X170190476Y-115452381D02*
X170809524Y-115452381D01*
X170476190Y-115833333D01*
X170619048Y-115833333D01*
X170714286Y-115880952D01*
X170761905Y-115928571D01*
X170809524Y-116023810D01*
X170809524Y-116261905D01*
X170761905Y-116357143D01*
X170714286Y-116404762D01*
X170619048Y-116452381D01*
X170333333Y-116452381D01*
X170238095Y-116404762D01*
X170190476Y-116357143D01*
X171428571Y-115452381D02*
X171523810Y-115452381D01*
X171619048Y-115500000D01*
X171666667Y-115547619D01*
X171714286Y-115642857D01*
X171761905Y-115833333D01*
X171761905Y-116071429D01*
X171714286Y-116261905D01*
X171666667Y-116357143D01*
X171619048Y-116404762D01*
X171523810Y-116452381D01*
X171428571Y-116452381D01*
X171333333Y-116404762D01*
X171285714Y-116357143D01*
X171238095Y-116261905D01*
X171190476Y-116071429D01*
X171190476Y-115833333D01*
X171238095Y-115642857D01*
X171285714Y-115547619D01*
X171333333Y-115500000D01*
X171428571Y-115452381D01*
X164285714Y-103452381D02*
X164285714Y-102452381D01*
X165333333Y-103452381D02*
X164999999Y-102976190D01*
X164761904Y-103452381D02*
X164761904Y-102452381D01*
X165142857Y-102452381D01*
X165238095Y-102500000D01*
X165285714Y-102547619D01*
X165333333Y-102642857D01*
X165333333Y-102785714D01*
X165285714Y-102880952D01*
X165238095Y-102928571D01*
X165142857Y-102976190D01*
X164761904Y-102976190D01*
X166095238Y-102928571D02*
X165761904Y-102928571D01*
X165761904Y-103452381D02*
X165761904Y-102452381D01*
X166238095Y-102452381D01*
X166952381Y-102928571D02*
X167095238Y-102976190D01*
X167142857Y-103023810D01*
X167190476Y-103119048D01*
X167190476Y-103261905D01*
X167142857Y-103357143D01*
X167095238Y-103404762D01*
X167000000Y-103452381D01*
X166619047Y-103452381D01*
X166619047Y-102452381D01*
X166952381Y-102452381D01*
X167047619Y-102500000D01*
X167095238Y-102547619D01*
X167142857Y-102642857D01*
X167142857Y-102738095D01*
X167095238Y-102833333D01*
X167047619Y-102880952D01*
X166952381Y-102928571D01*
X166619047Y-102928571D01*
X167380952Y-103547619D02*
X168142857Y-103547619D01*
X168285714Y-102452381D02*
X168952381Y-102452381D01*
X168523809Y-103452381D01*
X169761905Y-102785714D02*
X169761905Y-103452381D01*
X169523809Y-102404762D02*
X169285714Y-103119048D01*
X169904762Y-103119048D01*
X170190476Y-102452381D02*
X170809524Y-102452381D01*
X170476190Y-102833333D01*
X170619048Y-102833333D01*
X170714286Y-102880952D01*
X170761905Y-102928571D01*
X170809524Y-103023810D01*
X170809524Y-103261905D01*
X170761905Y-103357143D01*
X170714286Y-103404762D01*
X170619048Y-103452381D01*
X170333333Y-103452381D01*
X170238095Y-103404762D01*
X170190476Y-103357143D01*
X171428571Y-102452381D02*
X171523810Y-102452381D01*
X171619048Y-102500000D01*
X171666667Y-102547619D01*
X171714286Y-102642857D01*
X171761905Y-102833333D01*
X171761905Y-103071429D01*
X171714286Y-103261905D01*
X171666667Y-103357143D01*
X171619048Y-103404762D01*
X171523810Y-103452381D01*
X171428571Y-103452381D01*
X171333333Y-103404762D01*
X171285714Y-103357143D01*
X171238095Y-103261905D01*
X171190476Y-103071429D01*
X171190476Y-102833333D01*
X171238095Y-102642857D01*
X171285714Y-102547619D01*
X171333333Y-102500000D01*
X171428571Y-102452381D01*
X164285714Y-90452381D02*
X164285714Y-89452381D01*
X165333333Y-90452381D02*
X164999999Y-89976190D01*
X164761904Y-90452381D02*
X164761904Y-89452381D01*
X165142857Y-89452381D01*
X165238095Y-89500000D01*
X165285714Y-89547619D01*
X165333333Y-89642857D01*
X165333333Y-89785714D01*
X165285714Y-89880952D01*
X165238095Y-89928571D01*
X165142857Y-89976190D01*
X164761904Y-89976190D01*
X166095238Y-89928571D02*
X165761904Y-89928571D01*
X165761904Y-90452381D02*
X165761904Y-89452381D01*
X166238095Y-89452381D01*
X166952381Y-89928571D02*
X167095238Y-89976190D01*
X167142857Y-90023810D01*
X167190476Y-90119048D01*
X167190476Y-90261905D01*
X167142857Y-90357143D01*
X167095238Y-90404762D01*
X167000000Y-90452381D01*
X166619047Y-90452381D01*
X166619047Y-89452381D01*
X166952381Y-89452381D01*
X167047619Y-89500000D01*
X167095238Y-89547619D01*
X167142857Y-89642857D01*
X167142857Y-89738095D01*
X167095238Y-89833333D01*
X167047619Y-89880952D01*
X166952381Y-89928571D01*
X166619047Y-89928571D01*
X167380952Y-90547619D02*
X168142857Y-90547619D01*
X168285714Y-89452381D02*
X168952381Y-89452381D01*
X168523809Y-90452381D01*
X169761905Y-89785714D02*
X169761905Y-90452381D01*
X169523809Y-89404762D02*
X169285714Y-90119048D01*
X169904762Y-90119048D01*
X170190476Y-89452381D02*
X170809524Y-89452381D01*
X170476190Y-89833333D01*
X170619048Y-89833333D01*
X170714286Y-89880952D01*
X170761905Y-89928571D01*
X170809524Y-90023810D01*
X170809524Y-90261905D01*
X170761905Y-90357143D01*
X170714286Y-90404762D01*
X170619048Y-90452381D01*
X170333333Y-90452381D01*
X170238095Y-90404762D01*
X170190476Y-90357143D01*
X171428571Y-89452381D02*
X171523810Y-89452381D01*
X171619048Y-89500000D01*
X171666667Y-89547619D01*
X171714286Y-89642857D01*
X171761905Y-89833333D01*
X171761905Y-90071429D01*
X171714286Y-90261905D01*
X171666667Y-90357143D01*
X171619048Y-90404762D01*
X171523810Y-90452381D01*
X171428571Y-90452381D01*
X171333333Y-90404762D01*
X171285714Y-90357143D01*
X171238095Y-90261905D01*
X171190476Y-90071429D01*
X171190476Y-89833333D01*
X171238095Y-89642857D01*
X171285714Y-89547619D01*
X171333333Y-89500000D01*
X171428571Y-89452381D01*
X138285714Y-90452381D02*
X138285714Y-89452381D01*
X139333333Y-90452381D02*
X138999999Y-89976190D01*
X138761904Y-90452381D02*
X138761904Y-89452381D01*
X139142857Y-89452381D01*
X139238095Y-89500000D01*
X139285714Y-89547619D01*
X139333333Y-89642857D01*
X139333333Y-89785714D01*
X139285714Y-89880952D01*
X139238095Y-89928571D01*
X139142857Y-89976190D01*
X138761904Y-89976190D01*
X140095238Y-89928571D02*
X139761904Y-89928571D01*
X139761904Y-90452381D02*
X139761904Y-89452381D01*
X140238095Y-89452381D01*
X140952381Y-89928571D02*
X141095238Y-89976190D01*
X141142857Y-90023810D01*
X141190476Y-90119048D01*
X141190476Y-90261905D01*
X141142857Y-90357143D01*
X141095238Y-90404762D01*
X141000000Y-90452381D01*
X140619047Y-90452381D01*
X140619047Y-89452381D01*
X140952381Y-89452381D01*
X141047619Y-89500000D01*
X141095238Y-89547619D01*
X141142857Y-89642857D01*
X141142857Y-89738095D01*
X141095238Y-89833333D01*
X141047619Y-89880952D01*
X140952381Y-89928571D01*
X140619047Y-89928571D01*
X141380952Y-90547619D02*
X142142857Y-90547619D01*
X142285714Y-89452381D02*
X142952381Y-89452381D01*
X142523809Y-90452381D01*
X143761905Y-89785714D02*
X143761905Y-90452381D01*
X143523809Y-89404762D02*
X143285714Y-90119048D01*
X143904762Y-90119048D01*
X144190476Y-89452381D02*
X144809524Y-89452381D01*
X144476190Y-89833333D01*
X144619048Y-89833333D01*
X144714286Y-89880952D01*
X144761905Y-89928571D01*
X144809524Y-90023810D01*
X144809524Y-90261905D01*
X144761905Y-90357143D01*
X144714286Y-90404762D01*
X144619048Y-90452381D01*
X144333333Y-90452381D01*
X144238095Y-90404762D01*
X144190476Y-90357143D01*
X145428571Y-89452381D02*
X145523810Y-89452381D01*
X145619048Y-89500000D01*
X145666667Y-89547619D01*
X145714286Y-89642857D01*
X145761905Y-89833333D01*
X145761905Y-90071429D01*
X145714286Y-90261905D01*
X145666667Y-90357143D01*
X145619048Y-90404762D01*
X145523810Y-90452381D01*
X145428571Y-90452381D01*
X145333333Y-90404762D01*
X145285714Y-90357143D01*
X145238095Y-90261905D01*
X145190476Y-90071429D01*
X145190476Y-89833333D01*
X145238095Y-89642857D01*
X145285714Y-89547619D01*
X145333333Y-89500000D01*
X145428571Y-89452381D01*
X138285714Y-103452381D02*
X138285714Y-102452381D01*
X139333333Y-103452381D02*
X138999999Y-102976190D01*
X138761904Y-103452381D02*
X138761904Y-102452381D01*
X139142857Y-102452381D01*
X139238095Y-102500000D01*
X139285714Y-102547619D01*
X139333333Y-102642857D01*
X139333333Y-102785714D01*
X139285714Y-102880952D01*
X139238095Y-102928571D01*
X139142857Y-102976190D01*
X138761904Y-102976190D01*
X140095238Y-102928571D02*
X139761904Y-102928571D01*
X139761904Y-103452381D02*
X139761904Y-102452381D01*
X140238095Y-102452381D01*
X140952381Y-102928571D02*
X141095238Y-102976190D01*
X141142857Y-103023810D01*
X141190476Y-103119048D01*
X141190476Y-103261905D01*
X141142857Y-103357143D01*
X141095238Y-103404762D01*
X141000000Y-103452381D01*
X140619047Y-103452381D01*
X140619047Y-102452381D01*
X140952381Y-102452381D01*
X141047619Y-102500000D01*
X141095238Y-102547619D01*
X141142857Y-102642857D01*
X141142857Y-102738095D01*
X141095238Y-102833333D01*
X141047619Y-102880952D01*
X140952381Y-102928571D01*
X140619047Y-102928571D01*
X141380952Y-103547619D02*
X142142857Y-103547619D01*
X142285714Y-102452381D02*
X142952381Y-102452381D01*
X142523809Y-103452381D01*
X143761905Y-102785714D02*
X143761905Y-103452381D01*
X143523809Y-102404762D02*
X143285714Y-103119048D01*
X143904762Y-103119048D01*
X144190476Y-102452381D02*
X144809524Y-102452381D01*
X144476190Y-102833333D01*
X144619048Y-102833333D01*
X144714286Y-102880952D01*
X144761905Y-102928571D01*
X144809524Y-103023810D01*
X144809524Y-103261905D01*
X144761905Y-103357143D01*
X144714286Y-103404762D01*
X144619048Y-103452381D01*
X144333333Y-103452381D01*
X144238095Y-103404762D01*
X144190476Y-103357143D01*
X145428571Y-102452381D02*
X145523810Y-102452381D01*
X145619048Y-102500000D01*
X145666667Y-102547619D01*
X145714286Y-102642857D01*
X145761905Y-102833333D01*
X145761905Y-103071429D01*
X145714286Y-103261905D01*
X145666667Y-103357143D01*
X145619048Y-103404762D01*
X145523810Y-103452381D01*
X145428571Y-103452381D01*
X145333333Y-103404762D01*
X145285714Y-103357143D01*
X145238095Y-103261905D01*
X145190476Y-103071429D01*
X145190476Y-102833333D01*
X145238095Y-102642857D01*
X145285714Y-102547619D01*
X145333333Y-102500000D01*
X145428571Y-102452381D01*
X138285714Y-116452381D02*
X138285714Y-115452381D01*
X139333333Y-116452381D02*
X138999999Y-115976190D01*
X138761904Y-116452381D02*
X138761904Y-115452381D01*
X139142857Y-115452381D01*
X139238095Y-115500000D01*
X139285714Y-115547619D01*
X139333333Y-115642857D01*
X139333333Y-115785714D01*
X139285714Y-115880952D01*
X139238095Y-115928571D01*
X139142857Y-115976190D01*
X138761904Y-115976190D01*
X140095238Y-115928571D02*
X139761904Y-115928571D01*
X139761904Y-116452381D02*
X139761904Y-115452381D01*
X140238095Y-115452381D01*
X140952381Y-115928571D02*
X141095238Y-115976190D01*
X141142857Y-116023810D01*
X141190476Y-116119048D01*
X141190476Y-116261905D01*
X141142857Y-116357143D01*
X141095238Y-116404762D01*
X141000000Y-116452381D01*
X140619047Y-116452381D01*
X140619047Y-115452381D01*
X140952381Y-115452381D01*
X141047619Y-115500000D01*
X141095238Y-115547619D01*
X141142857Y-115642857D01*
X141142857Y-115738095D01*
X141095238Y-115833333D01*
X141047619Y-115880952D01*
X140952381Y-115928571D01*
X140619047Y-115928571D01*
X141380952Y-116547619D02*
X142142857Y-116547619D01*
X142285714Y-115452381D02*
X142952381Y-115452381D01*
X142523809Y-116452381D01*
X143761905Y-115785714D02*
X143761905Y-116452381D01*
X143523809Y-115404762D02*
X143285714Y-116119048D01*
X143904762Y-116119048D01*
X144190476Y-115452381D02*
X144809524Y-115452381D01*
X144476190Y-115833333D01*
X144619048Y-115833333D01*
X144714286Y-115880952D01*
X144761905Y-115928571D01*
X144809524Y-116023810D01*
X144809524Y-116261905D01*
X144761905Y-116357143D01*
X144714286Y-116404762D01*
X144619048Y-116452381D01*
X144333333Y-116452381D01*
X144238095Y-116404762D01*
X144190476Y-116357143D01*
X145428571Y-115452381D02*
X145523810Y-115452381D01*
X145619048Y-115500000D01*
X145666667Y-115547619D01*
X145714286Y-115642857D01*
X145761905Y-115833333D01*
X145761905Y-116071429D01*
X145714286Y-116261905D01*
X145666667Y-116357143D01*
X145619048Y-116404762D01*
X145523810Y-116452381D01*
X145428571Y-116452381D01*
X145333333Y-116404762D01*
X145285714Y-116357143D01*
X145238095Y-116261905D01*
X145190476Y-116071429D01*
X145190476Y-115833333D01*
X145238095Y-115642857D01*
X145285714Y-115547619D01*
X145333333Y-115500000D01*
X145428571Y-115452381D01*
X146266666Y-125952381D02*
X146266666Y-124952381D01*
X146600000Y-125666667D01*
X146933333Y-124952381D01*
X146933333Y-125952381D01*
X147552380Y-125952381D02*
X147457142Y-125904762D01*
X147409523Y-125857143D01*
X147361904Y-125761905D01*
X147361904Y-125476190D01*
X147409523Y-125380952D01*
X147457142Y-125333333D01*
X147552380Y-125285714D01*
X147695238Y-125285714D01*
X147790476Y-125333333D01*
X147838095Y-125380952D01*
X147885714Y-125476190D01*
X147885714Y-125761905D01*
X147838095Y-125857143D01*
X147790476Y-125904762D01*
X147695238Y-125952381D01*
X147552380Y-125952381D01*
X148266666Y-125904762D02*
X148361904Y-125952381D01*
X148552380Y-125952381D01*
X148647619Y-125904762D01*
X148695238Y-125809524D01*
X148695238Y-125761905D01*
X148647619Y-125666667D01*
X148552380Y-125619048D01*
X148409523Y-125619048D01*
X148314285Y-125571429D01*
X148266666Y-125476190D01*
X148266666Y-125428571D01*
X148314285Y-125333333D01*
X148409523Y-125285714D01*
X148552380Y-125285714D01*
X148647619Y-125333333D01*
X148980952Y-125285714D02*
X149361904Y-125285714D01*
X149123809Y-125952381D02*
X149123809Y-125095238D01*
X149171428Y-125000000D01*
X149266666Y-124952381D01*
X149361904Y-124952381D01*
X150076191Y-125904762D02*
X149980953Y-125952381D01*
X149790476Y-125952381D01*
X149695238Y-125904762D01*
X149647619Y-125809524D01*
X149647619Y-125428571D01*
X149695238Y-125333333D01*
X149790476Y-125285714D01*
X149980953Y-125285714D01*
X150076191Y-125333333D01*
X150123810Y-125428571D01*
X150123810Y-125523810D01*
X149647619Y-125619048D01*
X150409524Y-125285714D02*
X150790476Y-125285714D01*
X150552381Y-124952381D02*
X150552381Y-125809524D01*
X150600000Y-125904762D01*
X150695238Y-125952381D01*
X150790476Y-125952381D01*
X150885715Y-126047619D02*
X151647620Y-126047619D01*
X152457144Y-125857143D02*
X152409525Y-125904762D01*
X152266668Y-125952381D01*
X152171430Y-125952381D01*
X152028572Y-125904762D01*
X151933334Y-125809524D01*
X151885715Y-125714286D01*
X151838096Y-125523810D01*
X151838096Y-125380952D01*
X151885715Y-125190476D01*
X151933334Y-125095238D01*
X152028572Y-125000000D01*
X152171430Y-124952381D01*
X152266668Y-124952381D01*
X152409525Y-125000000D01*
X152457144Y-125047619D01*
X152742858Y-124952381D02*
X153314287Y-124952381D01*
X153028572Y-125952381D02*
X153028572Y-124952381D01*
X154219049Y-125952381D02*
X153885715Y-125476190D01*
X153647620Y-125952381D02*
X153647620Y-124952381D01*
X154028573Y-124952381D01*
X154123811Y-125000000D01*
X154171430Y-125047619D01*
X154219049Y-125142857D01*
X154219049Y-125285714D01*
X154171430Y-125380952D01*
X154123811Y-125428571D01*
X154028573Y-125476190D01*
X153647620Y-125476190D01*
X155123811Y-125952381D02*
X154647620Y-125952381D01*
X154647620Y-124952381D01*
X155409525Y-125047619D02*
X155457144Y-125000000D01*
X155552382Y-124952381D01*
X155790478Y-124952381D01*
X155885716Y-125000000D01*
X155933335Y-125047619D01*
X155980954Y-125142857D01*
X155980954Y-125238095D01*
X155933335Y-125380952D01*
X155361906Y-125952381D01*
X155980954Y-125952381D01*
X168409524Y-122052381D02*
X168409524Y-121052381D01*
X168647619Y-121052381D01*
X168790477Y-121100000D01*
X168885715Y-121195238D01*
X168933334Y-121290476D01*
X168980953Y-121480952D01*
X168980953Y-121623810D01*
X168933334Y-121814286D01*
X168885715Y-121909524D01*
X168790477Y-122004762D01*
X168647619Y-122052381D01*
X168409524Y-122052381D01*
X169171429Y-122147619D02*
X169933334Y-122147619D01*
X170171429Y-122052381D02*
X170171429Y-121052381D01*
X170504763Y-121766667D01*
X170838096Y-121052381D01*
X170838096Y-122052381D01*
X171838096Y-122052381D02*
X171266667Y-122052381D01*
X171552381Y-122052381D02*
X171552381Y-121052381D01*
X171457143Y-121195238D01*
X171361905Y-121290476D01*
X171266667Y-121338095D01*
X168109524Y-109152381D02*
X168109524Y-108152381D01*
X168347619Y-108152381D01*
X168490477Y-108200000D01*
X168585715Y-108295238D01*
X168633334Y-108390476D01*
X168680953Y-108580952D01*
X168680953Y-108723810D01*
X168633334Y-108914286D01*
X168585715Y-109009524D01*
X168490477Y-109104762D01*
X168347619Y-109152381D01*
X168109524Y-109152381D01*
X168871429Y-109247619D02*
X169633334Y-109247619D01*
X169871429Y-109152381D02*
X169871429Y-108152381D01*
X170204763Y-108866667D01*
X170538096Y-108152381D01*
X170538096Y-109152381D01*
X170966667Y-108247619D02*
X171014286Y-108200000D01*
X171109524Y-108152381D01*
X171347620Y-108152381D01*
X171442858Y-108200000D01*
X171490477Y-108247619D01*
X171538096Y-108342857D01*
X171538096Y-108438095D01*
X171490477Y-108580952D01*
X170919048Y-109152381D01*
X171538096Y-109152381D01*
X168209524Y-96252381D02*
X168209524Y-95252381D01*
X168447619Y-95252381D01*
X168590477Y-95300000D01*
X168685715Y-95395238D01*
X168733334Y-95490476D01*
X168780953Y-95680952D01*
X168780953Y-95823810D01*
X168733334Y-96014286D01*
X168685715Y-96109524D01*
X168590477Y-96204762D01*
X168447619Y-96252381D01*
X168209524Y-96252381D01*
X168971429Y-96347619D02*
X169733334Y-96347619D01*
X169971429Y-96252381D02*
X169971429Y-95252381D01*
X170304763Y-95966667D01*
X170638096Y-95252381D01*
X170638096Y-96252381D01*
X171019048Y-95252381D02*
X171638096Y-95252381D01*
X171304762Y-95633333D01*
X171447620Y-95633333D01*
X171542858Y-95680952D01*
X171590477Y-95728571D01*
X171638096Y-95823810D01*
X171638096Y-96061905D01*
X171590477Y-96157143D01*
X171542858Y-96204762D01*
X171447620Y-96252381D01*
X171161905Y-96252381D01*
X171066667Y-96204762D01*
X171019048Y-96157143D01*
X168309524Y-83152381D02*
X168309524Y-82152381D01*
X168547619Y-82152381D01*
X168690477Y-82200000D01*
X168785715Y-82295238D01*
X168833334Y-82390476D01*
X168880953Y-82580952D01*
X168880953Y-82723810D01*
X168833334Y-82914286D01*
X168785715Y-83009524D01*
X168690477Y-83104762D01*
X168547619Y-83152381D01*
X168309524Y-83152381D01*
X169071429Y-83247619D02*
X169833334Y-83247619D01*
X170071429Y-83152381D02*
X170071429Y-82152381D01*
X170404763Y-82866667D01*
X170738096Y-82152381D01*
X170738096Y-83152381D01*
X171642858Y-82485714D02*
X171642858Y-83152381D01*
X171404762Y-82104762D02*
X171166667Y-82819048D01*
X171785715Y-82819048D01*
X138309524Y-80452381D02*
X138309524Y-79452381D01*
X138547619Y-79452381D01*
X138690477Y-79500000D01*
X138785715Y-79595238D01*
X138833334Y-79690476D01*
X138880953Y-79880952D01*
X138880953Y-80023810D01*
X138833334Y-80214286D01*
X138785715Y-80309524D01*
X138690477Y-80404762D01*
X138547619Y-80452381D01*
X138309524Y-80452381D01*
X139071429Y-80547619D02*
X139833334Y-80547619D01*
X140071429Y-80452381D02*
X140071429Y-79452381D01*
X140404763Y-80166667D01*
X140738096Y-79452381D01*
X140738096Y-80452381D01*
X141690477Y-79452381D02*
X141214286Y-79452381D01*
X141166667Y-79928571D01*
X141214286Y-79880952D01*
X141309524Y-79833333D01*
X141547620Y-79833333D01*
X141642858Y-79880952D01*
X141690477Y-79928571D01*
X141738096Y-80023810D01*
X141738096Y-80261905D01*
X141690477Y-80357143D01*
X141642858Y-80404762D01*
X141547620Y-80452381D01*
X141309524Y-80452381D01*
X141214286Y-80404762D01*
X141166667Y-80357143D01*
X138309524Y-95952381D02*
X138309524Y-94952381D01*
X138547619Y-94952381D01*
X138690477Y-95000000D01*
X138785715Y-95095238D01*
X138833334Y-95190476D01*
X138880953Y-95380952D01*
X138880953Y-95523810D01*
X138833334Y-95714286D01*
X138785715Y-95809524D01*
X138690477Y-95904762D01*
X138547619Y-95952381D01*
X138309524Y-95952381D01*
X139071429Y-96047619D02*
X139833334Y-96047619D01*
X140071429Y-95952381D02*
X140071429Y-94952381D01*
X140404763Y-95666667D01*
X140738096Y-94952381D01*
X140738096Y-95952381D01*
X141642858Y-94952381D02*
X141452381Y-94952381D01*
X141357143Y-95000000D01*
X141309524Y-95047619D01*
X141214286Y-95190476D01*
X141166667Y-95380952D01*
X141166667Y-95761905D01*
X141214286Y-95857143D01*
X141261905Y-95904762D01*
X141357143Y-95952381D01*
X141547620Y-95952381D01*
X141642858Y-95904762D01*
X141690477Y-95857143D01*
X141738096Y-95761905D01*
X141738096Y-95523810D01*
X141690477Y-95428571D01*
X141642858Y-95380952D01*
X141547620Y-95333333D01*
X141357143Y-95333333D01*
X141261905Y-95380952D01*
X141214286Y-95428571D01*
X141166667Y-95523810D01*
X138309524Y-109152381D02*
X138309524Y-108152381D01*
X138547619Y-108152381D01*
X138690477Y-108200000D01*
X138785715Y-108295238D01*
X138833334Y-108390476D01*
X138880953Y-108580952D01*
X138880953Y-108723810D01*
X138833334Y-108914286D01*
X138785715Y-109009524D01*
X138690477Y-109104762D01*
X138547619Y-109152381D01*
X138309524Y-109152381D01*
X139071429Y-109247619D02*
X139833334Y-109247619D01*
X140071429Y-109152381D02*
X140071429Y-108152381D01*
X140404763Y-108866667D01*
X140738096Y-108152381D01*
X140738096Y-109152381D01*
X141119048Y-108152381D02*
X141785715Y-108152381D01*
X141357143Y-109152381D01*
X138209524Y-122152381D02*
X138209524Y-121152381D01*
X138447619Y-121152381D01*
X138590477Y-121200000D01*
X138685715Y-121295238D01*
X138733334Y-121390476D01*
X138780953Y-121580952D01*
X138780953Y-121723810D01*
X138733334Y-121914286D01*
X138685715Y-122009524D01*
X138590477Y-122104762D01*
X138447619Y-122152381D01*
X138209524Y-122152381D01*
X138971429Y-122247619D02*
X139733334Y-122247619D01*
X139971429Y-122152381D02*
X139971429Y-121152381D01*
X140304763Y-121866667D01*
X140638096Y-121152381D01*
X140638096Y-122152381D01*
X141257143Y-121580952D02*
X141161905Y-121533333D01*
X141114286Y-121485714D01*
X141066667Y-121390476D01*
X141066667Y-121342857D01*
X141114286Y-121247619D01*
X141161905Y-121200000D01*
X141257143Y-121152381D01*
X141447620Y-121152381D01*
X141542858Y-121200000D01*
X141590477Y-121247619D01*
X141638096Y-121342857D01*
X141638096Y-121390476D01*
X141590477Y-121485714D01*
X141542858Y-121533333D01*
X141447620Y-121580952D01*
X141257143Y-121580952D01*
X141161905Y-121628571D01*
X141114286Y-121676190D01*
X141066667Y-121771429D01*
X141066667Y-121961905D01*
X141114286Y-122057143D01*
X141161905Y-122104762D01*
X141257143Y-122152381D01*
X141447620Y-122152381D01*
X141542858Y-122104762D01*
X141590477Y-122057143D01*
X141638096Y-121961905D01*
X141638096Y-121771429D01*
X141590477Y-121676190D01*
X141542858Y-121628571D01*
X141447620Y-121580952D01*
M02*
