G04 #@! TF.FileFunction,Legend,Bot*
%FSLAX46Y46*%
G04 Gerber Fmt 4.6, Leading zero omitted, Abs format (unit mm)*
G04 Created by KiCad (PCBNEW 4.0.4-stable) date 08/22/17 11:56:14*
%MOMM*%
%LPD*%
G01*
G04 APERTURE LIST*
%ADD10C,0.100000*%
%ADD11C,0.200000*%
%ADD12C,0.120000*%
%ADD13C,0.150000*%
G04 APERTURE END LIST*
D10*
X153000000Y-74000000D02*
X152750000Y-74000000D01*
X153000000Y-72500000D02*
X153250000Y-72500000D01*
X153000000Y-73250000D02*
X153750000Y-73250000D01*
X153000000Y-73250000D02*
X153000000Y-74000000D01*
X153000000Y-73250000D02*
X153000000Y-72500000D01*
X153000000Y-73250000D02*
X152250000Y-74000000D01*
X152250000Y-72500000D02*
X153000000Y-73250000D01*
X152250000Y-73250000D02*
X152250000Y-72500000D01*
X151250000Y-73250000D02*
X152250000Y-73250000D01*
D11*
X145797619Y-123535717D02*
X146797619Y-123535717D01*
X145797619Y-123107145D02*
X146321429Y-123107145D01*
X146416667Y-123154764D01*
X146464286Y-123250002D01*
X146464286Y-123392860D01*
X146416667Y-123488098D01*
X146369048Y-123535717D01*
X146464286Y-122773812D02*
X146464286Y-122392860D01*
X146797619Y-122630955D02*
X145940476Y-122630955D01*
X145845238Y-122583336D01*
X145797619Y-122488098D01*
X145797619Y-122392860D01*
X146464286Y-122202383D02*
X146464286Y-121821431D01*
X146797619Y-122059526D02*
X145940476Y-122059526D01*
X145845238Y-122011907D01*
X145797619Y-121916669D01*
X145797619Y-121821431D01*
X146464286Y-121488097D02*
X145464286Y-121488097D01*
X146416667Y-121488097D02*
X146464286Y-121392859D01*
X146464286Y-121202382D01*
X146416667Y-121107144D01*
X146369048Y-121059525D01*
X146273810Y-121011906D01*
X145988095Y-121011906D01*
X145892857Y-121059525D01*
X145845238Y-121107144D01*
X145797619Y-121202382D01*
X145797619Y-121392859D01*
X145845238Y-121488097D01*
X145845238Y-120630954D02*
X145797619Y-120535716D01*
X145797619Y-120345240D01*
X145845238Y-120250001D01*
X145940476Y-120202382D01*
X145988095Y-120202382D01*
X146083333Y-120250001D01*
X146130952Y-120345240D01*
X146130952Y-120488097D01*
X146178571Y-120583335D01*
X146273810Y-120630954D01*
X146321429Y-120630954D01*
X146416667Y-120583335D01*
X146464286Y-120488097D01*
X146464286Y-120345240D01*
X146416667Y-120250001D01*
X145892857Y-119773811D02*
X145845238Y-119726192D01*
X145797619Y-119773811D01*
X145845238Y-119821430D01*
X145892857Y-119773811D01*
X145797619Y-119773811D01*
X146416667Y-119773811D02*
X146369048Y-119726192D01*
X146321429Y-119773811D01*
X146369048Y-119821430D01*
X146416667Y-119773811D01*
X146321429Y-119773811D01*
X146845238Y-118583335D02*
X145559524Y-119440478D01*
X146845238Y-117535716D02*
X145559524Y-118392859D01*
X146464286Y-116773811D02*
X145654762Y-116773811D01*
X145559524Y-116821430D01*
X145511905Y-116869049D01*
X145464286Y-116964288D01*
X145464286Y-117107145D01*
X145511905Y-117202383D01*
X145845238Y-116773811D02*
X145797619Y-116869049D01*
X145797619Y-117059526D01*
X145845238Y-117154764D01*
X145892857Y-117202383D01*
X145988095Y-117250002D01*
X146273810Y-117250002D01*
X146369048Y-117202383D01*
X146416667Y-117154764D01*
X146464286Y-117059526D01*
X146464286Y-116869049D01*
X146416667Y-116773811D01*
X145797619Y-116297621D02*
X146464286Y-116297621D01*
X146797619Y-116297621D02*
X146750000Y-116345240D01*
X146702381Y-116297621D01*
X146750000Y-116250002D01*
X146797619Y-116297621D01*
X146702381Y-116297621D01*
X146464286Y-115964288D02*
X146464286Y-115583336D01*
X146797619Y-115821431D02*
X145940476Y-115821431D01*
X145845238Y-115773812D01*
X145797619Y-115678574D01*
X145797619Y-115583336D01*
X145797619Y-115250002D02*
X146797619Y-115250002D01*
X145797619Y-114821430D02*
X146321429Y-114821430D01*
X146416667Y-114869049D01*
X146464286Y-114964287D01*
X146464286Y-115107145D01*
X146416667Y-115202383D01*
X146369048Y-115250002D01*
X146464286Y-113916668D02*
X145797619Y-113916668D01*
X146464286Y-114345240D02*
X145940476Y-114345240D01*
X145845238Y-114297621D01*
X145797619Y-114202383D01*
X145797619Y-114059525D01*
X145845238Y-113964287D01*
X145892857Y-113916668D01*
X145797619Y-113440478D02*
X146797619Y-113440478D01*
X146416667Y-113440478D02*
X146464286Y-113345240D01*
X146464286Y-113154763D01*
X146416667Y-113059525D01*
X146369048Y-113011906D01*
X146273810Y-112964287D01*
X145988095Y-112964287D01*
X145892857Y-113011906D01*
X145845238Y-113059525D01*
X145797619Y-113154763D01*
X145797619Y-113345240D01*
X145845238Y-113440478D01*
X145892857Y-112535716D02*
X145845238Y-112488097D01*
X145797619Y-112535716D01*
X145845238Y-112583335D01*
X145892857Y-112535716D01*
X145797619Y-112535716D01*
X145845238Y-111630954D02*
X145797619Y-111726192D01*
X145797619Y-111916669D01*
X145845238Y-112011907D01*
X145892857Y-112059526D01*
X145988095Y-112107145D01*
X146273810Y-112107145D01*
X146369048Y-112059526D01*
X146416667Y-112011907D01*
X146464286Y-111916669D01*
X146464286Y-111726192D01*
X146416667Y-111630954D01*
X145797619Y-111059526D02*
X145845238Y-111154764D01*
X145892857Y-111202383D01*
X145988095Y-111250002D01*
X146273810Y-111250002D01*
X146369048Y-111202383D01*
X146416667Y-111154764D01*
X146464286Y-111059526D01*
X146464286Y-110916668D01*
X146416667Y-110821430D01*
X146369048Y-110773811D01*
X146273810Y-110726192D01*
X145988095Y-110726192D01*
X145892857Y-110773811D01*
X145845238Y-110821430D01*
X145797619Y-110916668D01*
X145797619Y-111059526D01*
X145797619Y-110297621D02*
X146464286Y-110297621D01*
X146369048Y-110297621D02*
X146416667Y-110250002D01*
X146464286Y-110154764D01*
X146464286Y-110011906D01*
X146416667Y-109916668D01*
X146321429Y-109869049D01*
X145797619Y-109869049D01*
X146321429Y-109869049D02*
X146416667Y-109821430D01*
X146464286Y-109726192D01*
X146464286Y-109583335D01*
X146416667Y-109488097D01*
X146321429Y-109440478D01*
X145797619Y-109440478D01*
X146845238Y-108250002D02*
X145559524Y-109107145D01*
X145797619Y-107916669D02*
X146797619Y-107916669D01*
X145797619Y-107345240D02*
X146369048Y-107773812D01*
X146797619Y-107345240D02*
X146226190Y-107916669D01*
X145797619Y-106488097D02*
X146321429Y-106488097D01*
X146416667Y-106535716D01*
X146464286Y-106630954D01*
X146464286Y-106821431D01*
X146416667Y-106916669D01*
X145845238Y-106488097D02*
X145797619Y-106583335D01*
X145797619Y-106821431D01*
X145845238Y-106916669D01*
X145940476Y-106964288D01*
X146035714Y-106964288D01*
X146130952Y-106916669D01*
X146178571Y-106821431D01*
X146178571Y-106583335D01*
X146226190Y-106488097D01*
X145845238Y-105630954D02*
X145797619Y-105726192D01*
X145797619Y-105916669D01*
X145845238Y-106011907D01*
X145940476Y-106059526D01*
X146321429Y-106059526D01*
X146416667Y-106011907D01*
X146464286Y-105916669D01*
X146464286Y-105726192D01*
X146416667Y-105630954D01*
X146321429Y-105583335D01*
X146226190Y-105583335D01*
X146130952Y-106059526D01*
X146464286Y-105154764D02*
X145464286Y-105154764D01*
X146416667Y-105154764D02*
X146464286Y-105059526D01*
X146464286Y-104869049D01*
X146416667Y-104773811D01*
X146369048Y-104726192D01*
X146273810Y-104678573D01*
X145988095Y-104678573D01*
X145892857Y-104726192D01*
X145845238Y-104773811D01*
X145797619Y-104869049D01*
X145797619Y-105059526D01*
X145845238Y-105154764D01*
X146464286Y-104392859D02*
X146464286Y-104011907D01*
X146797619Y-104250002D02*
X145940476Y-104250002D01*
X145845238Y-104202383D01*
X145797619Y-104107145D01*
X145797619Y-104011907D01*
X146464286Y-103678573D02*
X145797619Y-103678573D01*
X146369048Y-103678573D02*
X146416667Y-103630954D01*
X146464286Y-103535716D01*
X146464286Y-103392858D01*
X146416667Y-103297620D01*
X146321429Y-103250001D01*
X145797619Y-103250001D01*
X146321429Y-102440477D02*
X146273810Y-102297620D01*
X146226190Y-102250001D01*
X146130952Y-102202382D01*
X145988095Y-102202382D01*
X145892857Y-102250001D01*
X145845238Y-102297620D01*
X145797619Y-102392858D01*
X145797619Y-102773811D01*
X146797619Y-102773811D01*
X146797619Y-102440477D01*
X146750000Y-102345239D01*
X146702381Y-102297620D01*
X146607143Y-102250001D01*
X146511905Y-102250001D01*
X146416667Y-102297620D01*
X146369048Y-102345239D01*
X146321429Y-102440477D01*
X146321429Y-102773811D01*
X145797619Y-101345239D02*
X146321429Y-101345239D01*
X146416667Y-101392858D01*
X146464286Y-101488096D01*
X146464286Y-101678573D01*
X146416667Y-101773811D01*
X145845238Y-101345239D02*
X145797619Y-101440477D01*
X145797619Y-101678573D01*
X145845238Y-101773811D01*
X145940476Y-101821430D01*
X146035714Y-101821430D01*
X146130952Y-101773811D01*
X146178571Y-101678573D01*
X146178571Y-101440477D01*
X146226190Y-101345239D01*
X145797619Y-100726192D02*
X145845238Y-100821430D01*
X145940476Y-100869049D01*
X146797619Y-100869049D01*
X146464286Y-99916667D02*
X145797619Y-99916667D01*
X146464286Y-100345239D02*
X145940476Y-100345239D01*
X145845238Y-100297620D01*
X145797619Y-100202382D01*
X145797619Y-100059524D01*
X145845238Y-99964286D01*
X145892857Y-99916667D01*
X146845238Y-98726191D02*
X145559524Y-99583334D01*
X146083333Y-98440477D02*
X146083333Y-97964286D01*
X145797619Y-98535715D02*
X146797619Y-98202382D01*
X145797619Y-97869048D01*
X145797619Y-97535715D02*
X146464286Y-97535715D01*
X146273810Y-97535715D02*
X146369048Y-97488096D01*
X146416667Y-97440477D01*
X146464286Y-97345239D01*
X146464286Y-97250000D01*
X145797619Y-96488095D02*
X146797619Y-96488095D01*
X145845238Y-96488095D02*
X145797619Y-96583333D01*
X145797619Y-96773810D01*
X145845238Y-96869048D01*
X145892857Y-96916667D01*
X145988095Y-96964286D01*
X146273810Y-96964286D01*
X146369048Y-96916667D01*
X146416667Y-96869048D01*
X146464286Y-96773810D01*
X146464286Y-96583333D01*
X146416667Y-96488095D01*
X146464286Y-95583333D02*
X145797619Y-95583333D01*
X146464286Y-96011905D02*
X145940476Y-96011905D01*
X145845238Y-95964286D01*
X145797619Y-95869048D01*
X145797619Y-95726190D01*
X145845238Y-95630952D01*
X145892857Y-95583333D01*
X145797619Y-95107143D02*
X146464286Y-95107143D01*
X146797619Y-95107143D02*
X146750000Y-95154762D01*
X146702381Y-95107143D01*
X146750000Y-95059524D01*
X146797619Y-95107143D01*
X146702381Y-95107143D01*
X146464286Y-94630953D02*
X145797619Y-94630953D01*
X146369048Y-94630953D02*
X146416667Y-94583334D01*
X146464286Y-94488096D01*
X146464286Y-94345238D01*
X146416667Y-94250000D01*
X146321429Y-94202381D01*
X145797619Y-94202381D01*
X145797619Y-93583334D02*
X145845238Y-93678572D01*
X145892857Y-93726191D01*
X145988095Y-93773810D01*
X146273810Y-93773810D01*
X146369048Y-93726191D01*
X146416667Y-93678572D01*
X146464286Y-93583334D01*
X146464286Y-93440476D01*
X146416667Y-93345238D01*
X146369048Y-93297619D01*
X146273810Y-93250000D01*
X145988095Y-93250000D01*
X145892857Y-93297619D01*
X145845238Y-93345238D01*
X145797619Y-93440476D01*
X145797619Y-93583334D01*
X145702381Y-93059524D02*
X145702381Y-92297619D01*
X145845238Y-92107143D02*
X145797619Y-91964286D01*
X145797619Y-91726190D01*
X145845238Y-91630952D01*
X145892857Y-91583333D01*
X145988095Y-91535714D01*
X146083333Y-91535714D01*
X146178571Y-91583333D01*
X146226190Y-91630952D01*
X146273810Y-91726190D01*
X146321429Y-91916667D01*
X146369048Y-92011905D01*
X146416667Y-92059524D01*
X146511905Y-92107143D01*
X146607143Y-92107143D01*
X146702381Y-92059524D01*
X146750000Y-92011905D01*
X146797619Y-91916667D01*
X146797619Y-91678571D01*
X146750000Y-91535714D01*
X146464286Y-91107143D02*
X145464286Y-91107143D01*
X146416667Y-91107143D02*
X146464286Y-91011905D01*
X146464286Y-90821428D01*
X146416667Y-90726190D01*
X146369048Y-90678571D01*
X146273810Y-90630952D01*
X145988095Y-90630952D01*
X145892857Y-90678571D01*
X145845238Y-90726190D01*
X145797619Y-90821428D01*
X145797619Y-91011905D01*
X145845238Y-91107143D01*
X145797619Y-90059524D02*
X145845238Y-90154762D01*
X145892857Y-90202381D01*
X145988095Y-90250000D01*
X146273810Y-90250000D01*
X146369048Y-90202381D01*
X146416667Y-90154762D01*
X146464286Y-90059524D01*
X146464286Y-89916666D01*
X146416667Y-89821428D01*
X146369048Y-89773809D01*
X146273810Y-89726190D01*
X145988095Y-89726190D01*
X145892857Y-89773809D01*
X145845238Y-89821428D01*
X145797619Y-89916666D01*
X145797619Y-90059524D01*
X146464286Y-89440476D02*
X146464286Y-89059524D01*
X146797619Y-89297619D02*
X145940476Y-89297619D01*
X145845238Y-89250000D01*
X145797619Y-89154762D01*
X145797619Y-89059524D01*
X145702381Y-88964285D02*
X145702381Y-88202380D01*
X146797619Y-88059523D02*
X145797619Y-87821428D01*
X146511905Y-87630951D01*
X145797619Y-87440475D01*
X146797619Y-87202380D01*
X145845238Y-86440475D02*
X145797619Y-86535713D01*
X145797619Y-86726190D01*
X145845238Y-86821428D01*
X145940476Y-86869047D01*
X146321429Y-86869047D01*
X146416667Y-86821428D01*
X146464286Y-86726190D01*
X146464286Y-86535713D01*
X146416667Y-86440475D01*
X146321429Y-86392856D01*
X146226190Y-86392856D01*
X146130952Y-86869047D01*
X145797619Y-85821428D02*
X145845238Y-85916666D01*
X145940476Y-85964285D01*
X146797619Y-85964285D01*
X145797619Y-85011903D02*
X146797619Y-85011903D01*
X145845238Y-85011903D02*
X145797619Y-85107141D01*
X145797619Y-85297618D01*
X145845238Y-85392856D01*
X145892857Y-85440475D01*
X145988095Y-85488094D01*
X146273810Y-85488094D01*
X146369048Y-85440475D01*
X146416667Y-85392856D01*
X146464286Y-85297618D01*
X146464286Y-85107141D01*
X146416667Y-85011903D01*
X145845238Y-84154760D02*
X145797619Y-84249998D01*
X145797619Y-84440475D01*
X145845238Y-84535713D01*
X145940476Y-84583332D01*
X146321429Y-84583332D01*
X146416667Y-84535713D01*
X146464286Y-84440475D01*
X146464286Y-84249998D01*
X146416667Y-84154760D01*
X146321429Y-84107141D01*
X146226190Y-84107141D01*
X146130952Y-84583332D01*
X145797619Y-83678570D02*
X146464286Y-83678570D01*
X146273810Y-83678570D02*
X146369048Y-83630951D01*
X146416667Y-83583332D01*
X146464286Y-83488094D01*
X146464286Y-83392855D01*
X145702381Y-83297617D02*
X145702381Y-82535712D01*
X146797619Y-82440474D02*
X145797619Y-82107141D01*
X146797619Y-81773807D01*
X146797619Y-81535712D02*
X146797619Y-80916664D01*
X146416667Y-81249998D01*
X146416667Y-81107140D01*
X146369048Y-81011902D01*
X146321429Y-80964283D01*
X146226190Y-80916664D01*
X145988095Y-80916664D01*
X145892857Y-80964283D01*
X145845238Y-81011902D01*
X145797619Y-81107140D01*
X145797619Y-81392855D01*
X145845238Y-81488093D01*
X145892857Y-81535712D01*
X164683333Y-121035717D02*
X164683333Y-120559526D01*
X164397619Y-121130955D02*
X165397619Y-120797622D01*
X164397619Y-120464288D01*
X164397619Y-120130955D02*
X165064286Y-120130955D01*
X164873810Y-120130955D02*
X164969048Y-120083336D01*
X165016667Y-120035717D01*
X165064286Y-119940479D01*
X165064286Y-119845240D01*
X164397619Y-119083335D02*
X165397619Y-119083335D01*
X164445238Y-119083335D02*
X164397619Y-119178573D01*
X164397619Y-119369050D01*
X164445238Y-119464288D01*
X164492857Y-119511907D01*
X164588095Y-119559526D01*
X164873810Y-119559526D01*
X164969048Y-119511907D01*
X165016667Y-119464288D01*
X165064286Y-119369050D01*
X165064286Y-119178573D01*
X165016667Y-119083335D01*
X165064286Y-118178573D02*
X164397619Y-118178573D01*
X165064286Y-118607145D02*
X164540476Y-118607145D01*
X164445238Y-118559526D01*
X164397619Y-118464288D01*
X164397619Y-118321430D01*
X164445238Y-118226192D01*
X164492857Y-118178573D01*
X164397619Y-117702383D02*
X165064286Y-117702383D01*
X165397619Y-117702383D02*
X165350000Y-117750002D01*
X165302381Y-117702383D01*
X165350000Y-117654764D01*
X165397619Y-117702383D01*
X165302381Y-117702383D01*
X165064286Y-117226193D02*
X164397619Y-117226193D01*
X164969048Y-117226193D02*
X165016667Y-117178574D01*
X165064286Y-117083336D01*
X165064286Y-116940478D01*
X165016667Y-116845240D01*
X164921429Y-116797621D01*
X164397619Y-116797621D01*
X164397619Y-116178574D02*
X164445238Y-116273812D01*
X164492857Y-116321431D01*
X164588095Y-116369050D01*
X164873810Y-116369050D01*
X164969048Y-116321431D01*
X165016667Y-116273812D01*
X165064286Y-116178574D01*
X165064286Y-116035716D01*
X165016667Y-115940478D01*
X164969048Y-115892859D01*
X164873810Y-115845240D01*
X164588095Y-115845240D01*
X164492857Y-115892859D01*
X164445238Y-115940478D01*
X164397619Y-116035716D01*
X164397619Y-116178574D01*
X164921429Y-114321430D02*
X164873810Y-114178573D01*
X164826190Y-114130954D01*
X164730952Y-114083335D01*
X164588095Y-114083335D01*
X164492857Y-114130954D01*
X164445238Y-114178573D01*
X164397619Y-114273811D01*
X164397619Y-114654764D01*
X165397619Y-114654764D01*
X165397619Y-114321430D01*
X165350000Y-114226192D01*
X165302381Y-114178573D01*
X165207143Y-114130954D01*
X165111905Y-114130954D01*
X165016667Y-114178573D01*
X164969048Y-114226192D01*
X164921429Y-114321430D01*
X164921429Y-114654764D01*
X164397619Y-113226192D02*
X164921429Y-113226192D01*
X165016667Y-113273811D01*
X165064286Y-113369049D01*
X165064286Y-113559526D01*
X165016667Y-113654764D01*
X164445238Y-113226192D02*
X164397619Y-113321430D01*
X164397619Y-113559526D01*
X164445238Y-113654764D01*
X164540476Y-113702383D01*
X164635714Y-113702383D01*
X164730952Y-113654764D01*
X164778571Y-113559526D01*
X164778571Y-113321430D01*
X164826190Y-113226192D01*
X165064286Y-112892859D02*
X165064286Y-112511907D01*
X165397619Y-112750002D02*
X164540476Y-112750002D01*
X164445238Y-112702383D01*
X164397619Y-112607145D01*
X164397619Y-112511907D01*
X165064286Y-112321430D02*
X165064286Y-111940478D01*
X165397619Y-112178573D02*
X164540476Y-112178573D01*
X164445238Y-112130954D01*
X164397619Y-112035716D01*
X164397619Y-111940478D01*
X164445238Y-111226191D02*
X164397619Y-111321429D01*
X164397619Y-111511906D01*
X164445238Y-111607144D01*
X164540476Y-111654763D01*
X164921429Y-111654763D01*
X165016667Y-111607144D01*
X165064286Y-111511906D01*
X165064286Y-111321429D01*
X165016667Y-111226191D01*
X164921429Y-111178572D01*
X164826190Y-111178572D01*
X164730952Y-111654763D01*
X164397619Y-110750001D02*
X165064286Y-110750001D01*
X164873810Y-110750001D02*
X164969048Y-110702382D01*
X165016667Y-110654763D01*
X165064286Y-110559525D01*
X165064286Y-110464286D01*
X165064286Y-110226191D02*
X164397619Y-109988096D01*
X165064286Y-109750000D02*
X164397619Y-109988096D01*
X164159524Y-110083334D01*
X164111905Y-110130953D01*
X164064286Y-110226191D01*
X164445238Y-108654762D02*
X164397619Y-108511905D01*
X164397619Y-108273809D01*
X164445238Y-108178571D01*
X164492857Y-108130952D01*
X164588095Y-108083333D01*
X164683333Y-108083333D01*
X164778571Y-108130952D01*
X164826190Y-108178571D01*
X164873810Y-108273809D01*
X164921429Y-108464286D01*
X164969048Y-108559524D01*
X165016667Y-108607143D01*
X165111905Y-108654762D01*
X165207143Y-108654762D01*
X165302381Y-108607143D01*
X165350000Y-108559524D01*
X165397619Y-108464286D01*
X165397619Y-108226190D01*
X165350000Y-108083333D01*
X165064286Y-107654762D02*
X164064286Y-107654762D01*
X165016667Y-107654762D02*
X165064286Y-107559524D01*
X165064286Y-107369047D01*
X165016667Y-107273809D01*
X164969048Y-107226190D01*
X164873810Y-107178571D01*
X164588095Y-107178571D01*
X164492857Y-107226190D01*
X164445238Y-107273809D01*
X164397619Y-107369047D01*
X164397619Y-107559524D01*
X164445238Y-107654762D01*
X164397619Y-106607143D02*
X164445238Y-106702381D01*
X164492857Y-106750000D01*
X164588095Y-106797619D01*
X164873810Y-106797619D01*
X164969048Y-106750000D01*
X165016667Y-106702381D01*
X165064286Y-106607143D01*
X165064286Y-106464285D01*
X165016667Y-106369047D01*
X164969048Y-106321428D01*
X164873810Y-106273809D01*
X164588095Y-106273809D01*
X164492857Y-106321428D01*
X164445238Y-106369047D01*
X164397619Y-106464285D01*
X164397619Y-106607143D01*
X165064286Y-105988095D02*
X165064286Y-105607143D01*
X165397619Y-105845238D02*
X164540476Y-105845238D01*
X164445238Y-105797619D01*
X164397619Y-105702381D01*
X164397619Y-105607143D01*
X165397619Y-104607142D02*
X164397619Y-104369047D01*
X165111905Y-104178570D01*
X164397619Y-103988094D01*
X165397619Y-103749999D01*
X164445238Y-102988094D02*
X164397619Y-103083332D01*
X164397619Y-103273809D01*
X164445238Y-103369047D01*
X164540476Y-103416666D01*
X164921429Y-103416666D01*
X165016667Y-103369047D01*
X165064286Y-103273809D01*
X165064286Y-103083332D01*
X165016667Y-102988094D01*
X164921429Y-102940475D01*
X164826190Y-102940475D01*
X164730952Y-103416666D01*
X164397619Y-102369047D02*
X164445238Y-102464285D01*
X164540476Y-102511904D01*
X165397619Y-102511904D01*
X164397619Y-101559522D02*
X165397619Y-101559522D01*
X164445238Y-101559522D02*
X164397619Y-101654760D01*
X164397619Y-101845237D01*
X164445238Y-101940475D01*
X164492857Y-101988094D01*
X164588095Y-102035713D01*
X164873810Y-102035713D01*
X164969048Y-101988094D01*
X165016667Y-101940475D01*
X165064286Y-101845237D01*
X165064286Y-101654760D01*
X165016667Y-101559522D01*
X164445238Y-100702379D02*
X164397619Y-100797617D01*
X164397619Y-100988094D01*
X164445238Y-101083332D01*
X164540476Y-101130951D01*
X164921429Y-101130951D01*
X165016667Y-101083332D01*
X165064286Y-100988094D01*
X165064286Y-100797617D01*
X165016667Y-100702379D01*
X164921429Y-100654760D01*
X164826190Y-100654760D01*
X164730952Y-101130951D01*
X164397619Y-100226189D02*
X165064286Y-100226189D01*
X164873810Y-100226189D02*
X164969048Y-100178570D01*
X165016667Y-100130951D01*
X165064286Y-100035713D01*
X165064286Y-99940474D01*
X165397619Y-98988093D02*
X164397619Y-98654760D01*
X165397619Y-98321426D01*
X165397619Y-98083331D02*
X165397619Y-97464283D01*
X165016667Y-97797617D01*
X165016667Y-97654759D01*
X164969048Y-97559521D01*
X164921429Y-97511902D01*
X164826190Y-97464283D01*
X164588095Y-97464283D01*
X164492857Y-97511902D01*
X164445238Y-97559521D01*
X164397619Y-97654759D01*
X164397619Y-97940474D01*
X164445238Y-98035712D01*
X164492857Y-98083331D01*
X162697619Y-114845239D02*
X163697619Y-114845239D01*
X163316667Y-114845239D02*
X163364286Y-114750001D01*
X163364286Y-114559524D01*
X163316667Y-114464286D01*
X163269048Y-114416667D01*
X163173810Y-114369048D01*
X162888095Y-114369048D01*
X162792857Y-114416667D01*
X162745238Y-114464286D01*
X162697619Y-114559524D01*
X162697619Y-114750001D01*
X162745238Y-114845239D01*
X163364286Y-114035715D02*
X162697619Y-113797620D01*
X163364286Y-113559524D02*
X162697619Y-113797620D01*
X162459524Y-113892858D01*
X162411905Y-113940477D01*
X162364286Y-114035715D01*
X162697619Y-112416667D02*
X163697619Y-112416667D01*
X162697619Y-111845238D02*
X163269048Y-112273810D01*
X163697619Y-111845238D02*
X163126190Y-112416667D01*
X162697619Y-110988095D02*
X163221429Y-110988095D01*
X163316667Y-111035714D01*
X163364286Y-111130952D01*
X163364286Y-111321429D01*
X163316667Y-111416667D01*
X162745238Y-110988095D02*
X162697619Y-111083333D01*
X162697619Y-111321429D01*
X162745238Y-111416667D01*
X162840476Y-111464286D01*
X162935714Y-111464286D01*
X163030952Y-111416667D01*
X163078571Y-111321429D01*
X163078571Y-111083333D01*
X163126190Y-110988095D01*
X162745238Y-110130952D02*
X162697619Y-110226190D01*
X162697619Y-110416667D01*
X162745238Y-110511905D01*
X162840476Y-110559524D01*
X163221429Y-110559524D01*
X163316667Y-110511905D01*
X163364286Y-110416667D01*
X163364286Y-110226190D01*
X163316667Y-110130952D01*
X163221429Y-110083333D01*
X163126190Y-110083333D01*
X163030952Y-110559524D01*
X163364286Y-109654762D02*
X162364286Y-109654762D01*
X163316667Y-109654762D02*
X163364286Y-109559524D01*
X163364286Y-109369047D01*
X163316667Y-109273809D01*
X163269048Y-109226190D01*
X163173810Y-109178571D01*
X162888095Y-109178571D01*
X162792857Y-109226190D01*
X162745238Y-109273809D01*
X162697619Y-109369047D01*
X162697619Y-109559524D01*
X162745238Y-109654762D01*
X163364286Y-108892857D02*
X163364286Y-108511905D01*
X163697619Y-108750000D02*
X162840476Y-108750000D01*
X162745238Y-108702381D01*
X162697619Y-108607143D01*
X162697619Y-108511905D01*
X163364286Y-108178571D02*
X162697619Y-108178571D01*
X163269048Y-108178571D02*
X163316667Y-108130952D01*
X163364286Y-108035714D01*
X163364286Y-107892856D01*
X163316667Y-107797618D01*
X163221429Y-107749999D01*
X162697619Y-107749999D01*
X163221429Y-106178570D02*
X163173810Y-106035713D01*
X163126190Y-105988094D01*
X163030952Y-105940475D01*
X162888095Y-105940475D01*
X162792857Y-105988094D01*
X162745238Y-106035713D01*
X162697619Y-106130951D01*
X162697619Y-106511904D01*
X163697619Y-106511904D01*
X163697619Y-106178570D01*
X163650000Y-106083332D01*
X163602381Y-106035713D01*
X163507143Y-105988094D01*
X163411905Y-105988094D01*
X163316667Y-106035713D01*
X163269048Y-106083332D01*
X163221429Y-106178570D01*
X163221429Y-106511904D01*
X162697619Y-105083332D02*
X163221429Y-105083332D01*
X163316667Y-105130951D01*
X163364286Y-105226189D01*
X163364286Y-105416666D01*
X163316667Y-105511904D01*
X162745238Y-105083332D02*
X162697619Y-105178570D01*
X162697619Y-105416666D01*
X162745238Y-105511904D01*
X162840476Y-105559523D01*
X162935714Y-105559523D01*
X163030952Y-105511904D01*
X163078571Y-105416666D01*
X163078571Y-105178570D01*
X163126190Y-105083332D01*
X162697619Y-104464285D02*
X162745238Y-104559523D01*
X162840476Y-104607142D01*
X163697619Y-104607142D01*
X163364286Y-103654760D02*
X162697619Y-103654760D01*
X163364286Y-104083332D02*
X162840476Y-104083332D01*
X162745238Y-104035713D01*
X162697619Y-103940475D01*
X162697619Y-103797617D01*
X162745238Y-103702379D01*
X162792857Y-103654760D01*
D12*
X159550000Y-76500000D02*
X159550000Y-70000000D01*
X159550000Y-76500000D02*
X148350000Y-76500000D01*
X159550000Y-70000000D02*
X148350000Y-70000000D01*
D13*
X153940476Y-71202381D02*
X153369047Y-71202381D01*
X153654762Y-72202381D02*
X153654762Y-71202381D01*
X153178571Y-71202381D02*
X152845238Y-72202381D01*
X152511904Y-71202381D01*
X152226190Y-72154762D02*
X152083333Y-72202381D01*
X151845237Y-72202381D01*
X151749999Y-72154762D01*
X151702380Y-72107143D01*
X151654761Y-72011905D01*
X151654761Y-71916667D01*
X151702380Y-71821429D01*
X151749999Y-71773810D01*
X151845237Y-71726190D01*
X152035714Y-71678571D01*
X152130952Y-71630952D01*
X152178571Y-71583333D01*
X152226190Y-71488095D01*
X152226190Y-71392857D01*
X152178571Y-71297619D01*
X152130952Y-71250000D01*
X152035714Y-71202381D01*
X151797618Y-71202381D01*
X151654761Y-71250000D01*
M02*
