M48
; DRILL file {KiCad 5.99.0-unknown-281d77f~100~ubuntu18.04.1} date Thu Oct  3 19:58:32 2019
; FORMAT={-:-/ absolute / metric / decimal}
; #@! TF.CreationDate,2019-10-03T19:58:32+05:30
; #@! TF.GenerationSoftware,Kicad,Pcbnew,5.99.0-unknown-281d77f~100~ubuntu18.04.1
FMAT,2
METRIC
T1C0.400
T2C0.500
T3C1.000
T4C1.200
T5C2.200
T6C5.000
T7C2.500
%
G90
G05
T1
X83.0Y-133.0
X95.0Y-133.0
X107.0Y-133.0
X114.1Y-166.9
X119.0Y-133.0
X131.0Y-133.0
X131.0Y-163.0
X131.0Y-164.2
X133.8Y-165.2
X136.7Y-169.3
X143.0Y-133.0
X155.0Y-133.0
X167.0Y-133.0
X178.5Y-167.0
T2
X83.0Y-161.0
X83.0Y-171.0
X89.0Y-161.0
X89.0Y-171.0
X89.0Y-178.0
X95.0Y-161.0
X95.0Y-178.0
X101.0Y-161.0
X101.0Y-178.0
X107.0Y-161.0
X113.0Y-161.0
X113.0Y-171.0
X113.0Y-173.0
X119.0Y-161.0
X121.0Y-168.0
X122.8Y-161.0
X123.0Y-171.0
X123.0Y-173.0
X129.0Y-171.0
X129.0Y-173.0
X135.0Y-171.0
X135.0Y-173.0
X143.0Y-162.0
X143.0Y-164.0
X147.0Y-162.0
X147.0Y-164.0
X147.0Y-171.0
X147.0Y-173.0
X153.0Y-176.0
X161.0Y-169.0
X161.0Y-171.0
X161.0Y-173.0
X169.0Y-169.0
X169.0Y-171.0
X169.0Y-173.0
X171.0Y-165.0
X171.0Y-167.0
X173.0Y-161.0
X175.0Y-161.0
X175.0Y-167.0
X175.0Y-169.0
X175.0Y-171.0
T3
X85.0Y-102.0
X85.0Y-107.0
X85.0Y-112.0
X85.0Y-117.0
X85.0Y-122.0
X85.0Y-127.0
X85.0Y-137.0
X85.0Y-142.0
X85.0Y-147.0
X85.0Y-152.0
X85.0Y-157.0
X90.0Y-102.0
X90.0Y-107.0
X90.0Y-112.0
X90.0Y-117.0
X90.0Y-122.0
X90.0Y-127.0
X90.0Y-137.0
X90.0Y-142.0
X90.0Y-147.0
X90.0Y-152.0
X90.0Y-157.0
X95.0Y-102.0
X95.0Y-107.0
X95.0Y-112.0
X95.0Y-117.0
X95.0Y-122.0
X95.0Y-127.0
X95.0Y-137.0
X95.0Y-142.0
X95.0Y-147.0
X95.0Y-152.0
X95.0Y-157.0
X100.0Y-102.0
X100.0Y-112.0
X100.0Y-117.0
X100.0Y-122.0
X100.0Y-127.0
X100.0Y-137.0
X100.0Y-142.0
X100.0Y-152.0
X100.0Y-157.0
X105.0Y-102.0
X105.0Y-107.0
X105.0Y-112.0
X105.0Y-117.0
X105.0Y-122.0
X105.0Y-127.0
X105.0Y-137.0
X105.0Y-142.0
X105.0Y-147.0
X105.0Y-152.0
X105.0Y-157.0
X110.0Y-102.0
X110.0Y-107.0
X110.0Y-112.0
X110.0Y-117.0
X110.0Y-122.0
X110.0Y-127.0
X110.0Y-137.0
X110.0Y-142.0
X110.0Y-147.0
X110.0Y-152.0
X110.0Y-157.0
X115.0Y-102.0
X115.0Y-107.0
X115.0Y-112.0
X115.0Y-117.0
X115.0Y-122.0
X115.0Y-127.0
X115.0Y-137.0
X115.0Y-142.0
X115.0Y-147.0
X115.0Y-152.0
X115.0Y-157.0
X120.0Y-102.0
X120.0Y-112.0
X120.0Y-117.0
X120.0Y-122.0
X120.0Y-127.0
X120.0Y-137.0
X120.0Y-142.0
X120.0Y-152.0
X120.0Y-157.0
X125.0Y-102.0
X125.0Y-107.0
X125.0Y-112.0
X125.0Y-117.0
X125.0Y-122.0
X125.0Y-127.0
X125.0Y-137.0
X125.0Y-142.0
X125.0Y-147.0
X125.0Y-152.0
X125.0Y-157.0
X130.0Y-102.0
X130.0Y-107.0
X130.0Y-112.0
X130.0Y-117.0
X130.0Y-122.0
X130.0Y-127.0
X130.0Y-137.0
X130.0Y-142.0
X130.0Y-147.0
X130.0Y-152.0
X130.0Y-157.0
X135.0Y-102.0
X135.0Y-107.0
X135.0Y-112.0
X135.0Y-117.0
X135.0Y-122.0
X135.0Y-127.0
X135.0Y-137.0
X135.0Y-142.0
X135.0Y-147.0
X135.0Y-152.0
X135.0Y-157.0
X140.0Y-102.0
X140.0Y-112.0
X140.0Y-117.0
X140.0Y-122.0
X140.0Y-127.0
X140.0Y-137.0
X140.0Y-142.0
X140.0Y-152.0
X140.0Y-157.0
X145.0Y-102.0
X145.0Y-107.0
X145.0Y-112.0
X145.0Y-117.0
X145.0Y-122.0
X145.0Y-127.0
X145.0Y-137.0
X145.0Y-142.0
X145.0Y-147.0
X145.0Y-152.0
X145.0Y-157.0
X150.0Y-102.0
X150.0Y-107.0
X150.0Y-112.0
X150.0Y-117.0
X150.0Y-122.0
X150.0Y-127.0
X150.0Y-137.0
X150.0Y-142.0
X150.0Y-147.0
X150.0Y-152.0
X150.0Y-157.0
X155.0Y-102.0
X155.0Y-107.0
X155.0Y-112.0
X155.0Y-117.0
X155.0Y-122.0
X155.0Y-127.0
X155.0Y-137.0
X155.0Y-142.0
X155.0Y-147.0
X155.0Y-152.0
X155.0Y-157.0
X160.0Y-102.0
X160.0Y-112.0
X160.0Y-117.0
X160.0Y-122.0
X160.0Y-127.0
X160.0Y-137.0
X160.0Y-142.0
X160.0Y-152.0
X160.0Y-157.0
X165.0Y-102.0
X165.0Y-107.0
X165.0Y-112.0
X165.0Y-117.0
X165.0Y-122.0
X165.0Y-127.0
X165.0Y-137.0
X165.0Y-142.0
X165.0Y-147.0
X165.0Y-152.0
X165.0Y-157.0
X170.0Y-102.0
X170.0Y-107.0
X170.0Y-112.0
X170.0Y-117.0
X170.0Y-122.0
X170.0Y-127.0
X170.0Y-137.0
X170.0Y-142.0
X170.0Y-147.0
X170.0Y-152.0
X170.0Y-157.0
X175.0Y-102.0
X175.0Y-107.0
X175.0Y-112.0
X175.0Y-117.0
X175.0Y-122.0
X175.0Y-127.0
X175.0Y-137.0
X175.0Y-142.0
X175.0Y-147.0
X175.0Y-152.0
X175.0Y-157.0
X122.46Y-177.0
X125.0Y-177.0
X127.54Y-177.0
X158.0Y-162.5
X158.0Y-177.0
X160.5Y-177.0
X163.0Y-162.5
X163.0Y-177.0
X101.0Y-165.0
X101.0Y-170.0
T4
X85.0Y-166.0
X137.0Y-175.0
X139.54Y-175.0
X142.08Y-175.0
X144.62Y-175.0
X116.0Y-175.069
X118.54Y-175.069
X85.0Y-168.54
T5
X154.9Y-169.5
X166.1Y-169.5
T6
X100.0Y-107.0
X160.0Y-107.0
X100.0Y-147.0
X120.0Y-147.0
X140.0Y-147.0
X120.0Y-107.0
X140.0Y-107.0
X160.0Y-147.0
T7
X83.0Y-93.0
X83.0Y-177.0
X177.0Y-93.0
X177.0Y-177.0
T0
M30
