G04 #@! TF.GenerationSoftware,KiCad,Pcbnew,5.99.0-unknown-281d77f~100~ubuntu18.04.1*
G04 #@! TF.CreationDate,2019-10-03T19:58:34+05:30*
G04 #@! TF.ProjectId,Spot_Welder,53706f74-5f57-4656-9c64-65722e6b6963,rev?*
G04 #@! TF.SameCoordinates,Original*
G04 #@! TF.FileFunction,Paste,Bot*
G04 #@! TF.FilePolarity,Positive*
%FSLAX46Y46*%
G04 Gerber Fmt 4.6, Leading zero omitted, Abs format (unit mm)*
G04 Created by KiCad (PCBNEW 5.99.0-unknown-281d77f~100~ubuntu18.04.1) date 2019-10-03 19:58:34*
%MOMM*%
%LPD*%
G04 APERTURE LIST*
%ADD10R,3.300000X2.500000*%
%ADD11C,0.100000*%
%ADD12C,0.875000*%
%ADD13R,0.900000X1.200000*%
G04 APERTURE END LIST*
D10*
X88000000Y-130400000D03*
X88000000Y-123600000D03*
X112000000Y-130400000D03*
X112000000Y-123600000D03*
X100000000Y-130400000D03*
X100000000Y-123600000D03*
X124000000Y-130400000D03*
X124000000Y-123600000D03*
D11*
G36*
X167339962Y-129791651D02*
G01*
X167410930Y-129839070D01*
X167458349Y-129910038D01*
X167475000Y-129993750D01*
X167475000Y-130431250D01*
X167458349Y-130514962D01*
X167410930Y-130585930D01*
X167339962Y-130633349D01*
X167256250Y-130650000D01*
X166743750Y-130650000D01*
X166660038Y-130633349D01*
X166589070Y-130585930D01*
X166541651Y-130514962D01*
X166525000Y-130431250D01*
X166525000Y-129993750D01*
X166541651Y-129910038D01*
X166589070Y-129839070D01*
X166660038Y-129791651D01*
X166743750Y-129775000D01*
X167256250Y-129775000D01*
X167339962Y-129791651D01*
X167339962Y-129791651D01*
G37*
D12*
X167000000Y-130212500D03*
D11*
G36*
X167339962Y-131366651D02*
G01*
X167410930Y-131414070D01*
X167458349Y-131485038D01*
X167475000Y-131568750D01*
X167475000Y-132006250D01*
X167458349Y-132089962D01*
X167410930Y-132160930D01*
X167339962Y-132208349D01*
X167256250Y-132225000D01*
X166743750Y-132225000D01*
X166660038Y-132208349D01*
X166589070Y-132160930D01*
X166541651Y-132089962D01*
X166525000Y-132006250D01*
X166525000Y-131568750D01*
X166541651Y-131485038D01*
X166589070Y-131414070D01*
X166660038Y-131366651D01*
X166743750Y-131350000D01*
X167256250Y-131350000D01*
X167339962Y-131366651D01*
X167339962Y-131366651D01*
G37*
D12*
X167000000Y-131787500D03*
D11*
G36*
X131339962Y-129791651D02*
G01*
X131410930Y-129839070D01*
X131458349Y-129910038D01*
X131475000Y-129993750D01*
X131475000Y-130431250D01*
X131458349Y-130514962D01*
X131410930Y-130585930D01*
X131339962Y-130633349D01*
X131256250Y-130650000D01*
X130743750Y-130650000D01*
X130660038Y-130633349D01*
X130589070Y-130585930D01*
X130541651Y-130514962D01*
X130525000Y-130431250D01*
X130525000Y-129993750D01*
X130541651Y-129910038D01*
X130589070Y-129839070D01*
X130660038Y-129791651D01*
X130743750Y-129775000D01*
X131256250Y-129775000D01*
X131339962Y-129791651D01*
X131339962Y-129791651D01*
G37*
D12*
X131000000Y-130212500D03*
D11*
G36*
X131339962Y-131366651D02*
G01*
X131410930Y-131414070D01*
X131458349Y-131485038D01*
X131475000Y-131568750D01*
X131475000Y-132006250D01*
X131458349Y-132089962D01*
X131410930Y-132160930D01*
X131339962Y-132208349D01*
X131256250Y-132225000D01*
X130743750Y-132225000D01*
X130660038Y-132208349D01*
X130589070Y-132160930D01*
X130541651Y-132089962D01*
X130525000Y-132006250D01*
X130525000Y-131568750D01*
X130541651Y-131485038D01*
X130589070Y-131414070D01*
X130660038Y-131366651D01*
X130743750Y-131350000D01*
X131256250Y-131350000D01*
X131339962Y-131366651D01*
X131339962Y-131366651D01*
G37*
D12*
X131000000Y-131787500D03*
D11*
G36*
X107339962Y-129791651D02*
G01*
X107410930Y-129839070D01*
X107458349Y-129910038D01*
X107475000Y-129993750D01*
X107475000Y-130431250D01*
X107458349Y-130514962D01*
X107410930Y-130585930D01*
X107339962Y-130633349D01*
X107256250Y-130650000D01*
X106743750Y-130650000D01*
X106660038Y-130633349D01*
X106589070Y-130585930D01*
X106541651Y-130514962D01*
X106525000Y-130431250D01*
X106525000Y-129993750D01*
X106541651Y-129910038D01*
X106589070Y-129839070D01*
X106660038Y-129791651D01*
X106743750Y-129775000D01*
X107256250Y-129775000D01*
X107339962Y-129791651D01*
X107339962Y-129791651D01*
G37*
D12*
X107000000Y-130212500D03*
D11*
G36*
X107339962Y-131366651D02*
G01*
X107410930Y-131414070D01*
X107458349Y-131485038D01*
X107475000Y-131568750D01*
X107475000Y-132006250D01*
X107458349Y-132089962D01*
X107410930Y-132160930D01*
X107339962Y-132208349D01*
X107256250Y-132225000D01*
X106743750Y-132225000D01*
X106660038Y-132208349D01*
X106589070Y-132160930D01*
X106541651Y-132089962D01*
X106525000Y-132006250D01*
X106525000Y-131568750D01*
X106541651Y-131485038D01*
X106589070Y-131414070D01*
X106660038Y-131366651D01*
X106743750Y-131350000D01*
X107256250Y-131350000D01*
X107339962Y-131366651D01*
X107339962Y-131366651D01*
G37*
D12*
X107000000Y-131787500D03*
D11*
G36*
X155339962Y-129791651D02*
G01*
X155410930Y-129839070D01*
X155458349Y-129910038D01*
X155475000Y-129993750D01*
X155475000Y-130431250D01*
X155458349Y-130514962D01*
X155410930Y-130585930D01*
X155339962Y-130633349D01*
X155256250Y-130650000D01*
X154743750Y-130650000D01*
X154660038Y-130633349D01*
X154589070Y-130585930D01*
X154541651Y-130514962D01*
X154525000Y-130431250D01*
X154525000Y-129993750D01*
X154541651Y-129910038D01*
X154589070Y-129839070D01*
X154660038Y-129791651D01*
X154743750Y-129775000D01*
X155256250Y-129775000D01*
X155339962Y-129791651D01*
X155339962Y-129791651D01*
G37*
D12*
X155000000Y-130212500D03*
D11*
G36*
X155339962Y-131366651D02*
G01*
X155410930Y-131414070D01*
X155458349Y-131485038D01*
X155475000Y-131568750D01*
X155475000Y-132006250D01*
X155458349Y-132089962D01*
X155410930Y-132160930D01*
X155339962Y-132208349D01*
X155256250Y-132225000D01*
X154743750Y-132225000D01*
X154660038Y-132208349D01*
X154589070Y-132160930D01*
X154541651Y-132089962D01*
X154525000Y-132006250D01*
X154525000Y-131568750D01*
X154541651Y-131485038D01*
X154589070Y-131414070D01*
X154660038Y-131366651D01*
X154743750Y-131350000D01*
X155256250Y-131350000D01*
X155339962Y-131366651D01*
X155339962Y-131366651D01*
G37*
D12*
X155000000Y-131787500D03*
D11*
G36*
X119339962Y-129791651D02*
G01*
X119410930Y-129839070D01*
X119458349Y-129910038D01*
X119475000Y-129993750D01*
X119475000Y-130431250D01*
X119458349Y-130514962D01*
X119410930Y-130585930D01*
X119339962Y-130633349D01*
X119256250Y-130650000D01*
X118743750Y-130650000D01*
X118660038Y-130633349D01*
X118589070Y-130585930D01*
X118541651Y-130514962D01*
X118525000Y-130431250D01*
X118525000Y-129993750D01*
X118541651Y-129910038D01*
X118589070Y-129839070D01*
X118660038Y-129791651D01*
X118743750Y-129775000D01*
X119256250Y-129775000D01*
X119339962Y-129791651D01*
X119339962Y-129791651D01*
G37*
D12*
X119000000Y-130212500D03*
D11*
G36*
X119339962Y-131366651D02*
G01*
X119410930Y-131414070D01*
X119458349Y-131485038D01*
X119475000Y-131568750D01*
X119475000Y-132006250D01*
X119458349Y-132089962D01*
X119410930Y-132160930D01*
X119339962Y-132208349D01*
X119256250Y-132225000D01*
X118743750Y-132225000D01*
X118660038Y-132208349D01*
X118589070Y-132160930D01*
X118541651Y-132089962D01*
X118525000Y-132006250D01*
X118525000Y-131568750D01*
X118541651Y-131485038D01*
X118589070Y-131414070D01*
X118660038Y-131366651D01*
X118743750Y-131350000D01*
X119256250Y-131350000D01*
X119339962Y-131366651D01*
X119339962Y-131366651D01*
G37*
D12*
X119000000Y-131787500D03*
D11*
G36*
X83339962Y-129791651D02*
G01*
X83410930Y-129839070D01*
X83458349Y-129910038D01*
X83475000Y-129993750D01*
X83475000Y-130431250D01*
X83458349Y-130514962D01*
X83410930Y-130585930D01*
X83339962Y-130633349D01*
X83256250Y-130650000D01*
X82743750Y-130650000D01*
X82660038Y-130633349D01*
X82589070Y-130585930D01*
X82541651Y-130514962D01*
X82525000Y-130431250D01*
X82525000Y-129993750D01*
X82541651Y-129910038D01*
X82589070Y-129839070D01*
X82660038Y-129791651D01*
X82743750Y-129775000D01*
X83256250Y-129775000D01*
X83339962Y-129791651D01*
X83339962Y-129791651D01*
G37*
D12*
X83000000Y-130212500D03*
D11*
G36*
X83339962Y-131366651D02*
G01*
X83410930Y-131414070D01*
X83458349Y-131485038D01*
X83475000Y-131568750D01*
X83475000Y-132006250D01*
X83458349Y-132089962D01*
X83410930Y-132160930D01*
X83339962Y-132208349D01*
X83256250Y-132225000D01*
X82743750Y-132225000D01*
X82660038Y-132208349D01*
X82589070Y-132160930D01*
X82541651Y-132089962D01*
X82525000Y-132006250D01*
X82525000Y-131568750D01*
X82541651Y-131485038D01*
X82589070Y-131414070D01*
X82660038Y-131366651D01*
X82743750Y-131350000D01*
X83256250Y-131350000D01*
X83339962Y-131366651D01*
X83339962Y-131366651D01*
G37*
D12*
X83000000Y-131787500D03*
D11*
G36*
X143339962Y-129791651D02*
G01*
X143410930Y-129839070D01*
X143458349Y-129910038D01*
X143475000Y-129993750D01*
X143475000Y-130431250D01*
X143458349Y-130514962D01*
X143410930Y-130585930D01*
X143339962Y-130633349D01*
X143256250Y-130650000D01*
X142743750Y-130650000D01*
X142660038Y-130633349D01*
X142589070Y-130585930D01*
X142541651Y-130514962D01*
X142525000Y-130431250D01*
X142525000Y-129993750D01*
X142541651Y-129910038D01*
X142589070Y-129839070D01*
X142660038Y-129791651D01*
X142743750Y-129775000D01*
X143256250Y-129775000D01*
X143339962Y-129791651D01*
X143339962Y-129791651D01*
G37*
D12*
X143000000Y-130212500D03*
D11*
G36*
X143339962Y-131366651D02*
G01*
X143410930Y-131414070D01*
X143458349Y-131485038D01*
X143475000Y-131568750D01*
X143475000Y-132006250D01*
X143458349Y-132089962D01*
X143410930Y-132160930D01*
X143339962Y-132208349D01*
X143256250Y-132225000D01*
X142743750Y-132225000D01*
X142660038Y-132208349D01*
X142589070Y-132160930D01*
X142541651Y-132089962D01*
X142525000Y-132006250D01*
X142525000Y-131568750D01*
X142541651Y-131485038D01*
X142589070Y-131414070D01*
X142660038Y-131366651D01*
X142743750Y-131350000D01*
X143256250Y-131350000D01*
X143339962Y-131366651D01*
X143339962Y-131366651D01*
G37*
D12*
X143000000Y-131787500D03*
D11*
G36*
X95339962Y-129791651D02*
G01*
X95410930Y-129839070D01*
X95458349Y-129910038D01*
X95475000Y-129993750D01*
X95475000Y-130431250D01*
X95458349Y-130514962D01*
X95410930Y-130585930D01*
X95339962Y-130633349D01*
X95256250Y-130650000D01*
X94743750Y-130650000D01*
X94660038Y-130633349D01*
X94589070Y-130585930D01*
X94541651Y-130514962D01*
X94525000Y-130431250D01*
X94525000Y-129993750D01*
X94541651Y-129910038D01*
X94589070Y-129839070D01*
X94660038Y-129791651D01*
X94743750Y-129775000D01*
X95256250Y-129775000D01*
X95339962Y-129791651D01*
X95339962Y-129791651D01*
G37*
D12*
X95000000Y-130212500D03*
D11*
G36*
X95339962Y-131366651D02*
G01*
X95410930Y-131414070D01*
X95458349Y-131485038D01*
X95475000Y-131568750D01*
X95475000Y-132006250D01*
X95458349Y-132089962D01*
X95410930Y-132160930D01*
X95339962Y-132208349D01*
X95256250Y-132225000D01*
X94743750Y-132225000D01*
X94660038Y-132208349D01*
X94589070Y-132160930D01*
X94541651Y-132089962D01*
X94525000Y-132006250D01*
X94525000Y-131568750D01*
X94541651Y-131485038D01*
X94589070Y-131414070D01*
X94660038Y-131366651D01*
X94743750Y-131350000D01*
X95256250Y-131350000D01*
X95339962Y-131366651D01*
X95339962Y-131366651D01*
G37*
D12*
X95000000Y-131787500D03*
D10*
X172000000Y-130400000D03*
X172000000Y-123600000D03*
X136000000Y-130400000D03*
X136000000Y-123600000D03*
X148000000Y-130400000D03*
X148000000Y-123600000D03*
X160000000Y-130400000D03*
X160000000Y-123600000D03*
D13*
X172650000Y-133000000D03*
X169350000Y-133000000D03*
X136650000Y-133000000D03*
X133350000Y-133000000D03*
X112650000Y-133000000D03*
X109350000Y-133000000D03*
X160650000Y-133000000D03*
X157350000Y-133000000D03*
X124650000Y-133000000D03*
X121350000Y-133000000D03*
X88650000Y-133000000D03*
X85350000Y-133000000D03*
X148650000Y-133000000D03*
X145350000Y-133000000D03*
X100650000Y-133000000D03*
X97350000Y-133000000D03*
M02*
