G04 #@! TF.GenerationSoftware,KiCad,Pcbnew,5.99.0-unknown-281d77f~100~ubuntu18.04.1*
G04 #@! TF.CreationDate,2019-10-03T19:58:34+05:30*
G04 #@! TF.ProjectId,Spot_Welder,53706f74-5f57-4656-9c64-65722e6b6963,rev?*
G04 #@! TF.SameCoordinates,Original*
G04 #@! TF.FileFunction,Paste,Top*
G04 #@! TF.FilePolarity,Positive*
%FSLAX46Y46*%
G04 Gerber Fmt 4.6, Leading zero omitted, Abs format (unit mm)*
G04 Created by KiCad (PCBNEW 5.99.0-unknown-281d77f~100~ubuntu18.04.1) date 2019-10-03 19:58:34*
%MOMM*%
%LPD*%
G04 APERTURE LIST*
%ADD10R,5.250000X4.550000*%
%ADD11R,0.800000X4.600000*%
%ADD12R,1.450000X0.450000*%
%ADD13C,0.100000*%
%ADD14C,0.875000*%
%ADD15R,0.650000X1.060000*%
%ADD16C,0.975000*%
%ADD17C,1.250000*%
%ADD18R,1.500000X2.000000*%
%ADD19R,3.800000X2.000000*%
%ADD20R,1.800000X2.500000*%
%ADD21R,0.900000X0.800000*%
%ADD22R,0.800000X0.900000*%
%ADD23R,2.500000X1.800000*%
%ADD24R,3.300000X2.500000*%
G04 APERTURE END LIST*
D10*
X174775000Y-126050000D03*
X169225000Y-121200000D03*
X169225000Y-126050000D03*
X174775000Y-121200000D03*
D11*
X175810000Y-132775000D03*
X174540000Y-132775000D03*
X173270000Y-132775000D03*
X170730000Y-132775000D03*
X169460000Y-132775000D03*
X168190000Y-132775000D03*
D12*
X128750000Y-162475000D03*
X128750000Y-163125000D03*
X128750000Y-163775000D03*
X128750000Y-164425000D03*
X128750000Y-165075000D03*
X128750000Y-165725000D03*
X128750000Y-166375000D03*
X128750000Y-167025000D03*
X128750000Y-167675000D03*
X128750000Y-168325000D03*
X122850000Y-168325000D03*
X122850000Y-167675000D03*
X122850000Y-167025000D03*
X122850000Y-166375000D03*
X122850000Y-165725000D03*
X122850000Y-165075000D03*
X122850000Y-164425000D03*
X122850000Y-163775000D03*
X122850000Y-163125000D03*
X122850000Y-162475000D03*
D13*
G36*
X132089962Y-175541651D02*
G01*
X132160930Y-175589070D01*
X132208349Y-175660038D01*
X132225000Y-175743750D01*
X132225000Y-176256250D01*
X132208349Y-176339962D01*
X132160930Y-176410930D01*
X132089962Y-176458349D01*
X132006250Y-176475000D01*
X131568750Y-176475000D01*
X131485038Y-176458349D01*
X131414070Y-176410930D01*
X131366651Y-176339962D01*
X131350000Y-176256250D01*
X131350000Y-175743750D01*
X131366651Y-175660038D01*
X131414070Y-175589070D01*
X131485038Y-175541651D01*
X131568750Y-175525000D01*
X132006250Y-175525000D01*
X132089962Y-175541651D01*
X132089962Y-175541651D01*
G37*
D14*
X131787500Y-176000000D03*
D13*
G36*
X130514962Y-175541651D02*
G01*
X130585930Y-175589070D01*
X130633349Y-175660038D01*
X130650000Y-175743750D01*
X130650000Y-176256250D01*
X130633349Y-176339962D01*
X130585930Y-176410930D01*
X130514962Y-176458349D01*
X130431250Y-176475000D01*
X129993750Y-176475000D01*
X129910038Y-176458349D01*
X129839070Y-176410930D01*
X129791651Y-176339962D01*
X129775000Y-176256250D01*
X129775000Y-175743750D01*
X129791651Y-175660038D01*
X129839070Y-175589070D01*
X129910038Y-175541651D01*
X129993750Y-175525000D01*
X130431250Y-175525000D01*
X130514962Y-175541651D01*
X130514962Y-175541651D01*
G37*
D14*
X130212500Y-176000000D03*
D13*
G36*
X117514962Y-163741651D02*
G01*
X117585930Y-163789070D01*
X117633349Y-163860038D01*
X117650000Y-163943750D01*
X117650000Y-164456250D01*
X117633349Y-164539962D01*
X117585930Y-164610930D01*
X117514962Y-164658349D01*
X117431250Y-164675000D01*
X116993750Y-164675000D01*
X116910038Y-164658349D01*
X116839070Y-164610930D01*
X116791651Y-164539962D01*
X116775000Y-164456250D01*
X116775000Y-163943750D01*
X116791651Y-163860038D01*
X116839070Y-163789070D01*
X116910038Y-163741651D01*
X116993750Y-163725000D01*
X117431250Y-163725000D01*
X117514962Y-163741651D01*
X117514962Y-163741651D01*
G37*
D14*
X117212500Y-164200000D03*
D13*
G36*
X119089962Y-163741651D02*
G01*
X119160930Y-163789070D01*
X119208349Y-163860038D01*
X119225000Y-163943750D01*
X119225000Y-164456250D01*
X119208349Y-164539962D01*
X119160930Y-164610930D01*
X119089962Y-164658349D01*
X119006250Y-164675000D01*
X118568750Y-164675000D01*
X118485038Y-164658349D01*
X118414070Y-164610930D01*
X118366651Y-164539962D01*
X118350000Y-164456250D01*
X118350000Y-163943750D01*
X118366651Y-163860038D01*
X118414070Y-163789070D01*
X118485038Y-163741651D01*
X118568750Y-163725000D01*
X119006250Y-163725000D01*
X119089962Y-163741651D01*
X119089962Y-163741651D01*
G37*
D14*
X118787500Y-164200000D03*
D13*
G36*
X119089962Y-166941651D02*
G01*
X119160930Y-166989070D01*
X119208349Y-167060038D01*
X119225000Y-167143750D01*
X119225000Y-167656250D01*
X119208349Y-167739962D01*
X119160930Y-167810930D01*
X119089962Y-167858349D01*
X119006250Y-167875000D01*
X118568750Y-167875000D01*
X118485038Y-167858349D01*
X118414070Y-167810930D01*
X118366651Y-167739962D01*
X118350000Y-167656250D01*
X118350000Y-167143750D01*
X118366651Y-167060038D01*
X118414070Y-166989070D01*
X118485038Y-166941651D01*
X118568750Y-166925000D01*
X119006250Y-166925000D01*
X119089962Y-166941651D01*
X119089962Y-166941651D01*
G37*
D14*
X118787500Y-167400000D03*
D13*
G36*
X117514962Y-166941651D02*
G01*
X117585930Y-166989070D01*
X117633349Y-167060038D01*
X117650000Y-167143750D01*
X117650000Y-167656250D01*
X117633349Y-167739962D01*
X117585930Y-167810930D01*
X117514962Y-167858349D01*
X117431250Y-167875000D01*
X116993750Y-167875000D01*
X116910038Y-167858349D01*
X116839070Y-167810930D01*
X116791651Y-167739962D01*
X116775000Y-167656250D01*
X116775000Y-167143750D01*
X116791651Y-167060038D01*
X116839070Y-166989070D01*
X116910038Y-166941651D01*
X116993750Y-166925000D01*
X117431250Y-166925000D01*
X117514962Y-166941651D01*
X117514962Y-166941651D01*
G37*
D14*
X117212500Y-167400000D03*
D13*
G36*
X117514962Y-165341651D02*
G01*
X117585930Y-165389070D01*
X117633349Y-165460038D01*
X117650000Y-165543750D01*
X117650000Y-166056250D01*
X117633349Y-166139962D01*
X117585930Y-166210930D01*
X117514962Y-166258349D01*
X117431250Y-166275000D01*
X116993750Y-166275000D01*
X116910038Y-166258349D01*
X116839070Y-166210930D01*
X116791651Y-166139962D01*
X116775000Y-166056250D01*
X116775000Y-165543750D01*
X116791651Y-165460038D01*
X116839070Y-165389070D01*
X116910038Y-165341651D01*
X116993750Y-165325000D01*
X117431250Y-165325000D01*
X117514962Y-165341651D01*
X117514962Y-165341651D01*
G37*
D14*
X117212500Y-165800000D03*
D13*
G36*
X119089962Y-165341651D02*
G01*
X119160930Y-165389070D01*
X119208349Y-165460038D01*
X119225000Y-165543750D01*
X119225000Y-166056250D01*
X119208349Y-166139962D01*
X119160930Y-166210930D01*
X119089962Y-166258349D01*
X119006250Y-166275000D01*
X118568750Y-166275000D01*
X118485038Y-166258349D01*
X118414070Y-166210930D01*
X118366651Y-166139962D01*
X118350000Y-166056250D01*
X118350000Y-165543750D01*
X118366651Y-165460038D01*
X118414070Y-165389070D01*
X118485038Y-165341651D01*
X118568750Y-165325000D01*
X119006250Y-165325000D01*
X119089962Y-165341651D01*
X119089962Y-165341651D01*
G37*
D14*
X118787500Y-165800000D03*
D13*
G36*
X132539962Y-163191651D02*
G01*
X132610930Y-163239070D01*
X132658349Y-163310038D01*
X132675000Y-163393750D01*
X132675000Y-163831250D01*
X132658349Y-163914962D01*
X132610930Y-163985930D01*
X132539962Y-164033349D01*
X132456250Y-164050000D01*
X131943750Y-164050000D01*
X131860038Y-164033349D01*
X131789070Y-163985930D01*
X131741651Y-163914962D01*
X131725000Y-163831250D01*
X131725000Y-163393750D01*
X131741651Y-163310038D01*
X131789070Y-163239070D01*
X131860038Y-163191651D01*
X131943750Y-163175000D01*
X132456250Y-163175000D01*
X132539962Y-163191651D01*
X132539962Y-163191651D01*
G37*
D14*
X132200000Y-163612500D03*
D13*
G36*
X132539962Y-164766651D02*
G01*
X132610930Y-164814070D01*
X132658349Y-164885038D01*
X132675000Y-164968750D01*
X132675000Y-165406250D01*
X132658349Y-165489962D01*
X132610930Y-165560930D01*
X132539962Y-165608349D01*
X132456250Y-165625000D01*
X131943750Y-165625000D01*
X131860038Y-165608349D01*
X131789070Y-165560930D01*
X131741651Y-165489962D01*
X131725000Y-165406250D01*
X131725000Y-164968750D01*
X131741651Y-164885038D01*
X131789070Y-164814070D01*
X131860038Y-164766651D01*
X131943750Y-164750000D01*
X132456250Y-164750000D01*
X132539962Y-164766651D01*
X132539962Y-164766651D01*
G37*
D14*
X132200000Y-165187500D03*
D13*
G36*
X117514962Y-162141651D02*
G01*
X117585930Y-162189070D01*
X117633349Y-162260038D01*
X117650000Y-162343750D01*
X117650000Y-162856250D01*
X117633349Y-162939962D01*
X117585930Y-163010930D01*
X117514962Y-163058349D01*
X117431250Y-163075000D01*
X116993750Y-163075000D01*
X116910038Y-163058349D01*
X116839070Y-163010930D01*
X116791651Y-162939962D01*
X116775000Y-162856250D01*
X116775000Y-162343750D01*
X116791651Y-162260038D01*
X116839070Y-162189070D01*
X116910038Y-162141651D01*
X116993750Y-162125000D01*
X117431250Y-162125000D01*
X117514962Y-162141651D01*
X117514962Y-162141651D01*
G37*
D14*
X117212500Y-162600000D03*
D13*
G36*
X119089962Y-162141651D02*
G01*
X119160930Y-162189070D01*
X119208349Y-162260038D01*
X119225000Y-162343750D01*
X119225000Y-162856250D01*
X119208349Y-162939962D01*
X119160930Y-163010930D01*
X119089962Y-163058349D01*
X119006250Y-163075000D01*
X118568750Y-163075000D01*
X118485038Y-163058349D01*
X118414070Y-163010930D01*
X118366651Y-162939962D01*
X118350000Y-162856250D01*
X118350000Y-162343750D01*
X118366651Y-162260038D01*
X118414070Y-162189070D01*
X118485038Y-162141651D01*
X118568750Y-162125000D01*
X119006250Y-162125000D01*
X119089962Y-162141651D01*
X119089962Y-162141651D01*
G37*
D14*
X118787500Y-162600000D03*
D15*
X139850000Y-168300000D03*
X141750000Y-168300000D03*
X141750000Y-170500000D03*
X140800000Y-170500000D03*
X139850000Y-170500000D03*
D13*
G36*
X143939962Y-169766651D02*
G01*
X144010930Y-169814070D01*
X144058349Y-169885038D01*
X144075000Y-169968750D01*
X144075000Y-170406250D01*
X144058349Y-170489962D01*
X144010930Y-170560930D01*
X143939962Y-170608349D01*
X143856250Y-170625000D01*
X143343750Y-170625000D01*
X143260038Y-170608349D01*
X143189070Y-170560930D01*
X143141651Y-170489962D01*
X143125000Y-170406250D01*
X143125000Y-169968750D01*
X143141651Y-169885038D01*
X143189070Y-169814070D01*
X143260038Y-169766651D01*
X143343750Y-169750000D01*
X143856250Y-169750000D01*
X143939962Y-169766651D01*
X143939962Y-169766651D01*
G37*
D14*
X143600000Y-170187500D03*
D13*
G36*
X143939962Y-168191651D02*
G01*
X144010930Y-168239070D01*
X144058349Y-168310038D01*
X144075000Y-168393750D01*
X144075000Y-168831250D01*
X144058349Y-168914962D01*
X144010930Y-168985930D01*
X143939962Y-169033349D01*
X143856250Y-169050000D01*
X143343750Y-169050000D01*
X143260038Y-169033349D01*
X143189070Y-168985930D01*
X143141651Y-168914962D01*
X143125000Y-168831250D01*
X143125000Y-168393750D01*
X143141651Y-168310038D01*
X143189070Y-168239070D01*
X143260038Y-168191651D01*
X143343750Y-168175000D01*
X143856250Y-168175000D01*
X143939962Y-168191651D01*
X143939962Y-168191651D01*
G37*
D14*
X143600000Y-168612500D03*
D13*
G36*
X138339962Y-169766651D02*
G01*
X138410930Y-169814070D01*
X138458349Y-169885038D01*
X138475000Y-169968750D01*
X138475000Y-170406250D01*
X138458349Y-170489962D01*
X138410930Y-170560930D01*
X138339962Y-170608349D01*
X138256250Y-170625000D01*
X137743750Y-170625000D01*
X137660038Y-170608349D01*
X137589070Y-170560930D01*
X137541651Y-170489962D01*
X137525000Y-170406250D01*
X137525000Y-169968750D01*
X137541651Y-169885038D01*
X137589070Y-169814070D01*
X137660038Y-169766651D01*
X137743750Y-169750000D01*
X138256250Y-169750000D01*
X138339962Y-169766651D01*
X138339962Y-169766651D01*
G37*
D14*
X138000000Y-170187500D03*
D13*
G36*
X138339962Y-168191651D02*
G01*
X138410930Y-168239070D01*
X138458349Y-168310038D01*
X138475000Y-168393750D01*
X138475000Y-168831250D01*
X138458349Y-168914962D01*
X138410930Y-168985930D01*
X138339962Y-169033349D01*
X138256250Y-169050000D01*
X137743750Y-169050000D01*
X137660038Y-169033349D01*
X137589070Y-168985930D01*
X137541651Y-168914962D01*
X137525000Y-168831250D01*
X137525000Y-168393750D01*
X137541651Y-168310038D01*
X137589070Y-168239070D01*
X137660038Y-168191651D01*
X137743750Y-168175000D01*
X138256250Y-168175000D01*
X138339962Y-168191651D01*
X138339962Y-168191651D01*
G37*
D14*
X138000000Y-168612500D03*
D13*
G36*
X112949529Y-164193554D02*
G01*
X113028607Y-164246393D01*
X113081446Y-164325471D01*
X113100000Y-164418750D01*
X113100000Y-164906250D01*
X113081446Y-164999529D01*
X113028607Y-165078607D01*
X112949529Y-165131446D01*
X112856250Y-165150000D01*
X111943750Y-165150000D01*
X111850471Y-165131446D01*
X111771393Y-165078607D01*
X111718554Y-164999529D01*
X111700000Y-164906250D01*
X111700000Y-164418750D01*
X111718554Y-164325471D01*
X111771393Y-164246393D01*
X111850471Y-164193554D01*
X111943750Y-164175000D01*
X112856250Y-164175000D01*
X112949529Y-164193554D01*
X112949529Y-164193554D01*
G37*
D16*
X112400000Y-164662500D03*
D13*
G36*
X112949529Y-166068554D02*
G01*
X113028607Y-166121393D01*
X113081446Y-166200471D01*
X113100000Y-166293750D01*
X113100000Y-166781250D01*
X113081446Y-166874529D01*
X113028607Y-166953607D01*
X112949529Y-167006446D01*
X112856250Y-167025000D01*
X111943750Y-167025000D01*
X111850471Y-167006446D01*
X111771393Y-166953607D01*
X111718554Y-166874529D01*
X111700000Y-166781250D01*
X111700000Y-166293750D01*
X111718554Y-166200471D01*
X111771393Y-166121393D01*
X111850471Y-166068554D01*
X111943750Y-166050000D01*
X112856250Y-166050000D01*
X112949529Y-166068554D01*
X112949529Y-166068554D01*
G37*
D16*
X112400000Y-166537500D03*
D13*
G36*
X110720671Y-162994030D02*
G01*
X110801777Y-163048223D01*
X110855970Y-163129329D01*
X110875000Y-163225000D01*
X110875000Y-163975000D01*
X110855970Y-164070671D01*
X110801777Y-164151777D01*
X110720671Y-164205970D01*
X110625000Y-164225000D01*
X109375000Y-164225000D01*
X109279329Y-164205970D01*
X109198223Y-164151777D01*
X109144030Y-164070671D01*
X109125000Y-163975000D01*
X109125000Y-163225000D01*
X109144030Y-163129329D01*
X109198223Y-163048223D01*
X109279329Y-162994030D01*
X109375000Y-162975000D01*
X110625000Y-162975000D01*
X110720671Y-162994030D01*
X110720671Y-162994030D01*
G37*
D17*
X110000000Y-163600000D03*
D13*
G36*
X110720671Y-165794030D02*
G01*
X110801777Y-165848223D01*
X110855970Y-165929329D01*
X110875000Y-166025000D01*
X110875000Y-166775000D01*
X110855970Y-166870671D01*
X110801777Y-166951777D01*
X110720671Y-167005970D01*
X110625000Y-167025000D01*
X109375000Y-167025000D01*
X109279329Y-167005970D01*
X109198223Y-166951777D01*
X109144030Y-166870671D01*
X109125000Y-166775000D01*
X109125000Y-166025000D01*
X109144030Y-165929329D01*
X109198223Y-165848223D01*
X109279329Y-165794030D01*
X109375000Y-165775000D01*
X110625000Y-165775000D01*
X110720671Y-165794030D01*
X110720671Y-165794030D01*
G37*
D17*
X110000000Y-166400000D03*
D13*
G36*
X108149529Y-164193554D02*
G01*
X108228607Y-164246393D01*
X108281446Y-164325471D01*
X108300000Y-164418750D01*
X108300000Y-164906250D01*
X108281446Y-164999529D01*
X108228607Y-165078607D01*
X108149529Y-165131446D01*
X108056250Y-165150000D01*
X107143750Y-165150000D01*
X107050471Y-165131446D01*
X106971393Y-165078607D01*
X106918554Y-164999529D01*
X106900000Y-164906250D01*
X106900000Y-164418750D01*
X106918554Y-164325471D01*
X106971393Y-164246393D01*
X107050471Y-164193554D01*
X107143750Y-164175000D01*
X108056250Y-164175000D01*
X108149529Y-164193554D01*
X108149529Y-164193554D01*
G37*
D16*
X107600000Y-164662500D03*
D13*
G36*
X108149529Y-166068554D02*
G01*
X108228607Y-166121393D01*
X108281446Y-166200471D01*
X108300000Y-166293750D01*
X108300000Y-166781250D01*
X108281446Y-166874529D01*
X108228607Y-166953607D01*
X108149529Y-167006446D01*
X108056250Y-167025000D01*
X107143750Y-167025000D01*
X107050471Y-167006446D01*
X106971393Y-166953607D01*
X106918554Y-166874529D01*
X106900000Y-166781250D01*
X106900000Y-166293750D01*
X106918554Y-166200471D01*
X106971393Y-166121393D01*
X107050471Y-166068554D01*
X107143750Y-166050000D01*
X108056250Y-166050000D01*
X108149529Y-166068554D01*
X108149529Y-166068554D01*
G37*
D16*
X107600000Y-166537500D03*
D10*
X138775000Y-126050000D03*
X133225000Y-121200000D03*
X133225000Y-126050000D03*
X138775000Y-121200000D03*
D11*
X139810000Y-132775000D03*
X138540000Y-132775000D03*
X137270000Y-132775000D03*
X134730000Y-132775000D03*
X133460000Y-132775000D03*
X132190000Y-132775000D03*
D10*
X114775000Y-126050000D03*
X109225000Y-121200000D03*
X109225000Y-126050000D03*
X114775000Y-121200000D03*
D11*
X115810000Y-132775000D03*
X114540000Y-132775000D03*
X113270000Y-132775000D03*
X110730000Y-132775000D03*
X109460000Y-132775000D03*
X108190000Y-132775000D03*
D10*
X162775000Y-126050000D03*
X157225000Y-121200000D03*
X157225000Y-126050000D03*
X162775000Y-121200000D03*
D11*
X163810000Y-132775000D03*
X162540000Y-132775000D03*
X161270000Y-132775000D03*
X158730000Y-132775000D03*
X157460000Y-132775000D03*
X156190000Y-132775000D03*
D10*
X126775000Y-126050000D03*
X121225000Y-121200000D03*
X121225000Y-126050000D03*
X126775000Y-121200000D03*
D11*
X127810000Y-132775000D03*
X126540000Y-132775000D03*
X125270000Y-132775000D03*
X122730000Y-132775000D03*
X121460000Y-132775000D03*
X120190000Y-132775000D03*
D10*
X90775000Y-126050000D03*
X85225000Y-121200000D03*
X85225000Y-126050000D03*
X90775000Y-121200000D03*
D11*
X91810000Y-132775000D03*
X90540000Y-132775000D03*
X89270000Y-132775000D03*
X86730000Y-132775000D03*
X85460000Y-132775000D03*
X84190000Y-132775000D03*
D10*
X150775000Y-126050000D03*
X145225000Y-121200000D03*
X145225000Y-126050000D03*
X150775000Y-121200000D03*
D11*
X151810000Y-132775000D03*
X150540000Y-132775000D03*
X149270000Y-132775000D03*
X146730000Y-132775000D03*
X145460000Y-132775000D03*
X144190000Y-132775000D03*
D15*
X173000000Y-167900000D03*
X172050000Y-167900000D03*
X173950000Y-167900000D03*
X173950000Y-170100000D03*
X173000000Y-170100000D03*
X172050000Y-170100000D03*
D18*
X112300000Y-168850000D03*
X107700000Y-168850000D03*
X110000000Y-168850000D03*
D19*
X110000000Y-175150000D03*
D10*
X102775000Y-126050000D03*
X97225000Y-121200000D03*
X97225000Y-126050000D03*
X102775000Y-121200000D03*
D11*
X103810000Y-132775000D03*
X102540000Y-132775000D03*
X101270000Y-132775000D03*
X98730000Y-132775000D03*
X97460000Y-132775000D03*
X96190000Y-132775000D03*
D13*
G36*
X152089962Y-167541651D02*
G01*
X152160930Y-167589070D01*
X152208349Y-167660038D01*
X152225000Y-167743750D01*
X152225000Y-168256250D01*
X152208349Y-168339962D01*
X152160930Y-168410930D01*
X152089962Y-168458349D01*
X152006250Y-168475000D01*
X151568750Y-168475000D01*
X151485038Y-168458349D01*
X151414070Y-168410930D01*
X151366651Y-168339962D01*
X151350000Y-168256250D01*
X151350000Y-167743750D01*
X151366651Y-167660038D01*
X151414070Y-167589070D01*
X151485038Y-167541651D01*
X151568750Y-167525000D01*
X152006250Y-167525000D01*
X152089962Y-167541651D01*
X152089962Y-167541651D01*
G37*
D14*
X151787500Y-168000000D03*
D13*
G36*
X150514962Y-167541651D02*
G01*
X150585930Y-167589070D01*
X150633349Y-167660038D01*
X150650000Y-167743750D01*
X150650000Y-168256250D01*
X150633349Y-168339962D01*
X150585930Y-168410930D01*
X150514962Y-168458349D01*
X150431250Y-168475000D01*
X149993750Y-168475000D01*
X149910038Y-168458349D01*
X149839070Y-168410930D01*
X149791651Y-168339962D01*
X149775000Y-168256250D01*
X149775000Y-167743750D01*
X149791651Y-167660038D01*
X149839070Y-167589070D01*
X149910038Y-167541651D01*
X149993750Y-167525000D01*
X150431250Y-167525000D01*
X150514962Y-167541651D01*
X150514962Y-167541651D01*
G37*
D14*
X150212500Y-168000000D03*
D13*
G36*
X152089962Y-164341651D02*
G01*
X152160930Y-164389070D01*
X152208349Y-164460038D01*
X152225000Y-164543750D01*
X152225000Y-165056250D01*
X152208349Y-165139962D01*
X152160930Y-165210930D01*
X152089962Y-165258349D01*
X152006250Y-165275000D01*
X151568750Y-165275000D01*
X151485038Y-165258349D01*
X151414070Y-165210930D01*
X151366651Y-165139962D01*
X151350000Y-165056250D01*
X151350000Y-164543750D01*
X151366651Y-164460038D01*
X151414070Y-164389070D01*
X151485038Y-164341651D01*
X151568750Y-164325000D01*
X152006250Y-164325000D01*
X152089962Y-164341651D01*
X152089962Y-164341651D01*
G37*
D14*
X151787500Y-164800000D03*
D13*
G36*
X150514962Y-164341651D02*
G01*
X150585930Y-164389070D01*
X150633349Y-164460038D01*
X150650000Y-164543750D01*
X150650000Y-165056250D01*
X150633349Y-165139962D01*
X150585930Y-165210930D01*
X150514962Y-165258349D01*
X150431250Y-165275000D01*
X149993750Y-165275000D01*
X149910038Y-165258349D01*
X149839070Y-165210930D01*
X149791651Y-165139962D01*
X149775000Y-165056250D01*
X149775000Y-164543750D01*
X149791651Y-164460038D01*
X149839070Y-164389070D01*
X149910038Y-164341651D01*
X149993750Y-164325000D01*
X150431250Y-164325000D01*
X150514962Y-164341651D01*
X150514962Y-164341651D01*
G37*
D14*
X150212500Y-164800000D03*
D13*
G36*
X150514962Y-177141651D02*
G01*
X150585930Y-177189070D01*
X150633349Y-177260038D01*
X150650000Y-177343750D01*
X150650000Y-177856250D01*
X150633349Y-177939962D01*
X150585930Y-178010930D01*
X150514962Y-178058349D01*
X150431250Y-178075000D01*
X149993750Y-178075000D01*
X149910038Y-178058349D01*
X149839070Y-178010930D01*
X149791651Y-177939962D01*
X149775000Y-177856250D01*
X149775000Y-177343750D01*
X149791651Y-177260038D01*
X149839070Y-177189070D01*
X149910038Y-177141651D01*
X149993750Y-177125000D01*
X150431250Y-177125000D01*
X150514962Y-177141651D01*
X150514962Y-177141651D01*
G37*
D14*
X150212500Y-177600000D03*
D13*
G36*
X152089962Y-177141651D02*
G01*
X152160930Y-177189070D01*
X152208349Y-177260038D01*
X152225000Y-177343750D01*
X152225000Y-177856250D01*
X152208349Y-177939962D01*
X152160930Y-178010930D01*
X152089962Y-178058349D01*
X152006250Y-178075000D01*
X151568750Y-178075000D01*
X151485038Y-178058349D01*
X151414070Y-178010930D01*
X151366651Y-177939962D01*
X151350000Y-177856250D01*
X151350000Y-177343750D01*
X151366651Y-177260038D01*
X151414070Y-177189070D01*
X151485038Y-177141651D01*
X151568750Y-177125000D01*
X152006250Y-177125000D01*
X152089962Y-177141651D01*
X152089962Y-177141651D01*
G37*
D14*
X151787500Y-177600000D03*
D13*
G36*
X150514962Y-175541651D02*
G01*
X150585930Y-175589070D01*
X150633349Y-175660038D01*
X150650000Y-175743750D01*
X150650000Y-176256250D01*
X150633349Y-176339962D01*
X150585930Y-176410930D01*
X150514962Y-176458349D01*
X150431250Y-176475000D01*
X149993750Y-176475000D01*
X149910038Y-176458349D01*
X149839070Y-176410930D01*
X149791651Y-176339962D01*
X149775000Y-176256250D01*
X149775000Y-175743750D01*
X149791651Y-175660038D01*
X149839070Y-175589070D01*
X149910038Y-175541651D01*
X149993750Y-175525000D01*
X150431250Y-175525000D01*
X150514962Y-175541651D01*
X150514962Y-175541651D01*
G37*
D14*
X150212500Y-176000000D03*
D13*
G36*
X152089962Y-175541651D02*
G01*
X152160930Y-175589070D01*
X152208349Y-175660038D01*
X152225000Y-175743750D01*
X152225000Y-176256250D01*
X152208349Y-176339962D01*
X152160930Y-176410930D01*
X152089962Y-176458349D01*
X152006250Y-176475000D01*
X151568750Y-176475000D01*
X151485038Y-176458349D01*
X151414070Y-176410930D01*
X151366651Y-176339962D01*
X151350000Y-176256250D01*
X151350000Y-175743750D01*
X151366651Y-175660038D01*
X151414070Y-175589070D01*
X151485038Y-175541651D01*
X151568750Y-175525000D01*
X152006250Y-175525000D01*
X152089962Y-175541651D01*
X152089962Y-175541651D01*
G37*
D14*
X151787500Y-176000000D03*
D13*
G36*
X150514962Y-170741651D02*
G01*
X150585930Y-170789070D01*
X150633349Y-170860038D01*
X150650000Y-170943750D01*
X150650000Y-171456250D01*
X150633349Y-171539962D01*
X150585930Y-171610930D01*
X150514962Y-171658349D01*
X150431250Y-171675000D01*
X149993750Y-171675000D01*
X149910038Y-171658349D01*
X149839070Y-171610930D01*
X149791651Y-171539962D01*
X149775000Y-171456250D01*
X149775000Y-170943750D01*
X149791651Y-170860038D01*
X149839070Y-170789070D01*
X149910038Y-170741651D01*
X149993750Y-170725000D01*
X150431250Y-170725000D01*
X150514962Y-170741651D01*
X150514962Y-170741651D01*
G37*
D14*
X150212500Y-171200000D03*
D13*
G36*
X152089962Y-170741651D02*
G01*
X152160930Y-170789070D01*
X152208349Y-170860038D01*
X152225000Y-170943750D01*
X152225000Y-171456250D01*
X152208349Y-171539962D01*
X152160930Y-171610930D01*
X152089962Y-171658349D01*
X152006250Y-171675000D01*
X151568750Y-171675000D01*
X151485038Y-171658349D01*
X151414070Y-171610930D01*
X151366651Y-171539962D01*
X151350000Y-171456250D01*
X151350000Y-170943750D01*
X151366651Y-170860038D01*
X151414070Y-170789070D01*
X151485038Y-170741651D01*
X151568750Y-170725000D01*
X152006250Y-170725000D01*
X152089962Y-170741651D01*
X152089962Y-170741651D01*
G37*
D14*
X151787500Y-171200000D03*
D13*
G36*
X152089962Y-172341651D02*
G01*
X152160930Y-172389070D01*
X152208349Y-172460038D01*
X152225000Y-172543750D01*
X152225000Y-173056250D01*
X152208349Y-173139962D01*
X152160930Y-173210930D01*
X152089962Y-173258349D01*
X152006250Y-173275000D01*
X151568750Y-173275000D01*
X151485038Y-173258349D01*
X151414070Y-173210930D01*
X151366651Y-173139962D01*
X151350000Y-173056250D01*
X151350000Y-172543750D01*
X151366651Y-172460038D01*
X151414070Y-172389070D01*
X151485038Y-172341651D01*
X151568750Y-172325000D01*
X152006250Y-172325000D01*
X152089962Y-172341651D01*
X152089962Y-172341651D01*
G37*
D14*
X151787500Y-172800000D03*
D13*
G36*
X150514962Y-172341651D02*
G01*
X150585930Y-172389070D01*
X150633349Y-172460038D01*
X150650000Y-172543750D01*
X150650000Y-173056250D01*
X150633349Y-173139962D01*
X150585930Y-173210930D01*
X150514962Y-173258349D01*
X150431250Y-173275000D01*
X149993750Y-173275000D01*
X149910038Y-173258349D01*
X149839070Y-173210930D01*
X149791651Y-173139962D01*
X149775000Y-173056250D01*
X149775000Y-172543750D01*
X149791651Y-172460038D01*
X149839070Y-172389070D01*
X149910038Y-172341651D01*
X149993750Y-172325000D01*
X150431250Y-172325000D01*
X150514962Y-172341651D01*
X150514962Y-172341651D01*
G37*
D14*
X150212500Y-172800000D03*
D13*
G36*
X176339962Y-161791651D02*
G01*
X176410930Y-161839070D01*
X176458349Y-161910038D01*
X176475000Y-161993750D01*
X176475000Y-162431250D01*
X176458349Y-162514962D01*
X176410930Y-162585930D01*
X176339962Y-162633349D01*
X176256250Y-162650000D01*
X175743750Y-162650000D01*
X175660038Y-162633349D01*
X175589070Y-162585930D01*
X175541651Y-162514962D01*
X175525000Y-162431250D01*
X175525000Y-161993750D01*
X175541651Y-161910038D01*
X175589070Y-161839070D01*
X175660038Y-161791651D01*
X175743750Y-161775000D01*
X176256250Y-161775000D01*
X176339962Y-161791651D01*
X176339962Y-161791651D01*
G37*
D14*
X176000000Y-162212500D03*
D13*
G36*
X176339962Y-163366651D02*
G01*
X176410930Y-163414070D01*
X176458349Y-163485038D01*
X176475000Y-163568750D01*
X176475000Y-164006250D01*
X176458349Y-164089962D01*
X176410930Y-164160930D01*
X176339962Y-164208349D01*
X176256250Y-164225000D01*
X175743750Y-164225000D01*
X175660038Y-164208349D01*
X175589070Y-164160930D01*
X175541651Y-164089962D01*
X175525000Y-164006250D01*
X175525000Y-163568750D01*
X175541651Y-163485038D01*
X175589070Y-163414070D01*
X175660038Y-163366651D01*
X175743750Y-163350000D01*
X176256250Y-163350000D01*
X176339962Y-163366651D01*
X176339962Y-163366651D01*
G37*
D14*
X176000000Y-163787500D03*
D13*
G36*
X178339962Y-163366651D02*
G01*
X178410930Y-163414070D01*
X178458349Y-163485038D01*
X178475000Y-163568750D01*
X178475000Y-164006250D01*
X178458349Y-164089962D01*
X178410930Y-164160930D01*
X178339962Y-164208349D01*
X178256250Y-164225000D01*
X177743750Y-164225000D01*
X177660038Y-164208349D01*
X177589070Y-164160930D01*
X177541651Y-164089962D01*
X177525000Y-164006250D01*
X177525000Y-163568750D01*
X177541651Y-163485038D01*
X177589070Y-163414070D01*
X177660038Y-163366651D01*
X177743750Y-163350000D01*
X178256250Y-163350000D01*
X178339962Y-163366651D01*
X178339962Y-163366651D01*
G37*
D14*
X178000000Y-163787500D03*
D13*
G36*
X178339962Y-161791651D02*
G01*
X178410930Y-161839070D01*
X178458349Y-161910038D01*
X178475000Y-161993750D01*
X178475000Y-162431250D01*
X178458349Y-162514962D01*
X178410930Y-162585930D01*
X178339962Y-162633349D01*
X178256250Y-162650000D01*
X177743750Y-162650000D01*
X177660038Y-162633349D01*
X177589070Y-162585930D01*
X177541651Y-162514962D01*
X177525000Y-162431250D01*
X177525000Y-161993750D01*
X177541651Y-161910038D01*
X177589070Y-161839070D01*
X177660038Y-161791651D01*
X177743750Y-161775000D01*
X178256250Y-161775000D01*
X178339962Y-161791651D01*
X178339962Y-161791651D01*
G37*
D14*
X178000000Y-162212500D03*
D13*
G36*
X130514962Y-177141651D02*
G01*
X130585930Y-177189070D01*
X130633349Y-177260038D01*
X130650000Y-177343750D01*
X130650000Y-177856250D01*
X130633349Y-177939962D01*
X130585930Y-178010930D01*
X130514962Y-178058349D01*
X130431250Y-178075000D01*
X129993750Y-178075000D01*
X129910038Y-178058349D01*
X129839070Y-178010930D01*
X129791651Y-177939962D01*
X129775000Y-177856250D01*
X129775000Y-177343750D01*
X129791651Y-177260038D01*
X129839070Y-177189070D01*
X129910038Y-177141651D01*
X129993750Y-177125000D01*
X130431250Y-177125000D01*
X130514962Y-177141651D01*
X130514962Y-177141651D01*
G37*
D14*
X130212500Y-177600000D03*
D13*
G36*
X132089962Y-177141651D02*
G01*
X132160930Y-177189070D01*
X132208349Y-177260038D01*
X132225000Y-177343750D01*
X132225000Y-177856250D01*
X132208349Y-177939962D01*
X132160930Y-178010930D01*
X132089962Y-178058349D01*
X132006250Y-178075000D01*
X131568750Y-178075000D01*
X131485038Y-178058349D01*
X131414070Y-178010930D01*
X131366651Y-177939962D01*
X131350000Y-177856250D01*
X131350000Y-177343750D01*
X131366651Y-177260038D01*
X131414070Y-177189070D01*
X131485038Y-177141651D01*
X131568750Y-177125000D01*
X132006250Y-177125000D01*
X132089962Y-177141651D01*
X132089962Y-177141651D01*
G37*
D14*
X131787500Y-177600000D03*
D13*
G36*
X117539962Y-168791651D02*
G01*
X117610930Y-168839070D01*
X117658349Y-168910038D01*
X117675000Y-168993750D01*
X117675000Y-169431250D01*
X117658349Y-169514962D01*
X117610930Y-169585930D01*
X117539962Y-169633349D01*
X117456250Y-169650000D01*
X116943750Y-169650000D01*
X116860038Y-169633349D01*
X116789070Y-169585930D01*
X116741651Y-169514962D01*
X116725000Y-169431250D01*
X116725000Y-168993750D01*
X116741651Y-168910038D01*
X116789070Y-168839070D01*
X116860038Y-168791651D01*
X116943750Y-168775000D01*
X117456250Y-168775000D01*
X117539962Y-168791651D01*
X117539962Y-168791651D01*
G37*
D14*
X117200000Y-169212500D03*
D13*
G36*
X117539962Y-170366651D02*
G01*
X117610930Y-170414070D01*
X117658349Y-170485038D01*
X117675000Y-170568750D01*
X117675000Y-171006250D01*
X117658349Y-171089962D01*
X117610930Y-171160930D01*
X117539962Y-171208349D01*
X117456250Y-171225000D01*
X116943750Y-171225000D01*
X116860038Y-171208349D01*
X116789070Y-171160930D01*
X116741651Y-171089962D01*
X116725000Y-171006250D01*
X116725000Y-170568750D01*
X116741651Y-170485038D01*
X116789070Y-170414070D01*
X116860038Y-170366651D01*
X116943750Y-170350000D01*
X117456250Y-170350000D01*
X117539962Y-170366651D01*
X117539962Y-170366651D01*
G37*
D14*
X117200000Y-170787500D03*
D13*
G36*
X115939962Y-170366651D02*
G01*
X116010930Y-170414070D01*
X116058349Y-170485038D01*
X116075000Y-170568750D01*
X116075000Y-171006250D01*
X116058349Y-171089962D01*
X116010930Y-171160930D01*
X115939962Y-171208349D01*
X115856250Y-171225000D01*
X115343750Y-171225000D01*
X115260038Y-171208349D01*
X115189070Y-171160930D01*
X115141651Y-171089962D01*
X115125000Y-171006250D01*
X115125000Y-170568750D01*
X115141651Y-170485038D01*
X115189070Y-170414070D01*
X115260038Y-170366651D01*
X115343750Y-170350000D01*
X115856250Y-170350000D01*
X115939962Y-170366651D01*
X115939962Y-170366651D01*
G37*
D14*
X115600000Y-170787500D03*
D13*
G36*
X115939962Y-168791651D02*
G01*
X116010930Y-168839070D01*
X116058349Y-168910038D01*
X116075000Y-168993750D01*
X116075000Y-169431250D01*
X116058349Y-169514962D01*
X116010930Y-169585930D01*
X115939962Y-169633349D01*
X115856250Y-169650000D01*
X115343750Y-169650000D01*
X115260038Y-169633349D01*
X115189070Y-169585930D01*
X115141651Y-169514962D01*
X115125000Y-169431250D01*
X115125000Y-168993750D01*
X115141651Y-168910038D01*
X115189070Y-168839070D01*
X115260038Y-168791651D01*
X115343750Y-168775000D01*
X115856250Y-168775000D01*
X115939962Y-168791651D01*
X115939962Y-168791651D01*
G37*
D14*
X115600000Y-169212500D03*
D20*
X177000000Y-171000000D03*
X177000000Y-167000000D03*
D21*
X170000000Y-163000000D03*
X172000000Y-162050000D03*
X172000000Y-163950000D03*
D22*
X131000000Y-170800000D03*
X131950000Y-172800000D03*
X130050000Y-172800000D03*
D23*
X92000000Y-175000000D03*
X96000000Y-175000000D03*
D24*
X92000000Y-163600000D03*
X92000000Y-170400000D03*
D13*
G36*
X152089962Y-165941651D02*
G01*
X152160930Y-165989070D01*
X152208349Y-166060038D01*
X152225000Y-166143750D01*
X152225000Y-166656250D01*
X152208349Y-166739962D01*
X152160930Y-166810930D01*
X152089962Y-166858349D01*
X152006250Y-166875000D01*
X151568750Y-166875000D01*
X151485038Y-166858349D01*
X151414070Y-166810930D01*
X151366651Y-166739962D01*
X151350000Y-166656250D01*
X151350000Y-166143750D01*
X151366651Y-166060038D01*
X151414070Y-165989070D01*
X151485038Y-165941651D01*
X151568750Y-165925000D01*
X152006250Y-165925000D01*
X152089962Y-165941651D01*
X152089962Y-165941651D01*
G37*
D14*
X151787500Y-166400000D03*
D13*
G36*
X150514962Y-165941651D02*
G01*
X150585930Y-165989070D01*
X150633349Y-166060038D01*
X150650000Y-166143750D01*
X150650000Y-166656250D01*
X150633349Y-166739962D01*
X150585930Y-166810930D01*
X150514962Y-166858349D01*
X150431250Y-166875000D01*
X149993750Y-166875000D01*
X149910038Y-166858349D01*
X149839070Y-166810930D01*
X149791651Y-166739962D01*
X149775000Y-166656250D01*
X149775000Y-166143750D01*
X149791651Y-166060038D01*
X149839070Y-165989070D01*
X149910038Y-165941651D01*
X149993750Y-165925000D01*
X150431250Y-165925000D01*
X150514962Y-165941651D01*
X150514962Y-165941651D01*
G37*
D14*
X150212500Y-166400000D03*
D13*
G36*
X150514962Y-173941651D02*
G01*
X150585930Y-173989070D01*
X150633349Y-174060038D01*
X150650000Y-174143750D01*
X150650000Y-174656250D01*
X150633349Y-174739962D01*
X150585930Y-174810930D01*
X150514962Y-174858349D01*
X150431250Y-174875000D01*
X149993750Y-174875000D01*
X149910038Y-174858349D01*
X149839070Y-174810930D01*
X149791651Y-174739962D01*
X149775000Y-174656250D01*
X149775000Y-174143750D01*
X149791651Y-174060038D01*
X149839070Y-173989070D01*
X149910038Y-173941651D01*
X149993750Y-173925000D01*
X150431250Y-173925000D01*
X150514962Y-173941651D01*
X150514962Y-173941651D01*
G37*
D14*
X150212500Y-174400000D03*
D13*
G36*
X152089962Y-173941651D02*
G01*
X152160930Y-173989070D01*
X152208349Y-174060038D01*
X152225000Y-174143750D01*
X152225000Y-174656250D01*
X152208349Y-174739962D01*
X152160930Y-174810930D01*
X152089962Y-174858349D01*
X152006250Y-174875000D01*
X151568750Y-174875000D01*
X151485038Y-174858349D01*
X151414070Y-174810930D01*
X151366651Y-174739962D01*
X151350000Y-174656250D01*
X151350000Y-174143750D01*
X151366651Y-174060038D01*
X151414070Y-173989070D01*
X151485038Y-173941651D01*
X151568750Y-173925000D01*
X152006250Y-173925000D01*
X152089962Y-173941651D01*
X152089962Y-173941651D01*
G37*
D14*
X151787500Y-174400000D03*
D13*
G36*
X150514962Y-169141651D02*
G01*
X150585930Y-169189070D01*
X150633349Y-169260038D01*
X150650000Y-169343750D01*
X150650000Y-169856250D01*
X150633349Y-169939962D01*
X150585930Y-170010930D01*
X150514962Y-170058349D01*
X150431250Y-170075000D01*
X149993750Y-170075000D01*
X149910038Y-170058349D01*
X149839070Y-170010930D01*
X149791651Y-169939962D01*
X149775000Y-169856250D01*
X149775000Y-169343750D01*
X149791651Y-169260038D01*
X149839070Y-169189070D01*
X149910038Y-169141651D01*
X149993750Y-169125000D01*
X150431250Y-169125000D01*
X150514962Y-169141651D01*
X150514962Y-169141651D01*
G37*
D14*
X150212500Y-169600000D03*
D13*
G36*
X152089962Y-169141651D02*
G01*
X152160930Y-169189070D01*
X152208349Y-169260038D01*
X152225000Y-169343750D01*
X152225000Y-169856250D01*
X152208349Y-169939962D01*
X152160930Y-170010930D01*
X152089962Y-170058349D01*
X152006250Y-170075000D01*
X151568750Y-170075000D01*
X151485038Y-170058349D01*
X151414070Y-170010930D01*
X151366651Y-169939962D01*
X151350000Y-169856250D01*
X151350000Y-169343750D01*
X151366651Y-169260038D01*
X151414070Y-169189070D01*
X151485038Y-169141651D01*
X151568750Y-169125000D01*
X152006250Y-169125000D01*
X152089962Y-169141651D01*
X152089962Y-169141651D01*
G37*
D14*
X151787500Y-169600000D03*
D13*
G36*
X174339962Y-161791651D02*
G01*
X174410930Y-161839070D01*
X174458349Y-161910038D01*
X174475000Y-161993750D01*
X174475000Y-162431250D01*
X174458349Y-162514962D01*
X174410930Y-162585930D01*
X174339962Y-162633349D01*
X174256250Y-162650000D01*
X173743750Y-162650000D01*
X173660038Y-162633349D01*
X173589070Y-162585930D01*
X173541651Y-162514962D01*
X173525000Y-162431250D01*
X173525000Y-161993750D01*
X173541651Y-161910038D01*
X173589070Y-161839070D01*
X173660038Y-161791651D01*
X173743750Y-161775000D01*
X174256250Y-161775000D01*
X174339962Y-161791651D01*
X174339962Y-161791651D01*
G37*
D14*
X174000000Y-162212500D03*
D13*
G36*
X174339962Y-163366651D02*
G01*
X174410930Y-163414070D01*
X174458349Y-163485038D01*
X174475000Y-163568750D01*
X174475000Y-164006250D01*
X174458349Y-164089962D01*
X174410930Y-164160930D01*
X174339962Y-164208349D01*
X174256250Y-164225000D01*
X173743750Y-164225000D01*
X173660038Y-164208349D01*
X173589070Y-164160930D01*
X173541651Y-164089962D01*
X173525000Y-164006250D01*
X173525000Y-163568750D01*
X173541651Y-163485038D01*
X173589070Y-163414070D01*
X173660038Y-163366651D01*
X173743750Y-163350000D01*
X174256250Y-163350000D01*
X174339962Y-163366651D01*
X174339962Y-163366651D01*
G37*
D14*
X174000000Y-163787500D03*
D13*
G36*
X132089962Y-173941651D02*
G01*
X132160930Y-173989070D01*
X132208349Y-174060038D01*
X132225000Y-174143750D01*
X132225000Y-174656250D01*
X132208349Y-174739962D01*
X132160930Y-174810930D01*
X132089962Y-174858349D01*
X132006250Y-174875000D01*
X131568750Y-174875000D01*
X131485038Y-174858349D01*
X131414070Y-174810930D01*
X131366651Y-174739962D01*
X131350000Y-174656250D01*
X131350000Y-174143750D01*
X131366651Y-174060038D01*
X131414070Y-173989070D01*
X131485038Y-173941651D01*
X131568750Y-173925000D01*
X132006250Y-173925000D01*
X132089962Y-173941651D01*
X132089962Y-173941651D01*
G37*
D14*
X131787500Y-174400000D03*
D13*
G36*
X130514962Y-173941651D02*
G01*
X130585930Y-173989070D01*
X130633349Y-174060038D01*
X130650000Y-174143750D01*
X130650000Y-174656250D01*
X130633349Y-174739962D01*
X130585930Y-174810930D01*
X130514962Y-174858349D01*
X130431250Y-174875000D01*
X129993750Y-174875000D01*
X129910038Y-174858349D01*
X129839070Y-174810930D01*
X129791651Y-174739962D01*
X129775000Y-174656250D01*
X129775000Y-174143750D01*
X129791651Y-174060038D01*
X129839070Y-173989070D01*
X129910038Y-173941651D01*
X129993750Y-173925000D01*
X130431250Y-173925000D01*
X130514962Y-173941651D01*
X130514962Y-173941651D01*
G37*
D14*
X130212500Y-174400000D03*
D13*
G36*
X119139962Y-168791651D02*
G01*
X119210930Y-168839070D01*
X119258349Y-168910038D01*
X119275000Y-168993750D01*
X119275000Y-169431250D01*
X119258349Y-169514962D01*
X119210930Y-169585930D01*
X119139962Y-169633349D01*
X119056250Y-169650000D01*
X118543750Y-169650000D01*
X118460038Y-169633349D01*
X118389070Y-169585930D01*
X118341651Y-169514962D01*
X118325000Y-169431250D01*
X118325000Y-168993750D01*
X118341651Y-168910038D01*
X118389070Y-168839070D01*
X118460038Y-168791651D01*
X118543750Y-168775000D01*
X119056250Y-168775000D01*
X119139962Y-168791651D01*
X119139962Y-168791651D01*
G37*
D14*
X118800000Y-169212500D03*
D13*
G36*
X119139962Y-170366651D02*
G01*
X119210930Y-170414070D01*
X119258349Y-170485038D01*
X119275000Y-170568750D01*
X119275000Y-171006250D01*
X119258349Y-171089962D01*
X119210930Y-171160930D01*
X119139962Y-171208349D01*
X119056250Y-171225000D01*
X118543750Y-171225000D01*
X118460038Y-171208349D01*
X118389070Y-171160930D01*
X118341651Y-171089962D01*
X118325000Y-171006250D01*
X118325000Y-170568750D01*
X118341651Y-170485038D01*
X118389070Y-170414070D01*
X118460038Y-170366651D01*
X118543750Y-170350000D01*
X119056250Y-170350000D01*
X119139962Y-170366651D01*
X119139962Y-170366651D01*
G37*
D14*
X118800000Y-170787500D03*
D13*
G36*
X104014962Y-174541651D02*
G01*
X104085930Y-174589070D01*
X104133349Y-174660038D01*
X104150000Y-174743750D01*
X104150000Y-175256250D01*
X104133349Y-175339962D01*
X104085930Y-175410930D01*
X104014962Y-175458349D01*
X103931250Y-175475000D01*
X103493750Y-175475000D01*
X103410038Y-175458349D01*
X103339070Y-175410930D01*
X103291651Y-175339962D01*
X103275000Y-175256250D01*
X103275000Y-174743750D01*
X103291651Y-174660038D01*
X103339070Y-174589070D01*
X103410038Y-174541651D01*
X103493750Y-174525000D01*
X103931250Y-174525000D01*
X104014962Y-174541651D01*
X104014962Y-174541651D01*
G37*
D14*
X103712500Y-175000000D03*
D13*
G36*
X105589962Y-174541651D02*
G01*
X105660930Y-174589070D01*
X105708349Y-174660038D01*
X105725000Y-174743750D01*
X105725000Y-175256250D01*
X105708349Y-175339962D01*
X105660930Y-175410930D01*
X105589962Y-175458349D01*
X105506250Y-175475000D01*
X105068750Y-175475000D01*
X104985038Y-175458349D01*
X104914070Y-175410930D01*
X104866651Y-175339962D01*
X104850000Y-175256250D01*
X104850000Y-174743750D01*
X104866651Y-174660038D01*
X104914070Y-174589070D01*
X104985038Y-174541651D01*
X105068750Y-174525000D01*
X105506250Y-174525000D01*
X105589962Y-174541651D01*
X105589962Y-174541651D01*
G37*
D14*
X105287500Y-175000000D03*
D13*
G36*
X104014962Y-173041651D02*
G01*
X104085930Y-173089070D01*
X104133349Y-173160038D01*
X104150000Y-173243750D01*
X104150000Y-173756250D01*
X104133349Y-173839962D01*
X104085930Y-173910930D01*
X104014962Y-173958349D01*
X103931250Y-173975000D01*
X103493750Y-173975000D01*
X103410038Y-173958349D01*
X103339070Y-173910930D01*
X103291651Y-173839962D01*
X103275000Y-173756250D01*
X103275000Y-173243750D01*
X103291651Y-173160038D01*
X103339070Y-173089070D01*
X103410038Y-173041651D01*
X103493750Y-173025000D01*
X103931250Y-173025000D01*
X104014962Y-173041651D01*
X104014962Y-173041651D01*
G37*
D14*
X103712500Y-173500000D03*
D13*
G36*
X105589962Y-173041651D02*
G01*
X105660930Y-173089070D01*
X105708349Y-173160038D01*
X105725000Y-173243750D01*
X105725000Y-173756250D01*
X105708349Y-173839962D01*
X105660930Y-173910930D01*
X105589962Y-173958349D01*
X105506250Y-173975000D01*
X105068750Y-173975000D01*
X104985038Y-173958349D01*
X104914070Y-173910930D01*
X104866651Y-173839962D01*
X104850000Y-173756250D01*
X104850000Y-173243750D01*
X104866651Y-173160038D01*
X104914070Y-173089070D01*
X104985038Y-173041651D01*
X105068750Y-173025000D01*
X105506250Y-173025000D01*
X105589962Y-173041651D01*
X105589962Y-173041651D01*
G37*
D14*
X105287500Y-173500000D03*
M02*
